<?xml version="1.0" encoding="UTF-8" standalone="no"?>
<!-- Created with Inkscape (http://www.inkscape.org/) -->

<svg
   version="1.1"
   id="svg2"
   width="266.07458"
   height="126.5335"
   viewBox="0 0 266.07458 126.53351"
   xmlns="http://www.w3.org/2000/svg"
   xmlns:svg="http://www.w3.org/2000/svg">
  <defs
     id="defs6" />
  <g
     id="g8"
     transform="matrix(1.3333333,0,0,-1.3333333,-972.12472,696.25732)">
    <g
       id="g10"
       transform="scale(0.1)">
      <path
         d="m 9205.0713,5157.35 c -10.09,3.44 -20.45,6 -30.71,8.89 -10.8,3.04 -21.62,6.1 -32.42,9.16 -8.24,2.34 -16.48,4.74 -24.81,6.77 -8.72,2.13 -17.47,4.05 -26.27,5.79 -0.23,0.05 -0.46,0.08 -0.69,0.13 0,-3.48 0,-6.95 0.01,-10.42 0.03,-4.78 0.04,-9.56 0.27,-14.34 0.24,-5.01 0.76,-9.98 1.35,-14.97 0.86,-5.93 1.89,-11.82 3.36,-17.63 1.71,-6.84 3.69,-13.61 5.77,-20.34 2.01,-6.51 4.3,-12.93 6.5,-19.37 2.02,-5.94 4.15,-11.83 6.4,-17.69 3.56,-7.86 7.51,-15.52 11.49,-23.19 2.15,-4.12 4.33,-8.24 6.51,-12.37 2.18,-4.12 4.03,-8.48 6.35,-12.53 4.79,-8.36 9.88,-16.5 15.37,-24.41 2.74,-3.94 5.38,-7.97 7.97,-12.01 2.22,-3.44 4.54,-6.75 6.99,-10.01 3.33,-3.72 6.81,-7.28 10.23,-10.92 4,-4.25 7.8,-8.72 11.67,-13.09 0.26,-0.29 0.39,-0.64 0.62,-0.94 0.38,0.58 0.81,1.13 1.16,1.73 1.31,2.24 2.61,4.49 3.93,6.74 1.21,2.08 2.17,4.34 3.24,6.49 1.06,2.11 2.07,4.26 3.1,6.4 1.82,3.77 3.56,7.58 5.26,11.41 3.85,9.43 7.5,18.92 11.17,28.42 3.89,10.08 7.65,20.17 11.02,30.44 1.64,4.99 3.35,9.96 5.06,14.92 1.77,5.14 3.09,10.38 4.4,15.64 1.28,5.17 2.68,10.31 4.02,15.46 1.32,5.14 2.41,10.32 3.41,15.52 1.39,7.35 2.74,14.69 4.33,22 0.72,3.29 1.7,6.56 2.66,9.79 0.07,0.23 0.14,0.46 0.2,0.7 -0.31,0.12 -0.63,0.24 -0.94,0.37 -5.05,1.99 -10.08,3.97 -15.17,5.85 -10.89,4 -21.82,7.87 -32.81,11.61 z m -196.19,42.14 c -10.41,0.88 -20.88,1.18 -31.32,1.31 -11.76,0.13 -23.51,0.17 -35.28,0.18 -10.77,0.01 -21.56,0.08 -32.33,-0.3 -15.42,-0.55 -30.7,-2.04 -46,-3.95 -10.94,-1.62 -21.83,-3.32 -32.67,-5.54 -10.68,-2.17 -21.22,-5.19 -31.7,-8.18 -5.3,-1.53 -10.64,-2.94 -15.88,-4.66 -5.87,-1.94 -11.74,-3.9 -17.59,-5.92 -10.5,-3.64 -21.14,-6.92 -31.62,-10.6 -6.75,-2.36 -13.46,-4.75 -20.13,-7.3 -5.57,-2.15 -11.07,-4.45 -16.57,-6.76 -4.62,-1.99 -9.29,-3.89 -13.84,-6.02 -5.13,-2.4 -10.24,-4.79 -15.38,-7.15 -10.95,-5.02 -21.94,-9.96 -32.88,-15 -9.59,-4.41 -19.1,-8.91 -28.44,-13.83 -10.34,-5.46 -20.69,-10.9 -30.92,-16.53 -2.44,-1.35 -4.83,-2.8 -7.26,-4.17 -0.56,-2.43 -1.02,-4.89 -1.41,-7.36 -0.56,-5.94 -0.64,-11.84 -0.64,-17.81 0,-6.21 0,-12.41 0.06,-18.61 0.04,-6.5 0.08,-13.01 0.52,-19.49 0.42,-6.09 0.98,-12.15 1.65,-18.21 1.54,-10.33 3.18,-20.68 5.22,-30.93 2.23,-11.13 5,-22.18 7.87,-33.17 5.61,-21.43 13.13,-42.36 21.59,-62.81 0.41,-0.98 0.82,-1.97 1.23,-2.96 4.63,-10.17 9.46,-20.24 14.45,-30.25 4.79,-9.6 9.39,-19.36 14.82,-28.61 11.32,-19.28 21.72,-39.17 34.69,-57.42 4.72,-6.66 9.52,-13.22 14.46,-19.72 7.11,-8.83 14.25,-17.57 21.89,-25.95 3.66,-4.01 7.66,-7.75 11.71,-11.37 4.31,-3.87 8.59,-7.78 12.97,-11.58 3.35,-2.48 6.76,-4.84 10.23,-7.15 1.81,-1.2 3.11,-2.8 4.02,-4.7 9.4,1.91 18.82,3.72 28.22,5.69 10.97,2.33 22.03,4.67 32.83,7.77 11.62,3.33 23.17,6.93 34.72,10.53 10.5,3.28 21.26,5.75 31.84,8.75 10.33,2.95 20.65,6.2 30.73,9.91 10.68,3.93 21.21,8.16 31.74,12.48 9.86,4.18 19.7,8.42 29.52,12.75 5.52,2.43 10.9,5.05 16.31,7.73 5.1,2.52 9.95,5.51 14.88,8.36 4.64,2.69 9.15,5.62 13.71,8.45 4.35,2.7 8.75,5.3 13.05,8.06 9.73,6.24 19.49,12.43 28.8,19.29 4.93,3.63 9.78,7.31 14.63,11.01 3.3,2.59 6.64,5.14 9.83,7.86 4.44,3.79 8.77,7.62 13.02,11.6 7.13,6.67 13.77,13.84 20.55,20.85 7.05,7.31 14.06,14.62 20.7,22.32 6.66,7.74 13.07,15.67 19.44,23.65 5.39,7.05 10.67,14.17 16.04,21.25 2.78,3.67 5.47,7.4 8,11.26 2.39,3.64 4.59,7.39 6.96,11.04 -1.59,0.46 -3.09,1.19 -4.24,2.49 -4.31,4.87 -8.57,9.79 -13.02,14.52 -4.02,4.27 -8.07,8.38 -11.66,13.05 -3.43,4.45 -6.42,9.13 -9.5,13.83 -3.18,4.85 -6.5,9.62 -9.74,14.43 -2.94,4.36 -5.83,8.8 -8.44,13.37 -2.95,5.16 -5.63,10.41 -8.31,15.7 -4.71,9.27 -9.72,18.37 -14.35,27.69 -2.95,5.92 -5.66,11.9 -8.07,18.08 -1.88,4.86 -3.58,9.8 -5.25,14.75 -3.54,10.4 -7.03,20.78 -10.06,31.36 -1.5,5.25 -2.78,10.55 -3.87,15.91 -1.28,6.26 -2.08,12.62 -2.85,18.97 -1.26,10.3 -1.21,20.68 -1.22,31.03 -0.01,3.02 -0.01,6.05 -0.01,9.06 -8.79,1.46 -17.59,2.8 -26.41,4.04 -11.34,1.41 -22.66,2.68 -34.04,3.63 z m -491.35,-146.92 c -3.3,-2.26 -6.61,-4.51 -9.91,-6.77 -2.86,-1.96 -5.6,-4.13 -8.38,-6.23 -8.5,-6.83 -17.03,-13.61 -25.6,-20.38 -4.83,-3.81 -9.63,-7.64 -14.36,-11.57 -3.89,-3.24 -7.74,-6.55 -11.67,-9.77 -8.81,-7.22 -17.89,-14.11 -26.39,-21.7 -8.26,-7.37 -16.32,-14.94 -24.94,-21.89 -3.43,-2.77 -6.88,-5.51 -10.21,-8.38 -3.26,-2.83 -6.45,-5.72 -9.74,-8.5 -3.52,-3 -7.09,-5.93 -10.7,-8.82 -2.65,-2.12 -5.56,-4.16 -8.01,-6.57 -0.26,-5.16 0.04,-10.26 0.62,-15.41 1.79,-11.34 5.96,-22.05 9.61,-32.89 3.23,-9.59 6.95,-19.03 10.44,-28.54 3.29,-8.97 6.31,-18.04 9.39,-27.1 0.34,-1.01 0.74,-2 1.1,-3.01 2.21,0.33 4.42,0.69 6.64,1 16.8,2.38 33.69,3.77 50.64,4.58 13.58,0.64 27.16,0.7 40.75,0.7 3.2,0 6.39,0 9.59,0 4.43,0 8.29,-2.88 9.77,-6.84 2.2,-1.39 3.84,-3.57 4.53,-6.08 0.66,-2.4 0.56,-5.94 -1.05,-8.02 -4.08,-5.29 -8.01,-10.57 -12.94,-15.09 -3.93,-3.6 -8.12,-6.95 -12.2,-10.39 -4.03,-3.38 -8.33,-6.47 -12.48,-9.7 -5.17,-4.04 -10.4,-8 -15.78,-11.78 -4.5,-3.16 -9.05,-6.23 -13.5,-9.42 -4.47,-3.2 -8.86,-6.49 -13.3,-9.7 -1.73,-1.25 -3.52,-2.39 -5.28,-3.6 1.9,-4.17 3.77,-8.36 5.76,-12.49 3.58,-7.43 7.25,-14.83 10.24,-22.53 2.37,-6.09 4.58,-12.24 7.03,-18.3 1.37,-3.03 2.84,-6 4.51,-8.88 0.98,-1.69 1.72,-3.5 2.59,-5.25 3.42,-1.16 6.94,-2.03 10.45,-2.89 4.47,-1.09 8.98,-2.01 13.5,-2.91 7.83,-1.57 15.71,-2.74 23.6,-3.87 2.61,-0.29 5.23,-0.58 7.84,-0.87 3.03,-0.33 6.14,-0.38 9.19,-0.57 5.34,-0.32 10.74,-0.32 16.11,-0.38 11.03,-0.14 22.08,-0.14 33.12,-0.15 10.88,0 21.79,-0.23 32.65,0.42 6.26,0.38 12.47,0.92 18.71,1.52 2.2,0.22 4.39,0.51 6.57,0.79 2.06,0.26 4.14,0.69 6.19,0.78 0.55,0.09 1.08,0.16 1.6,0.2 1.38,0.19 2.75,0.37 4.13,0.56 1.37,0.18 2.74,0.37 4.12,0.55 0.66,0.17 1.35,0.28 2.04,0.33 10.67,1.74 21.28,3.72 31.89,5.83 4.74,0.96 9.44,2.19 14.17,3.18 6.11,1.28 12.22,2.53 18.34,3.72 3.45,0.66 6.9,1.35 10.35,2.03 -1.9,1.45 -3.82,2.87 -5.63,4.44 -3.99,3.46 -7.84,7.06 -11.77,10.57 -7.99,7.15 -15.22,15.11 -22.01,23.39 -7.74,9.44 -15.32,18.98 -22.5,28.85 -6.28,8.6 -12.48,17.35 -17.91,26.52 -5.94,10.03 -11.66,20.18 -17.47,30.27 -2.67,4.63 -5.42,9.22 -7.98,13.92 -2.55,4.72 -5,9.51 -7.4,14.32 -5.21,10.41 -10.39,20.83 -15.38,31.35 -5,10.53 -9.27,21.41 -13.44,32.28 -3.88,10.12 -7.44,20.34 -10.56,30.71 -3.35,11.09 -6.25,22.25 -8.96,33.5 -1.32,5.44 -2.55,10.88 -3.65,16.37 -1.11,5.54 -1.98,11.13 -2.92,16.7 -1.88,11.03 -3.49,22.09 -4.25,33.26 -0.96,13.95 -0.85,27.95 -0.85,41.93 0,3.95 0.05,7.89 0.23,11.81 -3.34,-2.06 -6.66,-4.15 -9.91,-6.35 -6.32,-4.27 -12.68,-8.49 -18.98,-12.79 z m -160.07,-130.74 c -0.01,-0.01 -0.03,-0.03 -0.04,-0.04 -0.03,-0.22 -0.04,-0.44 -0.05,-0.66 0.03,0.23 0.06,0.47 0.09,0.7 z m 19.7,81.75 c -14.04,4.01 -28.27,6.84 -42.7,8.91 -11.25,1.32 -22.49,2.28 -33.81,2.92 -10.87,0.6 -21.77,0.92 -32.64,1.38 -22.69,0.98 -45.45,1.21 -68.17,0.88 -7.65,-0.12 -15.29,-0.77 -22.92,-1.39 -9.13,-1.29 -18.24,-2.76 -27.34,-4.29 -9.95,-1.67 -19.91,-3.44 -29.78,-5.57 -9.56,-2.07 -19.02,-4.31 -28.49,-6.72 -8.54,-2.17 -17.12,-4.41 -25.41,-7.43 -0.66,-0.37 -1.3,-0.79 -2,-1.11 -1.89,-0.86 -3.82,-1.51 -5.79,-2.15 -2.57,-0.85 -5.16,-1.58 -7.72,-2.43 -5.78,-1.92 -11.52,-4.04 -17.18,-6.31 -3.92,-1.73 -7.77,-3.64 -11.53,-5.7 -1.86,-1.02 -3.73,-2.07 -5.55,-3.19 0.53,-2.06 1.13,-4.1 1.69,-6.17 0.88,-3.26 1.68,-6.54 2.66,-9.77 2.24,-7.35 4.55,-14.7 6.86,-22.05 2.13,-6.73 4.59,-13.34 6.79,-20.07 2.46,-7.53 5.05,-14.99 7.87,-22.4 0.09,-0.22 0.18,-0.45 0.28,-0.67 -0.09,0.21 -0.18,0.42 -0.27,0.63 0.01,-0.03 0.02,-0.06 0.04,-0.09 0.13,-0.33 0.27,-0.66 0.41,-0.98 0.01,-0.03 0.03,-0.06 0.04,-0.08 0.05,-0.13 0.1,-0.26 0.16,-0.38 0.17,-0.41 0.34,-0.81 0.51,-1.22 0.01,-0.01 0.01,-0.01 0.01,-0.02 0.03,-0.07 0.06,-0.13 0.08,-0.2 0.45,-0.75 0.8,-1.58 1.05,-2.47 0,-0.01 0.01,-0.02 0.01,-0.02 0.16,-0.38 0.32,-0.76 0.47,-1.13 -0.02,0.05 -0.04,0.1 -0.06,0.15 -0.13,0.31 -0.26,0.62 -0.4,0.93 0.06,-0.13 0.11,-0.26 0.17,-0.39 -0.04,0.09 -0.08,0.19 -0.12,0.28 0.11,-0.26 0.22,-0.52 0.33,-0.78 0.22,-0.51 0.43,-1.02 0.65,-1.53 -0.09,0.2 -0.17,0.41 -0.26,0.62 3.84,-8.93 8.02,-17.7 11.98,-26.57 4.3,-9.62 8.04,-19.45 12.02,-29.2 4.41,-9.9 8.91,-19.76 13.59,-29.56 4.82,-10.1 9.97,-20.02 15.01,-30.02 2.67,-5.28 5.25,-10.6 7.83,-15.92 2.37,-4.87 4.91,-9.65 7.21,-14.56 4.22,-9 7.5,-18.45 12.38,-27.12 0.8,-1.43 1.48,-2.84 2.13,-4.33 -0.02,0.04 -0.03,0.08 -0.05,0.12 0.02,-0.04 0.04,-0.09 0.06,-0.13 0.26,-0.63 0.61,-1.2 0.88,-1.82 2.49,1.93 4.91,3.95 7.44,5.83 4.41,3.28 8.85,6.46 13.21,9.8 4.21,3.27 8.41,6.53 12.85,9.48 4.64,3.07 9.3,6.08 14.15,8.85 9.68,5.52 19.45,10.91 29.12,16.46 4.78,2.74 9.65,5.28 14.62,7.62 4.96,2.33 10.04,4.41 15.07,6.58 5.15,2.21 10.27,4.5 15.38,6.79 5.69,2.55 11.46,4.86 17.2,7.27 5.1,2.15 10.24,4.05 15.47,5.84 5.09,1.73 10.3,3.16 15.45,4.69 10.65,3.19 21.31,6.35 32.03,9.27 10.51,2.86 21.08,5.42 31.75,7.57 2.03,0.41 4.08,0.72 6.12,1.1 -1.09,3.1 -2.21,6.2 -3.27,9.32 -7.03,20.68 -15.15,40.98 -21.93,61.74 -0.93,2.85 -1.76,5.67 -2.54,8.56 -1.53,5.71 -2.49,11.49 -3.07,17.38 -0.28,2.9 -0.47,5.76 -0.58,8.68 -0.14,3.72 0.38,7.5 0.94,11.15 0.21,1.43 1.03,2.89 1.81,4.1 0.85,1.29 1.94,2.55 3.03,3.68 0.77,0.8 1.68,1.51 2.53,2.23 2.19,1.87 4.46,3.64 6.71,5.43 4.11,3.29 8.19,6.63 12.13,10.13 4.19,3.68 8.42,7.31 12.7,10.89 4.03,3.37 8.29,6.49 12.22,9.98 7.32,6.52 14.55,13.1 21.97,19.49 -3.86,0.96 -7.72,1.9 -11.57,2.87 -7.39,1.87 -14.6,4.24 -21.92,6.34 z m -335.41,-112.09 c -0.12,0.29 -0.25,0.59 -0.37,0.88 -0.06,0.12 -0.11,0.25 -0.16,0.37 0.18,-0.42 0.35,-0.84 0.53,-1.25 z m 50.72,-244.46 c 0.38,0.01 0.77,0.01 1.16,0.02 8.48,0.17 16.97,0.67 25.45,1.28 3.97,0.28 7.95,0.85 11.92,1.28 4.15,0.45 8.32,0.82 12.46,1.29 8.42,0.94 16.82,1.97 25.22,3.05 11.11,1.59 22.23,3.05 33.3,4.91 5.46,0.92 10.88,2.18 16.3,3.28 5.15,1.07 10.29,2.23 15.36,3.66 11.15,3.15 22.1,6.93 33.06,10.67 10.16,3.48 20.04,7.67 30.09,11.46 5.13,1.94 10.21,3.97 15.28,6.06 5.12,2.24 10.22,4.49 15.28,6.83 4.57,2.1 9.09,4.31 13.68,6.37 10.49,4.7 21.05,9.22 31.09,14.83 8.98,5.02 17.52,10.78 26.14,16.4 -2.92,6.74 -5.91,13.43 -8.71,20.22 -4.27,9.98 -8.77,19.87 -12.88,29.91 -0.45,1.1 -0.85,2.23 -1.29,3.34 -1.71,-0.31 -3.43,-0.56 -5.13,-0.9 -11,-2.21 -21.86,-4.8 -32.72,-7.63 -10.76,-2.8 -21.37,-6.14 -32.05,-9.23 -5.38,-1.55 -10.73,-3.21 -16.09,-4.84 -5.24,-1.59 -10.3,-3.65 -15.38,-5.69 -1.73,-0.7 -3.44,-1.43 -5.16,-2.16 -9.1,-3.85 -18.11,-7.93 -27.18,-11.83 -8.67,-3.73 -17.22,-7.54 -25.41,-12.25 -8.34,-4.77 -16.76,-9.41 -25.1,-14.16 -4.4,-2.51 -8.75,-5.07 -13.08,-7.7 -4.29,-2.61 -8.37,-5.62 -12.47,-8.53 -3.98,-3.07 -7.97,-6.15 -11.95,-9.22 -3.83,-2.95 -7.85,-5.71 -11.76,-8.57 -5.35,-4.27 -10.55,-8.73 -15.85,-13.1 -6.12,-5.07 -12.37,-9.99 -18.49,-15.06 -5.32,-4.39 -10.28,-9.07 -15.09,-13.99 z m -439.48,-82.18 c 0.01,0.02 0.01,0.04 0.01,0.06 v 0 c 0,-0.02 0,-0.04 -0.01,-0.06 z m 128.07,132.63 v -0.01 c 0.03,-0.24 0.06,-0.47 0.09,-0.71 -0.03,0.24 -0.06,0.48 -0.09,0.72 z m 281.37,-28.67 c -4.93,4.61 -10.02,9 -15.18,13.35 -2.48,1.93 -4.96,3.87 -7.54,5.66 -3.8,2.63 -7.58,5.26 -11.43,7.8 -7.87,5.25 -15.68,10.57 -23.49,15.91 -7.28,4.96 -14.65,9.79 -22.06,14.55 -8.17,5.26 -16.69,9.88 -25.6,13.78 -5.43,2.14 -10.95,3.75 -16.71,4.71 -5.33,0.5 -10.76,0.34 -16.11,0.14 -4.07,-0.17 -8.13,-0.34 -12.18,-0.77 -0.86,-0.16 -1.7,-0.33 -2.53,-0.54 0.85,-5.57 1.86,-11.16 3.66,-16.5 0.95,-2.84 1.73,-5.82 2.89,-8.59 1.03,-2.47 2.05,-4.94 3.08,-7.41 1.93,-3.91 3.83,-7.84 5.89,-11.7 1.32,-2.5 2.67,-4.98 3.96,-7.52 1.51,-2.96 2.81,-6.02 4.02,-9.15 1.32,-3.42 1.33,-7.21 0.28,-10.69 -1.7,-5.65 -7.17,-8.53 -12.81,-7.28 -3.23,0.71 -5.71,2.64 -8.44,4.35 -2,1.24 -3.99,2.5 -6,3.71 -3.97,2.39 -7.97,4.67 -12.07,6.85 -8.42,4.48 -16.81,9.14 -25.46,13.18 -8.88,4.15 -17.82,8.13 -26.81,12.05 -4.61,2.01 -9.26,3.95 -13.83,6.05 -5.5,2.52 -10.99,5.07 -16.53,7.47 -5.64,2.29 -11.4,4.19 -17.4,5.26 -3.06,0.29 -6.08,0.35 -9.15,0.13 -1.21,-0.23 -2.39,-0.5 -3.57,-0.86 -0.69,-2.03 -1.22,-4.07 -1.61,-6.17 -0.29,-4.37 0.18,-8.72 0.58,-13.07 0.24,-1.25 0.37,-2.53 0.51,-3.82 0.13,-0.54 0.21,-1.08 0.25,-1.62 0.13,-0.65 0.29,-1.29 0.42,-1.94 0.29,-1.44 0.5,-2.94 0.88,-4.37 0.84,-3.1 1.55,-6.26 2.52,-9.32 1.9,-5.91 3.78,-11.8 5.85,-17.64 2.19,-6.21 4.47,-12.34 6.81,-18.48 1.52,-3.99 3.03,-7.97 4.48,-11.98 0.64,-1.74 1.17,-3.5 1.71,-5.28 0.66,-2.23 1.46,-4.32 1.85,-6.63 0.38,-2.35 0.56,-4.76 -0.08,-7.11 -0.7,-2.54 -2.31,-4.44 -3.93,-6.43 -1.31,-1.29 -2.84,-2.18 -4.61,-2.67 -2.66,-0.73 -5.64,-0.38 -8.02,1.05 -3.73,2.24 -7.28,4.82 -10.82,7.33 -3.7,2.62 -7.4,5.25 -11.08,7.87 -3.44,2.46 -6.88,4.92 -10.4,7.29 -3.83,2.6 -7.6,5.46 -11.6,7.83 -4.76,2.83 -9.54,5.67 -14.31,8.51 -3.27,1.93 -6.66,3.6 -10.04,5.32 -3.65,1.86 -7.26,3.84 -10.99,5.51 -4.45,1.98 -8.89,3.97 -13.34,5.95 -8.51,3.48 -17.13,6.67 -26.22,8.22 -5.13,0.5 -10.25,0.43 -15.37,-0.1 -2.95,-0.49 -5.85,-1.14 -8.69,-2.1 -0.66,-0.34 -1.3,-0.7 -1.94,-1.09 -0.35,-0.32 -0.68,-0.65 -1.01,-0.99 -0.33,-0.52 -0.62,-1.04 -0.9,-1.58 -0.11,-0.35 -0.21,-0.7 -0.29,-1.05 -0.08,-1.53 -0.01,-3.05 0.16,-4.6 0.6,-4.19 1.27,-8.37 2.18,-12.51 1.35,-6.09 3.56,-11.92 5.71,-17.76 2.31,-6.27 4.85,-12.42 7.37,-18.6 2.01,-4.54 4.01,-9.08 6.01,-13.61 2.32,-5.22 4.68,-10.42 6.73,-15.73 1.34,-3.43 2.56,-6.94 3.29,-10.55 0.41,-1.96 0.61,-3.99 0.46,-5.98 -0.15,-1.96 -0.61,-3.81 -1.03,-5.7 -0.98,-4.52 -5.59,-7.61 -10.04,-7.64 -1.51,-0.02 -3.52,-0.03 -4.9,0.43 -1.99,0.69 -3.91,1.51 -5.84,2.37 -1.42,0.64 -2.87,1.21 -4.3,1.81 -2.56,1.09 -5.11,2.18 -7.65,3.27 -4.36,1.85 -8.69,3.81 -12.98,5.84 -10.18,4.81 -20.4,9.48 -30.65,14.13 -16.61,6.75 -33.7,12.47 -51.47,15.1 -10.18,1.21 -20.38,1.44 -30.64,1.18 -6.68,-0.17 -13.35,-0.3 -20.01,-0.84 1.09,-1.61 2.23,-3.18 3.38,-4.75 6.48,-8.01 13.12,-15.88 19.62,-23.87 6.2,-7.59 12.81,-15.05 17.09,-23.95 3.09,-6.43 4.73,-14.35 2.15,-21.23 -1.6,-4.25 -4.49,-7.77 -8.92,-9.25 -3.15,-1.06 -6.48,-0.98 -9.76,-0.93 -11.92,0.15 -23.8,0.45 -35.7,0.92 -11.41,0.44 -22.8,1.46 -34.18,2.32 -7.3,0.55 -14.62,0.71 -21.93,0.98 -7.3,0.27 -14.64,0.06 -21.95,0.01 -7.17,-0.04 -14.36,-0.48 -21.54,-0.74 -2.8,-0.11 -5.6,-0.46 -8.41,-0.7 -4.03,-0.36 -8.08,-0.64 -12.11,-1.13 -13.65,-1.97 -26.92,-5.15 -39.73,-10.29 -1.29,-0.57 -2.57,-1.16 -3.83,-1.78 8.48,-5.39 17.24,-10.36 25.85,-15.52 2.61,-1.55 5.18,-3.23 7.87,-4.66 4.13,-2.17 8.26,-4.36 12.4,-6.54 2.54,-1.34 5.19,-2.46 7.82,-3.63 3.07,-1.38 6.14,-2.74 9.21,-4.11 6.08,-2.23 12.18,-4.45 18.26,-6.67 2.26,-0.82 4.62,-1.43 6.92,-2.14 3.98,-1.22 7.95,-2.44 11.93,-3.66 1.95,-0.6 3.94,-1.04 5.93,-1.52 4.18,-0.99 8.36,-1.99 12.54,-2.99 2.21,-0.53 4.45,-0.91 6.69,-1.32 3.51,-0.65 7.02,-1.35 10.54,-1.92 7.4,-0.82 17.52,-1.59 19.82,-10 1.04,-3.72 0.2,-8.87 -2.85,-11.51 -2.27,-1.95 -4.69,-3.37 -7.34,-4.72 -5.39,-2.72 -10.94,-5.21 -16.58,-7.35 -10.23,-3.88 -20.6,-7.29 -30.97,-10.8 -10.6,-3.58 -21.21,-7.15 -31.74,-10.93 -5.39,-1.93 -10.88,-3.73 -16.22,-5.84 -5.32,-2.11 -10.65,-4.21 -15.97,-6.31 -4.42,-1.96 -8.85,-3.92 -13.27,-5.88 -3.32,-1.47 -6.57,-3.06 -9.77,-4.76 4.33,-0.49 8.63,-0.95 12.99,-1.13 5.99,-0.26 11.93,-0.42 17.93,-0.44 11.2,-0.04 22.39,0.08 33.59,0.33 10.96,0.26 21.94,0.6 32.89,1.33 6.03,0.41 12.1,0.66 18.13,1.22 6.41,0.59 12.81,1.17 19.22,1.77 11,1.01 21.96,2.43 32.92,3.81 5.55,0.7 11.12,1.36 16.67,2.01 10.56,1.22 21.63,2.59 32.05,-0.17 1.88,-0.5 4.19,-1.92 5.56,-3.29 1.56,-1.57 2.13,-3.27 2.95,-5.25 0.62,-1.52 0.43,-4.75 0.01,-6.27 -0.4,-1.42 -1.17,-2.92 -2.04,-4.13 -1.52,-2.11 -2.83,-4.38 -4.21,-6.59 -3.03,-4.9 -5.99,-9.83 -8.96,-14.76 -5.86,-9.75 -11.6,-19.57 -17.38,-29.4 -1.04,-1.78 -2.04,-3.6 -2.98,-5.44 0.38,0.2 0.77,0.4 1.15,0.61 6.36,3.36 12.51,7.05 18.66,10.77 5.74,3.48 11.28,7.29 16.87,10.98 5.46,3.59 10.7,7.4 15.96,11.25 1.91,1.62 3.83,3.24 5.74,4.86 1.82,1.55 3.74,3.02 5.46,4.69 4.01,3.87 8.12,7.66 12,11.66 7.92,8.18 15.96,16.3 23.48,24.85 7.77,8.84 15.34,17.82 22.87,26.86 1.95,2.35 3.98,4.62 6.1,6.81 1.46,1.51 2.96,2.79 4.63,4.06 1.57,1.18 2.93,2.17 4.88,2.73 2.21,0.62 4.33,0.92 6.6,0.29 1.7,-0.46 4.42,-1.89 5.61,-3.27 1.19,-1.37 2.34,-2.78 3.45,-4.2 3.69,-4.67 7.39,-9.29 11.01,-13.99 1.57,-2.03 3.14,-4.06 4.7,-6.08 7.5,-9.57 15.11,-18.99 22.87,-28.33 4.19,-5.06 8.77,-9.83 13.15,-14.72 8.97,-10.03 18.48,-19.73 28.99,-28.15 5.14,-3.8 10.52,-7.21 16.32,-9.91 3.52,-1.37 7.06,-2.47 10.77,-3.16 3.13,-0.21 6.22,-0.07 9.34,0.26 3.72,0.67 7.31,1.67 10.84,3 1.88,0.91 3.65,1.91 5.36,3.08 1.52,1.41 2.91,2.94 4.22,4.53 4.86,6.84 8.17,14.44 11.49,22.08 1.74,4.54 3.59,9.06 5.15,13.66 1.89,5.61 3.81,11.21 5.61,16.85 3.66,11.44 6.99,22.95 10.2,34.53 0.73,2.63 1.46,5.25 2.29,7.86 0.93,2.96 1.9,6.32 3.79,8.81 0.53,0.7 1.08,1.39 1.63,2.1 0.89,0.77 1.83,1.48 2.82,2.11 1.5,1 4.3,1.59 6.06,1.59 4.37,0 7.58,-2.72 10.15,-5.93 3.38,-4.25 6.74,-8.52 10.08,-12.81 3.15,-4.05 6.33,-8.1 9.67,-12 6.01,-7 11.93,-14.11 18.57,-20.54 2.35,-2.28 4.77,-4.44 7.3,-6.52 4.22,-3.11 8.6,-5.83 13.35,-8.03 2.34,-0.86 4.67,-1.56 7.12,-2.06 1.71,-0.15 3.39,-0.17 5.11,-0.06 1.56,0.36 3.07,0.8 4.57,1.33 1.77,0.88 3.44,1.86 5.07,2.98 3.64,3.05 6.8,6.54 9.76,10.26 5.99,8.19 10.67,17.07 14.69,26.37 3.77,9.25 6.99,18.74 10.14,28.22 3.13,9.45 6.19,18.91 9.21,28.4 2.36,7.45 4.87,14.85 7.33,22.26 1.38,4.19 2.79,8.37 4.16,12.57 0.9,2.74 1.79,5.49 2.7,8.23 1.2,3.68 1.98,7.5 4.2,10.75 1.57,2.3 3.46,4.03 6.22,4.79 3.46,0.95 7.65,0.02 10.14,-2.68 3.37,-3.66 5.65,-8.36 8.38,-12.52 2.65,-4.05 5.35,-8.07 8.26,-11.94 3.06,-3.85 6.34,-7.56 10.09,-10.74 1.63,-1.14 3.29,-2.17 5.05,-3.07 1.01,-0.34 2.02,-0.61 3.07,-0.82 0.72,-0.04 1.43,-0.05 2.14,-0.02 1.19,0.29 2.36,0.64 3.51,1.05 1.08,0.54 2.12,1.13 3.14,1.8 0.83,0.72 1.61,1.48 2.37,2.3 1.44,2.11 2.63,4.31 3.69,6.66 1.93,4.8 3.55,9.68 5.01,14.65 0.93,3.2 1.95,6.36 2.7,9.6 0.99,4.26 1.98,8.53 2.97,12.78 0.8,3.47 1.24,7.06 1.86,10.56 2.35,13.55 4.08,27.21 6.02,40.83 0.76,6.11 1.47,12.19 1.85,18.34 0.36,6.01 0.22,11.94 -0.47,17.91 -0.43,3 -0.91,5.98 -1.44,8.96 -0.27,1.53 -0.33,2.97 -0.15,4.38 -5.46,-0.17 -10.93,-0.47 -16.41,-0.49 -2.49,-0.01 -4.99,-0.02 -7.49,-0.02 -1.04,0.01 -2.07,0.04 -3.1,0.15 -2.79,0.32 -3.17,0.32 -5.69,1.52 -1.64,0.77 -3.23,2.48 -4.14,4.03 -0.94,1.6 -1.45,3.61 -1.45,5.47 0,2.19 0.7,3.89 1.69,5.79 0.6,1.12 1.92,2.55 2.83,3.58 0.43,0.49 0.87,0.98 1.31,1.47 1.69,1.85 3.48,3.56 5.26,5.31 1.52,1.51 3.02,3.03 4.53,4.56 -1.27,1.2 -2.52,2.43 -3.77,3.64 -2.56,2.43 -5.13,4.85 -7.71,7.26 z m -281.37,53.87 v -0.01 c -0.26,-0.28 -0.5,-0.59 -0.71,-0.91 0.24,0.3 0.48,0.61 0.72,0.92 z m 631.6,34.18 c 0.99,-2.31 2.01,-4.61 3,-6.92 4.75,3.22 9.35,6.76 13.97,10.18 8.3,6.12 16.91,11.79 25.23,17.89 6.42,4.99 12.89,9.91 19.1,15.15 2.87,2.42 5.74,4.84 8.52,7.34 -11.26,0.01 -22.53,-0.06 -33.78,-0.6 -15.75,-0.74 -31.47,-1.88 -47.12,-3.85 -1.76,-0.25 -3.51,-0.52 -5.27,-0.77 0.54,-1.32 1.04,-2.64 1.58,-3.96 4.94,-11.48 10,-22.91 14.77,-34.46 z m -242.15,-134.83 c 0.78,-5.25 1.35,-10.54 2.36,-15.75 1.01,-5.24 2.04,-10.51 3.35,-15.69 1.44,-5.68 3.03,-11.29 4.72,-16.91 3.21,-10.65 6.6,-21.19 9.35,-31.97 2.76,-10.91 5.39,-21.85 8.09,-32.77 2.02,-8.25 4.59,-16.26 7.54,-24.22 2.91,-7.86 5.86,-15.69 9.05,-23.44 2.76,-5.93 5.37,-11.91 7.79,-17.98 2.42,-6.05 4.69,-12.15 7.05,-18.22 2.38,-6.11 4.54,-12.32 6.57,-18.57 1.78,-5.43 3.46,-10.86 5.54,-16.19 2.46,-5.52 4.81,-11.09 7.08,-16.69 0.2,-0.47 0.4,-0.94 0.61,-1.41 0.16,-0.37 0.33,-0.73 0.49,-1.09 7.83,3.78 15.47,7.95 23.22,11.9 9.69,4.94 19.65,9.38 29.26,14.49 5.45,2.9 10.8,5.9 16.14,9.03 4.43,2.6 8.66,5.6 12.92,8.46 9.42,6.31 18.88,12.52 28.18,19 4.68,3.25 9.46,6.38 14.01,9.8 5.39,4.05 10.77,8.08 16.15,12.14 9.19,6.93 18.55,13.62 27.76,20.52 8.49,6.67 16.87,13.46 25.16,20.4 8.55,7.14 17.17,14.35 25.16,22.11 7.96,7.74 15.85,15.55 24.1,22.98 4.53,4.1 9,8.2 13.36,12.5 3.64,3.6 7.14,7.32 10.79,10.91 9.38,9.23 19.12,18.08 28.49,27.32 4.41,4.33 8.39,9.11 12.43,13.79 3.7,4.29 7.3,8.64 10.85,13.04 2.73,3.74 5.46,7.49 8.17,11.24 -2.71,0.01 -5.43,0.02 -8.14,0.02 -11.04,0.01 -22.08,0.01 -33.12,0.15 -5.37,0.06 -10.77,0.06 -16.11,0.38 -3.02,0.19 -6.03,0.37 -9.04,0.55 -2.9,0.18 -5.81,0.64 -8.69,0.96 -9.85,1.08 -19.69,2.79 -29.39,4.73 -4.69,0.95 -9.34,1.94 -13.99,3.07 -1.92,0.48 -3.84,0.99 -5.74,1.55 -1.37,0.39 -2.72,0.79 -4.07,1.24 -1.54,0.53 -3.35,1.22 -4.76,1.93 -1.43,0.72 -2.6,1.77 -3.84,2.77 -1.55,1.25 -2.54,3.62 -3.41,5.4 -0.57,1.17 -1.06,2.37 -1.67,3.52 -1.57,2.91 -3.19,5.77 -4.6,8.77 -3.91,8.34 -6.84,17.17 -10.15,25.76 -4.17,9.23 -8.56,18.35 -12.8,27.54 -1.52,-0.98 -3.03,-1.96 -4.54,-2.95 -5.08,-3.31 -10.19,-6.55 -15.33,-9.76 -5.04,-3.14 -10.48,-5.73 -15.8,-8.37 -4.54,-2.26 -9.25,-4.22 -13.89,-6.29 -5.41,-2.43 -10.78,-4.93 -16.15,-7.44 -4.95,-2.33 -9.94,-4.58 -14.95,-6.77 -5.42,-2.36 -10.84,-4.8 -16.38,-6.89 -10.71,-4.05 -21.3,-8.4 -32.06,-12.29 -10.85,-3.93 -21.8,-7.56 -32.81,-11.03 -10.53,-3.32 -21.44,-5.36 -32.25,-7.55 -10.86,-2.2 -21.84,-3.52 -32.81,-5.09 -3.66,-0.53 -7.33,-0.91 -10.99,-1.4 0.6,-3.74 1.19,-7.49 1.74,-11.24 z m 465.16,12.7 c 0.19,0.03 0.37,0.05 0.56,0.08 -0.23,-0.03 -0.45,-0.06 -0.68,-0.09 h -0.01 c 0.04,0 0.09,0.01 0.13,0.01 z m 625.2,524.35 c 3.26,-1.26 6.48,-2.54 9.86,-3.46 2.69,-0.72 5.42,-1.34 8.13,-2.01 5.51,-1.39 8.75,-7.44 7.28,-12.81 -1.48,-5.37 -6.9,-8.44 -12.21,-7.42 -0.41,-1.41 -0.83,-2.81 -1.22,-4.22 -1.44,-5.19 -2.52,-10.44 -3.59,-15.71 -2.08,-10.3 -3.74,-20.62 -6.53,-30.76 -1.48,-5.41 -2.8,-10.84 -4.15,-16.28 -1.29,-5.22 -2.95,-10.3 -4.7,-15.38 -3.49,-10.11 -6.69,-20.33 -10.44,-30.36 -3.78,-10.11 -7.76,-20.14 -11.68,-30.19 -4.17,-10.72 -8.94,-21.14 -13.94,-31.51 -2.32,-4.81 -4.89,-9.42 -7.58,-14.03 -1.29,-2.24 -2.91,-4.32 -4.36,-6.44 -1.54,-2.27 -3.22,-4.46 -4.74,-6.74 -1.5,-2.26 -3.06,-4.49 -4.46,-6.82 -1.5,-2.45 -2.97,-4.92 -4.54,-7.31 -3.25,-4.94 -6.67,-9.72 -10.25,-14.44 -13.88,-18.3 -27.59,-36.73 -43.03,-53.77 -7.84,-8.66 -16.08,-16.96 -24.17,-25.39 -3.37,-3.52 -6.78,-7.05 -10.33,-10.37 -2.43,-2.28 -4.87,-4.56 -7.3,-6.84 -2.24,-2.07 -4.65,-3.96 -6.97,-5.94 -8.67,-7.38 -17.9,-14.2 -27.07,-20.95 -9.61,-7.05 -19.57,-13.54 -29.61,-19.96 -4.53,-2.89 -9.13,-5.66 -13.7,-8.47 -4.35,-2.69 -8.64,-5.5 -13.05,-8.07 -4.71,-2.74 -9.36,-5.71 -14.26,-8.13 -5.26,-2.6 -10.51,-5.25 -15.89,-7.63 -21.86,-9.63 -43.78,-19.2 -66.2,-27.44 -10.16,-3.75 -20.52,-7.16 -30.93,-10.12 -5.98,-1.69 -11.95,-3.33 -17.96,-4.92 -4.95,-1.3 -9.92,-2.55 -14.79,-4.08 -11.45,-3.58 -22.88,-7.16 -34.41,-10.46 -10.58,-3.03 -21.37,-5.42 -32.14,-7.69 -5.33,-1.13 -10.68,-2.25 -16.02,-3.38 -5.32,-1.12 -10.71,-1.98 -16.04,-3.1 -5.95,-1.23 -11.87,-2.57 -17.8,-3.93 -4.73,-1.08 -9.53,-1.91 -14.29,-2.82 -7.76,-1.5 -15.53,-2.99 -23.24,-4.75 -7.57,-1.73 -15.14,-3.37 -22.76,-4.8 -3.77,-0.71 -7.54,-1.49 -11.32,-2.1 -2.62,-0.42 -5.23,-0.84 -7.84,-1.26 -1.67,-0.26 -3.38,-0.66 -5.08,-0.79 -0.72,-0.09 -1.46,-0.17 -2.22,-0.27 -1.83,-0.24 -3.66,-0.49 -5.5,-0.73 0.07,0 0.14,0.02 0.21,0.02 -0.09,-0.01 -0.17,-0.02 -0.26,-0.03 -0.18,-0.03 -0.36,-0.05 -0.55,-0.08 l 0.01,0.01 c 0.16,0.02 0.32,0.04 0.48,0.06 -0.16,-0.02 -0.31,-0.04 -0.47,-0.06 h -0.01 c -0.43,-0.06 -0.85,-0.12 -1.28,-0.18 0.42,0.06 0.85,0.11 1.27,0.17 -0.77,-0.21 -1.59,-0.34 -2.43,-0.36 -0.33,-0.05 -0.66,-0.08 -0.99,-0.09 0.24,0.03 0.48,0.06 0.71,0.09 h -0.01 c -0.23,-0.03 -0.47,-0.06 -0.71,-0.1 -0.01,0 -0.02,0 -0.04,0 -10.97,-1.44 -21.95,-2.62 -33,-3.29 -1.32,-0.08 -2.63,-0.05 -3.94,-0.1 0.04,-0.15 0.16,-0.27 0.2,-0.42 0.69,-2.48 0.52,-5.86 -1.04,-8.02 -4.23,-5.91 -8.38,-11.93 -12.94,-17.59 -3.51,-4.35 -7.06,-8.65 -10.71,-12.88 -3.89,-4.53 -7.85,-8.94 -11.89,-13.33 -3.84,-4.15 -8.13,-7.95 -12.27,-11.77 -8.33,-7.72 -16.4,-15.67 -24.34,-23.79 -7.92,-8.07 -16.37,-15.53 -24.72,-23.15 -3.65,-3.33 -7.1,-6.9 -10.64,-10.35 -4.45,-4.34 -8.97,-8.56 -13.55,-12.76 -8.34,-7.64 -17.16,-14.79 -25.83,-22.04 -9.21,-7.71 -18.79,-14.97 -28.39,-22.18 -4.01,-3.01 -8.16,-5.84 -12.19,-8.85 -5.05,-3.78 -10.1,-7.58 -15.16,-11.38 -17.53,-13.22 -35.85,-25.26 -54.08,-37.49 -9.04,-6.06 -18.35,-11.62 -28.06,-16.54 -9.97,-5.03 -20.11,-9.74 -30.03,-14.85 -8.48,-4.37 -16.86,-8.97 -25.55,-12.9 -1.31,-0.55 -2.62,-1.1 -3.95,-1.64 -1.6,-0.66 -3.38,-0.67 -5.09,-0.87 -0.28,0.03 -0.56,0.06 -0.85,0.1 -1.88,0 -3.63,0.47 -5.25,1.41 -2.03,1.19 -3.29,2.69 -4.69,4.5 -2.04,2.65 -3.36,5.49 -4.67,8.55 -1.77,4.12 -3.47,8.27 -5.16,12.43 -2.59,5.76 -5.09,11.51 -7.07,17.52 -1.86,5.66 -3.63,11.33 -5.56,16.97 -1.95,5.66 -4.18,11.23 -6.35,16.81 -2.07,5.32 -4.12,10.65 -6.24,15.94 -2.37,5.29 -4.77,10.57 -7.01,15.93 -1.99,4.73 -3.77,9.58 -5.56,14.4 -1.92,5.16 -3.94,10.31 -5.62,15.55 -1.68,5.22 -3.17,10.47 -4.47,15.79 -2.71,10.99 -5.36,21.99 -8.15,32.95 -2.72,10.75 -6.16,21.29 -9.36,31.91 -3.15,10.45 -5.72,20.98 -7.8,31.68 -1.01,5.21 -1.63,10.51 -2.36,15.77 -0.65,4.73 -1.38,9.46 -2.2,14.17 -1.59,-0.18 -3.17,-0.43 -4.76,-0.6 -5.42,-0.62 -10.86,-1.12 -16.29,-1.71 -3.44,-0.38 -6.88,-0.65 -10.32,-0.93 1.36,-7.57 2.58,-15.26 2.82,-22.97 0.27,-8.28 -0.68,-16.64 -1.72,-24.85 -1,-7.82 -2.13,-15.64 -3.22,-23.45 -1.59,-11.36 -3.38,-22.67 -5.35,-33.97 -0.94,-5.41 -2.38,-10.72 -3.61,-16.06 -0.51,-2.19 -1.23,-4.34 -1.87,-6.51 -1.17,-3.92 -2.32,-7.83 -3.68,-11.71 -2.5,-7.11 -5.39,-14.43 -10.43,-20.18 -4.88,-5.56 -11.33,-9.09 -18.42,-11.05 -3.87,-1.08 -7.82,-0.92 -11.74,-0.35 -3.66,0.53 -6.86,1.8 -10.21,3.38 -3.35,1.58 -6.31,4.1 -9.19,6.39 -3.23,2.58 -6,5.93 -8.65,9.07 -2.69,3.22 -5.18,6.57 -7.56,10.01 -1.69,-5.12 -3.39,-10.23 -5.1,-15.34 -3.46,-10.43 -6.69,-20.94 -10.15,-31.37 -4.2,-12.74 -8.25,-25.59 -13.18,-38.07 -2.98,-7.52 -6.28,-14.93 -10.14,-22.04 -3.97,-7.29 -8.98,-14.08 -14.45,-20.31 -4.65,-5.32 -10.29,-9.93 -16.72,-12.9 -3.89,-1.8 -7.8,-2.91 -12.05,-3.45 -4.55,-0.57 -8.95,-0.05 -13.45,0.78 -3.99,0.73 -7.77,2.5 -11.46,4.09 -3.19,1.39 -6.15,3.19 -9.06,5.08 -6.58,4.29 -12.49,9.56 -18.04,15.09 -5.89,5.86 -11.14,12.38 -16.56,18.66 -3.6,4.18 -6.97,8.58 -10.36,12.94 -0.49,0.63 -0.97,1.26 -1.46,1.89 -2.35,-8.23 -4.47,-16.54 -7.07,-24.7 -3.63,-11.36 -7.31,-22.68 -11.56,-33.83 -2.23,-5.85 -4.73,-11.57 -7.24,-17.3 -2.73,-6.22 -6.2,-12.03 -10.43,-17.34 -1.72,-2.17 -3.52,-4.22 -5.58,-6.06 -3.66,-3.28 -7.96,-5.53 -12.48,-7.37 -7.39,-3 -15.13,-4.41 -23.08,-4.77 -8.42,-0.37 -16.78,2.27 -24.37,5.64 -14.41,6.4 -26.55,17.13 -37.68,28.1 -7.3,7.21 -14.06,14.94 -20.9,22.59 -4.09,4.58 -8.02,9.24 -11.94,13.97 -8.46,10.23 -16.58,20.74 -24.68,31.25 0.54,-0.71 1.08,-1.4 1.63,-2.11 -2.33,2.96 -4.63,5.96 -6.97,8.92 -3.89,-4.26 -7.46,-8.83 -11.19,-13.22 -3.42,-4.04 -6.79,-8.1 -10.28,-12.07 -3.81,-4.34 -7.59,-8.69 -11.57,-12.88 -3.94,-4.18 -7.89,-8.34 -11.89,-12.48 -4.05,-4.18 -8.15,-8.3 -12.35,-12.34 -1.75,-1.71 -3.45,-3.56 -5.32,-5.14 -2.64,-2.24 -5.28,-4.48 -7.93,-6.71 -8.94,-7.58 -18.7,-14.05 -28.47,-20.47 -4.66,-3.07 -9.34,-6.12 -14.12,-9.01 -5.04,-3.05 -10.13,-5.93 -15.28,-8.78 -4.79,-2.65 -9.71,-5.08 -14.64,-7.45 -3.65,-1.76 -7.51,-4.08 -11.7,-3.7 -2.73,0.24 -5.41,0.91 -7.36,3.04 -1.03,1.14 -1.99,2.26 -2.6,3.68 -1.01,2.38 -1.46,3.59 -1.65,6.22 -0.19,2.58 0.23,5.07 0.69,7.61 0.68,3.89 2.25,7.54 3.79,11.15 1.52,3.58 3.26,7.02 5.13,10.44 1.76,3.25 3.69,6.4 5.56,9.57 2.55,4.35 5.12,8.7 7.7,13.02 3.81,6.42 7.57,12.89 11.47,19.27 -5.89,-0.29 -11.78,-1.07 -17.62,-1.75 -5.55,-0.65 -11.08,-1.34 -16.62,-2.03 -10.48,-1.33 -20.97,-2.58 -31.49,-3.56 -5.75,-0.52 -11.52,-1.17 -17.29,-1.57 -6.44,-0.43 -12.89,-0.86 -19.34,-1.29 -11.64,-0.79 -23.32,-1.04 -34.98,-1.29 -11.22,-0.26 -22.45,-0.28 -33.67,-0.23 -11.3,0.03 -22.61,0.69 -33.8,2.44 -5.67,0.88 -11.34,1.78 -16.99,2.82 -3.25,0.61 -6.57,1.43 -8.99,3.84 -3.07,3.08 -3.64,7.52 -2.59,11.58 1.07,4.15 4.66,6.88 7.95,9.23 3.58,2.58 7.24,4.94 11.05,7.16 8.11,4.73 16.62,8.45 25.16,12.24 5.47,2.41 10.97,4.64 16.51,6.84 15.45,6.11 31.17,11.55 46.9,16.88 7.77,2.64 15.57,5.16 23.32,7.82 2.46,0.85 4.91,1.71 7.35,2.6 -1.51,0.33 -3.02,0.75 -4.51,1.1 -3.89,0.93 -7.77,1.86 -11.65,2.79 -5.34,1.27 -10.56,3.13 -15.79,4.74 -4.89,1.5 -9.66,3.19 -14.47,4.94 -5.64,2.07 -11.23,4.1 -16.72,6.55 -5.27,2.36 -10.65,4.53 -15.74,7.22 -5.2,2.74 -10.44,5.38 -15.48,8.39 -5.33,3.19 -10.67,6.36 -16.02,9.51 -4.83,2.85 -9.6,5.81 -14.34,8.79 -2.1,1.33 -4.17,2.66 -6.23,4.02 -3.98,2.62 -8.75,5.85 -10.08,10.69 -0.42,1.54 -0.59,4.79 0.04,6.32 0.11,0.26 0.21,0.51 0.32,0.77 0.5,1.77 1.38,3.29 2.67,4.59 2.16,2.67 5.33,4.62 8.22,6.42 3.29,2.05 6.88,3.63 10.44,5.15 4.52,1.94 9.1,3.72 13.76,5.28 12.27,4.09 25.36,6.49 38.21,7.65 5.7,0.51 11.46,1.29 17.19,1.51 6.52,0.24 13.04,0.49 19.56,0.73 4.05,0.14 8.11,0.13 12.17,0.12 1.96,-0.01 3.93,-0.01 5.88,0 5.27,0.03 10.54,-0.26 15.81,-0.46 14.52,-0.53 29.01,-1.86 43.49,-2.8 6.41,-0.42 12.84,-0.58 19.24,-0.72 3.93,-0.09 7.87,-0.17 11.79,-0.24 2.06,-0.03 4.15,-0.13 6.24,-0.18 -0.11,0.33 -0.22,0.66 -0.33,0.99 -1.95,3.87 -4.33,7.4 -6.89,10.87 -7.12,8.74 -14.28,17.45 -21.49,26.11 -3.78,4.55 -7.37,9.22 -10.85,13.99 -1.54,2.11 -2.81,4.46 -4.09,6.74 -0.99,1.75 -2.12,3.85 -2.71,5.72 -0.49,1.58 -0.73,3.14 -0.52,4.78 0.01,1.87 0.49,3.63 1.43,5.25 0.49,1.16 1.18,2.18 2.1,3.07 1.37,1.15 2.7,2.27 4.33,3.06 1.69,0.83 3.45,1.42 5.25,1.95 1.84,0.54 3.97,0.7 5.84,0.93 1.72,0.21 3.43,0.41 5.15,0.59 4.89,0.52 9.85,0.57 14.77,0.69 10.74,0.27 21.43,0.5 32.14,-0.52 7.83,-0.74 15.65,-1.97 23.32,-3.73 8.23,-1.87 16.32,-4.48 24.29,-7.27 9.46,-3.31 18.61,-7.33 27.73,-11.46 7.86,-3.56 15.66,-7.22 23.47,-10.92 3.25,-1.54 6.55,-2.98 9.86,-4.4 -0.02,0.04 -0.04,0.08 -0.05,0.12 -3.14,7.26 -6.38,14.48 -9.58,21.71 -2.51,5.67 -4.77,11.47 -7.11,17.23 -2.27,5.58 -4.33,11.3 -6.17,17.04 -1.7,5.29 -2.87,10.71 -3.68,16.2 -0.78,5.18 -1.98,10.46 -1.29,15.69 0.27,2.07 0.56,3.79 1.19,5.74 0.6,1.83 1.54,3.68 2.47,5.35 1.82,3.29 4.85,6.18 7.96,8.23 6.65,4.4 14.6,5.65 22.35,6.57 15.61,1.85 30.78,-2.45 45.09,-8.29 7.05,-2.87 13.94,-6.04 20.88,-9.15 5.28,-2.36 10.37,-5.25 15.52,-7.88 5.69,-2.89 11.07,-6.41 16.56,-9.66 5.41,-3.21 10.54,-6.93 15.76,-10.45 2.87,-1.95 5.69,-3.97 8.51,-5.99 -1.25,3.25 -2.49,6.5 -3.73,9.76 -2.49,6.53 -4.73,13.18 -6.86,19.84 -1.13,3.52 -2.24,7.03 -3.21,10.6 -1.06,3.92 -1.96,7.79 -2.75,11.78 -0.19,0.94 -0.37,1.87 -0.49,2.79 -0.29,1.45 -0.38,2.95 -0.58,4.41 0.02,-0.11 0.04,-0.23 0.05,-0.35 -0.02,0.13 -0.03,0.25 -0.05,0.38 v 0 0 c -0.21,0.81 -0.33,1.65 -0.34,2.51 -0.02,0.16 -0.04,0.31 -0.06,0.47 0.02,-0.16 0.04,-0.31 0.06,-0.46 0,0.05 0,0.09 0,0.14 -0.26,2.28 -0.47,4.55 -0.63,6.84 -0.15,2.23 -0.24,4.41 -0.18,6.64 0.11,4.15 1.07,8.43 2.39,12.34 0.52,1.55 1.22,3.04 1.86,4.54 0.84,1.94 2.4,3.54 3.73,5.15 0.33,0.24 0.67,0.5 0.99,0.75 0.97,0.9 2.04,1.66 3.19,2.27 1.57,0.91 3.39,1.49 5.1,2.08 1.59,0.56 3.31,0.77 4.98,1.01 2.15,0.33 4.26,0.54 6.44,0.64 4.88,0.24 9.89,-0.58 14.66,-1.51 7.66,-1.49 14.95,-4.77 22.06,-7.86 3.2,-1.39 6.36,-2.87 9.52,-4.32 5.35,-2.44 10.75,-4.79 16.13,-7.14 10.4,-4.55 20.75,-9.15 31.03,-13.95 4.74,-2.22 9.33,-4.79 13.97,-7.2 2.43,-1.25 4.83,-2.52 7.23,-3.81 -2.15,4.62 -4.07,9.34 -6.04,14.07 -1.1,2.61 -1.83,5.42 -2.73,8.12 -0.81,2.37 -1.53,4.9 -2.04,7.36 -0.55,2.65 -1.09,5.29 -1.51,7.98 -0.41,2.65 -0.8,5.31 -1.08,7.98 -0.48,4.56 1.04,9.4 4.1,12.8 5.24,5.85 12.99,6.94 20.38,7.77 2.92,0.33 5.87,0.42 8.81,0.53 2.82,0.12 5.62,0.18 8.43,0.24 0.67,0.01 1.33,0.02 1.99,0.02 6.42,0 12.72,-0.67 19.01,-2.08 10.19,-2.28 19.61,-7.23 28.92,-11.84 2.47,-1.2 4.8,-2.76 7.18,-4.13 2.25,-1.31 4.41,-2.7 6.6,-4.11 8.29,-5.33 16.49,-10.79 24.62,-16.34 8.28,-5.64 16.69,-11.12 24.92,-16.81 4.35,-3.02 8.63,-6.04 12.84,-9.25 4.49,-3.42 8.79,-7.01 13.11,-10.66 4.04,-3.43 7.87,-7.18 11.74,-10.81 2.57,-2.41 5.18,-4.83 7.7,-7.31 0.96,0.85 1.84,1.79 2.84,2.61 4.56,3.77 9.21,7.43 13.8,11.15 2,1.62 3.94,3.29 5.9,4.95 -0.59,1.02 -1.11,2.09 -1.59,3.17 -0.48,1.12 -0.97,2.24 -1.46,3.36 0.02,-0.04 0.04,-0.08 0.06,-0.12 -0.79,1.65 -1.77,3.21 -2.63,4.83 -1.26,2.34 -2.33,4.77 -3.44,7.19 -2.12,4.59 -4,9.31 -6.05,13.94 -2.09,4.77 -4.35,9.45 -6.71,14.08 -2.43,4.74 -4.65,9.58 -7.05,14.33 -5.07,10.01 -10.34,19.92 -15.19,30.03 -4.89,10.21 -9.74,20.45 -14.33,30.81 -4.5,10.12 -8.44,20.44 -12.67,30.67 -4.94,11.08 -10.12,22.05 -14.86,33.22 -0.2,0.46 -0.4,0.93 -0.6,1.4 -0.05,0.11 -0.1,0.22 -0.14,0.33 -0.27,0.63 -0.53,1.26 -0.8,1.89 -0.41,0.71 -0.75,1.5 -0.99,2.34 -0.22,0.54 -0.45,1.08 -0.68,1.61 0.07,-0.15 0.14,-0.31 0.2,-0.47 -0.06,0.14 -0.12,0.28 -0.18,0.43 0.22,-0.5 0.43,-1 0.64,-1.5 -4.55,10.73 -7.83,21.9 -11.66,32.9 -3.67,10.56 -7.01,21.23 -10.26,31.91 -1.54,5.02 -2.76,10.12 -4.25,15.15 -1.02,3.45 -2.1,7.08 -2.27,10.68 -0.14,3.05 0.63,5.26 1.89,7.96 1.13,2.44 3.43,4.32 5.55,5.83 6.11,4.37 13.06,7.86 19.9,10.93 6.02,2.7 12.24,4.93 18.44,7.19 4.63,1.68 9.37,3.03 14.04,4.58 0.24,0.14 0.47,0.28 0.7,0.43 1.41,0.87 3.02,1.43 4.59,1.96 2.27,0.79 4.54,1.56 6.83,2.3 4.94,1.62 9.94,3.01 14.97,4.3 10.87,2.77 21.74,5.42 32.7,7.79 10.72,2.32 21.53,4.19 32.35,6 12.04,2.03 24.07,4.09 36.26,5.08 10.79,0.89 21.58,1 32.41,1 0.64,0 1.28,0 1.93,0 10.6,-0.01 21.22,0 31.81,-0.35 22.55,-0.73 45.1,-1.4 67.61,-3.05 9.82,-0.73 19.59,-2.1 29.36,-3.42 4.46,-0.62 8.9,-1.57 13.32,-2.43 4.32,-0.83 8.63,-1.76 12.89,-2.84 8.9,-2.28 17.65,-5 26.43,-7.65 4.43,-1.35 9.03,-2.18 13.51,-3.36 4.8,-1.26 9.61,-2.46 14.45,-3.61 1.27,-0.31 2.37,-0.92 3.37,-1.66 3.74,3.08 7.48,6.17 11.18,9.27 8.63,7.26 17.48,14.21 26.36,21.14 4.32,3.36 8.56,6.84 12.82,10.29 5.26,4.24 10.65,8.3 16.07,12.33 3.92,2.91 8.03,5.57 12.08,8.28 5.24,3.52 10.47,7.04 15.7,10.58 8.97,6.06 18.21,11.71 27.58,17.14 0.35,0.73 0.68,1.47 1.13,2.11 1.62,2.3 3.44,4.02 6.22,4.79 0.91,0.25 1.84,0.37 2.76,0.37 0.76,0 1.51,-0.13 2.25,-0.29 6.37,3.53 12.77,7.01 19.19,10.43 4.68,2.49 9.36,4.94 14.05,7.41 4.39,2.32 8.82,4.67 13.32,6.77 10.85,5.06 21.71,10.08 32.61,15 10.29,4.64 20.53,9.41 30.76,14.18 5.29,2.47 10.72,4.69 16.09,6.94 5.07,2.13 10.1,4.34 15.23,6.32 5.76,2.21 11.49,4.39 17.3,6.43 5.78,2.03 11.59,3.96 17.42,5.89 10.01,3.32 19.95,6.85 29.97,10.16 5.82,1.92 11.61,3.79 17.51,5.48 5.82,1.66 11.66,3.29 17.48,4.9 10.1,2.79 20.3,5.4 30.63,7.12 22.98,3.8 46.12,7.24 69.41,8.08 12.1,0.44 24.22,0.59 36.34,0.59 10.39,0 20.77,-0.11 31.15,-0.24 6.17,-0.07 12.32,-0.21 18.48,-0.39 5.44,-0.15 10.87,-0.52 16.3,-0.85 11.41,-0.67 22.78,-2.15 34.1,-3.58 22.49,-2.83 44.93,-6.52 67.1,-11.32 21.82,-4.73 43.18,-11.31 64.66,-17.35 8.89,-2.48 17.78,-4.94 26.67,-7.4 8.55,-2.37 16.91,-5.45 25.28,-8.37 8.16,-2.86 16.27,-5.85 24.37,-8.91 3.8,-1.43 7.56,-2.96 11.35,-4.44"
         style="fill:#121213;fill-opacity:1;fill-rule:nonzero;stroke:none"
         id="path330" />
      <path
         d="m 8639.2013,4666.43 c 0.12,0.02 0.24,0.03 0.36,0.05 h 0.01 c -0.12,-0.02 -0.24,-0.03 -0.37,-0.05"
         style="fill:#121213;fill-opacity:1;fill-rule:nonzero;stroke:none"
         id="path332" />
      <path
         d="m 9015.9713,4997.87 c -0.02,3.97 -0.15,7.94 -0.32,11.9 -0.02,0.43 -0.01,0.85 0.03,1.26 -0.23,2.74 -0.55,5.47 -0.88,8.19 -0.71,4.41 -1.54,8.78 -2.69,13.1 -1.18,4.46 -2.71,8.77 -4.41,13.04 -1.89,4.12 -3.91,8.19 -6.11,12.16 -1.98,3.56 -4.25,6.88 -6.68,10.13 -3.26,4.12 -6.58,8.17 -10.07,12.07 -3.49,3.9 -7.29,7.4 -11.31,10.74 -4.56,3.33 -9.12,6.47 -14.25,8.89 -6.82,2.64 -13.72,5.27 -20.92,6.59 -6.44,0.64 -13.02,0.32 -19.46,0.24 -5.37,-0.05 -10.68,-0.36 -16,-0.88 -6.72,-1.02 -13.37,-2.33 -19.96,-3.99 -3.95,-1 -7.85,-2.09 -11.72,-3.39 -3.18,-1.08 -6.3,-2.32 -9.42,-3.58 -3.26,-1.43 -6.52,-2.89 -9.63,-4.65 -3.4,-1.92 -6.59,-4.08 -9.73,-6.38 -1.97,-1.68 -3.88,-3.38 -5.75,-5.18 -2.6,-2.54 -5.03,-5.27 -7.31,-8.11 -2.22,-3.06 -4.36,-6.27 -6.03,-9.65 -1.14,-2.3 -2.19,-4.59 -3.21,-6.93 -2.68,-6.85 -5.35,-13.76 -6.62,-21.02 -1.09,-10.75 -0.53,-21.52 0.62,-32.24 1.03,-6.52 2.47,-12.86 4.38,-19.21 1.92,-6.34 4.32,-12.66 6.9,-18.76 -0.08,0.18 -0.16,0.35 -0.23,0.53 0.17,-0.42 0.35,-0.83 0.53,-1.25 1.52,-3.13 3.03,-6.25 4.74,-9.29 2.04,-3.65 4.6,-7 7.1,-10.35 3.31,-4.2 6.69,-8.3 10.25,-12.3 3.9,-4.38 8.34,-8.21 12.84,-11.94 2.62,-1.98 5.26,-3.98 8.08,-5.63 4.08,-2.4 8.14,-4.67 12.42,-6.61 4.2,-1.57 8.47,-2.64 12.88,-3.36 6.67,-0.64 13.39,-0.33 20.08,-0.03 4.22,0.19 8.43,0.69 12.63,1.19 4.07,0.58 8.1,1.24 12.11,2.16 4.79,1.09 9.36,2.62 13.97,4.32 9.14,4.11 18.09,8.85 26.18,14.79 3.73,3.09 6.9,6.63 10.12,10.24 2.58,2.91 5.15,5.83 7.6,8.83 5.18,7.06 9.41,14.95 13.13,22.84 0.67,1.42 1.33,2.84 1.95,4.28 0.2,0.59 0.44,1.16 0.73,1.7 0.38,0.89 0.75,1.78 1.13,2.67 -0.35,-0.83 -0.71,-1.66 -1.06,-2.49 1.28,3.29 2.41,6.58 3.17,10.01 0.46,5.1 0.24,10.25 0.2,15.35 z m 20.87,-4.42 c 0.01,-5.92 -0.01,-11.72 -1.2,-17.54 -0.81,-3.93 -2.44,-7.75 -3.99,-11.43 -0.12,-0.27 -0.23,-0.53 -0.34,-0.8 -0.23,-0.79 -0.56,-1.56 -0.96,-2.28 -0.32,-0.74 -0.63,-1.48 -0.94,-2.22 -2.11,-5 -4.78,-9.8 -7.4,-14.56 -1.3,-2.36 -2.71,-4.66 -4.1,-6.98 -2.87,-4.77 -6.55,-9.04 -10.19,-13.24 -1.73,-2 -3.47,-4 -5.22,-5.97 -3.63,-4.08 -7.42,-7.79 -11.79,-11.09 -4.94,-3.74 -10.23,-6.96 -15.67,-9.9 -5.26,-2.83 -10.61,-5.62 -16.22,-7.72 -2.59,-0.96 -5.17,-1.94 -7.83,-2.74 -2.91,-0.86 -5.81,-1.56 -8.77,-2.23 -5.96,-1.37 -12.14,-2.01 -18.21,-2.73 -5.17,-0.62 -10.39,-1 -15.61,-1.11 -5.14,-0.1 -10.24,-0.2 -15.37,0.36 -8.54,0.94 -16.91,3.15 -24.59,7.09 -2.48,1.28 -4.97,2.54 -7.4,3.97 -2.63,1.55 -5.14,3.2 -7.68,4.9 -5.09,3.42 -9.88,7.46 -14.35,11.64 -8.48,7.95 -15.52,17.2 -22.42,26.51 -4.39,5.94 -7.57,12.59 -10.45,19.36 -2.09,5.02 -4.09,10.08 -5.85,15.24 -1.79,5.25 -3.59,10.52 -4.68,15.97 -2.32,11.42 -3.61,23.08 -3.54,34.74 0.03,2.87 0.12,5.67 0.33,8.53 0.17,2.47 0.44,4.92 0.81,7.36 0.65,4.38 1.85,8.57 3.25,12.77 1.95,5.89 4.4,11.61 6.83,17.33 3.29,7.76 8.45,14.8 13.9,21.13 3.97,4.62 8.52,8.91 13.42,12.54 4.27,3.15 8.58,6.24 13.36,8.59 5.41,2.64 10.92,5.08 16.56,7.18 5.25,1.97 10.53,3.68 15.97,5.05 5.35,1.35 10.72,2.47 16.14,3.49 11.61,2.16 23.32,2.38 35.09,2.44 0.43,0 0.85,0 1.27,0 2.62,0 5.25,-0.04 7.87,-0.18 6.14,-0.31 12.05,-1.89 17.86,-3.8 7.13,-2.34 14.42,-4.96 20.87,-8.81 5.36,-3.2 10.31,-7.21 15.13,-11.14 3.86,-3.13 7.21,-6.89 10.51,-10.59 3.83,-4.27 7.4,-8.81 10.87,-13.37 3.2,-4.19 5.99,-8.52 8.56,-13.15 2.88,-5.18 5.28,-10.66 7.53,-16.14 1.83,-4.45 3.32,-9.05 4.42,-13.74 1.42,-5.97 2.37,-11.95 3.14,-18.04 0.62,-4.83 1.09,-9.76 1.12,-14.65 0,-0.58 -0.05,-1.16 -0.14,-1.72 0.06,-2.78 0.09,-5.55 0.1,-8.32"
         style="fill:#121213;fill-opacity:1;fill-rule:nonzero;stroke:none"
         id="path334" />
      <path
         d="m 8805.7013,4955.78 c 0.15,-0.35 0.29,-0.69 0.44,-1.04 0.2,-0.48 0.4,-0.96 0.61,-1.45 -0.35,0.83 -0.7,1.65 -1.05,2.49"
         style="fill:#121213;fill-opacity:1;fill-rule:nonzero;stroke:none"
         id="path336" />
      <path
         d="m 8031.2613,4908.84 c 0.04,-0.1 0.08,-0.19 0.12,-0.28 0.18,-0.42 0.36,-0.85 0.54,-1.27 -0.22,0.52 -0.44,1.03 -0.66,1.55"
         style="fill:#121213;fill-opacity:1;fill-rule:nonzero;stroke:none"
         id="path338" />
      <path
         d="m 8050.8613,4915.56 c -0.13,0.3 -0.26,0.61 -0.39,0.91 -0.07,0.17 -0.15,0.34 -0.22,0.51 0.08,-0.18 0.16,-0.36 0.24,-0.54 0.02,-0.06 0.04,-0.11 0.06,-0.17 0.11,-0.23 0.21,-0.47 0.31,-0.71"
         style="fill:#121213;fill-opacity:1;fill-rule:nonzero;stroke:none"
         id="path340" />
      <path
         d="m 8050.5513,4916.27 c 0,0.01 0,0.01 0,0.01 0.06,-0.13 0.11,-0.26 0.17,-0.4 -0.05,0.13 -0.11,0.26 -0.17,0.39"
         style="fill:#121213;fill-opacity:1;fill-rule:nonzero;stroke:none"
         id="path342" />
      <path
         d="m 7765.6913,4731.69 v -0.01 c 0,0 0,-0.01 0,-0.02 0,0.01 0,0.02 0,0.03"
         style="fill:#121213;fill-opacity:1;fill-rule:nonzero;stroke:none"
         id="path344" />
      <path
         d="m 8971.5513,5005.78 c -0.01,3.58 -0.03,7.15 -0.09,10.73 -0.06,3.21 -0.19,6.43 -0.54,9.62 -0.31,2.88 -0.5,5.79 -0.81,8.68 -0.12,0.62 -0.27,1.22 -0.45,1.81 -0.34,0.58 -0.71,1.12 -1.12,1.68 -0.22,0.28 -0.44,0.57 -0.66,0.85 -0.94,1.62 -1.41,3.38 -1.42,5.26 0,0.66 0.06,1.32 0.19,1.96 -0.96,1.68 -2.01,3.3 -3.1,4.9 -1.21,1.43 -2.47,2.78 -3.89,4.04 -0.68,0.6 -1.4,1.16 -2.12,1.71 -2.44,1.79 -4.91,3.5 -7.45,5.15 -2.22,1.45 -4.56,2.61 -6.95,3.69 -4.75,1.71 -9.5,2.85 -14.47,3.71 -6.36,0.72 -12.7,0.85 -19.12,0.81 -5.94,-0.03 -11.82,-0.27 -17.72,-0.94 -2.9,-0.51 -5.76,-1.08 -8.61,-1.85 -2.01,-0.54 -3.98,-1.3 -5.92,-2.09 -2.42,-1.11 -4.73,-2.24 -6.93,-3.74 -3.64,-3.08 -6.85,-6.71 -9.84,-10.42 -2.16,-2.98 -4.05,-5.98 -5.65,-9.29 -1.17,-3.23 -2.16,-6.52 -2.78,-9.9 -0.57,-5.76 -0.46,-11.65 -0.25,-17.41 0.22,-6.06 0.72,-12.12 1.25,-18.15 0.46,-2.87 1,-5.69 1.68,-8.53 0.74,-3.1 1.88,-6.1 3.04,-9.06 1.53,-3.35 3.15,-6.59 5.25,-9.63 3.59,-4.27 7.45,-8.32 11.7,-11.93 4.32,-3.11 8.73,-6.08 12.97,-9.29 -0.32,0.24 -0.63,0.49 -0.95,0.73 1.06,-0.8 2.11,-1.61 3.19,-2.38 1.46,-1.02 2.97,-1.86 4.55,-2.63 1.57,-0.54 3.17,-0.92 4.82,-1.26 6.4,-0.61 12.92,-0.42 19.31,0.07 3.19,0.57 6.23,1.48 9.28,2.6 3.87,1.81 7.64,3.78 11.42,5.75 4.51,2.36 9.02,4.61 13.19,7.52 2.61,2.22 4.9,4.72 7.07,7.36 2.59,3.8 4.73,7.73 6.65,11.91 2.21,5.63 4.09,11.43 5.19,17.38 0.27,3.5 0.1,7.08 0.09,10.58 z m -1.63,30.75 v -0.01 c 0.04,-0.05 0.09,-0.11 0.13,-0.17 -0.04,0.06 -0.09,0.12 -0.13,0.18 z m -0.01,0 c -0.07,0.1 -0.14,0.19 -0.22,0.28 h 0.01 c 0.07,-0.09 0.14,-0.19 0.21,-0.28 z m 17.99,-60.14 c -3.57,-11.17 -9.57,-21.66 -17.81,-30.02 -4.85,-4.89 -10.76,-8.47 -16.85,-11.59 -4.53,-2.33 -9.01,-4.73 -13.6,-6.95 -4.63,-2.26 -9.5,-4.08 -14.53,-5.14 -5.18,-1.08 -10.57,-1.14 -15.84,-1.22 -5.7,-0.08 -11.22,0.21 -16.83,1.31 -4.15,0.82 -8.29,2.75 -11.88,4.97 -2.07,1.27 -4.02,2.87 -5.95,4.41 -4.52,3.26 -9.33,6.22 -13.63,9.76 -3.89,3.21 -7.45,6.77 -10.8,10.54 -3.07,3.44 -5.84,7.13 -8.04,11.17 -1.67,3.1 -3.03,6.39 -4.33,9.64 -1.98,4.98 -3.43,10.01 -4.42,15.28 -1.09,5.78 -1.46,11.68 -1.89,17.53 -0.39,5.16 -0.55,10.31 -0.56,15.49 -0.03,7.32 0.33,14.46 2.38,21.56 1.58,5.43 3.73,11 7.01,15.65 1.91,2.72 3.86,5.42 6,7.95 1.79,2.13 3.7,4.16 5.55,6.23 2.09,2.35 4.6,4.32 7.11,6.18 3.77,2.79 8.06,4.47 12.35,6.26 4.71,1.98 9.55,3.21 14.56,4.06 5.63,0.95 11.33,1.52 17.02,1.65 2.88,0.07 5.75,0.12 8.61,0.12 8.38,0 16.73,-0.42 25.01,-1.97 2.32,-0.43 4.62,-0.89 6.88,-1.57 3.58,-1.06 6.98,-2.4 10.41,-3.89 4.91,-2.14 9.35,-5.21 13.65,-8.35 2.04,-1.48 4.02,-3.03 5.97,-4.63 2.13,-1.76 3.96,-3.72 5.7,-5.87 2.57,-3.19 4.9,-6.65 6.69,-10.34 1.05,-2.18 1.63,-4.33 1.32,-6.65 0.91,-1.26 1.47,-2.8 2.03,-4.21 1.04,-2.61 1.31,-5.27 1.66,-8.05 0.34,-2.61 0.44,-5.26 0.73,-7.89 0.58,-5.43 0.72,-10.85 0.77,-16.3 0.02,-2.43 0.03,-4.86 0.03,-7.29 0.02,-3.48 0.18,-7 -0.23,-10.45 -0.68,-6.03 -2.41,-11.63 -4.25,-17.38"
         style="fill:#121213;fill-opacity:1;fill-rule:nonzero;stroke:none"
         id="path346" />
    </g>
  </g>
</svg>
