<?xml version="1.0" encoding="UTF-8" standalone="no"?>
<!-- Created with Inkscape (http://www.inkscape.org/) -->

<svg
   version="1.1"
   id="svg2"
   width="164.22678"
   height="222.51207"
   viewBox="0 0 164.22677 222.51208"
   xmlns="http://www.w3.org/2000/svg"
   xmlns:svg="http://www.w3.org/2000/svg">
  <defs
     id="defs6" />
  <g
     id="g8"
     transform="matrix(1.3333333,0,0,-1.3333333,-498.02748,256.26109)">
    <g
       id="g10"
       transform="scale(0.1)">
      <g
         id="g65"
         transform="matrix(-0.9781476,0.20791169,0.20791169,0.9781476,8378.7066,-889.81406)">
        <path
           d="m 4662.87,1050.64 c -7.11,-8.99 -15.06,-17.27 -22.95,-25.56 -3.78,-3.97 -7.91,-7.67 -11.87,-11.46 -3.95,-3.76 -7.97,-7.49 -11.7,-11.45 -7.6,-8.092 -15.09,-16.311 -22.68,-24.42 -8.14,-8.68 -16.37,-17.25 -24.08,-26.332 -3.79,-4.457 -7.39,-9.18 -10.67,-14.027 -3.08,-4.563 -5.94,-9.219 -8.74,-13.95 -11.79,-19.89 -21.96,-40.98 -29.31,-62.921 -3.5,-10.461 -6.76,-20.981 -9.19,-31.75 -2.44,-10.79 -4.45,-21.688 -6.18,-32.622 -1.93,-12.097 -3.42,-24.277 -4.07,-36.527 -0.58,-11.07 -0.69,-22.152 -0.74,-33.23 -0.04,-4.282 -0.04,-8.59 -0.04,-12.879 0,-3.442 0.09,-6.91 -0.04,-10.364 -4.3,-0.398 -8.61,-0.507 -12.91,-0.597 -5.27,-0.121 -10.53,-0.16 -15.8,-0.211 -6.79,-0.039 -13.57,-0.031 -20.35,-0.031 0.06,0.441 0.27,0.839 0.27,1.3 0.01,9.43 0.58,18.832 0.72,28.262 0.16,11.16 0.41,22.301 0.99,33.457 1.15,22.32 1.82,44.672 3.13,66.992 0.79,13.559 1.88,27.129 3.09,40.68 1.07,12.141 2.61,24.25 4.08,36.352 1.2,7.687 2.32,15.429 3.84,23.078 1.74,8.871 3.65,17.672 5.9,26.429 2.13,8.262 4.77,16.371 7.31,24.512 2.46,7.809 5.53,15.391 8.54,23.009 3.33,7.6 6.7,15.16 10.45,22.56 2.29,4.54 4.58,9.05 7.03,13.5 2.49,4.51 5.07,8.88 7.79,13.26 4.93,7.92 10.05,15.71 15.23,23.48 4.86,7.28 10.24,14.24 15.49,21.25 13.44,17.34 27.16,34.47 40.86,51.59 7.2,9 14.24,18.1 21.21,27.28 6.79,8.95 13.94,17.73 20.35,26.96 1.85,2.67 3.71,5.35 5.56,8.02 1.72,2.46 3.21,5.14 4.8,7.7 2.74,4.43 5.28,9.01 7.69,13.63 2.08,3.98 4.02,7.94 5.75,12.09 3.27,7.83 5.26,15.87 5.41,24.39 0.07,3.98 -0.59,7.96 -1.14,11.89 -0.51,3.68 -1.46,7.27 -2.53,10.82 -1.17,3.86 -2.77,7.61 -4.52,11.23 -1.8,3.75 -4.66,7 -7.52,9.99 -4.81,5.02 -10.89,9.01 -17.22,11.85 -7.41,3.34 -15.48,4.67 -23.59,5.11 -7.26,0.39 -14.74,-0.66 -21.88,-1.89 -4.89,-0.83 -9.65,-2.16 -14.31,-3.82 -3.11,3.63 -6.54,6.95 -10.34,9.93 -2.99,2.33 -6.05,4.57 -9.27,6.58 -3.7,2.3 -7.72,4.01 -11.74,5.64 -9.08,3.66 -18.95,3.18 -28.53,3.07 -5.74,-0.07 -11.47,-0.19 -17.21,-0.49 -5.04,-0.27 -10.08,-0.67 -15.09,-1.42 -7.67,-1.16 -15.08,-3.09 -22.32,-5.9 -6.6,-2.56 -12.83,-5.8 -18.71,-9.71 -0.8,-0.53 -1.58,-1.08 -2.36,-1.64 -1.3,1.38 -2.64,2.73 -3.98,4.05 -5.48,5.37 -11.81,10.12 -18.79,13.35 -3.56,1.65 -7.14,2.8 -11,3.45 -3.84,0.67 -7.67,0.94 -11.54,0.94 -0.53,0 -1.06,-0.01 -1.59,-0.02 -10.25,-0.18 -20.5,-1.09 -30.57,-2.94 -14.97,-2.75 -29.5,-8.5 -42.35,-16.66 -1.9,-1.2 -3.76,-2.48 -5.58,-3.81 -0.53,0.27 -1.06,0.54 -1.59,0.81 -6.86,3.45 -14.18,6.09 -21.75,7.34 -6.64,1.08 -13.34,1.38 -20.06,1.03 -10.59,-0.53 -21.09,-1.29 -31.41,-3.9 -14.74,-3.75 -28.24,-12.01 -38.24,-23.44 -10.4,-11.9 -17.47,-26.93 -20.49,-42.39 -1.49,-7.6 -1.55,-15.19 -1.14,-22.89 0.44,-8.15 1.54,-16.39 3.86,-24.23 1.53,-5.17 3.77,-10.09 6.03,-14.97 2.58,-5.55 5.56,-10.77 9.15,-15.73 4.52,-6.26 9.83,-11.94 14.94,-17.71 3.51,-3.97 6.87,-8.05 10.19,-12.17 6.41,-8.76 12.68,-17.6 17.56,-27.32 2.9,-5.81 5.78,-11.64 8.61,-17.49 2.2,-4.51 4.17,-9.13 6.19,-13.73 8.55,-20.99 16.62,-42.14 24.27,-63.46 3.54,-9.84 7.08,-19.66 10.35,-29.6 1.79,-5.49 3.65,-10.96 5.29,-16.512 0.95,-3.246 1.92,-6.5 2.87,-9.75 0.76,-2.539 1.21,-5.187 1.8,-7.758 2.54,-11.109 4.69,-22.312 6.86,-33.492 1.98,-10.219 3.9,-20.457 5.51,-30.738 3.62,-22.961 7.19,-45.93 10.51,-68.942 0.16,-1.109 0.32,-2.218 0.48,-3.328 2.79,-21.269 5.01,-42.601 6.58,-63.98 0.43,-5.949 0.81,-11.879 1.06,-17.828 0.21,-5.032 0.24,-10.051 0.3,-15.071 0.07,-5.632 0.03,-11.281 0.36,-16.89 0.34,-5.961 0.86,-11.879 1.47,-17.801 -0.65,0.059 -1.3,0.141 -1.96,0.191 -8.94,0.789 -17.92,0.778 -26.89,1.348 -4.03,0.262 -8.09,0.441 -12.13,0.563 -4.09,0.117 -8.25,-0.051 -12.33,0.367 -0.05,0.679 -0.16,1.359 -0.35,2.039 -0.39,2.801 -0.78,5.594 -1.16,8.39 -1.14,11.161 -1.84,22.352 -3.09,33.5 -0.66,5.942 -1.38,11.891 -2.4,17.782 -0.92,5.34 -2.02,10.629 -3.11,15.929 -2.24,10.86 -5.35,21.481 -9,31.961 -3.8,10.95 -7.75,21.86 -11.8,32.719 -4.07,10.961 -8.59,21.723 -13.74,32.211 -4.67,9.512 -9.95,18.758 -15.21,27.961 -2.99,5.219 -5.97,10.41 -9.12,15.527 -3.14,5.082 -6.37,10.071 -9.64,15.071 -5.71,8.703 -11.49,17.351 -17,26.179 -6.02,9.653 -12.12,19.231 -18.53,28.632 -6.8,9.98 -13.38,20.06 -19.74,30.32 -5.8,9.37 -11.48,18.8 -16.99,28.35 -5.38,9.33 -10.28,18.99 -15.12,28.62 -6.35,12.65 -12.68,25.32 -18.82,38.08 -2.33,5.56 -4.72,11.09 -6.68,16.79 -1.33,3.9 -2.66,7.78 -4.01,11.67 -1.3,3.79 -2.24,7.76 -3.36,11.61 -2.08,7.17 -3.59,14.47 -5.24,21.75 -0.62,2.74 -0.98,5.55 -1.44,8.33 -0.65,3.96 -1.3,7.91 -1.95,11.86 -2.71,21.04 -5.22,42.12 -6.36,63.31 -0.35,6.42 -0.7,12.83 -1.04,19.25 -0.33,6.23 -0.35,12.48 -0.52,18.72 -0.31,11.01 -0.28,22.06 -0.33,33.08 -0.04,8.34 0.03,16.67 0.07,25.02 0.03,4.6 0.27,9.22 0.41,13.82 0.26,8.41 0.77,16.8 1.78,25.15 1.42,9.91 3.49,19.72 6.41,29.32 1.47,4.81 2.81,9.69 4.45,14.46 1.69,4.95 3.22,10.01 5.11,14.89 1.79,4.62 3.58,9.25 5.37,13.86 1.84,4.28 3.61,8.61 5.68,12.79 2.65,5.4 5.3,10.79 8.17,16.08 2.86,5.28 5.79,10.52 8.72,15.75 1.34,2.38 2.77,4.72 4.16,7.07 2.3,3.87 4.57,7.73 7.24,11.35 4.74,5.81 9.96,11.19 15.13,16.61 4.66,4.89 9.65,9.42 14.68,13.91 9.51,8.48 18.99,16.98 28.79,25.09 5.73,4.22 11.47,8.4 17.45,12.28 6.33,4.11 12.87,7.87 19.44,11.61 7.2,4.12 14.45,8.12 21.82,11.9 6.47,3.31 13.08,6.27 19.73,9.17 6.13,2.25 12.26,4.39 18.46,6.43 6.44,2.1 13.05,3.64 19.66,5.15 12.13,2.79 24.59,4.24 36.93,5.92 11.14,1.35 22.24,2.55 33.45,3.18 11.1,0.63 22.23,0.76 33.34,0.91 22.94,0.32 45.9,0.29 68.83,-0.06 4.77,-0.07 9.57,-0.52 14.3,-1.1 8.06,-1.21 15.91,-3.08 23.71,-5.43 3.78,-1.15 7.56,-2.31 11.34,-3.46 5.64,-1.72 11.25,-3.65 16.75,-5.75 12.74,-4.88 25.38,-9.93 38,-15.09 5.71,-2.43 11.39,-4.87 17,-7.55 2.67,-1.28 5.38,-2.48 7.99,-3.9 3.6,-1.98 7.21,-3.94 10.8,-5.92 1.07,-0.58 2.07,-1.34 3.09,-2 2.16,-1.39 4.32,-2.79 6.49,-4.19 2.64,-1.69 5.1,-3.58 7.61,-5.47 5.62,-4.22 11.23,-8.48 16.83,-12.73 -0.12,0.09 -0.23,0.17 -0.34,0.26 2.98,-2.3 5.97,-4.61 8.96,-6.91 1.99,-1.57 3.84,-3.35 5.76,-5.01 1.6,-1.4 3.24,-2.77 4.77,-4.24 2.57,-2.48 5.15,-4.95 7.74,-7.42 1.83,-1.78 3.52,-3.72 5.26,-5.59 7.36,-7.9 14.16,-16.19 20.87,-24.62 3.72,-4.92 7.4,-9.84 10.9,-14.93 1.7,-2.47 3.33,-4.91 4.88,-7.47 1.69,-2.8 3.55,-5.56 5.08,-8.44 1.94,-3.68 3.87,-7.37 5.81,-11.04 1.36,-2.6 2.48,-5.33 3.67,-8 2.37,-5.28 4.64,-10.6 6.91,-15.93 1.61,-4.11 3.23,-8.22 4.85,-12.32 1.68,-4.32 2.98,-8.83 4.47,-13.22 1.36,-4.02 2.43,-8.15 3.62,-12.22 1.11,-3.86 2.2,-7.73 3.28,-11.59 2.11,-7.59 4.01,-15.26 5.39,-23.02 0.73,-4.18 1.62,-8.36 2.2,-12.57 0.57,-4.1 1.13,-8.22 1.7,-12.33 1.33,-10.33 2.75,-20.69 3.33,-31.09 0.65,-11.58 1.05,-23.15 1.19,-34.75 0.14,-11.61 0.17,-23.23 0.11,-34.84 -0.03,-5.49 -0.31,-10.97 -0.53,-16.46 -0.18,-4.63 -0.85,-9.28 -1.39,-13.9 -1.6,-8.9 -3.29,-17.76 -5.12,-26.62 -0.9,-4.31 -2.02,-8.59 -3.07,-12.87 -1.13,-4.65 -2.67,-9.18 -4.09,-13.75 -2.75,-8.81 -6.25,-17.44 -9.49,-26.08 -2.76,-7.38 -5.79,-14.66 -8.81,-21.94 -5.25,-11.43 -10.61,-22.89 -16.86,-33.83 -3.25,-5.69 -6.52,-11.41 -10.25,-16.82 -3.72,-5.39 -7.52,-10.66 -11.42,-15.9 -6.52,-8.28 -13.03,-16.56 -19.56,-24.83 z M 4343.92,707.68 c -0.71,6.609 -1.26,13.211 -1.64,19.871 -0.32,5.609 -0.29,11.258 -0.36,16.89 -0.06,5.02 -0.09,10.039 -0.3,15.071 -0.14,3.558 -0.41,7.109 -0.64,10.656 0.58,-0.246 1.17,-0.5 1.75,-0.738 1.85,-0.5 3.7,-0.5 5.55,0 1.5,0.218 3.02,0.441 4.53,0.648 12.28,1.082 24.62,1.082 36.96,1.07 1.86,0 3.72,0 5.58,0.012 7.57,0.012 15.14,0.012 22.71,0.012 4.95,0 9.95,0.039 14.93,-0.102 -0.28,-5.449 -0.59,-10.89 -0.79,-16.34 -0.35,-9.269 -0.33,-18.55 -0.64,-27.82 -0.27,-7.769 -0.57,-15.539 -0.57,-23.301 0,-0.48 0.21,-0.89 0.27,-1.347 -8.31,-0.051 -16.63,-0.114 -24.94,0.238 -10.81,0.461 -21.56,1.27 -32.33,2.398 -9.02,0.942 -18.09,1.5 -27.11,2.5 -0.98,0.114 -1.97,0.18 -2.96,0.282 z M 4560.86,1282 c 0.59,-6.5 1.07,-12.94 0.47,-19.46 -0.37,-2.04 -0.88,-4.01 -1.56,-5.96 -0.88,-1.77 -1.89,-3.42 -3.03,-5.03 -0.72,-0.83 -1.46,-1.63 -2.25,-2.41 -0.83,-0.55 -1.68,-1.04 -2.58,-1.49 -2.66,-0.95 -5.4,-1.57 -8.2,-2.05 -2.93,-0.4 -5.89,-0.76 -8.82,-0.62 -0.44,0.11 -0.88,0.23 -1.32,0.36 -0.16,0.09 -0.33,0.18 -0.49,0.27 -0.52,1.65 -0.9,3.31 -1.22,5.02 -0.58,5.12 -0.96,10.25 -0.59,15.41 0.58,3.03 1.44,5.91 2.55,8.79 1.94,4.22 4.17,8.2 6.88,11.98 3.26,3.92 6.93,7.35 10.88,10.56 1.61,1.17 3.26,2.27 4.95,3.31 2.12,-6.1 3.32,-12.33 4.33,-18.68 z m -138.98,-28.15 c -0.06,0.03 -0.11,0.06 -0.17,0.09 -0.42,0.4 -0.82,0.82 -1.21,1.25 -1.05,1.6 -1.96,3.23 -2.78,4.95 -0.98,2.82 -1.66,5.65 -2.16,8.59 -0.62,5.37 -1.05,10.94 -0.58,16.3 0.4,2 0.91,3.9 1.59,5.8 1.22,2.47 2.63,4.77 4.23,7.01 1.53,1.88 3.15,3.69 4.83,5.43 1.37,-2.33 2.62,-4.73 3.75,-7.22 2.16,-5.71 3.5,-11.59 4.41,-17.62 0.64,-5.14 1.15,-10.41 0.84,-15.58 -0.17,-0.85 -0.38,-1.69 -0.63,-2.53 -0.3,-0.56 -0.62,-1.11 -0.96,-1.64 -0.47,-0.5 -0.96,-0.98 -1.47,-1.44 -0.81,-0.52 -1.63,-0.99 -2.49,-1.44 -2.35,-0.85 -4.74,-1.48 -7.2,-1.95 z m -134.09,27.31 c 0.36,1.96 0.83,3.87 1.49,5.76 1.3,2.66 2.82,5.13 4.54,7.51 3.44,4.17 7.18,8.03 11.14,11.66 2.51,-2.13 4.84,-4.42 6.97,-6.95 1.87,-2.67 3.5,-5.43 4.9,-8.38 1.79,-4.73 2.98,-9.54 3.79,-14.54 0.48,-3.93 0.86,-7.91 0.8,-11.85 -0.01,-0.07 -0.03,-0.14 -0.05,-0.2 -0.27,-0.5 -0.55,-0.98 -0.86,-1.45 -0.02,-0.02 -0.03,-0.04 -0.05,-0.06 -0.41,-0.25 -0.81,-0.49 -1.24,-0.72 -2.53,-0.87 -5.13,-1.44 -7.78,-1.87 -4.19,-0.44 -8.31,-0.61 -12.5,-0.28 -1.69,0.33 -3.32,0.75 -4.95,1.32 -0.79,0.4 -1.55,0.82 -2.3,1.3 -0.2,0.19 -0.39,0.38 -0.58,0.58 -0.49,0.75 -0.93,1.5 -1.35,2.3 -0.83,2.4 -1.38,4.82 -1.8,7.32 -0.27,2.85 -0.36,5.69 -0.17,8.55 z m -20.58,-9.44 c 0.42,-3.99 1.1,-7.99 2.35,-11.8 1.31,-3.92 3.29,-7.75 6.08,-10.82 2.57,-2.84 5.58,-4.98 9.06,-6.57 7.57,-3.46 15.82,-4.16 24.05,-3.57 7.47,0.55 14.77,1.86 21.49,5.23 3.51,1.77 5.95,4.8 8.23,7.87 0.3,0.5 0.62,1 0.92,1.51 0.63,1.34 1.22,2.7 1.78,4.08 0.73,2.66 1.07,5.35 1.12,8.1 0.05,1.83 -0.23,3.73 -0.37,5.54 -0.17,2.33 -0.43,4.64 -0.72,6.95 -0.49,3.82 -1.13,7.58 -2.03,11.33 -1.02,4.15 -2.75,8.12 -4.47,12.01 -2.91,6.55 -7.65,12.47 -12.84,17.37 4.02,2.44 8.19,4.61 12.53,6.55 9.02,3.61 18.32,6.01 27.91,7.47 4.74,0.56 9.48,0.86 14.24,1.09 4.61,0.22 9.16,0.33 13.74,-0.12 2.16,-0.4 4.21,-0.96 6.27,-1.71 2.77,-1.36 5.38,-2.91 7.9,-4.71 2.94,-2.38 5.71,-4.94 8.34,-7.64 -1.38,-1.35 -2.73,-2.74 -4.06,-4.18 -2.67,-2.88 -5.05,-6.04 -7.3,-9.28 -2.45,-3.54 -4.15,-7.64 -5.55,-11.7 -1.25,-3.57 -1.61,-7.55 -1.87,-11.28 -0.17,-2.2 -0.02,-4.44 0.12,-6.64 0.33,-5.38 0.79,-10.72 1.77,-16.04 0.71,-3.91 2.23,-7.5 3.79,-11.13 1.48,-3.44 3.79,-6.37 6.12,-9.27 1.08,-1.35 2.84,-2.67 4.23,-3.61 1.53,-1.06 2.97,-1.78 4.75,-2.44 1.87,-0.7 4.01,-1.3 6.02,-1.29 2.45,0.01 4.85,0.42 7.25,0.84 2.88,0.51 5.68,1.44 8.38,2.55 1.85,0.77 3.52,1.54 5.24,2.55 1.69,0.99 3.18,2.31 4.69,3.55 2.74,2.22 4.85,5.54 6.31,8.7 2.09,4.5 2.76,9.25 2.92,14.19 0.11,3.89 -0.49,7.89 -0.85,11.77 -0.64,6.81 -1.83,13.56 -3.74,20.12 -2.04,6.96 -5.42,13.57 -9.31,19.68 4.29,2.89 8.79,5.41 13.54,7.55 6.94,2.74 14.1,4.64 21.49,5.82 7.26,0.83 14.56,1.04 21.86,1.23 2.71,0.07 5.42,0.08 8.11,0.11 4.21,0.05 8.44,0.19 12.64,-0.14 2.89,-0.53 5.67,-1.32 8.43,-2.37 4.45,-2.08 8.57,-4.65 12.55,-7.56 1.49,-1.21 2.93,-2.48 4.32,-3.8 -3.34,-2.2 -6.52,-4.63 -9.61,-7.19 -6.19,-5.11 -11.34,-11.3 -15.54,-18.12 -2.09,-3.4 -3.69,-7.09 -5.21,-10.77 -1.36,-3.3 -2.43,-6.58 -3.11,-10.08 -1.18,-5.93 -0.95,-11.88 -0.5,-17.85 0.28,-3.63 0.81,-7.31 1.51,-10.88 0.65,-3.33 1.95,-6.84 3.96,-9.6 1.44,-1.95 2.96,-3.51 5.03,-4.83 1.86,-1.2 3.73,-2.14 5.83,-2.9 4.74,-1.7 9.53,-1.55 14.44,-1.09 4.48,0.42 8.99,1.06 13.35,2.2 3.16,0.81 6.25,2.18 9.13,3.72 3.16,1.69 5.77,4.31 8.09,7.01 4.76,5.58 7.98,12.16 9.39,19.35 1.93,9.88 1.16,20.34 -0.37,30.24 -0.7,4.52 -1.43,8.98 -2.58,13.42 -0.75,2.91 -1.69,5.76 -2.82,8.54 3.63,1.03 7.32,1.84 11.08,2.44 5.95,0.69 11.87,0.98 17.85,0.4 3.5,-0.59 6.9,-1.3 10.25,-2.5 2.88,-1.38 5.61,-2.96 8.22,-4.81 2.16,-1.81 4.14,-3.76 5.99,-5.89 1.01,-1.58 1.89,-3.2 2.67,-4.89 1.9,-5.03 3.27,-10.14 4.13,-15.44 0.36,-3.53 0.47,-7.03 0.16,-10.57 -0.81,-4.45 -2.13,-8.71 -3.8,-12.92 -1.8,-4 -3.86,-7.86 -5.9,-11.76 -1.63,-3.13 -3.41,-6.25 -5.27,-9.24 -3.85,-6.2 -7.7,-12.36 -12.05,-18.23 -8.73,-11.81 -17.69,-23.43 -26.61,-35.08 -13.6,-17.46 -27.41,-34.77 -41.26,-52.02 -7.23,-9 -14.41,-18.11 -21.13,-27.5 -3.36,-4.68 -6.72,-9.33 -9.93,-14.12 -3.38,-5.08 -6.7,-10.2 -10,-15.33 -2.65,-4.14 -5.44,-8.26 -7.81,-12.57 -2.94,-5.33 -5.86,-10.64 -8.6,-16.07 -5.27,-10.42 -10.35,-20.97 -14.64,-31.83 -1.99,-5.06 -4.23,-10.1 -5.93,-15.261 -1.81,-5.551 -3.58,-11.121 -5.32,-16.699 -3.28,-10.449 -6.21,-21.09 -8.33,-31.84 -2.36,-11.98 -4.72,-24.031 -6.2,-36.16 -1.38,-11.41 -2.68,-22.828 -3.91,-34.25 -1.21,-11.11 -1.91,-22.281 -2.7,-33.422 -0.78,-10.93 -1.41,-21.859 -1.86,-32.809 -0.26,-6.218 -0.52,-12.449 -0.78,-18.679 -2.06,0.09 -4.12,0.152 -6.18,0.152 -3.45,0 -6.91,-0.082 -10.33,-0.082 -8.38,0 -16.75,-0.012 -25.14,-0.02 -7.62,-0.011 -15.25,0.04 -22.87,-0.171 -3.91,-0.098 -7.86,-0.11 -11.77,-0.457 -5,-0.454 -9.96,-1.082 -14.93,-1.832 -1.08,-0.168 -2.14,-0.731 -3.11,-1.442 -1.58,19.5 -3.51,39.004 -6.31,58.352 -3.27,22.621 -6.73,45.211 -10.28,67.8 -1.79,11.372 -3.87,22.692 -5.99,34.02 -1.87,10.012 -3.73,20.082 -6,30 -1.3,5.691 -2.51,11.359 -4.16,16.949 -1.73,5.881 -3.53,11.711 -5.45,17.541 -3.55,10.82 -7.27,21.56 -11.15,32.28 -3.67,10.13 -7.25,20.29 -11.11,30.34 -4.33,11.25 -8.71,22.45 -13.26,33.6 -3.62,8.86 -7.61,17.55 -11.78,26.15 -1.97,4.06 -4,8.08 -6.03,12.11 -0.81,1.63 -1.75,3.19 -2.65,4.76 -1.09,1.92 -2.08,3.96 -3.31,5.8 -2.47,3.68 -4.88,7.42 -7.5,11 -3.29,4.47 -6.64,8.88 -10.13,13.2 -6,7.48 -12.72,14.34 -18.75,21.8 -3.01,4.09 -5.77,8.4 -7.9,13.01 -0.93,1.99 -1.85,3.97 -2.77,5.96 -2.22,5.61 -3.86,11.3 -4.81,17.28 -0.91,7.75 -1.45,15.65 -0.71,23.43 1,6.16 2.67,12.09 4.95,17.9 2.56,5.61 5.65,10.91 9.26,15.89 2.98,3.63 6.23,6.92 9.86,9.9 3.78,2.7 7.74,4.99 11.95,6.92 6.09,2.34 12.36,3.9 18.8,4.89 4.4,0.49 8.78,0.73 13.2,0.96 5.63,0.29 11.23,0.35 16.85,-0.2 3.95,-0.65 7.73,-1.67 11.47,-2.99 -4.08,-4.14 -7.83,-8.6 -11.22,-13.34 -4.44,-6.21 -7.04,-13.83 -7.67,-21.4 -0.29,-3.44 -0.17,-6.84 0.19,-10.27 z M 4516.7,631.68 c -0.52,-2.891 -1.3,-5.68 -2.1,-8.532 -0.91,-3.257 -1.87,-6.468 -3.07,-9.617 -0.81,-1.582 -1.69,-3.062 -2.7,-4.511 -1.37,-1.7 -2.75,-3.391 -4.18,-5.051 -1.59,-1.828 -3.5,-3.469 -5.42,-5.008 -2.83,-1.891 -5.74,-3.539 -8.83,-4.949 -0.93,-0.383 -1.85,-0.774 -2.79,-1.153 -1.51,0.082 -3.02,0.172 -4.53,0.231 -5.26,0.211 -10.49,0.781 -15.74,1.121 -5.72,0.359 -11.45,0.66 -17.17,1.027 -4.96,0.332 -9.88,0.91 -14.83,1.313 -5.78,0.48 -11.58,0.828 -17.35,1.328 -5.03,0.441 -10.05,0.98 -15.08,1.23 -5.32,0.282 -10.65,0.371 -15.95,0.821 -5.76,0.48 -11.5,1.031 -17.24,1.531 -4,0.348 -7.99,0.629 -11.98,1.07 -3.81,0.418 -7.62,0.989 -11.45,1.289 -3.96,0.328 -7.92,0.641 -11.88,1.059 -4.39,0.461 -8.81,1.031 -13.24,1.16 -7.33,0.223 -14.63,0.391 -21.95,0.391 -0.86,0 -1.71,0 -2.56,-0.012 -3.73,-0.02 -7.46,-0.109 -11.19,-0.289 -1.22,-0.051 -2.43,-0.258 -3.64,-0.379 -1.96,1.488 -4.14,2.461 -6.56,3.031 -3.19,0.758 -6.34,1.571 -9.42,2.68 -1.09,0.559 -2.13,1.18 -3.15,1.859 -0.83,0.75 -1.59,1.551 -2.32,2.379 -1.77,2.531 -3.34,5.121 -4.69,7.942 -1.82,4.488 -3.43,9.109 -4.3,13.879 -0.53,6.171 -0.02,12.441 0.52,18.582 0.59,3.699 1.29,7.347 2.24,10.988 0.97,3.75 2.26,7.34 3.69,10.91 1.87,4.07 3.73,8.18 6.14,11.949 0.33,0.071 0.65,0.121 0.99,0.18 0.37,0.051 0.74,0.101 1.12,0.152 0.97,0.278 1.86,0.699 2.69,1.219 0.11,-0.02 0.21,-0.039 0.32,-0.051 5.04,-0.59 10.2,-0.34 15.25,-0.508 4.92,-0.171 9.83,-0.55 14.75,-0.793 5.52,-0.277 11.05,-0.378 16.57,-0.636 5.24,-0.254 10.41,-0.973 15.62,-1.473 10.54,-0.988 21.08,-2.219 31.63,-2.988 10.34,-0.75 20.61,-2.043 30.96,-2.742 11.17,-0.758 22.33,-0.86 33.53,-0.86 11.16,0 22.31,0 33.47,0.02 10.47,0.031 20.95,0.043 31.42,0.39 1.42,0.039 2.82,0.141 4.24,0.211 0.47,-1.711 1.3,-3.379 2.59,-4.402 2.88,-2.316 5.48,-5.09 7.87,-7.938 3.27,-4.691 5.62,-9.82 7.86,-15.062 0.98,-2.469 1.73,-4.938 2.23,-7.52 0.33,-5.117 0.02,-10.359 -0.39,-15.468 z m -5.08,-82.801 c 2.36,-3.348 4.29,-7.02 6.2,-10.629 1.77,-3.359 3.51,-6.68 5.06,-10.121 2.04,-5.289 3.56,-10.629 4.56,-16.188 0.32,-4.75 0.16,-9.601 -0.35,-14.339 -1.33,-7.024 -3.91,-13.723 -6.6,-20.321 -1.77,-3.769 -4.01,-7.32 -6.47,-10.691 -1.76,-2.192 -3.57,-4.352 -5.45,-6.442 -1.88,-2.109 -3.79,-4.199 -5.94,-6.027 -1.11,-0.801 -2.24,-1.551 -3.42,-2.223 -10.22,0.122 -20.38,0.43 -30.54,1.571 -10.85,1.222 -21.67,2.551 -32.52,3.73 -11.07,1.18 -22.13,2.469 -33.24,3.403 -5.12,0.437 -10.25,0.679 -15.36,1.308 -5.71,0.692 -11.43,1.391 -17.15,2.07 -5.85,0.668 -11.68,1.469 -17.53,2.051 -5.77,0.578 -11.53,1.18 -17.29,1.75 -9.26,1.289 -18.48,2.809 -27.76,3.899 -2.73,0.32 -5.51,0.41 -8.28,0.41 -2.07,0 -4.15,-0.051 -6.21,-0.09 -2.12,-0.051 -4.23,-0.328 -6.34,-0.57 -1.86,2.488 -4.56,4.129 -7.64,4.582 -2.46,0.359 -4.9,0.886 -7.36,1.328 -3.3,0.582 -6.47,1.351 -9.59,2.48 -2.52,1.231 -4.87,2.711 -7.16,4.321 -1.18,0.988 -2.34,2 -3.45,3.07 -1.16,1.129 -2.18,2.379 -3.18,3.648 -1.24,1.711 -2.39,3.45 -3.36,5.332 -0.35,1.02 -0.63,2.047 -0.85,3.11 -0.32,5.211 -0.05,10.5 0.09,15.711 0.1,3.578 0.43,7.129 0.85,10.668 0.7,4.269 1.52,8.468 2.73,12.629 1.19,4.113 2.56,8.089 4.16,12.043 3.67,8.226 7.99,16.136 13.21,23.476 2.44,2.801 4.96,5.5 7.82,7.871 0.89,0.731 1.77,1.473 2.68,2.192 2.17,0.418 4.34,0.828 6.51,1.168 9.95,0.773 19.98,0.703 29.95,0.382 5.54,-0.171 11.02,-0.281 16.54,-0.832 5.26,-0.519 10.51,-1.058 15.78,-1.48 5.26,-0.43 10.5,-1.149 15.74,-1.738 5.49,-0.61 11.04,-0.903 16.53,-1.403 5.47,-0.488 10.93,-0.988 16.42,-1.289 5.01,-0.269 10.01,-0.359 15.01,-0.789 7.45,-0.629 14.9,-1.281 22.36,-1.82 6.99,-0.5 13.97,-1.32 20.97,-1.781 7.04,-0.457 14.11,-0.758 21.16,-1.36 2.69,-0.219 5.4,-0.328 8.11,-0.469 1.36,-0.992 2.83,-1.691 4.5,-2.339 1.4,-0.532 2.85,-0.911 4.26,-1.379 2.63,-1.242 5.1,-2.684 7.49,-4.332 5.29,-4.692 9.93,-10.051 14.35,-15.551 z m 15.91,-131.777 c 1.99,-2.68 3.88,-5.454 5.36,-8.454 0.2,-0.597 0.38,-1.199 0.52,-1.82 0.28,-5.387 0.11,-10.84 -0.06,-16.226 -0.16,-4.832 -0.55,-9.692 -1.11,-14.5 -0.33,-1.942 -0.75,-3.801 -1.39,-5.672 -1.89,-4.121 -3.82,-8.16 -6.44,-11.879 -0.52,-0.602 -1.05,-1.16 -1.63,-1.699 -0.95,-0.614 -1.93,-1.133 -2.94,-1.622 -1.19,-0.402 -2.41,-0.718 -3.64,-0.941 -7.43,-0.789 -14.93,-0.969 -22.39,-1.519 -5.07,-0.36 -10.15,-0.391 -15.21,-0.661 -5.46,-0.281 -10.9,-0.718 -16.35,-1.05 -20.71,-1.258 -41.53,-0.739 -62.26,-0.739 -14.08,0 -28.19,-0.211 -42.26,0.418 -6.76,0.313 -13.52,0.571 -20.28,1.063 -6.75,0.469 -13.5,0.75 -20.23,1.508 -8.07,1.121 -16.12,2.261 -24.1,3.941 -3.87,0.809 -7.73,1.602 -11.52,2.738 -3.6,1.082 -7.11,2.301 -10.57,3.692 -3.64,1.73 -7.03,3.64 -10.35,5.91 -1.08,0.879 -2.14,1.781 -3.16,2.75 -0.88,0.84 -1.67,1.769 -2.43,2.73 -1.2,1.731 -2.25,3.489 -3.18,5.371 -0.59,1.649 -1.06,3.297 -1.41,5.02 -0.47,5.809 -0.22,11.68 0.3,17.48 0.69,4.411 1.61,8.719 2.86,13.028 1.13,3.871 2.55,7.64 4.08,11.371 1.76,3.629 3.6,7.172 5.92,10.469 3.67,4.281 7.96,8.05 12.33,11.66 1.48,-0.219 3,-0.211 4.6,0.082 2.03,0.371 4.07,0.711 6.1,1.058 8.36,0.86 16.62,0.68 24.96,-0.218 10.97,-1.7 21.95,-3.231 32.99,-4.36 10.52,-1.082 21.01,-2.269 31.51,-3.562 5.73,-0.711 11.44,-1.438 17.19,-1.981 5.19,-0.468 10.4,-0.726 15.6,-1.23 11.01,-1.059 21.99,-2.367 33,-3.496 9.8,-1 19.57,-2.321 29.36,-3.422 8.55,-0.949 17.14,-1.141 25.73,-1.238 2.59,-0.661 5.34,-0.813 8.02,-1.063 3.14,-0.559 6.3,-1.301 9.32,-2.34 2.53,-1.211 4.91,-2.621 7.19,-4.25 2.23,-1.918 4.12,-4.058 5.97,-6.347 z m -65.02,-93.981 c -1.18,-3.012 -2.29,-6.062 -3.35,-9.101 -1.19,-3.442 -2.13,-6.938 -3.08,-10.45 -1.94,-7.218 -4.06,-14.398 -6.26,-21.531 -1.73,-5.668 -3.18,-11.367 -5.14,-16.949 -2.41,0.07 -4.81,0.172 -7.22,0.238 -3.96,0.121 -7.92,0.07 -11.89,0.07 -9.03,0 -18.05,0 -27.09,0 -8.07,-0.007 -16.13,-0.007 -24.21,-0.089 -7.4,-0.071 -14.86,-0.5 -22.27,-0.2 -0.58,1.282 -1.11,2.582 -1.67,3.821 -0.91,2.031 -1.77,4.078 -2.64,6.121 -4.47,10.898 -8.67,21.949 -13.68,32.597 -2.67,5.641 -5.36,11.204 -8.61,16.551 -1.71,2.821 -3.58,5.531 -5.52,8.199 3.23,-0.316 6.45,-0.738 9.68,-0.91 5.41,-0.289 10.82,-0.718 16.22,-1.066 5.33,-0.344 10.69,-0.473 16.02,-0.672 8.3,-0.309 16.63,-0.301 24.94,-0.27 2.42,0 4.85,0.008 7.28,0.008 10.64,0 21.27,0 31.92,0 10.51,0 21,0.024 31.51,0.512 2.63,0.121 5.26,0.301 7.9,0.461 -0.95,-2.453 -1.9,-4.891 -2.84,-7.34 z m 239.56,744.039 c 3.45,4.61 6.74,9.32 10.02,14.07 6.5,9.4 11.77,19.58 17.02,29.7 5.57,10.74 10.38,21.81 15.02,32.98 4.01,9.69 7.68,19.53 11.26,29.39 1.1,3.02 2.19,6.04 3.28,9.07 1.03,2.8 1.79,5.72 2.68,8.56 1.74,5.61 3.05,11.29 4.45,17 1.25,5.15 2.2,10.37 3.28,15.56 0.49,2.35 0.85,4.74 1.28,7.11 0.64,3.58 1.41,7.16 1.8,10.78 0.57,5.24 1.39,10.53 1.6,15.8 0.23,5.8 0.5,11.59 0.54,17.39 0.07,11.99 0.01,23.97 -0.14,35.96 -0.14,11.58 -0.63,23.12 -1.28,34.68 -0.3,5.29 -1,10.57 -1.51,15.83 -0.6,5.97 -1.5,11.93 -2.32,17.87 -1.55,11.23 -3.08,22.47 -5.63,33.53 -1.34,5.79 -2.74,11.51 -4.33,17.24 -1.6,5.74 -3.27,11.47 -4.93,17.21 -3.27,11.24 -7.36,22.31 -11.94,33.07 -4.26,10.03 -8.39,20.16 -13.47,29.82 -1.33,2.54 -2.66,5.07 -4,7.62 -1.47,2.77 -3.28,5.43 -4.91,8.11 -2.8,4.63 -5.94,9.02 -9.01,13.48 -2.32,3.37 -4.97,6.56 -7.45,9.82 -2.79,3.68 -5.72,7.26 -8.59,10.88 -4.48,5.64 -9.26,11.04 -14.16,16.31 -5.07,5.45 -10.24,10.87 -15.88,15.75 -3.55,3.09 -7.04,6.25 -10.76,9.12 -2.9,2.24 -5.8,4.48 -8.71,6.73 0.16,-0.12 0.31,-0.24 0.47,-0.36 -0.62,0.48 -1.24,0.96 -1.86,1.43 -0.09,0.07 -0.17,0.13 -0.25,0.2 0.07,-0.06 0.14,-0.11 0.2,-0.17 -3.88,2.98 -7.77,5.94 -11.69,8.88 -4.53,3.41 -8.99,6.94 -13.75,10.02 -2.85,1.83 -5.7,3.67 -8.55,5.52 -2.3,1.47 -4.83,2.67 -7.23,3.99 -5.22,2.86 -10.54,5.39 -15.92,7.96 -4.76,2.28 -9.69,4.22 -14.55,6.29 -5.31,2.27 -10.67,4.44 -16.02,6.59 -10.72,4.29 -21.44,8.57 -32.34,12.37 -5.63,1.97 -11.28,3.76 -16.99,5.5 -3.99,1.22 -7.99,2.38 -12,3.49 -8.37,2.3 -17.01,3.56 -25.63,4.4 -7.86,0.78 -15.76,0.72 -23.66,0.85 -1.63,0.02 -3.25,0.03 -4.88,0.03 -3.38,0 -6.77,-0.03 -10.15,-0.04 -12.1,-0.01 -24.21,-0.03 -36.31,-0.12 -10.6,-0.05 -21.26,-0.02 -31.85,-0.62 -5.63,-0.32 -11.26,-0.57 -16.86,-1.1 -6.19,-0.58 -12.34,-1.23 -18.5,-1.97 -11.33,-1.37 -22.74,-2.86 -33.99,-4.82 -11.15,-1.95 -22.21,-4.34 -32.98,-7.87 -5.78,-1.89 -11.47,-3.9 -17.16,-6.02 -3.04,-1.11 -5.99,-2.54 -8.95,-3.83 -2.47,-1.07 -4.9,-2.19 -7.33,-3.33 -10.42,-4.92 -20.48,-10.44 -30.48,-16.15 -4.98,-2.83 -9.91,-5.68 -14.8,-8.65 -4.63,-2.79 -9.04,-5.89 -13.45,-9.01 -4.7,-3.31 -9.36,-6.71 -13.8,-10.36 -4.3,-3.54 -8.44,-7.2 -12.61,-10.9 -8.58,-7.58 -17.38,-14.96 -25.53,-23.01 -3.81,-3.74 -7.57,-7.54 -11.15,-11.51 -2.27,-2.51 -4.6,-4.97 -6.76,-7.57 -3.97,-4.73 -7.4,-9.75 -10.54,-15.05 -5.92,-10 -11.53,-20.14 -17.07,-30.34 -1.35,-2.52 -2.52,-5.14 -3.77,-7.69 -1,-2.02 -1.98,-4.02 -2.89,-6.08 -2.62,-5.97 -5.28,-11.92 -7.64,-18.01 -4.2,-10.82 -8.09,-21.73 -11.49,-32.84 -3.06,-10.06 -5.85,-20.12 -7.66,-30.51 -2.15,-12.35 -3.05,-24.86 -3.43,-37.38 -0.33,-11.23 -0.53,-22.44 -0.47,-33.67 0.06,-11.95 0.16,-23.9 0.3,-35.86 0.14,-11.82 0.74,-23.61 1.38,-35.4 0.56,-10.25 1.26,-20.52 2.32,-30.73 0.62,-6.06 1.11,-12.17 1.89,-18.22 0.83,-6.44 1.66,-12.88 2.49,-19.34 0.79,-6.15 1.88,-12.26 2.89,-18.39 0.89,-5.33 2.06,-10.55 3.26,-15.83 0.57,-2.49 1.13,-4.99 1.7,-7.48 0.67,-2.94 1.69,-5.84 2.53,-8.73 1.63,-5.6 3.4,-11.09 5.29,-16.61 0.8,-2.3 1.46,-4.71 2.41,-6.96 1.28,-3.09 2.56,-6.17 3.83,-9.25 1.13,-2.71 2.15,-5.53 3.42,-8.18 1.54,-3.19 3.07,-6.36 4.59,-9.55 4.88,-10.11 9.99,-20.11 15.04,-30.14 4.7,-9.4 9.54,-18.79 14.8,-27.88 5.88,-10.17 11.96,-20.18 18.13,-30.17 6.3,-10.17 12.94,-20.111 19.68,-29.998 6,-8.793 11.58,-17.832 17.28,-26.813 5.95,-9.41 12.09,-18.687 18.18,-28 3.33,-5.078 6.56,-10.187 9.73,-15.359 2.94,-4.789 5.68,-9.68 8.47,-14.551 7.27,-12.719 14.21,-25.578 20.17,-38.969 6.58,-15.902 12.3,-32.16 17.96,-48.41 2.94,-8.449 5.38,-17.011 7.52,-25.691 1.97,-8.02 3.39,-16.211 4.79,-24.348 1.01,-8 1.95,-16.023 2.6,-24.062 0.36,-4.481 0.62,-8.989 1.07,-13.457 0.67,-6.383 1.54,-12.703 2.45,-19.043 0.14,-0.989 0.64,-1.949 1.26,-2.86 -0.45,-0.39 -0.95,-0.711 -1.36,-1.148 -3.23,-3.441 -5.28,-7.93 -7.34,-12.133 -2.32,-4.75 -4.45,-9.668 -6.13,-14.707 -3.27,-9.812 -4.63,-20.082 -5.12,-30.383 -0.35,-7.429 0.09,-14.91 2.45,-22.008 0.83,-2.472 1.7,-4.871 2.63,-7.3 1.68,-4.391 3.74,-8.43 6.31,-12.34 1.96,-2.969 4.32,-5.891 7.11,-8.121 1.98,-1.59 4.01,-3.09 6.3,-4.239 -3.9,-3.718 -7.33,-8.011 -10.22,-12.55 -6.08,-9.578 -11.13,-19.66 -15.01,-30.34 -3.85,-10.602 -5.73,-22.039 -6.3,-33.25 -0.13,-2.699 -0.2,-5.41 -0.23,-8.121 -0.07,-4.59 -0.17,-9.129 0.47,-13.688 0.98,-7.031 4.7,-12.98 9.07,-18.402 1.29,-1.598 2.58,-3.16 3.99,-4.649 1.37,-1.449 2.96,-2.679 4.49,-3.949 4.41,-3.64 9.41,-6.601 14.76,-8.621 -1.97,-1.789 -3.9,-3.629 -5.76,-5.539 -6.03,-6.16 -9.69,-13.832 -12.98,-21.652 -2.02,-4.821 -3.58,-9.789 -5.03,-14.797 -0.74,-2.543 -1.13,-5.231 -1.62,-7.832 -0.6,-3.262 -1.02,-6.621 -1.21,-9.922 -0.44,-7.848 -0.7,-15.938 1.49,-23.559 2.89,-10.109 10.14,-18.871 18.67,-24.808 2.35,-1.633 4.73,-3.129 7.27,-4.481 3.12,-1.66 6.44,-2.949 9.71,-4.32 4.42,-1.852 9.23,-3.309 13.89,-4.371 4.66,-1.078 9.39,-2.168 14.12,-2.93 -0.18,-2.109 0.01,-4.398 1.2,-5.988 2.63,-3.5 5.29,-6.981 7.77,-10.59 2.09,-3.019 4.27,-6.09 5.96,-9.371 3.55,-6.922 6.81,-13.918 9.93,-21.051 4.12,-9.98 8.2,-19.98 12.46,-29.898 0.91,-2.129 1.87,-4.242 2.92,-6.289 0.78,-1.543 1.82,-2.903 2.98,-4.18 2.83,-3.172 7.17,-3.562 11.1,-3.902 5.39,-0.461 10.87,-0.192 16.26,-0.078 22.23,0.398 44.46,0.218 66.68,0.218 4.12,0 8.24,-0.148 12.35,-0.281 3.09,-0.09 6.02,-0.211 9.08,0.461 3.49,0.77 5.98,3.641 7.75,6.52 1.08,1.781 1.98,4.308 2.72,6.199 1.66,4.332 2.97,8.722 4.22,13.179 1.17,4.211 2.47,8.372 3.71,12.571 1.27,4.301 2.55,8.601 3.72,12.941 1.16,4.309 2.25,8.66 3.77,12.871 2.75,7.571 5.62,15.098 8.5,22.61 0.19,0.007 0.38,0.031 0.57,0.031 4.92,0.137 9.85,0.508 14.74,0.879 3.94,0.289 7.88,0.519 11.84,0.801 9.26,0.648 18.79,3.777 24.75,11.308 1.88,2.371 3.79,4.809 5.23,7.488 1.2,2.223 2.27,4.5 3.33,6.801 1.58,3.422 2.98,6.813 3.77,10.512 0.7,3.328 0.98,6.828 1.28,10.23 0.44,4.969 0.76,9.938 0.83,14.918 0.03,2.602 0.07,5.2 0.06,7.789 0,1.364 -0.03,2.723 -0.06,4.102 -0.06,2.012 -0.42,4.008 -0.75,6 -0.36,2.129 -1.58,4.328 -2.44,6.281 -1.1,2.481 -2.69,4.821 -4.25,7.039 -1.93,2.739 -4.02,5.379 -6.16,7.961 -3.31,3.989 -7.53,7.137 -11.87,9.879 -1.53,0.969 -3.13,1.801 -4.79,2.52 0.8,0.941 1.6,1.89 2.38,2.832 3.53,4.238 6.94,8.578 9.75,13.34 3,5.058 5.03,10.699 7.07,16.199 1.58,4.25 3.08,8.57 3.87,13.027 1,5.633 1.36,11.363 1.32,17.07 -0.1,11.731 -4.21,23.18 -9.19,33.672 -1.23,2.602 -2.71,5.102 -4.05,7.649 -1.31,2.461 -2.67,4.929 -4.14,7.301 -1.85,2.992 -4.17,5.66 -6.35,8.41 -1.87,2.32 -3.79,4.582 -5.87,6.718 -2.92,3.024 -5.85,5.973 -9.1,8.571 3.91,2.691 7.57,5.84 10.66,9.402 3.58,4.149 7.09,8.438 9.52,13.367 2.57,5.211 3.94,10.883 5.53,16.422 1.68,5.879 2.26,11.879 2.47,17.969 0.25,7.09 0.19,14.391 -2.53,21.062 -2.17,5.34 -4.39,10.7 -7.09,15.797 -2.57,4.852 -6.03,9.223 -9.88,13.121 -0.29,0.289 -0.62,0.563 -0.91,0.86 4.68,5.59 3.99,14.383 4,21.32 0,12.5 0.04,25 0.31,37.5 0.27,12.379 1.35,24.672 2.86,36.949 1.21,7.59 2.53,15.16 3.91,22.731 0.75,4.14 1.52,8.261 2.45,12.359 0.97,4.352 2.07,8.66 3.16,12.992 3.79,15.008 9.23,29.559 15.16,43.828 4.26,9.172 8.64,18.274 13.54,27.122 2.35,4.25 4.84,8.429 7.35,12.589 2.74,4.532 5.61,8.911 8.57,13.301 3.17,4.059 6.39,8.031 9.73,11.961 3.58,4.231 7.47,8.231 11.29,12.258 7.83,8.269 15.52,16.672 23.26,25.031 7.58,8.172 15.49,15.949 23.54,23.64 8.17,7.8 15.85,16.01 23.46,24.36 3.6,3.94 6.91,8.21 10.21,12.38 3.77,4.78 7.53,9.56 11.29,14.33 3.52,4.49 7.08,8.97 10.5,13.54"
           style="fill:#121213;fill-opacity:1;fill-rule:nonzero;stroke:none"
           id="path186" />
        <path
           d="m 3916.9,1137.62 c -4.9,-1.44 -9.67,-3.35 -14.44,-5.19 -4.6,-1.76 -9.16,-3.59 -13.67,-5.56 -4.36,-1.72 -8.86,-3.35 -13.45,-4.37 -1.33,3.91 -2.47,7.92 -3.62,11.86 -1.9,6.58 -3.83,13.15 -5.8,19.72 -1.89,6.29 -3.9,12.45 -6.36,18.55 -2.37,5.9 -5.07,11.65 -7.82,17.38 4.3,1.92 8.55,3.94 12.83,5.92 6.46,2.98 12.97,5.85 19.48,8.71 5.11,2.06 10.25,3.94 15.45,5.78 5.89,2.08 11.97,3.58 17.98,5.3 11.09,3.2 22.3,5.84 33.69,7.68 4.2,0.34 8.38,0.3 12.56,-0.07 0.2,-0.36 0.39,-0.72 0.58,-1.08 0.93,-1.72 1.86,-3.43 2.72,-5.19 1.77,-3.61 3.44,-7.26 5.11,-10.92 3.34,-7.38 6.62,-14.76 10.02,-22.12 3.23,-7.87 6.3,-15.81 9.59,-23.67 -0.05,0.11 -0.1,0.22 -0.14,0.33 0.19,-0.49 0.37,-0.99 0.54,-1.48 -5.88,-1.92 -11.84,-3.65 -17.76,-5.35 -9.59,-2.77 -19.12,-5.75 -28.75,-8.4 -9.58,-2.64 -19.21,-5.04 -28.74,-7.83 z m 46.05,87.15 c 0,-0.01 0.01,-0.02 0.02,-0.03 -0.11,0.08 -0.22,0.17 -0.33,0.26 0.1,-0.07 0.21,-0.15 0.31,-0.23 z m 27.09,-88 c 4.58,1.39 9.11,2.92 13.67,4.39 2.49,0.8 4.53,1.8 6.5,3.51 1.08,0.94 1.88,2.08 2.5,3.37 0.35,0.83 0.7,1.66 1.04,2.49 0.27,1.5 0.44,3.03 0.48,4.56 0.11,1.71 -0.4,3.53 -0.7,5.23 -0.26,1.5 -0.75,2.94 -1.25,4.38 -0.72,2.1 -1.66,4.13 -2.54,6.16 -4.02,9.72 -7.6,19.61 -12.12,29.12 -4.51,9.48 -8.5,19.19 -13.1,28.63 -0.99,2.02 -2.13,3.98 -3.2,5.98 -0.78,1.46 -1.67,2.89 -2.84,4.11 -2.69,2.87 -6.22,4.22 -10.02,4.9 -3.59,0.63 -7.32,0.95 -11.03,0.95 -2,0 -4,-0.09 -5.95,-0.28 -6.09,-0.58 -12.07,-1.88 -18.07,-3.05 -5.58,-1.08 -11.09,-2.51 -16.57,-4.02 -14.3,-3.93 -28.49,-8.09 -42.09,-14.04 -6.7,-2.93 -13.39,-5.86 -20.01,-8.93 -5.26,-2.43 -10.47,-4.95 -15.78,-7.26 -2.86,-1.18 -5.32,-2.35 -7.66,-4.6 -3.28,-3.13 -5.04,-8.67 -3.44,-12.98 0.86,-2.28 1.95,-4.19 3.86,-5.61 0.11,-0.25 0.23,-0.51 0.35,-0.77 2.57,-5.35 5.12,-10.71 7.5,-16.16 5.35,-13.41 8.8,-27.45 13.02,-41.23 1.14,-3.72 2.32,-7.42 3.55,-11.12 0.71,-2.08 1.53,-4.15 2.5,-6.12 1.63,-3.32 5.29,-5.95 8.85,-6.68 7.04,-1.41 14.21,0.71 20.86,2.9 4.02,1.33 7.9,2.94 11.76,4.66 9.43,3.85 18.98,7.42 28.8,10.14 10.5,2.91 21.07,5.53 31.52,8.59 9.87,2.9 19.76,5.78 29.61,8.78"
           style="fill:#121213;fill-opacity:1;fill-rule:nonzero;stroke:none"
           id="path188" />
        <path
           d="m 3854.43,1391.42 c 0.34,3.77 0.56,7.54 0.75,11.32 0.31,6.77 0.61,13.53 0.86,20.3 0.46,13.17 0.32,26.34 0.78,39.5 1.65,-0.04 3.31,-0.09 4.96,-0.16 4.95,-0.2 9.88,-0.75 14.83,-0.79 5.26,-0.05 10.51,-0.09 15.76,-0.25 5.1,-0.15 10.18,-0.68 15.24,-1.25 4.79,-0.69 9.57,-1.43 14.36,-2.09 -0.3,0.04 -0.6,0.08 -0.9,0.12 5.26,-0.83 10.49,-1.82 15.72,-2.83 5.17,-1 10.27,-2.43 15.42,-3.57 5.19,-1.16 10.46,-2.06 15.61,-3.41 2.81,-0.74 5.64,-1.47 8.44,-2.26 0.59,-0.17 1.19,-0.33 1.79,-0.5 -0.05,-0.48 -0.1,-0.97 -0.15,-1.46 -0.27,-2.69 -0.64,-5.38 -0.93,-8.06 -0.59,-5.57 -0.86,-11.15 -1.27,-16.73 -0.86,-11.7 -2.29,-23.33 -3.61,-34.98 -0.35,-2.39 -0.72,-4.77 -1.11,-7.15 -0.36,-2.19 -0.64,-4.41 -1.02,-6.61 -1.44,0.18 -2.88,0.36 -4.31,0.54 -2.76,0.38 -5.52,0.75 -8.31,0.89 -3.08,0.15 -6.17,0.2 -9.25,0.36 -6.52,0.36 -13.03,0.75 -19.54,1.1 -12.38,0.65 -24.81,1.37 -37.12,2.79 -6.38,1.11 -12.69,2.37 -19,3.81 -6.22,1.41 -12.59,2.98 -18.63,5.19 0.2,2.06 0.45,4.11 0.63,6.18 z m -18.84,56.15 c -0.04,-5.39 0.04,-10.79 -0.12,-16.18 -0.34,-11.08 -0.61,-22.2 -1.36,-33.26 -0.17,-2.69 -0.36,-5.37 -0.64,-8.05 -0.13,-1.31 -0.27,-2.64 -0.41,-3.96 -0.05,-0.54 -0.11,-1.08 -0.16,-1.63 -0.18,-1.94 -0.1,-3.5 0.18,-5.5 0.54,-4.14 3.07,-7.38 6.43,-9.72 2.95,-2.06 6.35,-3.31 9.76,-4.47 2.87,-0.98 5.81,-1.77 8.73,-2.58 11.02,-3.04 22.3,-5.46 33.65,-6.84 6.3,-0.77 12.6,-1.19 18.92,-1.61 5.99,-0.4 11.98,-0.84 17.98,-1.16 6.01,-0.32 12.03,-0.67 18.04,-1 5.59,-0.31 11.21,-0.3 16.76,-1.03 -0.91,0.11 -1.84,0.24 -2.76,0.37 3.27,-0.45 6.56,-0.83 9.84,-1.23 3,-0.49 5.94,-1.07 8.94,-0.05 3.7,1.26 6.7,3.99 8.35,7.5 1.41,2.98 2.01,5.94 2.51,9.16 0.94,5.94 2.01,11.88 2.68,17.87 1.25,11.25 2.69,22.47 3.52,33.76 0.39,5.38 0.64,10.77 1.17,16.14 0.49,4.89 1.2,9.76 1.52,14.67 0.12,1.97 0.11,3.9 -0.34,5.85 -0.3,1.32 -0.8,2.58 -1.63,3.67 -0.55,0.7 -1.08,1.39 -1.63,2.1 -0.92,0.78 -1.87,1.49 -2.88,2.15 -0.94,0.64 -2.95,1.31 -4.19,1.7 -0.56,0.19 -1.15,0.39 -1.73,0.55 -1.41,0.37 -2.82,0.75 -4.23,1.15 -5.31,1.5 -10.65,2.95 -16.07,4.05 -7.26,1.45 -14.42,3.3 -21.64,4.88 -8.13,1.77 -16.33,3.09 -24.57,4.2 -6.25,0.95 -12.49,1.89 -18.79,2.51 -6.12,0.61 -12.3,0.73 -18.46,0.79 -6.04,0.05 -12.04,0.28 -18.08,0.68 -5.85,0.4 -11.74,0.42 -17.61,0.46 -0.02,0 -0.04,0 -0.06,0 -5.66,0 -10.36,-4.78 -10.36,-10.42 0,-1.24 0.23,-2.44 0.64,-3.54 -0.85,-1.52 -1.36,-3.27 -1.44,-5.11 -0.22,-5.63 -0.42,-11.24 -0.46,-16.87"
           style="fill:#121213;fill-opacity:1;fill-rule:nonzero;stroke:none"
           id="path190" />
        <path
           d="m 3993.68,1635.37 c -4.42,2.55 -9.09,4.7 -13.65,6.98 -5.03,2.53 -10.05,5.06 -15.03,7.7 -4.82,2.56 -9.53,5.29 -14.28,8 -4.83,2.75 -9.91,5.1 -14.91,7.54 -4.83,2.36 -9.76,4.51 -14.62,6.79 -4.67,2.2 -9.28,4.55 -13.9,6.86 -6.74,3.4 -13.5,6.77 -20.24,10.16 -4.78,2.4 -9.74,4.38 -14.72,6.33 0.81,1.08 1.62,2.14 2.41,3.22 0.64,0.87 1.04,1.96 1.25,3.11 1.92,0.88 3.76,2.37 4.63,4.2 3.53,7.37 7.37,14.5 11.49,21.55 3.85,6.61 7.96,13.06 12.03,19.53 3.87,6.15 7.23,12.61 10.9,18.86 2,3.4 4.05,6.77 5.96,10.21 0.7,1.26 1.38,2.55 2.06,3.83 10.48,-4.7 20.64,-10.2 30.71,-15.68 4.86,-2.64 9.53,-5.64 14.22,-8.57 4.71,-2.95 9.48,-5.73 14.31,-8.48 4.82,-2.76 9.75,-5.33 14.59,-8.05 4.96,-2.8 9.84,-5.76 14.73,-8.68 9.18,-5.48 18.05,-11.38 27.49,-16.44 5.51,-2.94 10.94,-5.98 16.36,-9.1 2.65,-1.53 5.31,-3.1 7.92,-4.76 -1.07,-1.62 -2.17,-3.22 -3.22,-4.86 -2.33,-3.6 -4.48,-7.28 -6.49,-11.07 -3.92,-7.41 -7.53,-14.99 -10.66,-22.77 -2.91,-7.23 -5.55,-14.56 -8.5,-21.76 -2.88,-7.07 -5.39,-14.26 -8.23,-21.34 -0.12,-0.29 -0.25,-0.58 -0.38,-0.87 -1.77,0.51 -3.5,1.13 -5.21,1.8 -9.47,4.42 -17.99,10.54 -27.02,15.76 z m -127,62.65 c -0.02,0.03 -0.04,0.07 -0.07,0.1 0.03,-0.04 0.06,-0.07 0.09,-0.11 -0.01,0 -0.01,0 -0.02,0.01 z m 165.46,-101.19 c 0.89,0.16 1.75,0.43 2.58,0.82 0.83,0.35 1.65,0.7 2.49,1.05 1.02,0.74 2.01,1.53 2.96,2.35 1.36,1.16 2.33,3.18 3.08,4.82 4.02,8.74 7,17.92 10.64,26.82 3.45,8.43 6.62,16.97 9.99,25.44 4.46,9.69 9.26,19.19 15.04,28.18 1.31,2.03 2.7,4.04 4.01,6.09 1.4,2.17 2.41,4.43 3.35,6.85 0.37,0.93 0.48,3 0.43,4.23 -0.13,3.03 -1.22,5.7 -3.27,7.96 -1.8,2 -4.38,3.49 -6.61,5 -2.17,1.46 -4.34,2.89 -6.56,4.25 -9.07,5.57 -18.62,10.25 -27.81,15.63 -9.57,5.61 -18.85,11.68 -28.45,17.27 -4.75,2.78 -9.51,5.59 -14.35,8.2 -4.99,2.69 -10,5.35 -14.83,8.31 -9.59,5.87 -19.06,11.84 -29.05,17.04 -5.34,2.78 -10.7,5.51 -16.08,8.2 -3.44,1.7 -6.95,3.41 -10.52,4.8 -3.06,1.18 -6.21,1.99 -9.5,1.99 -0.2,0 -0.39,0 -0.59,-0.01 -2.19,-0.07 -4.82,-0.79 -6.72,-1.89 -2.1,-1.23 -3.57,-3.14 -4.86,-5.15 -1.17,-1.79 -2.13,-3.78 -3.14,-5.66 -1.37,-2.54 -2.76,-5.05 -4.25,-7.51 -2.75,-4.59 -5.35,-9.25 -8,-13.9 -2.26,-3.94 -4.54,-7.88 -6.95,-11.73 -2.56,-4.05 -5.2,-8.08 -7.65,-12.2 -2.43,-4.12 -5,-8.2 -7.28,-12.41 -2.66,-4.92 -5.2,-9.86 -7.6,-14.89 -0.49,-1.02 -0.88,-2.03 -1.12,-3.06 -2.01,-0.91 -3.41,-2.4 -4.78,-4.26 -1.88,-2.58 -3.84,-5.13 -5.62,-7.79 -0.23,-0.36 -0.46,-0.72 -0.68,-1.1 -0.67,-1.32 -1.29,-2.69 -1.82,-4.09 -0.27,-1.22 -0.46,-2.46 -0.56,-3.72 0.1,-1.11 0.25,-2.22 0.47,-3.31 0.46,-2.48 2.32,-5.15 4.07,-6.87 2.47,-2.4 5.7,-3.61 8.84,-4.82 2.31,-0.9 4.65,-1.76 6.97,-2.68 9.12,-3.98 17.95,-8.53 26.82,-13.05 9.63,-4.9 19.43,-9.45 29.22,-14.02 4.87,-2.27 9.68,-4.73 14.43,-7.25 4.58,-2.43 8.96,-5.17 13.53,-7.6 9.9,-5.26 20.03,-10.08 29.94,-15.34 7.62,-4.03 14.53,-9.33 22.15,-13.37 4.62,-2.44 9.35,-4.53 14.29,-6.28 4.19,-1.47 8.98,-2.39 13.35,-1.34"
           style="fill:#121213;fill-opacity:1;fill-rule:nonzero;stroke:none"
           id="path192" />
        <path
           d="m 4123.31,1916.94 c 8.14,2.57 16.25,5.28 24.41,7.77 8.33,2.52 16.48,5.52 24.7,8.39 4.3,1.51 8.62,2.99 12.91,4.49 1.2,0.42 2.41,0.85 3.61,1.28 0.61,-2.24 1.17,-4.5 1.76,-6.75 0.65,-2.48 1.42,-4.91 2.13,-7.37 1.5,-5.28 2.87,-10.58 4.33,-15.87 3.12,-11.22 6.34,-22.4 9.73,-33.53 3.13,-10.28 6.21,-20.56 9.26,-30.86 1.65,-5.57 3.18,-11.17 4.8,-16.75 1.59,-5.46 3.3,-10.89 4.93,-16.35 2.34,-7.9 4.28,-15.92 6.14,-23.96 -0.45,-0.22 -0.91,-0.44 -1.37,-0.67 -5.69,-2.26 -11.45,-4.33 -17.22,-6.38 -6.67,-2.37 -13.27,-4.92 -19.91,-7.36 -3.33,-1.22 -6.62,-2.52 -9.97,-3.71 -3.21,-1.12 -6.43,-2.17 -9.65,-3.28 -2.98,-1.02 -5.95,-2.1 -8.88,-3.27 -1.56,-0.61 -3.11,-1.23 -4.65,-1.88 -0.18,-0.07 -0.36,-0.15 -0.53,-0.22 -1.49,2.66 -2.75,5.47 -4.03,8.23 -1.42,3.09 -2.79,6.21 -4.15,9.32 -2.61,5.98 -5.5,11.84 -8.15,17.79 -2.7,6.08 -5.55,12.06 -8.58,17.99 -2.85,5.57 -5.45,11.22 -7.99,16.94 -2.91,7.16 -5.58,14.4 -8.4,21.6 -2.76,7.02 -5.72,13.99 -8.3,21.09 -2.72,7.51 -5.16,15.11 -8.08,22.55 -1.32,3.37 -2.58,6.75 -3.8,10.16 -0.21,0.57 -0.4,1.14 -0.58,1.72 8.47,3.11 16.93,6.19 25.53,8.89 z m -26.99,-64.53 c 4.31,-10.95 8.25,-22.04 13,-32.82 2.37,-5.38 4.86,-10.7 7.53,-15.94 2.41,-4.71 4.77,-9.42 6.93,-14.25 4.51,-10.12 9.07,-20.23 13.71,-30.29 1.42,-3.08 2.86,-6.15 4.44,-9.13 0.84,-1.59 1.82,-3.05 2.9,-4.48 1.37,-1.8 2.68,-3.57 4.7,-4.72 1.66,-0.95 3.28,-1.71 5.16,-2.05 1.85,-0.5 3.7,-0.5 5.55,0 0.99,0.12 1.94,0.41 2.82,0.88 4.67,1.86 9.27,3.8 14,5.49 5.19,1.86 10.42,3.56 15.62,5.39 4.99,1.74 9.91,3.73 14.88,5.57 10.12,3.75 20.34,7.25 30.35,11.31 1.8,0.72 3.51,1.53 5.25,2.37 3.16,1.51 6.65,3.78 8.45,6.87 1.22,2.1 2.18,4.09 2.19,6.6 0.01,1.79 -0.25,3.53 -0.66,5.27 -0.29,1.31 -0.63,2.6 -0.94,3.92 -1.25,5.16 -2.39,10.36 -3.69,15.51 -1.44,5.65 -3.22,11.19 -4.97,16.76 -1.77,5.62 -3.26,11.34 -4.84,17.01 -6.01,21.56 -13.03,42.84 -19.14,64.38 -1.52,5.41 -2.96,10.83 -4.39,16.27 -1.29,4.95 -2.94,9.82 -4.24,14.78 -1.08,4.11 -2.07,8.26 -3.36,12.3 -0.56,1.75 -1.34,3.41 -2.07,5.09 -0.7,1.6 -1.92,2.88 -2.99,4.24 -1.06,1.32 -4,2.67 -5.57,3.1 -0.89,0.25 -1.78,0.36 -2.68,0.36 -1.57,0 -3.13,-0.34 -4.61,-0.88 -4.67,-1.69 -9.3,-3.47 -14,-5.08 -10.23,-3.52 -20.34,-7.46 -30.7,-10.6 -5.46,-1.67 -10.91,-3.4 -16.36,-5.15 -5.03,-1.64 -10.11,-3.13 -15.12,-4.82 -7.76,-2.6 -15.42,-5.4 -23.09,-8.22 -2.56,-0.93 -4.64,-2.22 -6.09,-4.55 -0.46,-0.07 -0.91,-0.16 -1.36,-0.28 -5.43,-1.5 -8.83,-7.35 -7.28,-12.81 1.2,-4.18 2.33,-8.29 3.84,-12.36 1.81,-4.86 3.73,-9.67 5.47,-14.56 1.91,-5.32 3.7,-10.69 5.63,-16.01 1.77,-4.87 3.82,-9.66 5.73,-14.47"
           style="fill:#121213;fill-opacity:1;fill-rule:nonzero;stroke:none"
           id="path194" />
        <path
           d="m 4462.7,1877.1 c -1.78,-5.56 -3.44,-11.13 -5.1,-16.72 -3.15,-10.59 -6.34,-21.17 -9.72,-31.69 -3.42,-10.61 -6.57,-21.27 -9.66,-31.97 -3.09,-10.71 -6.02,-21.56 -9.87,-32.02 -0.17,-0.46 -0.34,-0.92 -0.51,-1.39 -2.41,-0.12 -4.84,-0.1 -7.25,0.11 -7.76,1.39 -15.21,4.29 -22.9,5.98 -6.96,1.53 -13.94,2.98 -20.9,4.48 -6.55,1.4 -13.01,3.11 -19.57,4.43 -3.85,0.78 -7.8,1.51 -11.62,2.6 -0.01,1.04 0.03,2.07 0.11,3.12 1.08,5.84 2.82,11.58 4.47,17.29 1.44,4.99 2.97,9.96 4.4,14.95 1.53,5.31 3.13,10.57 4.85,15.81 1.65,5.01 3.5,9.95 5.23,14.93 3.63,10.46 7.36,20.91 10.56,31.52 1.57,5.21 3.29,10.36 4.88,15.55 1.61,5.23 3.24,10.46 5.09,15.6 0.25,-0.02 0.5,-0.03 0.76,-0.03 0.85,-0.12 1.7,-0.23 2.54,-0.34 3.61,-0.52 7.16,-1.08 10.74,-1.86 3.65,-0.79 7.24,-1.96 10.8,-3.06 7.48,-2.3 14.74,-5.06 22.06,-7.8 7.02,-2.61 14.1,-4.95 21.26,-7.11 3.51,-1.06 7.01,-2.12 10.5,-3.25 0.56,-0.18 1.13,-0.35 1.7,-0.53 -0.93,-2.88 -1.93,-5.74 -2.85,-8.6 z m 8.36,28.68 c -3.75,1.22 -7.52,2.39 -11.3,3.53 -7.74,2.33 -15.39,4.85 -22.96,7.69 -3.69,1.37 -7.34,2.83 -11.04,4.17 -3.95,1.43 -7.99,2.64 -11.99,3.87 -3.59,1.09 -7.2,2.11 -10.86,2.91 -5.58,1.21 -11.3,1.79 -16.96,2.53 -0.43,0.06 -0.86,0.06 -1.31,0.01 -0.95,0.68 -2.03,1.21 -3.18,1.53 -0.92,0.25 -1.83,0.37 -2.73,0.37 -4.58,0 -8.68,-3.12 -10.08,-7.65 -1.38,-4.5 -3.4,-8.81 -4.86,-13.29 -1.74,-5.35 -3.41,-10.73 -5.14,-16.08 -3.35,-10.39 -6.5,-20.82 -10.07,-31.13 -3.65,-10.52 -7.39,-21.02 -10.88,-31.6 -1.58,-4.81 -2.85,-9.74 -4.3,-14.6 -1.59,-5.3 -3.15,-10.63 -4.68,-15.94 -0.69,-2.4 -1.31,-4.81 -1.91,-7.23 -0.57,-2.25 -1.07,-4.47 -1.44,-6.74 -0.35,-2.11 -0.55,-4.2 -0.65,-6.32 -0.12,-2.37 0.36,-4.75 0.67,-7.09 0.47,-3.46 2.23,-6.63 4.59,-9.14 1.72,-1.85 4.21,-2.69 6.49,-3.59 2.01,-0.79 4.15,-1.3 6.25,-1.8 4.79,-1.14 9.63,-2.02 14.42,-3.1 5.53,-1.24 11.02,-2.63 16.57,-3.82 5.37,-1.15 10.74,-2.27 16.11,-3.45 5.45,-1.2 10.81,-2.68 16.16,-4.23 5.71,-1.67 11.33,-2.86 17.29,-3.21 2.03,-0.12 4.1,0.09 6.14,0.21 3.58,0.21 7.59,0.57 10.76,2.42 3.1,1.81 4.72,4.6 5.98,7.84 0.37,0.97 0.72,1.96 1.07,2.94 0.9,2.6 1.87,5.18 2.77,7.78 1.81,5.2 3.27,10.53 4.89,15.79 1.54,5.05 2.95,10.14 4.4,15.22 3.06,10.67 6.46,21.21 9.72,31.82 3.35,10.82 6.68,21.64 9.9,32.49 1.67,5.63 3.41,11.23 5.25,16.81 0.76,2.33 1.49,4.66 2.2,7 0.52,1.79 1.08,3.56 1.49,5.37 1.1,4.97 -0.19,11.06 -5.07,13.63 -3.64,1.92 -7.83,2.81 -11.71,4.08"
           style="fill:#121213;fill-opacity:1;fill-rule:nonzero;stroke:none"
           id="path196" />
        <path
           d="m 4550.54,1750.94 c 2.63,4.92 5.14,9.9 7.76,14.85 5.08,9.6 10.09,19.24 15.31,28.78 2.62,4.81 4.99,9.78 7.68,14.57 2.71,4.79 5.47,9.55 8.07,14.4 5.43,10.14 10.88,20.27 15.91,30.61 2.73,5.66 5.39,11.49 8.56,16.97 2.38,-1.19 4.76,-2.36 7.18,-3.48 4.73,-2.22 9.63,-4.14 14.47,-6.13 4.81,-2.07 9.64,-4.11 14.47,-6.13 11.11,-4.72 22.12,-9.69 33.15,-14.6 5.65,-2.52 11.31,-4.98 16.97,-7.47 2.84,-1.25 5.73,-2.53 8.54,-3.94 -1.1,-1.51 -2.21,-3 -3.33,-4.49 -2.62,-3.4 -5.23,-6.8 -7.82,-10.22 -13.7,-17.66 -27.62,-35.16 -40.76,-53.25 -3.25,-4.47 -6.29,-9.08 -9.49,-13.59 -3.28,-4.6 -6.61,-9.17 -9.77,-13.85 -6.33,-9.41 -12.98,-18.58 -19.55,-27.82 -1.24,-1.75 -2.52,-3.45 -3.82,-5.16 -1.13,-1.36 -2.24,-2.77 -3.41,-4.13 -1.07,0.75 -2.12,1.51 -3.18,2.24 -2.35,1.63 -4.66,3.33 -6.97,5.02 -3.36,2.65 -6.64,5.37 -9.77,8.3 -3.58,3.36 -7.05,6.86 -10.73,10.12 -3.96,3.5 -7.96,6.96 -11.92,10.45 -2.72,2.41 -5.43,4.82 -8.22,7.16 -2.93,2.44 -6.05,4.73 -9.43,6.52 -0.57,0.3 -1.16,0.59 -1.75,0.87 0.63,1.13 1.24,2.26 1.85,3.4 z m -22.09,-17.75 c 1.41,-0.82 2.97,-1.27 4.55,-1.37 0.83,-0.49 1.75,-0.91 2.73,-1.31 0.35,-0.14 0.7,-0.27 1.05,-0.41 1.05,-0.46 2.1,-0.93 3.15,-1.42 1.84,-0.88 3.53,-2.06 5.18,-3.26 4.99,-4.02 9.69,-8.42 14.52,-12.61 4.18,-3.63 8.19,-7.39 12.19,-11.18 3.92,-3.7 7.83,-7.47 12.09,-10.8 5.01,-3.9 10.09,-7.67 15.32,-11.28 0.87,-0.6 1.74,-1.19 2.62,-1.77 0.78,-0.52 1.56,-1.04 2.34,-1.55 1.91,-1.24 4.06,-1.81 6.32,-1.95 4.1,-0.26 7.83,1.34 10.96,3.91 1.99,1.62 3.61,3.62 5.24,5.59 4.12,4.89 7.87,10.03 11.58,15.24 2.96,4.16 5.98,8.3 8.92,12.47 3.12,4.43 6.09,8.94 9.2,13.37 3.03,4.34 6.09,8.66 9.16,12.98 2.5,3.51 4.83,7.15 7.37,10.65 5.73,7.9 11.66,15.65 17.52,23.46 9.76,12.55 19.57,25.07 29.19,37.72 -0.08,-0.1 -0.16,-0.2 -0.23,-0.3 2.73,3.54 5.44,7.08 8.05,10.71 1.07,1.47 2.13,2.96 3.16,4.48 3.24,4.81 3.59,11.79 -0.97,15.98 -4.06,3.73 -9.11,6.02 -14,8.45 -3.96,1.97 -8.1,3.65 -12.17,5.42 -8.46,3.68 -16.93,7.4 -25.34,11.21 -8.76,3.97 -17.6,7.72 -26.47,11.44 -6.62,2.84 -13.27,5.63 -19.91,8.43 0.16,-0.07 0.32,-0.14 0.48,-0.2 -4.93,2.29 -9.76,4.75 -14.59,7.23 -2.1,1.07 -4.38,1.67 -6.65,1.67 -2.01,0 -4.01,-0.46 -5.87,-1.46 -3.06,-1.64 -4.84,-4.15 -6.76,-6.94 -1.78,-2.61 -3.2,-5.49 -4.68,-8.26 -2.58,-4.8 -4.91,-9.72 -7.28,-14.62 -2.44,-5.04 -5.05,-9.98 -7.64,-14.94 -2.47,-4.75 -4.96,-9.51 -7.57,-14.19 -2.66,-4.8 -5.46,-9.55 -8.05,-14.4 -5.24,-9.82 -10.49,-19.64 -15.7,-29.47 -3.88,-7.3 -7.72,-14.64 -11.54,-21.96 -1.78,-3.41 -3.54,-6.83 -5.35,-10.21 -1.86,-3.49 -3.94,-6.85 -5.86,-10.3 -2.76,-4.96 -1.24,-11.34 3.74,-14.25"
           style="fill:#121213;fill-opacity:1;fill-rule:nonzero;stroke:none"
           id="path198" />
        <path
           d="m 4713.63,1676.23 c 4.74,1.93 9.55,3.66 14.25,5.7 4.45,1.92 8.91,3.82 13.37,5.71 9.97,4.07 20.04,7.94 30.29,11.26 10.7,3.47 21.33,7.21 32.04,10.69 5.1,1.66 10.31,3 15.51,4.37 5.02,1.31 10.03,2.64 15.06,3.87 5.44,1.31 10.93,2.38 16.43,3.42 4.55,0.85 9.07,1.82 13.62,2.68 4.69,-7.49 8.61,-15.42 12.47,-23.35 4.76,-9.83 9.16,-19.79 13.47,-29.82 3.4,-8.62 6.73,-17.26 10.11,-25.88 1.83,-4.72 3.69,-9.43 5.53,-14.14 1.1,-2.8 2.17,-5.64 3.03,-8.54 -2.54,-0.73 -5.11,-1.4 -7.65,-2.15 -5.11,-1.53 -10.24,-3.02 -15.38,-4.47 -10.45,-2.93 -20.86,-5.96 -31.37,-8.65 -10.9,-2.79 -21.77,-5.74 -32.37,-9.48 -10.99,-3.89 -21.83,-8.22 -32.55,-12.78 -5.11,-2.18 -10.06,-4.48 -14.94,-7.09 -3.49,-1.86 -6.83,-3.98 -10.25,-5.96 -0.95,1.73 -1.85,3.49 -2.74,5.26 -2.16,4.3 -4.23,8.66 -6.36,12.99 -4,8.12 -8.43,16.02 -12.74,23.97 -4.37,8.05 -8.76,16.05 -13.59,23.85 -2.3,3.72 -4.7,7.39 -7.1,11.05 -2.64,4.01 -4.85,8.15 -6.84,12.53 -0.08,0.19 -0.18,0.37 -0.29,0.55 0.68,2.58 0.4,5.41 -1.07,7.82 -0.78,1.28 -1.42,2.61 -2.04,3.97 -0.18,0.47 -0.35,0.95 -0.52,1.42 0.87,0.41 1.75,0.81 2.62,1.2 z m -16.68,-25.48 c 1.16,-2.57 2.36,-5.09 3.75,-7.56 1.36,-2.4 2.9,-4.69 4.42,-7.01 3.02,-4.58 5.94,-9.22 8.74,-13.93 5.77,-9.68 10.99,-19.65 16.41,-29.54 5.41,-9.86 10.06,-20.09 15.21,-30.08 1.06,-2.05 2.2,-4.06 3.52,-5.97 1.41,-2.07 3.32,-4.75 5.68,-5.93 1.26,-0.64 2.53,-1.23 3.92,-1.56 2.67,-0.63 5.56,-0.26 8.16,0.53 3.86,1.16 7.28,3.54 10.73,5.54 2.45,1.43 4.91,2.84 7.37,4.25 4.47,2.54 9.15,4.63 13.87,6.64 10.06,4.17 20.2,8.17 30.47,11.8 10.44,3.69 21.21,6.47 31.91,9.21 10.55,2.7 20.99,5.76 31.46,8.71 4.9,1.37 9.77,2.85 14.66,4.27 5.54,1.6 11.08,3.03 16.41,5.28 2.15,0.92 3.98,2.62 5.23,4.6 2.15,3.43 2.17,7.37 1.56,11.24 -0.53,3.27 -1.54,6.42 -2.51,9.57 -1.49,4.84 -3.64,9.52 -5.48,14.22 -4.14,10.57 -8.22,21.13 -12.38,31.68 -2.21,5.59 -4.72,11.07 -7.12,16.58 -2.1,4.86 -4.35,9.68 -6.66,14.45 -2.6,5.37 -5.18,10.74 -7.92,16.05 -2.32,4.51 -5.15,8.75 -7.79,13.07 -0.83,1.36 -1.68,2.59 -2.74,3.85 -1.71,2.04 -4.58,3.39 -7.14,3.87 -1.37,0.26 -2.73,0.36 -4.09,0.36 -3.73,0 -7.42,-0.8 -11.1,-1.55 -5.2,-1.04 -10.41,-2.04 -15.61,-3.03 -10.91,-2.07 -21.62,-5.07 -32.35,-7.89 -10.25,-2.7 -20.17,-6.49 -30.24,-9.79 -10.39,-3.41 -20.81,-6.76 -30.99,-10.73 -9.94,-3.87 -19.71,-8.08 -29.5,-12.27 -3.09,-1.16 -6.19,-2.29 -9.21,-3.57 -3.49,-1.46 -6.91,-3.04 -10.36,-4.57 -1.72,-0.75 -3,-1.62 -4.5,-2.91 -1.39,-1.2 -2.78,-3.88 -3.26,-5.6 -0.9,-3.28 -0.33,-6.79 0.34,-10.03 0.62,-2.94 1.94,-5.88 3.15,-8.61 0.79,-1.81 1.59,-3.58 2.62,-5.27 0.09,-0.15 0.18,-0.29 0.28,-0.43 -0.77,-2.87 -0.12,-5.32 1.08,-7.94"
           style="fill:#121213;fill-opacity:1;fill-rule:nonzero;stroke:none"
           id="path200" />
        <path
           d="m 4982.34,1336.5 c -5.38,0.4 -10.75,0.44 -16.14,0.44 -11.2,0 -22.38,-0.02 -33.57,0.04 -22.64,0.13 -45.29,0.97 -67.89,2.07 -5.69,0.28 -11.37,0.58 -17.06,0.87 -6.33,0.33 -12.72,0.42 -19.05,0.97 -0.03,2.45 -0.04,4.91 -0.15,7.35 -0.25,5.39 -0.87,10.75 -1.7,16.06 -0.84,5.44 -1.81,10.83 -2.99,16.2 -1.04,4.75 -1.94,9.48 -2.72,14.27 -0.49,3.7 -1.03,7.42 -1.28,11.13 -0.39,5.59 -0.67,11.16 -0.65,16.76 0,0.26 0,0.52 -0.02,0.77 0.19,0.17 0.39,0.35 0.57,0.53 1.04,1.05 1.74,2.18 2.22,3.4 2.65,0.13 5.3,0.2 7.94,0.36 5.1,0.3 10.22,0.66 15.32,0.96 11.3,0.69 22.59,1.29 33.89,1.99 10.98,0.67 21.98,1.14 32.97,1.44 10.72,0.29 21.43,1.13 32.15,1.22 7.35,0.06 14.69,0.07 22.04,0.05 6.35,-0.03 12.7,0.01 19.04,-0.33 -0.03,-1.65 -0.07,-3.31 -0.07,-4.95 0,-4.2 0,-8.39 0,-12.59 0.02,-9.86 0.02,-19.73 0.2,-29.6 0.18,-9.64 0.65,-19.27 1.29,-28.9 0.28,-4.27 0.47,-8.58 0.58,-12.86 0.08,-2.66 0.14,-5.34 0.12,-8.01 -1.68,0.12 -3.36,0.24 -5.04,0.36 z m 24.65,28.92 c -0.34,5.94 -0.51,11.89 -0.7,17.84 -0.36,11.02 -0.25,22.05 -0.26,33.08 0,5.11 0,10.24 0,15.35 0,2.33 0.02,4.65 -0.01,6.98 -0.04,1.8 -0.26,3.57 -0.56,5.35 -0.2,1.14 -0.72,2.29 -1.43,3.2 -0.92,1.57 -2.17,2.82 -3.73,3.74 -0.83,0.65 -1.77,1.08 -2.84,1.3 -3.66,1.07 -7.65,1.31 -11.45,1.63 -2.93,0.23 -5.91,0.19 -8.85,0.25 -3.39,0.07 -6.78,0.08 -10.18,0.08 -2.26,0 -4.52,-0.01 -6.78,-0.01 -10.79,0.01 -21.57,-0.1 -32.36,-0.59 -10.63,-0.49 -21.28,-0.65 -31.91,-1.24 -10.71,-0.61 -21.4,-1.19 -32.1,-1.8 -10.97,-0.61 -21.96,-1.18 -32.92,-1.95 -4.67,-0.34 -9.36,-0.39 -14.02,-0.78 -2.59,-0.21 -6.09,-0.39 -8.34,-1.96 -0.94,-0.66 -1.92,-1.29 -2.68,-2.14 -1.51,-1.7 -2.2,-3.31 -2.98,-5.41 -0.26,-0.69 -0.31,-1.57 -0.42,-2.31 -0.23,-1.57 -0.43,-3.13 -0.56,-4.7 -0.02,-0.28 -0.02,-0.57 -0.01,-0.86 -2.18,-1.92 -3.58,-4.73 -3.59,-7.81 -0.03,-11.28 0.93,-22.59 2.72,-33.71 0.85,-5.32 1.92,-10.54 3.07,-15.78 1.03,-4.72 1.83,-9.47 2.57,-14.25 0.54,-4.51 0.98,-9.02 1.09,-13.57 0.07,-2.61 0.13,-5.21 0.15,-7.81 0.01,-1.19 0.01,-2.38 0.08,-3.55 0.13,-2.15 0.71,-4.29 1.81,-6.17 1.64,-2.8 4.53,-4.56 7.45,-5.72 3.24,-1.3 6.81,-1.58 10.26,-1.97 1.86,-0.19 3.76,-0.24 5.63,-0.33 2.94,-0.14 5.9,-0.28 8.84,-0.42 5.19,-0.25 10.39,-0.54 15.59,-0.81 22.74,-1.15 45.49,-2.04 68.25,-2.37 10.98,-0.16 21.96,-0.09 32.94,-0.09 5.32,0 10.68,0.15 15.99,-0.05 5.43,-0.22 10.83,-0.67 16.24,-0.95 2.57,-0.13 5.41,-0.6 7.92,0.08 1.77,0.49 3.78,1.63 5.07,2.93 1.21,1.21 2.81,3.85 3.13,5.56 0.58,3.13 0.9,6.21 1.02,9.37 0.2,5.46 -0.02,10.9 -0.25,16.36 -0.23,5.33 -0.6,10.67 -0.89,16.01"
           style="fill:#121213;fill-opacity:1;fill-rule:nonzero;stroke:none"
           id="path202" />
        <path
           d="m 4971.49,1159.74 c -1.46,-4.2 -3.05,-8.36 -4.6,-12.53 -3.25,-8.84 -6.7,-17.59 -9.63,-26.53 -2.92,-8.92 -5.76,-17.87 -8.71,-26.77 -1.4,-4.19 -2.66,-8.42 -3.97,-12.64 -0.49,-1.61 -0.92,-3.25 -1.35,-4.89 -1.44,0.64 -2.88,1.28 -4.32,1.93 -5.65,2.57 -11.23,5.24 -16.98,7.55 -5.41,2.17 -10.96,3.87 -16.54,5.55 -5.12,1.53 -10.24,3.09 -15.36,4.63 -4.88,1.48 -9.71,3.13 -14.44,5.03 -5.15,2.05 -10.27,4.22 -15.44,6.22 -10.06,3.89 -20.12,7.76 -30.08,11.9 -4.61,1.99 -9.19,4.05 -13.85,5.91 -3.84,1.52 -7.71,2.95 -11.58,4.4 2.28,8.94 5.15,17.75 7.55,26.65 1.29,4.79 2.45,9.64 3.52,14.48 0.56,2.54 1.12,5.07 1.67,7.61 1.02,4.72 1.89,9.48 3.46,14.06 0.28,0.59 0.56,1.18 0.86,1.77 9.79,-2.24 19.78,-3.47 29.63,-5.38 10.61,-2.07 21.16,-4.33 31.75,-6.42 11.05,-2.19 22.12,-4.29 33.15,-6.52 10.95,-2.22 21.86,-4.71 32.74,-7.24 7.86,-1.84 15.85,-3.32 23.68,-5.34 -0.38,-1.15 -0.77,-2.29 -1.16,-3.43 z m -166.87,-30.32 v 0.01 c 0.29,-0.13 0.58,-0.25 0.87,-0.38 -0.29,0.12 -0.58,0.25 -0.87,0.37 z m 176.32,53.06 c -2.76,0.71 -5.51,1.45 -8.3,2.07 -10.78,2.35 -21.5,4.98 -32.28,7.33 -21.9,4.75 -43.92,8.85 -65.88,13.34 -8.31,1.7 -16.62,3.49 -24.99,4.88 -8.11,1.35 -16.27,2.57 -24.26,4.53 -0.87,0.21 -1.76,0.31 -2.63,0.31 -3.22,0 -6.29,-1.42 -8.28,-3.88 -3.91,0.31 -8,-1.46 -9.89,-5.07 -2.29,-4.38 -4.09,-8.84 -5.28,-13.63 -0.71,-2.83 -1.25,-5.73 -1.86,-8.59 -0.75,-3.43 -1.49,-6.87 -2.29,-10.29 -1.84,-7.79 -3.86,-15.51 -6.07,-23.18 -1.02,-3.58 -2.11,-7.14 -3.11,-10.73 -0.51,-1.86 -1.02,-3.72 -1.53,-5.58 -1.02,-3.74 -2.33,-8.06 -1.27,-11.9 2.18,-7.89 10.23,-10.5 17.06,-13.05 3.38,-1.26 6.74,-2.51 10.09,-3.83 9.1,-3.89 18.2,-7.77 27.4,-11.42 8.71,-3.48 17.48,-6.78 26.18,-10.29 4.65,-1.88 9.28,-3.7 14.01,-5.32 4.31,-1.5 8.67,-2.82 13.04,-4.13 4.98,-1.51 9.96,-3.01 14.94,-4.5 4.16,-1.26 8.18,-2.8 12.2,-4.41 4.69,-2.14 9.34,-4.39 14.07,-6.45 2.26,-1 4.52,-1.98 6.8,-2.95 4.27,-1.83 8.75,-4.62 13.53,-2.8 2.71,1.03 4.64,2.29 6.22,4.79 1.02,1.6 1.7,3.31 2.42,5.06 0.59,1.45 0.94,3.04 1.38,4.53 0.8,2.73 1.48,5.5 2.26,8.23 1.47,5.16 3.17,10.26 4.86,15.36 3.45,10.41 6.52,20.99 10.28,31.3 3.91,10.68 8.11,21.26 11.82,32 0.82,2.38 1.57,4.8 2.31,7.22 1.37,4.47 2.59,9.45 0.06,13.79 -2.7,4.59 -8.22,6.01 -13.01,7.26"
           style="fill:#121213;fill-opacity:1;fill-rule:nonzero;stroke:none"
           id="path204" />
        <path
           d="m 4897.53,930.359 c -4.08,-3.589 -8.2,-7.109 -12.46,-10.48 -8.44,-6.68 -16.87,-13.41 -25.22,-20.211 -8.77,-7.137 -17.38,-14.477 -25.97,-21.809 -4.01,-3.429 -8.02,-6.847 -12.1,-10.191 -4.05,-3.297 -7.93,-6.797 -11.97,-10.098 -0.12,-0.082 -0.24,-0.172 -0.36,-0.25 -0.35,0.391 -0.7,0.789 -1.04,1.18 -1.75,1.961 -3.48,3.93 -5.17,5.949 -3.45,4.129 -7.02,8.192 -10.71,12.102 -7.84,8.32 -15.8,16.519 -23.17,25.269 -7,8.301 -13.63,16.918 -20.88,25.02 -7.68,8.539 -15.68,16.781 -23.17,25.488 -3.87,4.492 -7.87,8.863 -11.68,13.391 -0.28,0.371 -0.55,0.742 -0.83,1.109 2.71,2.934 5.37,5.902 8.05,8.863 4.05,4.457 8.44,8.598 12.44,13.11 4.3,4.871 8.59,9.75 13,14.529 3.89,4.24 7.51,8.82 11.57,12.91 7.33,-4.24 15.02,-7.79 22.27,-12.15 5.03,-3.02 10.08,-5.949 15.21,-8.781 4.5,-2.489 9.14,-4.719 13.64,-7.18 10.11,-5.551 20.45,-10.707 30.43,-16.449 4.87,-2.809 9.66,-5.75 14.51,-8.602 4.4,-2.59 8.82,-5.117 13.1,-7.91 4.8,-3.137 9.5,-6.398 14.17,-9.719 4.19,-2.969 8.52,-5.738 12.73,-8.699 1.85,-1.512 3.69,-3.039 5.52,-4.59 0.03,-0.031 0.06,-0.058 0.09,-0.078 -0.67,-0.57 -1.34,-1.141 -2,-1.723 z m -187.5,40.161 c -0.04,0.05 -0.09,0.109 -0.13,0.16 0.06,-0.078 0.13,-0.16 0.19,-0.239 -0.02,0.028 -0.04,0.047 -0.06,0.079 z m 209.39,-28.141 c -3.98,3.41 -7.94,6.82 -12.02,10.109 -4.62,3.723 -9.74,6.723 -14.58,10.16 -4.71,3.352 -9.43,6.68 -14.26,9.84 -4.29,2.801 -8.7,5.383 -13.11,7.992 -4.68,2.75 -9.32,5.61 -14.03,8.321 -7.57,4.359 -15.33,8.32 -23.02,12.459 -3.56,1.92 -7.08,3.9 -10.65,5.78 -3.81,2.01 -7.68,3.93 -11.45,6.01 -3.79,2.09 -7.54,4.22 -11.27,6.4 -3.36,1.95 -6.64,4.02 -10.07,5.83 -5.27,2.77 -10.57,5.45 -15.71,8.42 -0.22,0.68 -0.51,1.35 -0.88,1.99 -1.95,3.33 -5.42,5.09 -8.99,5.09 -1.79,0 -3.61,-0.44 -5.27,-1.35 -9.18,-5.06 -15.54,-13.58 -22.44,-21.24 -4.91,-5.46 -9.82,-10.93 -14.69,-16.43 -1.97,-2.24 -4.13,-4.33 -6.2,-6.479 -2.85,-2.98 -5.66,-5.98 -8.42,-9.043 -2.36,-2.597 -4.7,-5.218 -7.13,-7.75 -0.46,-0.48 -0.93,-0.957 -1.4,-1.437 -1.8,-1.84 -3.12,-3.641 -3.97,-6.071 -0.8,-2.339 -0.49,-4.351 -0.09,-6.71 0.37,-2.258 2.31,-4.489 3.84,-6.34 3.42,-4.621 6.99,-9.059 10.82,-13.328 3.4,-3.793 6.63,-7.731 10.05,-11.512 7.45,-8.25 15.34,-16.16 22.49,-24.68 3.54,-4.219 7.08,-8.441 10.56,-12.719 3.61,-4.421 7.14,-8.992 10.98,-13.211 7.64,-8.371 15.57,-16.468 23.16,-24.902 3.45,-3.84 6.71,-7.828 10.13,-11.687 1.64,-1.852 3.25,-3.723 4.99,-5.469 3.52,-3.5 7.84,-5.5 12.88,-5.254 6.2,0.312 11.08,4.602 15.67,8.32 2.03,1.641 3.96,3.383 5.93,5.082 4.04,3.45 8.26,6.7 12.27,10.16 8.65,7.489 17.44,14.782 26.15,22.18 8.23,6.988 16.82,13.559 25.22,20.328 4.07,3.293 8.29,6.41 12.22,9.883 3.93,3.449 7.87,6.879 11.95,10.16 1.89,1.52 3.34,2.66 4.7,4.797 1.69,2.652 1.74,5.942 1.08,8.883 -0.7,3.078 -3.14,5.449 -5.44,7.418"
           style="fill:#121213;fill-opacity:1;fill-rule:nonzero;stroke:none"
           id="path206" />
        <path
           style="fill:#fff745;fill-opacity:1;stroke-width:0.413094"
           d="m 527.13439,874.69692 c -4.50867,0.75803 -9.08738,2.08595 -13.03103,4.42221 -0.23335,1.52217 1.17184,3.22213 1.38935,4.79577 0.76907,1.87981 0.83943,5.51106 3.57101,3.20552 4.08349,-1.68328 8.65324,-2.35097 12.6139,-4.15031 -0.36817,-2.78359 -1.81397,-5.48601 -3.31202,-7.85283 -0.29945,-0.37313 -0.77535,-0.47674 -1.23121,-0.42036 z"
           id="path33"
           transform="matrix(7.5000002,0,0,-7.5000002,0,7782.6999)" />
        <path
           style="fill:#fff745;fill-opacity:1;stroke-width:0.413094"
           d="m 514.25342,842.79425 c -0.0337,3.37624 -0.27749,6.81878 -0.18476,10.15551 4.6282,1.27615 9.51908,1.73811 14.30259,1.69352 2.0035,-0.9853 1.04942,-4.00768 1.55637,-5.76073 -0.14315,-1.32588 1.07647,-4.22446 -1.1819,-4.27309 -4.71315,-1.2541 -9.68832,-1.7989 -14.4923,-1.81521 z"
           id="path35"
           transform="matrix(7.5000002,0,0,-7.5000002,0,7782.6999)" />
        <path
           style="fill:#fff745;fill-opacity:1;stroke-width:0.413094"
           d="m 523.20031,800.81756 c -2.41637,3.20598 -4.24202,7.09929 -6.51753,10.45322 6.15248,3.67618 12.9175,6.52357 19.14757,10.17084 1.5041,0.92195 1.42255,-1.86757 2.08242,-2.53262 0.8529,-2.63027 2.31833,-5.07753 3.27813,-7.59061 -1.0575,-2.04526 -3.91349,-2.47096 -5.63291,-3.86479 -4.1178,-2.16382 -7.97495,-5.06699 -12.35768,-6.63604 z"
           id="path37"
           transform="matrix(7.5000002,0,0,-7.5000002,0,7782.6999)" />
        <path
           style="fill:#fff745;fill-opacity:1;stroke-width:0.413094"
           d="m 552.52114,781.30288 c -1.83731,0.86555 -4.3613,1.03845 -5.75831,2.56893 2.25889,6.35721 4.63386,12.80726 8.10617,18.607 3.11007,-0.56931 6.26839,-1.9606 9.08082,-3.45967 -1.61451,-6.57406 -3.59138,-13.24119 -5.60743,-19.65264 -1.94042,0.64546 -3.88083,1.29092 -5.82125,1.93638 z"
           id="path39"
           transform="matrix(7.5000002,0,0,-7.5000002,0,7782.6999)" />
        <path
           style="fill:#fff745;fill-opacity:1;stroke-width:0.413094"
           d="m 585.48963,783.34334 c -1.71799,1.01149 -1.64426,3.67211 -2.52778,5.29116 -0.98385,3.68762 -2.76227,7.31134 -3.13452,11.1003 1.8129,1.50642 4.64979,1.21801 6.80719,2.06063 1.20739,0.16165 3.22003,1.57994 3.88567,-0.21542 1.71632,-5.0242 3.24787,-10.22089 4.66748,-15.27401 -3.21834,-0.99271 -6.37264,-2.38306 -9.69804,-2.96266 z"
           id="path41"
           transform="matrix(7.5000002,0,0,-7.5000002,0,7782.6999)" />
        <path
           style="fill:#fff745;fill-opacity:1;stroke-width:0.413094"
           d="m 615.25583,788.44731 c -2.81392,5.39813 -5.86008,10.76288 -8.53137,16.18169 2.818,1.96627 5.16301,4.80896 8.03679,6.54335 4.18944,-5.58659 8.35479,-11.27588 12.42834,-16.92558 -1.22885,-1.77615 -3.96143,-2.04907 -5.73734,-3.16921 -2.06479,-0.83736 -4.12568,-1.96027 -6.19642,-2.63025 z"
           id="path43"
           transform="matrix(7.5000002,0,0,-7.5000002,0,7782.6999)" />
        <path
           style="fill:#fff745;fill-opacity:1;stroke-width:0.413094"
           d="m 646.63004,808.31296 c -5.99564,1.49086 -12.05599,3.22092 -17.59525,5.97454 -1.3287,1.69321 1.15496,3.67623 1.66968,5.23613 1.77915,2.5856 2.77569,5.7803 4.6631,8.20961 6.06119,-2.85774 12.66042,-4.54056 18.98379,-6.45298 -1.60176,-4.54961 -3.5892,-9.01554 -5.81641,-13.25291 -0.63497,0.0952 -1.26994,0.19041 -1.90491,0.28561 z"
           id="path45"
           transform="matrix(7.5000002,0,0,-7.5000002,0,7782.6999)" />
        <path
           style="fill:#fff745;fill-opacity:1;stroke-width:0.413094"
           d="m 658.15876,846.69202 c -5.15052,0.27788 -10.4079,0.36617 -15.48378,0.88832 0.0647,3.73715 0.65889,7.57892 1.63624,11.14064 6.7826,0.56901 13.71861,0.72753 20.45786,0.72211 -0.0712,-4.32624 0.14046,-8.77295 -0.10408,-13.02539 -2.16874,0.0914 -4.33749,0.18288 -6.50624,0.27432 z"
           id="path47"
           transform="matrix(7.5000002,0,0,-7.5000002,0,7782.6999)" />
        <path
           style="fill:#fff745;fill-opacity:1;stroke-width:0.413094"
           d="m 643.10502,878.78511 c -1.08619,2.51234 -1.62517,5.6069 -2.25508,8.29819 5.77953,2.5152 11.82729,4.49685 17.71062,6.63211 1.64091,-2.56723 2.37617,-5.88242 3.54519,-8.76051 0.1666,-0.81754 1.30508,-2.42235 -0.3074,-2.42128 -6.16787,-1.49465 -12.39894,-2.93366 -18.69333,-3.74851 z"
           id="path49"
           transform="matrix(7.5000002,0,0,-7.5000002,0,7782.6999)" />
        <path
           style="fill:#fff745;fill-opacity:1;stroke-width:0.413094"
           d="m 634.4373,902.38959 c -1.94956,2.16279 -4.20749,4.19347 -5.77849,6.61193 4.25347,4.65058 8.33782,9.58317 12.62278,14.12105 3.81494,-3.21545 7.99723,-6.13931 11.48597,-9.67222 -3.13563,-3.01379 -7.3664,-4.81222 -11.06377,-7.10396 -2.42478,-1.29301 -4.81736,-2.79742 -7.26649,-3.9568 z"
           id="path51"
           transform="matrix(7.5000002,0,0,-7.5000002,0,7782.6999)" />
        <path
           style="fill:#ffffff;fill-opacity:1;stroke-width:0.413094"
           d="m 585.9584,815.98748 c -10.58076,-0.20329 -21.55457,2.21881 -29.93064,8.9952 -7.22752,5.07197 -11.81428,12.97649 -14.28341,21.31665 -1.79684,4.33689 -0.50166,9.19096 -0.88344,13.76421 0.009,10.24286 0.0848,21.09067 5.3315,30.24707 6.65055,14.04377 17.89024,25.91508 21.61242,41.27475 0.90975,3.56262 1.06128,7.30404 1.52894,10.89053 2.2024,-0.0174 4.7555,0.78128 6.8217,0.29933 -0.31422,-13.52498 -2.05838,-27.09413 -5.69457,-40.13713 -2.88156,-8.29518 -5.65048,-17.00648 -11.774,-23.56575 -2.9422,-3.68657 -3.56231,-9.01605 -1.98802,-13.38846 1.95446,-5.04143 7.59031,-7.23236 12.65828,-6.79992 2.11556,-0.10747 4.37852,1.72947 6.27146,0.008 3.66684,-1.62472 8.11686,-2.5516 11.99749,-1.24171 1.39466,0.78008 3.03482,2.51092 4.64892,1.1352 4.02683,-1.61192 8.72196,-1.78564 12.91405,-0.72856 1.90275,0.40854 2.84886,3.44929 5.03297,2.10582 3.84152,-0.78693 8.91897,0.31993 10.12485,4.62794 2.10024,5.66072 -2.29709,10.77817 -5.44368,15.03617 -7.4438,9.86518 -16.54747,19.49456 -18.71953,32.14295 -2.17819,10.45595 -1.942,21.31278 -2.5903,31.84457 1.80871,-0.59089 5.7926,1.19227 6.23246,-0.92042 0.1564,-11.85404 2.35191,-24.66456 10.81495,-33.58185 7.32193,-8.15124 16.02597,-15.73743 19.69423,-26.40579 4.8917,-11.72865 4.10704,-25.04422 0.80916,-37.07785 -2.15524,-7.93742 -6.92253,-15.00881 -13.42431,-20.03728 -5.71149,-4.79477 -12.89832,-7.42607 -20.00362,-9.34949 -3.89243,-0.49799 -7.84069,-0.46641 -11.75786,-0.45425 z"
           id="path53"
           transform="matrix(7.5000002,0,0,-7.5000002,0,7782.6999)" />
        <path
           style="fill:#ffffff;fill-opacity:1;stroke-width:0.413094"
           d="m 583.50323,860.02642 c -2.23601,0.22913 -5.08882,0.17278 -6.69907,1.93719 0.84872,1.61202 1.86055,3.35716 2.08564,5.27099 0.91438,2.56355 -1.20905,5.62242 -4.00472,5.21808 -2.60192,0.79287 -5.74792,-1.04 -5.7974,-3.86584 -0.65716,-2.39615 0.49825,-4.52792 1.88233,-6.37715 -0.48265,-0.85002 -2.27635,-0.18951 -3.17809,-0.34855 -4.04521,-0.2741 -8.13143,2.41969 -8.7476,6.56998 -1.05765,4.23499 1.05216,8.37412 4.00428,11.29636 5.53657,6.98668 8.09003,15.78769 10.78436,24.14244 2.5414,9.30861 3.81291,18.99615 5.0165,28.48515 4.09606,-0.59451 8.32765,-0.43439 12.3888,-0.62045 0.2418,-12.61276 1.51333,-25.93574 8.63502,-36.73263 5.24503,-8.63896 12.86153,-15.66081 17.59567,-24.6119 1.56378,-2.87027 -10e-4,-7.38489 -3.63878,-7.38245 -1.01125,0.1525 -3.69575,-0.71044 -3.23375,1.14005 0.61916,3.37545 1.03859,8.19542 -2.78274,9.80776 -2.38506,1.24281 -6.36171,0.57279 -6.40539,-2.75692 -0.49438,-3.64327 1.54774,-7.22531 4.28667,-9.34626 -3.10611,-2.7032 -7.5237,-1.4648 -11.13903,-0.80763 -2.31323,0.23819 -2.36625,1.56839 -1.20217,3.26764 0.69354,2.54521 1.57201,6.31463 -0.93753,8.14651 -1.8943,1.40135 -4.96371,0.99145 -5.79139,-1.46923 -1.50517,-3.03905 -0.75218,-6.7411 1.33852,-9.26316 -1.03477,-1.56254 -2.71257,-1.88408 -4.46013,-1.69998 z"
           id="path55"
           transform="matrix(7.5000002,0,0,-7.5000002,0,7782.6999)" />
        <path
           style="fill:#ffffff;fill-opacity:1;stroke-width:0.413094"
           d="m 584.55049,934.94417 c -1.6306,0.30002 -3.78003,-0.44838 -5.154,0.58818 -0.64765,2.5162 -0.26936,5.307 -0.24528,7.8254 3.87204,0.25669 7.85931,0.51119 11.67396,0.35661 -0.071,-2.90941 0.13765,-5.93466 -0.10005,-8.77503 -2.05821,0.003 -4.11644,-0.006 -6.17463,0.005 z"
           id="path57"
           transform="matrix(7.5000002,0,0,-7.5000002,0,7782.6999)" />
        <path
           style="fill:#ffffff;fill-opacity:1;stroke-width:0.413094"
           d="m 568.40108,945.74756 c -1.12856,3.06979 -2.54558,7.52984 0.33483,10.07725 3.91363,1.37081 8.29203,0.81308 12.37502,1.44322 5.71238,0.36797 11.45596,1.11884 17.15075,1.27981 4.66518,-1.6798 5.20012,-8.94655 0.96012,-11.34234 -6.36865,-0.62447 -12.85261,-0.13211 -19.22643,-0.94415 -3.84758,-0.3298 -7.76122,-0.7318 -11.59429,-0.51379 z"
           id="path59"
           transform="matrix(7.5000002,0,0,-7.5000002,0,7782.6999)" />
        <path
           style="fill:#ffffff;fill-opacity:1;stroke-width:0.413094"
           d="m 570.11397,959.65804 c -2.71129,3.24483 -4.84108,7.72875 -3.85017,12.00878 1.77417,2.88965 5.86883,2.57715 8.78931,3.24198 7.81175,0.75308 15.60572,1.98693 23.44416,2.30979 3.3407,0.0478 4.56536,-3.90833 5.02571,-6.58935 -0.13041,-3.65233 -2.39908,-7.61605 -5.85997,-9.02514 -9.14577,-0.97432 -18.37089,-1.65312 -27.54904,-1.94606 z"
           id="path61"
           transform="matrix(7.5000002,0,0,-7.5000002,0,7782.6999)" />
        <path
           style="fill:#ffffff;fill-opacity:1;stroke-width:0.413094"
           d="m 571.41295,977.74786 c -3.55045,1.01833 -5.19602,5.59704 -4.37137,8.94527 1.64341,3.29671 6.07756,3.27969 9.22443,3.8655 8.76223,0.32191 17.5933,0.38644 26.32428,-0.41228 1.92205,-1.5573 2.25083,-4.73589 1.47891,-6.98711 -1.67558,-3.61185 -6.396,-2.58025 -9.54958,-3.26199 -7.69359,-0.76532 -15.38261,-1.79511 -23.10667,-2.14939 z"
           id="path63"
           transform="matrix(7.5000002,0,0,-7.5000002,0,7782.6999)" />
        <path
           style="fill:#ffffff;fill-opacity:1;stroke-width:0.413094"
           d="m 582.24539,993.77625 c -1.75386,0.20556 -4.00908,-0.28842 -5.54208,0.34613 1.30653,2.59519 2.42984,5.33068 3.65249,7.93832 4.10293,-0.049 8.27162,0.098 12.33394,-0.073 0.5563,-2.57253 1.83241,-5.21187 2.05095,-7.76083 -4.00109,-0.86767 -8.39693,-0.26279 -12.4953,-0.45102 z"
           id="path65"
           transform="matrix(7.5000002,0,0,-7.5000002,0,7782.6999)" />
      </g>
    </g>
  </g>
</svg>
