<?xml version="1.0" encoding="UTF-8" standalone="no"?>
<!-- Created with Inkscape (http://www.inkscape.org/) -->

<svg
   version="1.1"
   id="svg2"
   width="30"
   height="27"
   viewBox="0 0 62.468504 68.93854"
   xmlns="http://www.w3.org/2000/svg"
   xmlns:svg="http://www.w3.org/2000/svg">
  <defs
     id="defs6" />
  <g
     id="g8"
     transform="matrix(1.3333333,0,0,-1.3333333,-523.16512,373.77865)">
    <g
       id="g10"
       transform="scale(0.1)">
      <path
         d="m 3947.79,2652.78 c 10.21,1.14 20.47,1.02 30.73,1.33 5.86,0.17 11.73,0.32 17.59,0.54 5.21,0.2 10.41,0.78 15.6,1.29 11.12,1.1 22.24,2.17 33.35,3.26 10.66,1.04 21.37,2.08 32.08,2.58 22.53,1.04 45.12,0.72 67.66,0.66 11.11,-0.03 22.19,-0.2 33.3,-0.46 11.27,-0.27 22.57,-0.21 33.85,-0.64 8.13,-0.31 16.34,-0.43 24.47,-1.1 -0.01,-1.01 -0.02,-2.01 -0.02,-3.01 0,-3.77 0,-7.55 0,-11.33 0,-8.31 0,-16.63 0,-24.94 0,-2.25 0.89,-4.24 2.14,-5.96 -7.69,-10.42 -15.33,-20.88 -22.75,-31.5 -7.15,-10.23 -14.26,-20.49 -21.29,-30.8 -3.45,-5.06 -7.34,-9.87 -11.05,-14.73 -3.7,-4.85 -7.33,-9.72 -11.03,-14.55 0.13,0.17 0.27,0.35 0.41,0.52 -0.18,-0.22 -0.35,-0.45 -0.52,-0.68 -0.04,-0.05 -0.08,-0.1 -0.12,-0.15 -0.54,-0.54 -1.02,-1.15 -1.43,-1.82 -0.29,-0.33 -0.56,-0.68 -0.81,-1.04 -0.22,-0.29 -0.44,-0.57 -0.64,-0.86 -0.69,-0.9 -1.38,-1.79 -2.08,-2.68 0.41,0.52 0.81,1.03 1.22,1.56 -1.89,-2.45 -3.76,-4.91 -5.62,-7.38 -5.56,-7.04 -11.24,-13.98 -17.03,-20.83 -2.91,-3.45 -5.95,-6.8 -8.97,-10.15 -2.95,-3.27 -5.61,-6.85 -8.68,-10.01 -1.49,1.78 -2.96,3.59 -4.39,5.42 -3.4,4.35 -7,8.49 -10.66,12.6 -3.66,4.11 -7.17,8.33 -10.73,12.5 -3.42,3.99 -7.32,7.43 -11.02,11.14 -7.57,7.6 -14.36,15.92 -22.07,23.4 -3.86,3.74 -7.63,7.58 -11.38,11.44 -3.66,3.77 -7.43,7.42 -11.12,11.14 -3.18,3.17 -5.99,6.8 -8.85,10.24 -1.69,2.02 -4.84,3.06 -7.37,3.06 -2.76,0 -5.42,-1.11 -7.36,-3.06 -0.84,-0.83 -1.43,-1.84 -1.93,-2.89 -1.31,-0.88 -2.48,-1.95 -3.28,-3.32 -1.54,-2.6 -1.54,-5.15 -1.06,-8.03 1.8,-10.79 4.22,-21.45 6.32,-32.18 2.1,-10.6 4.91,-21.01 7.73,-31.42 1.41,-5.18 2.96,-10.34 4.13,-15.57 1.3,-5.76 2.47,-11.53 3.62,-17.31 2.19,-10.89 5.04,-21.72 7.94,-32.45 2.89,-10.68 5.45,-21.48 8,-32.25 2.52,-10.69 4.31,-21.54 7.15,-32.17 1.5,-5.62 3.22,-11.15 5.04,-16.66 -1.99,-0.12 -3.99,-0.26 -5.99,-0.35 -4.24,-0.19 -8.49,-0.13 -12.74,-0.18 -8.96,-0.1 -17.95,-0.33 -26.9,-0.76 -4.45,-0.21 -8.88,-0.6 -13.32,-0.89 -4.86,-0.3 -9.71,-0.4 -14.58,-0.47 -8.12,-0.13 -16.26,-0.45 -24.37,-0.05 -0.06,0.23 -0.11,0.46 -0.15,0.68 -0.38,3.65 -0.69,7.32 -1.02,10.97 -0.53,5.58 -0.94,11.18 -1.42,16.76 -0.91,10.61 -2.38,21.2 -3.88,31.74 -0.6,5.37 -1.13,10.72 -1.38,16.13 -0.24,5.47 -0.26,10.97 -0.39,16.46 -0.26,10.57 0.14,21.19 -0.7,31.74 -0.91,11.54 -1.82,23.04 -2.25,34.61 -0.42,11.35 -0.45,22.73 -0.6,34.11 -0.13,8.69 -0.32,17.48 -1.14,26.14 -0.88,9.44 -2.11,18.83 -3.24,28.24 -1.06,8.89 -1.7,17.83 -2.83,26.7 -1.38,10.83 -3.24,21.53 -5.03,32.29 -0.17,1.6 -0.26,3.2 -0.27,4.8 1.04,0.22 2.08,0.4 3.13,0.58 z m 224.41,-129.66 c 0.44,0.58 0.89,1.16 1.34,1.74 0.17,0.22 0.34,0.44 0.52,0.66 -0.63,-0.8 -1.24,-1.59 -1.85,-2.39 z m 116.12,124.09 c 0.06,0.07 0.11,0.15 0.17,0.22 -0.05,-0.08 -0.1,-0.16 -0.14,-0.25 -5.21,-9.29 -10.28,-18.67 -15.19,-28.11 -10.71,-20.66 -21.17,-41.47 -31.69,-62.23 -9.91,-19.56 -20.66,-38.73 -31.57,-57.72 -5.52,-9.62 -11.15,-19.16 -16.65,-28.78 -5.66,-9.9 -11.17,-19.86 -16.64,-29.87 -5.57,-10.18 -11.06,-20.36 -16.33,-30.7 -5.05,-9.89 -10.03,-19.81 -15.42,-29.53 -2.54,-4.59 -4.66,-9.4 -7.16,-14.02 -2.59,-4.77 -5.22,-9.54 -7.97,-14.24 -2.68,-4.58 -5.42,-9.12 -8.43,-13.5 -2.99,-4.32 -5.73,-8.83 -8.77,-13.11 -0.43,-0.62 -0.87,-1.24 -1.31,-1.86 -2.58,-3.21 -5.3,-6.24 -8.2,-9.18 -1.54,-1.58 -2.89,-3.32 -4.2,-5.1 -0.22,0.9 -0.39,1.81 -0.64,2.69 -1.29,4.76 -2.41,9.55 -3.61,14.33 -1.28,5.01 -3.17,9.84 -4.86,14.72 -1.75,4.97 -3.57,9.91 -5.05,14.97 -1.52,5.24 -3.06,10.48 -4.3,15.8 -1.25,5.35 -2.36,10.72 -3.43,16.09 -2.23,11.15 -5.12,22.16 -7.81,33.2 -1.22,4.99 -2.68,9.93 -3.91,14.93 -1.44,5.8 -2.89,11.61 -4.3,17.42 -2.6,10.74 -4.43,21.62 -7.17,32.31 -2.71,10.58 -5.91,21.05 -8.36,31.69 -1.18,5.08 -2.24,10.2 -3.28,15.31 1.12,-1.13 2.25,-2.24 3.36,-3.38 3.85,-3.94 7.78,-7.79 11.71,-11.66 3.79,-3.72 7.3,-7.69 10.82,-11.65 3.63,-4.07 7.36,-7.99 11.33,-11.73 3.94,-3.71 7.55,-7.68 11.07,-11.8 3.53,-4.13 7.04,-8.26 10.67,-12.29 3.58,-3.98 6.81,-8.21 10.18,-12.34 1.73,-2.13 3.4,-4.45 5.38,-6.34 1.27,-1.21 2.7,-2.38 4.27,-3.2 2.24,-1.16 4.07,-1.46 6.58,-1.67 1.41,0.09 2.79,0.32 4.14,0.69 1.8,0.43 3.7,1.61 5.22,2.64 4.75,3.22 8.37,7.72 12.04,12.07 2.27,2.68 4.62,5.27 6.94,7.9 10.2,11.53 19.79,23.59 29.09,35.84 0.05,0.07 0.1,0.13 0.15,0.2 0,0 0,-0.01 -0.01,-0.01 0.12,0.15 0.24,0.3 0.35,0.45 v 0 c -0.11,-0.15 -0.22,-0.29 -0.34,-0.44 0.07,0.08 0.13,0.17 0.2,0.25 0.05,0.07 0.1,0.13 0.15,0.2 0.51,0.52 0.97,1.1 1.37,1.74 0.31,0.34 0.59,0.71 0.85,1.1 0.22,0.28 0.43,0.56 0.63,0.84 0.69,0.9 1.38,1.79 2.07,2.68 -0.06,-0.08 -0.12,-0.16 -0.18,-0.24 6.62,8.58 13.18,17.23 19.62,25.94 6.55,8.88 12.59,18.15 18.91,27.21 12.77,18.25 25.81,36.33 39.19,54.14 6.84,9.1 13.83,18.12 20.46,27.38 z m -43.41,-151.68 c -0.92,-10.76 -1.1,-21.52 -1.1,-32.31 0,-11.35 0.01,-22.68 -0.1,-34.03 -0.06,-6.01 -0.26,-12.03 -0.3,-18.04 -0.05,-5.89 -0.02,-11.77 -0.02,-17.65 0,-6.17 0,-12.33 -0.02,-18.5 -0.01,-4.45 0.05,-8.94 -0.17,-13.39 -1.46,-0.06 -2.92,-0.09 -4.39,-0.13 -4.5,-0.1 -8.97,-0.35 -13.46,-0.67 -4.33,-0.32 -8.68,-0.5 -13.02,-0.83 -4.62,-0.36 -9.18,-0.94 -13.78,-1.4 -4.84,-0.49 -9.69,-0.97 -14.54,-1.46 -4.44,-0.45 -8.91,-0.49 -13.38,-0.5 -4.93,0 -9.83,-0.05 -14.73,-0.24 3.39,6.45 6.72,12.93 10.25,19.3 2.68,4.86 5.1,9.85 7.61,14.8 2.61,5.12 5.24,10.23 7.85,15.34 4.77,9.37 9.91,18.54 14.98,27.75 5.62,10.23 11.28,20.44 17.13,30.55 11.12,19.21 22.33,38.37 32.84,57.91 0.12,0.22 0.23,0.43 0.34,0.65 -0.08,-3.25 -0.2,-6.49 -0.48,-9.71 -0.51,-5.82 -1.03,-11.63 -1.51,-17.44 z m -318.95,139.98 c 0.94,-5.22 1.75,-10.46 2.57,-15.7 1.28,-10.45 2.17,-20.94 3.43,-31.4 1.3,-10.85 3.05,-21.72 3.58,-32.65 0.54,-11.68 0.83,-23.35 0.97,-35.05 0.13,-11.01 0.29,-22.04 0.97,-33.02 0.25,-4.05 0.46,-8.11 0.84,-12.15 0.36,-3.97 0.83,-7.97 1,-11.94 0.33,-8.11 0.41,-16.2 0.5,-24.3 0.08,-8.24 0.22,-16.49 0.58,-24.71 0.35,-8.04 1.54,-16.05 2.71,-24.01 0.57,-4.93 1.25,-9.85 1.76,-14.79 0.58,-5.64 1.07,-11.27 1.53,-16.91 0.38,-4.8 0.96,-9.58 1.37,-14.38 0.32,-3.96 0.6,-7.84 1.82,-11.63 1.64,-5.11 4.19,-10.12 9.87,-11.68 3.69,-1.02 7.63,-1.12 11.44,-1.27 2.82,-0.12 5.66,-0.15 8.48,-0.13 11.09,0.02 22.21,0.25 33.27,1.08 10.23,0.75 20.53,1.04 30.79,1.23 4.92,0.08 9.85,-0.02 14.77,0.15 5.18,0.19 10.37,0.71 15.55,0.72 0.74,-2.61 1.43,-5.24 2.09,-7.9 1.1,-4.51 2.39,-8.98 3.44,-13.52 0.57,-2.52 0.84,-5.11 1.43,-7.62 1.28,-5.54 7.51,-8.73 12.81,-7.28 2.93,0.81 5.08,2.77 6.33,5.22 0.09,-0.05 0.14,-0.15 0.23,-0.2 2.41,-1.41 5.34,-1.79 8.02,-1.05 0.83,0.35 1.67,0.7 2.49,1.05 1.57,0.93 2.82,2.17 3.75,3.73 0.65,0.86 1.29,1.72 1.93,2.59 2.14,2.55 4.71,4.75 6.84,7.3 3.66,4.38 7.04,8.92 10.13,13.7 3.01,4.66 6.2,9.18 9.24,13.81 0.39,0.59 0.71,1.23 1.09,1.84 5.39,0.61 10.73,0.98 16.16,1.09 5.42,0.11 10.87,0.01 16.3,0.11 5.6,0.1 11.17,0.77 16.74,1.32 5.31,0.53 10.6,1.14 15.9,1.71 5.44,0.57 10.93,0.72 16.39,1.09 5.13,0.34 10.23,0.62 15.37,0.72 2.26,0.06 4.51,0.17 6.77,0.31 0.97,0.07 1.95,0.15 2.93,0.26 1.33,0.15 2.68,0.27 3.98,0.66 2.84,0.84 5.17,2.76 6.79,5.21 2.9,4.37 2.88,9.96 3.12,15.03 0.13,2.73 0.12,5.48 0.15,8.21 0.14,10.89 0.05,21.78 0.05,32.66 0,10.7 0.32,21.37 0.37,32.06 0.06,11.31 0.05,22.59 0.05,33.89 0,10.86 0.66,21.67 1.59,32.5 0.45,5.22 0.96,10.44 1.27,15.67 0.28,4.92 0.34,9.85 0.38,14.77 0.03,5.2 0.05,10.39 0.05,15.58 0.01,4.75 0.02,9.39 -0.73,14.09 3.67,7.22 7.34,14.45 11.02,21.67 4.79,9.39 9.47,18.82 14.41,28.14 5.5,10.33 11.08,20.62 16.81,30.83 10.88,19.4 22.24,38.54 33.48,57.73 5.62,9.6 11.13,19.25 16.8,28.83 5.71,9.64 11.26,19.37 16.72,29.17 2.64,4.72 5.24,9.47 7.83,14.22 1.18,2.15 2.39,4.31 3.39,6.55 1.98,4.45 4.47,8.93 4.58,13.89 0.08,3.61 -2.04,7.21 -5.15,9 -0.18,0.09 -0.34,0.18 -0.5,0.28 -1.59,0.9 -3.61,1.45 -5.6,1.45 -1.78,0 -3.53,-0.44 -4.93,-1.45 -0.97,-0.71 -2.03,-1.34 -2.77,-2.29 -0.88,-1.13 -1.75,-2.26 -2.58,-3.42 -0.69,-0.94 -1.36,-1.91 -2.06,-2.85 -1.51,-2.06 -3.04,-4.12 -4.57,-6.15 -3.52,-4.66 -7,-9.35 -10.48,-14.04 -3.15,-4.25 -6.16,-8.61 -9.27,-12.87 -3.49,-4.79 -7.05,-9.54 -10.51,-14.35 -6.63,-9.18 -13.06,-18.5 -19.8,-27.6 -3.29,-4.44 -6.59,-8.86 -9.76,-13.4 -3.23,-4.64 -6.39,-9.3 -9.71,-13.87 -6.48,-8.9 -12.98,-17.77 -19.44,-26.67 -5.9,-8.12 -11.9,-16.15 -17.89,-24.19 0,4.28 0,8.56 0,12.84 0,4.65 0.27,9.4 -0.13,14.03 -0.28,3.29 -1.1,6.28 -3.45,8.73 -1.91,2.01 -4.06,2.92 -6.6,3.87 -1.56,0.58 -3.92,0.72 -5.47,0.9 -0.74,0.09 -1.47,0.16 -2.23,0.23 -1.57,0.13 -3.14,0.24 -4.71,0.36 -10.98,0.79 -22.04,1.1 -33.05,1.22 -11.01,0.13 -22.01,0.51 -33,0.7 -13.22,0.22 -26.45,0.31 -39.67,0.31 -9.15,0 -18.28,-0.04 -27.41,-0.1 -11.18,-0.09 -22.31,-0.47 -33.46,-1.27 -10.92,-0.78 -21.8,-1.88 -32.71,-2.92 -10.87,-1.04 -21.75,-2.37 -32.64,-3.15 -10.98,-0.79 -22,-0.98 -32.99,-1.2 -5.43,-0.1 -10.84,-0.26 -16.27,-0.58 -2.53,-0.15 -5.05,-0.45 -7.57,-0.78 -2,-0.25 -4.01,-0.53 -5.98,-0.93 -2.73,-0.52 -5.15,-1.5 -7.7,-2.59 -2.62,-1.13 -4.47,-3.51 -6.06,-5.75 -0.85,-1.19 -1.35,-3.21 -1.65,-4.69 -0.37,-1.81 -0.5,-3.71 -0.66,-5.56 -0.3,-3.66 0.28,-7.57 0.88,-11.17 0.4,-2.41 0.83,-4.79 1.26,-7.18"
         style="fill:#121213;fill-opacity:1;fill-rule:nonzero;stroke:none"
         id="path50" />
      <path
         style="fill:#ffffff;fill-opacity:1;stroke-width:0.146051"
         d="m 570.56376,686.46945 c -1.90939,2.22372 -3.54982,4.71066 -5.2975,7.07705 -4.13393,5.84469 -8.24368,11.75661 -13.17567,16.96374 -0.70219,0.95999 -2.31339,1.26353 -3.11956,0.27442 -2.16728,-2.44833 -4.28132,-4.94844 -6.58303,-7.27555 -1.0916,-1.07709 -2.03806,-2.35671 -3.26257,-3.27464 -0.29045,0.38225 0.18673,1.05577 0.18542,1.52755 1.37835,5.50044 2.63964,11.0296 4.01227,16.53246 0.65784,3.35453 1.73502,6.59908 2.73527,9.85987 0.20354,0.49943 0.25313,2.21684 0.94151,1.0693 2.97851,-3.20811 4.74885,-7.28809 6.8323,-11.08481 3.25408,-6.47867 7.04821,-12.65866 10.49215,-19.03719 2.1481,-4.1583 4.35409,-8.29525 6.35494,-12.5238 -0.18752,0.38825 -0.0561,-0.13191 -0.11553,-0.1084 z"
         id="path27"
         transform="matrix(7.5000002,0,0,-7.5000002,0,7782.6999)" />
      <path
         style="fill:#01fff4;fill-opacity:1;stroke-width:0.146051"
         d="m 543.08022,682.70237 c -5.61627,0.64254 -11.25187,1.08633 -16.90226,1.23487 -0.45478,0.42896 -0.0204,1.22463 -0.0489,1.7656 1.14246,6.57725 1.43348,13.25229 1.60169,19.91789 0.37301,5.08785 0.22363,10.21763 0.97872,15.27516 0.20224,1.55312 0.2015,3.13323 0.49704,4.67272 2.20066,0.12839 4.51895,-0.0994 6.76471,-0.1093 2.04154,-0.12678 4.12742,0.01 6.14425,-0.31202 0.19114,-0.43478 -0.3168,-0.98657 -0.30408,-1.46137 -1.60056,-6.81843 -3.26818,-13.63061 -4.92665,-20.43829 -0.45109,-2.22183 -1.11318,-4.43734 -1.24571,-6.69695 0.36927,-0.80886 1.25254,-1.97114 2.2578,-1.45709 3.7893,3.63433 7.41666,7.45452 10.90242,11.37811 0.59227,0.57522 1.03634,1.46938 1.719,1.85006 4.42734,-4.9556 8.3517,-10.32587 12.12765,-15.78606 0.74797,-1.22422 1.85137,-2.26475 2.3816,-3.6062 -0.21841,-1.95044 -0.10702,-3.92752 -0.14833,-5.89082 -1.67326,-0.28813 -3.52516,-0.19233 -5.27001,-0.26799 -5.50921,-0.0848 -11.01933,-0.0591 -16.52895,-0.0683 z"
         id="path29"
         transform="matrix(7.5000002,0,0,-7.5000002,0,7782.6999)" />
      <path
         style="fill:#01fff4;fill-opacity:1;stroke-width:0.146051"
         d="m 566.02876,701.72579 c -3.96461,6.97734 -7.98489,13.92679 -11.56629,21.11245 -0.81419,0.9581 0.52544,0.72165 1.14647,0.71931 3.35808,-0.16294 6.69664,-0.58525 10.05298,-0.75935 0.21919,-1.69006 0.0449,-3.53617 0.13355,-5.2874 0.0916,-5.26758 0.17707,-10.56469 0.38333,-15.81354 l -0.0899,-0.0188 z"
         id="path31"
         transform="matrix(7.5000002,0,0,-7.5000002,0,7782.6999)" />
    </g>
  </g>
</svg>
