<?xml version="1.0" encoding="UTF-8" standalone="no"?>
<!-- Created with Inkscape (http://www.inkscape.org/) -->

<svg
   version="1.1"
   id="svg2"
   width="36"
   height="30"
   viewBox="0 0 121.13025 100.92676"
   xmlns="http://www.w3.org/2000/svg"
   xmlns:svg="http://www.w3.org/2000/svg">
   <defs id="defs6" />
   <g id="g8" transform="matrix(1.3333333,0,0,-1.3333333,-757.34837,758.99332)">
      <g id="g10" transform="scale(0.1)">
         <path
            d="m 6450.61,5032.61 c -5.61,-1.59 -11.25,-3.03 -16.92,-4.4 -6.31,-1.53 -12.64,-2.69 -19.06,-3.67 -1.07,-0.14 -2.14,-0.28 -3.21,-0.43 0.14,0.02 0.28,0.04 0.42,0.06 -21.37,-2.87 -42.89,-4.54 -64.45,-4.88 -21.81,-0.34 -43.59,-1.91 -65.4,-2.52 -10.1,-0.28 -20.23,-0.23 -30.34,-0.23 -5.17,0 -10.36,0 -15.54,0 -4.75,0 -9.48,-0.08 -14.21,0.21 -2.34,0.15 -4.42,-0.82 -6.17,-2.22 -0.01,4.1 -0.02,8.2 -0.04,12.28 -0.04,10.98 -0.34,21.93 -0.81,32.89 -0.23,5.31 -0.27,10.62 -0.66,15.92 -0.43,5.78 -1.04,11.52 -1.64,17.28 -1.13,10.73 -1.55,21.5 -2.81,32.22 -0.69,5.9 -1.31,11.78 -1.85,17.7 -0.55,5.76 -0.82,11.58 -1.31,17.37 -0.41,4.98 -0.96,9.97 -1.3,14.98 -0.43,6.14 -0.78,12.29 -1.1,18.44 -0.58,10.89 -1.32,21.76 -2.22,32.64 -0.93,11.36 -1.86,22.71 -2.61,34.09 -0.72,11.18 -1.51,22.36 -2.45,33.53 -1,11.92 -2.71,23.74 -4.78,35.5 -1.83,10.45 -4.3,20.91 -7.65,30.99 -0.13,0.39 -0.28,0.78 -0.41,1.17 2.31,0.62 4.63,1.21 6.91,1.91 5.57,1.71 10.95,3.69 16.22,6.22 6.43,3.08 12.32,7.39 18.26,11.31 8.66,5.71 18.18,9.97 27.09,15.28 5.21,3.09 10.28,6.31 15.23,9.8 4.82,3.4 9.62,7.27 13.83,11.42 8.34,8.22 16.44,16.69 23.14,26.33 6.43,9.23 12.46,18.74 17.39,28.88 5.21,10.7 9.86,21.65 14.42,32.64 4.51,9.9 9.16,19.75 13.58,29.69 4.95,11.11 8.87,22.6 13.04,34.02 3.7,10.11 7.87,20.02 11.42,30.18 1.87,5.38 3.79,10.78 5.11,16.3 1.27,5.26 2.52,10.5 3.78,15.74 1.74,7.27 3.39,14.52 4.81,21.85 1.15,5.91 1.92,12.06 3.94,17.76 0.03,0.05 0.06,0.11 0.08,0.16 0.34,0.08 0.68,0.15 1.02,0.21 3.25,0.33 6.48,0.47 9.74,0.21 1.05,-0.21 2.06,-0.47 3.08,-0.8 1.94,-0.95 3.77,-2.05 5.56,-3.29 3.72,-3.1 7.12,-6.52 10.21,-10.25 4.18,-5.84 7.81,-11.94 10.93,-18.4 1.16,-3.01 2.23,-6.05 3.18,-9.13 1.02,-3.31 1.69,-6.65 2.23,-10.06 1.11,-9.27 1.87,-18.56 2.01,-27.9 0.08,-5.25 0.11,-10.51 0.04,-15.76 -0.06,-4.04 -0.58,-8.08 -1.12,-12.09 -0.95,-5.26 -1.92,-10.51 -3.27,-15.69 -1.51,-5.75 -3.01,-11.49 -4.47,-17.26 -2.72,-10.67 -6.06,-21.17 -8.78,-31.86 -2.65,-10.41 -5.78,-20.71 -8.49,-31.12 -1.38,-5.32 -2.37,-10.74 -3.67,-16.08 -1.27,-5.23 -2.44,-10.48 -3.49,-15.76 -1.19,-6.01 -2.06,-12.05 -2.86,-18.11 -0.44,-3.26 0.3,-6.96 1.99,-9.79 2.02,-3.41 4.84,-5.73 8.17,-7.79 3.23,-2 6.98,-3.36 10.52,-4.71 1.56,-0.59 3.19,-1.03 4.78,-1.56 5.14,-1.66 10.3,-3.25 15.44,-4.94 5.05,-1.66 10.13,-3.23 15.28,-4.51 5.16,-1.29 10.37,-2.41 15.53,-3.71 5.45,-1.37 10.87,-2.89 16.29,-4.4 5.11,-1.42 10.3,-2.58 15.41,-4.03 5.48,-1.53 10.85,-3.31 16.17,-5.3 1.62,-0.61 3.23,-1.27 4.84,-1.91 5.29,-2.26 10.61,-4.64 15.33,-7.92 4.3,-3.72 8.16,-7.84 11.77,-12.23 2.16,-2.96 4.01,-6.02 5.62,-9.33 0.89,-2.43 1.53,-4.89 2.02,-7.46 0.6,-5.06 1.01,-10.2 0.59,-15.29 -0.57,-2.98 -1.41,-5.84 -2.49,-8.68 -3.02,-6.5 -6.89,-12.65 -11.14,-18.41 -1.24,-1.48 -2.49,-2.93 -3.79,-4.36 -2.18,-2.36 -4.75,-4.69 -6.47,-7.4 -1.47,-2.3 -2.55,-5.06 -2.27,-7.84 0,-1.88 0.48,-3.63 1.42,-5.25 1.16,-1.99 2.84,-3.33 4.65,-4.68 1.85,-1.36 3.76,-2.65 5.63,-3.98 2.02,-1.69 3.99,-3.4 5.89,-5.24 1.63,-1.58 3.1,-3.36 4.53,-5.15 2.08,-2.89 3.93,-5.84 5.48,-9.04 0.94,-2.66 1.57,-5.36 2.02,-8.14 0.26,-2.6 0.36,-5.15 0.18,-7.75 -0.26,-1.19 -0.58,-2.33 -0.97,-3.48 -2.32,-4.7 -5.52,-8.88 -8.63,-13.08 -1.45,-1.83 -2.91,-3.64 -4.47,-5.39 -2.31,-2.59 -4.98,-4.79 -7.64,-6.99 -2.5,-1.86 -5.08,-3.61 -7.9,-4.96 -4.04,-1.57 -8.14,-2.96 -12.21,-4.43 -1.77,-0.64 -3.49,-1.37 -5.21,-2.11 -1.75,-0.75 -2.92,-1.54 -4.5,-2.79 -1.6,-1.25 -2.51,-3.04 -3.12,-4.94 -0.72,-2.24 -0.55,-3.94 -0.22,-6.22 0.36,-2.58 1.61,-4.95 2.91,-7.18 2.37,-4.1 5.2,-7.91 7.96,-11.76 1.32,-1.84 2.66,-3.73 3.86,-5.67 0.94,-1.54 1.73,-3.15 2.46,-4.78 0.74,-2.01 1.23,-4.05 1.61,-6.17 0.49,-4.24 0.85,-8.56 0.57,-12.81 -0.03,-0.11 -0.06,-0.23 -0.1,-0.35 -0.8,-1.58 -1.7,-3.08 -2.71,-4.55 -1.65,-1.94 -3.44,-3.67 -5.38,-5.34 -2.76,-2.01 -5.59,-3.91 -8.34,-5.92 -2.09,-1.54 -3.62,-2.73 -5.03,-4.93 -1.6,-2.5 -2.38,-5.33 -2.53,-8.28 -0.16,-2.92 0.49,-5.88 0.98,-8.78 0.28,-2.62 0.45,-5.29 0.28,-7.91 -0.27,-1.23 -0.62,-2.45 -1.02,-3.65 -1.09,-2.34 -2.35,-4.62 -3.79,-6.75 -2.19,-2.62 -4.63,-5.07 -7.24,-7.24 -3.73,-2.63 -7.66,-4.76 -11.79,-6.7 -5.09,-2.01 -10.28,-3.59 -15.52,-5.23 -6.43,-2.01 -12.8,-4.23 -19.28,-6.08 z M 6194,4982.66 c -0.36,-2.3 -0.74,-4.6 -1.17,-6.88 -0.32,-1.66 -0.55,-3.37 -0.96,-5.02 -0.65,-0.33 -1.31,-0.63 -1.97,-0.93 -12.18,-4.77 -25.09,-7.75 -37.97,-9.87 -7.6,-0.97 -15.19,-1.87 -22.85,-2.27 -8.72,-0.46 -17.47,-0.48 -26.21,-0.5 -16.86,-0.06 -33.78,-0.52 -50.56,1.38 -1.67,0.28 -3.33,0.61 -4.98,1.03 -1.59,0.39 -3.2,0.42 -4.72,0.12 0.13,1.26 0.24,2.53 0.32,3.8 0.19,3.32 0.33,6.63 0.44,9.96 0.35,10.89 0.25,21.81 0.28,32.71 0.01,10.63 -0.14,21.26 0.02,31.88 0.09,6.01 0.2,11.97 0.56,17.96 0.36,6.05 0.83,12.08 1.33,18.11 1.88,22.51 3.2,45.09 3.83,67.66 0.3,11.06 0.23,22.13 0.25,33.18 0.04,10.93 0.03,21.86 0.03,32.79 0,10.83 0.13,21.74 -0.66,32.55 -0.43,5.87 -0.83,11.75 -1.54,17.6 -0.73,5.97 -1.7,11.92 -2.77,17.84 -2.48,13.61 -5.01,27.24 -7.14,40.92 -0.57,5 -1.08,10.02 -1.74,15.01 -0.49,3.83 -1.09,7.7 -1.47,11.57 0.09,0.04 0.17,0.08 0.26,0.12 5.94,2.17 12.21,3.41 18.37,4.79 4.74,1.08 9.46,2.26 14.15,3.58 4.3,1.21 8.57,2.58 12.89,3.69 5.27,1.35 10.54,2.67 15.81,3.99 8.84,2.19 17.7,4.33 26.56,6.44 8.81,2.09 17.58,4.4 26.53,5.8 2.32,0.27 4.69,0.54 7.02,0.45 0.16,-0.09 0.32,-0.19 0.48,-0.28 0.44,-0.41 0.86,-0.83 1.27,-1.27 1.19,-1.84 2.18,-3.74 3.11,-5.72 1.59,-4.07 3.11,-8.15 4.35,-12.35 1.57,-5.39 3.01,-10.78 4.39,-16.21 1.3,-5.07 2.14,-10.29 3.05,-15.44 0.81,-4.57 1.47,-9.17 2.15,-13.77 2.38,-22.46 3.6,-44.99 5.25,-67.53 0.82,-11.09 1.94,-22.17 2.71,-33.26 0.78,-11.03 1.15,-22.1 1.92,-33.13 0.36,-5.29 0.95,-10.57 1.41,-15.86 0.44,-5.19 0.67,-10.43 1.16,-15.62 1.09,-11.64 2.56,-23.23 3.39,-34.9 0.78,-10.85 2.08,-21.64 2.9,-32.48 0.4,-5.33 0.39,-10.7 0.63,-16.04 0.24,-5.76 0.45,-11.53 0.6,-17.31 0.26,-10.26 0.19,-20.55 0.2,-30.83 0.01,-9.16 0.12,-18.35 -0.91,-27.46 z m -2.27,-12.41 c -0.05,-0.04 -0.1,-0.08 -0.16,-0.11 0.06,0.04 0.11,0.08 0.17,0.13 z m -162.9,224.15 c 0,-11.65 -0.01,-23.29 -0.08,-34.92 -0.05,-10.62 -0.1,-21.26 -0.64,-31.85 -0.6,-12.18 -1.33,-24.34 -2.12,-36.51 -0.68,-10.4 -1.75,-20.76 -2.36,-31.14 -0.38,-6.3 -0.64,-12.53 -0.75,-18.83 -0.08,-5.45 -0.06,-10.92 -0.06,-16.37 0,-11 -0.01,-21.98 -0.05,-32.97 -0.04,-10.67 0.09,-21.45 -0.98,-32.07 -0.15,-0.89 -0.33,-1.78 -0.54,-2.65 -0.33,-0.08 -0.66,-0.16 -0.99,-0.23 -4.59,-0.45 -9.19,-0.46 -13.8,-0.46 -5.17,0 -10.33,0 -15.49,0 -11.1,0 -22.19,0 -33.3,0 -23.01,0 -46.05,-0.01 -69.08,0.01 -11.38,0.01 -22.75,0.05 -34.13,0.14 -10.68,0.08 -21.36,0.45 -32.04,0.6 -22.79,0.32 -45.67,0.48 -68.29,3.42 -0.6,0.08 -1.2,0.16 -1.8,0.24 -5.83,0.96 -11.68,1.87 -17.49,2.95 -3.34,0.61 -6.67,1.25 -10.01,1.96 -2.81,0.6 -5.72,1.1 -8.52,1.87 -1.77,5.77 -2.57,11.9 -3.51,17.82 -0.55,4.17 -1.11,8.34 -1.67,12.51 -1.34,10.66 -2.69,21.32 -3.47,32.05 -0.82,11.57 -1.58,23.18 -2.35,34.77 -0.69,10.73 -0.72,21.52 -0.96,32.26 -0.28,11.86 -0.44,23.72 -0.59,35.59 -0.15,10.75 -0.6,21.49 -1.33,32.22 -0.41,5.94 -0.84,11.87 -1.07,17.81 -0.24,6.18 -0.32,12.34 -0.38,18.52 -0.19,21.65 -0.02,43.33 0.01,64.99 0.01,6.77 0.03,13.54 0.09,20.32 0.06,6.08 0.03,12.23 0.49,18.31 1.28,0.32 2.56,0.63 3.84,0.96 3.14,0.8 6.28,1.6 9.43,2.39 7.27,1.82 14.59,3.52 21.89,5.3 13.14,3.21 26.39,5.6 39.73,7.81 4.74,0.6 9.49,1.19 14.25,1.75 6.09,0.72 12.16,1.27 18.27,1.75 5.56,0.45 11.13,0.63 16.68,0.9 5,0.24 9.99,0.59 14.99,0.77 22.62,0.8 45.25,1.47 67.84,3.05 8.97,0.63 17.89,1.67 26.82,2.75 8.74,1.06 17.48,1.97 26.25,2.78 17.58,1.62 35.32,1 52.94,0.48 1.31,-10.9 2.41,-21.84 4.33,-32.65 1.93,-10.86 3.81,-21.73 5.78,-32.59 0.7,-3.87 1.32,-7.77 1.94,-11.66 1.21,-10.53 1.84,-21.08 2.15,-31.69 0.3,-10.81 0.13,-21.65 0.13,-32.46 z m -6.71,-237.08 c -0.01,-0.01 -0.02,-0.01 -0.02,-0.01 0.05,0.07 0.1,0.14 0.15,0.2 -0.04,-0.06 -0.09,-0.13 -0.13,-0.19 z m -1.14,-1.2 c -0.17,-0.14 -0.34,-0.26 -0.53,-0.38 0.18,0.14 0.36,0.28 0.55,0.42 -0.01,-0.01 -0.01,-0.03 -0.02,-0.04 z m -304.92,11.53 c -0.03,0.09 -0.06,0.17 -0.1,0.26 0.04,-0.09 0.08,-0.17 0.11,-0.26 z m 797.82,69.99 c 6.14,5.83 11.43,12.71 14.23,20.82 1.5,4.31 2.17,8.8 1.99,13.37 -0.14,3.36 -0.56,6.66 -1.05,9.99 -0.02,0.15 -0.04,0.3 -0.07,0.44 4.43,3.12 8.88,6.17 12.81,9.95 3,2.88 5.5,6.44 7.57,10.02 1.14,1.96 2.01,4.15 2.73,6.29 0.72,2.14 0.82,4.65 0.93,6.9 0.19,3.47 -0.25,7.02 -0.51,10.48 -0.2,2.51 -0.61,5.07 -1.03,7.55 -0.58,3.47 -1.97,6.61 -3.34,9.83 -1.3,3.03 -2.95,5.76 -4.82,8.47 -2.07,3 -4.28,5.93 -6.34,8.94 1.48,0.53 2.97,1.06 4.45,1.61 5.36,1.97 10.42,4.34 14.95,7.83 2.4,1.84 4.75,3.71 7.07,5.64 3.55,2.93 6.47,6.46 9.3,10.06 3.77,4.77 7.56,9.69 10.65,14.95 1.41,2.39 2.45,4.97 3.43,7.57 1.17,3.14 1.47,6.62 1.71,9.95 0.17,2.5 -0.13,5.06 -0.41,7.53 -0.39,3.5 -0.96,6.94 -1.85,10.34 -1.61,6.14 -5.01,11.74 -8.73,16.81 -2.88,3.95 -6.08,7.73 -9.69,11.03 -1.68,1.53 -3.43,2.95 -5.23,4.32 2.13,2.36 4.04,4.9 5.95,7.42 3.31,4.37 6.09,9.16 8.82,13.92 1.75,3.03 3.05,6.37 4.35,9.61 1.23,3.05 1.98,6.23 2.5,9.47 0.77,4.88 0.79,9.7 0.41,14.62 -0.31,3.99 -0.77,7.96 -1.48,11.91 -0.74,4.08 -2.42,7.9 -4.15,11.63 -0.53,1.15 -1.14,2.32 -1.79,3.4 -1.37,2.28 -2.83,4.4 -4.44,6.51 -2.04,2.63 -4.07,5.37 -6.38,7.76 -4.65,4.84 -9.56,9.61 -15.43,12.92 -5.21,2.95 -10.8,5.41 -16.36,7.63 -5.17,2.05 -10.37,3.98 -15.67,5.69 -7.05,2.28 -14.32,3.82 -21.46,5.79 -7.55,2.11 -15.1,4.07 -22.72,5.9 -4.01,0.96 -8.01,1.94 -12.01,2.94 -3.81,0.95 -7.58,2.28 -11.32,3.46 -3.64,1.14 -7.24,2.39 -10.88,3.52 -3.93,1.24 -7.9,2.39 -11.75,3.87 -1.28,0.59 -2.53,1.21 -3.74,1.91 0.69,4.69 1.49,9.33 2.41,13.99 1.01,5.16 2.34,10.25 3.47,15.39 1.19,5.4 2.33,10.8 3.73,16.16 1.39,5.38 2.96,10.72 4.37,16.1 1.41,5.42 3.02,10.79 4.4,16.23 1.32,5.14 2.75,10.23 4.26,15.31 3.25,10.98 5.96,22.12 8.84,33.18 1.48,5.61 2.5,11.45 3.24,17.2 0.71,5.52 1.32,11 1.4,16.56 0.15,10.97 -0.16,21.92 -1.17,32.84 -0.52,5.8 -1.11,11.67 -2.22,17.39 -1.05,5.31 -2.78,10.51 -4.78,15.54 -2.17,5.48 -4.84,10.65 -7.85,15.71 -2.86,4.79 -6.15,9.49 -9.86,13.66 -5.65,6.37 -12.26,12.4 -20.12,15.85 -2.62,1.14 -5.04,2 -7.86,2.43 -2.66,0.43 -5.28,0.7 -7.95,0.7 -0.43,0 -0.85,-0.01 -1.28,-0.02 -3.64,-0.12 -7.29,-0.59 -10.88,-1.2 -3.63,-0.61 -6.8,-2.91 -9.52,-5.25 -2.77,-2.39 -4.42,-6.26 -5.56,-9.64 -1.34,-3.97 -2.16,-8.15 -2.92,-12.27 -1.78,-9.81 -3.9,-19.5 -6.28,-29.19 -1.27,-5.24 -2.37,-10.54 -3.83,-15.73 -1.54,-5.43 -3.29,-10.78 -5.21,-16.09 -3.35,-9.33 -6.96,-18.58 -10.56,-27.83 -1.72,-4.41 -3.16,-8.91 -4.8,-13.35 -1.6,-4.36 -3.23,-8.7 -4.9,-13.02 -6.26,-14.01 -12.92,-27.84 -18.82,-42.01 -1.95,-4.61 -3.94,-9.19 -5.98,-13.76 -2.5,-5.56 -5.23,-11 -8.05,-16.42 -4.89,-9.41 -10.96,-18.18 -17.24,-26.7 -3.98,-4.64 -8.12,-9.11 -12.36,-13.54 -4.15,-4.35 -8.71,-8.23 -13.38,-12.01 -4.76,-3.33 -9.58,-6.5 -14.58,-9.47 -4.72,-2.82 -9.59,-5.4 -14.42,-7.99 -4.72,-2.54 -9.33,-5.16 -13.86,-8 -2.3,-1.44 -4.53,-3 -6.81,-4.47 -4.53,-2.95 -9.05,-5.72 -13.93,-8 -5.45,-2.12 -11.08,-3.63 -16.72,-5.16 -0.56,-0.16 -0.99,-0.53 -1.5,-0.77 -0.81,1.28 -1.69,2.52 -2.68,3.71 -2.15,2.57 -4.74,4.67 -7.71,6.27 -3.31,1.78 -6.96,2.38 -10.68,2.4 -0.08,0.01 -0.16,0.01 -0.24,0.01 -2.4,0 -4.83,-0.34 -7.2,-0.62 -11.21,-1.31 -22.18,-4.3 -33.12,-6.98 -10.88,-2.64 -21.78,-5.18 -32.62,-7.96 -10.86,-2.79 -21.56,-6.26 -32.52,-8.72 -2.74,-0.62 -5.48,-1.23 -8.21,-1.87 -1.43,-0.34 -2.87,-0.68 -4.31,-1.01 -4.32,-1.02 -8.35,-2.56 -12.41,-4.3 -2.73,-1.17 -5.62,-2.94 -7.68,-5.27 -11.85,0.35 -23.76,0.91 -35.6,0.53 -11.2,-0.36 -22.35,-1.04 -33.47,-2.31 -6.21,-0.71 -12.42,-1.44 -18.63,-2.2 -4.76,-0.58 -9.55,-1.2 -14.33,-1.53 -11.85,-0.84 -23.69,-1.53 -35.54,-2.12 -10.68,-0.53 -21.39,-0.77 -32.09,-1.15 -11.66,-0.41 -23.3,-1.08 -34.94,-1.64 -11.19,-0.55 -22.34,-2.07 -33.43,-3.48 -6.56,-0.83 -13.07,-1.9 -19.59,-2.97 -4.94,-0.8 -9.93,-1.71 -14.8,-2.84 -11.34,-2.6 -22.68,-5.28 -33.97,-8.08 -5.18,-1.29 -10.36,-2.59 -15.51,-3.96 -1.34,-0.36 -2.68,-0.72 -4,-1.2 -0.82,-0.35 -1.66,-0.7 -2.48,-1.05 -0.98,-0.75 -1.96,-1.51 -2.93,-2.26 -0.54,-0.7 -1.08,-1.41 -1.63,-2.11 -0.59,-1.32 -1.16,-2.65 -1.71,-3.98 -1.19,-5.05 -1.29,-10.26 -1.49,-15.42 -0.44,-11.29 -0.3,-22.62 -0.32,-33.92 -0.03,-10.51 -0.01,-21.02 -0.01,-31.54 0,-11.01 -0.09,-22.02 0.01,-33.05 0.05,-6.44 0.19,-12.84 0.44,-19.28 0.21,-5.42 0.65,-10.84 1.02,-16.24 1.57,-22.85 1.4,-45.75 1.92,-68.62 0.2,-8.86 0.41,-17.7 0.77,-26.55 0.38,-9.44 1.11,-18.86 1.75,-28.29 0.57,-8.58 1.27,-17.12 2.12,-25.67 0.91,-9.27 2.25,-18.5 3.51,-27.73 0.77,-5.81 1.57,-11.6 2.69,-17.37 0.47,-2.45 0.98,-4.86 1.61,-7.27 0.65,-2.48 1.63,-4.79 2.76,-7.09 0.29,-0.4 0.59,-0.79 0.89,-1.2 0.71,-1.18 1.61,-2.21 2.69,-3.06 2.02,-1.8 4.23,-2.68 6.75,-3.6 1.98,-0.71 4.18,-1.01 6.23,-1.48 1.07,-0.23 2.13,-0.46 3.2,-0.69 3.16,-0.67 6.31,-1.31 9.49,-1.9 5.66,-1.05 11.33,-1.95 17,-2.89 22.78,-3.76 46.01,-4.27 69.03,-4.57 11.46,-0.16 22.91,-0.47 34.36,-0.67 10.6,-0.17 21.22,-0.17 31.83,-0.18 22.5,-0.04 45.01,-0.03 67.5,-0.03 11.72,0 23.44,0 35.15,0 5.39,0 10.79,0 16.18,0 5.18,0 10.4,-0.18 15.59,0.08 2.63,0.13 5.22,0.3 7.84,0.64 2.49,0.33 4.75,0.69 7.11,1.56 2.42,0.9 3.58,1.58 5.59,3.17 0.6,0.47 1.15,0.99 1.65,1.56 1.29,-1.46 2.98,-2.57 4.97,-3.06 6.08,-1.54 12.39,-2.06 18.63,-2.55 5.62,-0.44 11.25,-0.59 16.87,-0.63 10.85,-0.08 21.7,-0.01 32.53,0.06 11.14,0.06 22.21,0.43 33.27,1.66 5.99,0.67 11.98,1.43 17.93,2.4 5.44,0.89 10.8,2.16 16.13,3.53 4.83,1.26 9.6,2.75 14.33,4.33 3.19,1.04 6.24,2.37 9.32,3.69 2.43,1.06 4.9,2.46 6.67,4.48 2.03,2.35 3.3,4.88 4.25,7.83 0.55,1.74 0.77,3.62 1.09,5.39 0.43,2.37 0.84,4.73 1.21,7.1 0.93,5.95 1.39,11.92 1.63,17.93 0.05,1.16 0,2.33 0.02,3.5 1.82,-1.38 3.87,-2.16 6.22,-2.31 4.84,-0.3 9.68,-0.21 14.53,-0.21 5.25,0 10.49,0 15.73,0 11.12,0.01 22.24,0.01 33.36,0.33 10.48,0.29 20.97,0.95 31.46,1.37 11.3,0.44 22.56,0.93 33.87,1.1 11.09,0.18 22.21,0.91 33.26,1.76 11.14,0.86 22.22,2.33 33.3,3.82 5.95,0.81 11.86,1.8 17.75,3.06 5.06,1.09 10.07,2.46 15.09,3.72 10.34,2.63 20.39,6.27 30.58,9.41 11.91,3.67 23.89,8.63 33.05,17.36"
            style="fill: #121213; fill-opacity: 1; fill-rule: nonzero; stroke: none"
            id="path66" />
         <path
            style="fill: #ffffff; fill-opacity: 1; stroke-width: 0.176777"
            d="m 799.30653,326.22965 c -5.67827,0.0343 -11.29099,0.98968 -16.96535,1.11859 -6.01839,0.24427 -12.08985,0.469 -17.95026,1.99484 -1.3542,0.35512 -2.79558,0.58087 -4.0854,1.04946 -0.46106,5.5271 -0.1771,11.08895 -0.0815,16.62691 0.46473,8.32191 0.11559,16.70087 1.35801,24.9685 0.23081,1.05373 0.16818,2.25331 0.59832,3.23233 4.59599,1.49932 9.51906,1.39514 14.30154,1.53258 8.46197,0.0757 16.92898,0.23286 25.38932,0.0411 0.59543,0.0822 1.15766,-0.29009 1.06445,-0.94292 0.17745,-5.52531 -0.0329,-11.06348 0.51591,-16.57498 0.45224,-6.69863 0.50995,-13.42842 0.301,-20.13761 -0.35738,-4.26352 -1.22021,-8.46237 -1.87998,-12.68096 -0.50869,-0.46168 -1.45236,-0.10674 -2.09542,-0.2324 -0.15687,0.002 -0.31374,0.003 -0.47061,0.005 z"
            id="path15"
            transform="matrix(7.5000002,0,0,-7.5000002,0,7782.6999)" />
         <path
            style="fill: #01fff4; fill-opacity: 1; stroke-width: 0.176777"
            d="m 819.91863,321.50744 c -5.06924,1.04245 -10.10668,2.29094 -15.08472,3.70713 -0.4312,0.54866 0.0255,1.46475 -0.0146,2.12689 0.5856,4.68489 1.83757,9.29756 1.686,14.04887 0.0305,7.57244 -0.14693,15.14106 -0.51605,22.70156 -0.10017,4.0485 -0.27366,8.10014 -0.24699,12.14934 1.59943,0.60844 3.45783,0.29526 5.15828,0.40941 4.17382,-0.0935 8.45469,0.30452 12.49889,-0.97573 0.82705,-0.36699 2.32459,-0.24232 2.30769,-1.43242 0.54244,-3.49477 0.18895,-7.06558 0.14142,-10.58659 -0.30856,-7.50389 -1.23718,-14.9619 -1.64762,-22.4603 -0.61714,-5.97911 -0.481,-12.16195 -2.42465,-17.92108 -0.34625,-0.57393 -0.44425,-1.62725 -1.09578,-1.80801 -0.25397,0.0136 -0.50794,0.0273 -0.76191,0.0409 z"
            id="path17"
            transform="matrix(7.5000002,0,0,-7.5000002,0,7782.6999)" />
         <path
            style="fill: #ffffff; fill-opacity: 1; stroke-width: 0.353553"
            d="m 853.10983,281.46648 c -1.6928,0.39249 -0.9913,2.943 -1.69217,4.13897 -2.25499,8.96573 -5.77432,17.6423 -10.34441,25.67743 -3.25781,5.09131 -8.90634,7.83178 -14.00898,10.70897 -0.88263,0.48747 -2.80577,0.44537 -2.01152,2.01497 2.07777,11.43973 2.07703,23.1383 3.35254,34.68138 0.40494,3.34444 -0.0817,6.86468 0.78997,10.10251 9.61231,-0.47231 19.38497,0.23383 28.86386,-1.72116 3.13073,-1.02459 7.16531,-1.26063 9.21218,-4.17531 0.91179,-1.68255 -0.24957,-4.10526 1.76977,-5.22558 1.5357,-1.00165 2.45871,-3.02699 1.26236,-4.65872 -0.66071,-1.48664 -2.98303,-3.75236 -1.06825,-5.22251 2.57961,-1.54445 6.38768,-3.18225 6.26038,-6.77552 -0.0501,-2.53829 -3.41601,-3.49285 -3.8297,-5.78322 1.21375,-2.64256 4.508,-4.88766 3.22617,-8.16487 -0.90181,-3.53803 -4.58924,-4.89861 -7.75602,-5.6889 -4.16796,-1.37011 -8.72618,-1.9327 -12.52151,-4.203 -1.47333,-1.54941 -0.14873,-3.98754 -0.0374,-5.82048 1.11258,-5.94924 3.63803,-11.66359 3.95966,-17.73985 0.0401,-3.69798 -0.0332,-7.82613 -2.8526,-10.62041 -0.68753,-0.69836 -1.53309,-1.50148 -2.57431,-1.5247 z"
            id="path19"
            transform="matrix(7.5000002,0,0,-7.5000002,0,7782.6999)" />
      </g>
   </g>
</svg>
