<?xml version="1.0" encoding="UTF-8" standalone="no"?>
<!-- Created with Inkscape (http://www.inkscape.org/) -->

<svg
   version="1.1"
   id="svg2"
   width="62.468506"
   height="68.938461"
   viewBox="0 0 62.468504 68.938464"
   xmlns="http://www.w3.org/2000/svg"
   xmlns:svg="http://www.w3.org/2000/svg">
  <defs
     id="defs6" />
  <g
     id="g8"
     transform="matrix(1.3333333,0,0,-1.3333333,-723.89047,1023.8946)">
    <g
       id="g10"
       transform="scale(0.1)">
      <path
         d="m 5844.67,7478.5 c 0.34,0.44 0.68,0.88 1.02,1.32 -0.19,-0.24 -0.37,-0.48 -0.56,-0.72 -0.15,-0.2 -0.3,-0.4 -0.46,-0.6"
         style="fill:#121213;fill-opacity:1;fill-rule:nonzero;stroke:none"
         id="path42" />
      <path
         d="m 5845.96,7480.18 c -0.07,-0.11 -0.15,-0.21 -0.23,-0.31 -0.02,-0.01 -0.03,-0.03 -0.04,-0.05 0.09,0.12 0.18,0.24 0.27,0.36"
         style="fill:#121213;fill-opacity:1;fill-rule:nonzero;stroke:none"
         id="path44" />
      <path
         d="m 5844.34,7478.07 c 0.26,0.34 0.53,0.69 0.79,1.03 0.08,0.1 0.15,0.2 0.23,0.29 -0.35,-0.44 -0.69,-0.88 -1.02,-1.32"
         style="fill:#121213;fill-opacity:1;fill-rule:nonzero;stroke:none"
         id="path46" />
      <path
         d="m 5453.24,7528.65 c 10.2,1.14 20.46,1.03 30.72,1.33 5.86,0.18 11.73,0.32 17.59,0.55 5.21,0.2 10.42,0.78 15.6,1.29 11.13,1.09 22.24,2.16 33.36,3.25 10.66,1.05 21.37,2.08 32.07,2.59 22.53,1.03 45.12,0.72 67.67,0.66 11.11,-0.04 22.19,-0.2 33.29,-0.47 11.28,-0.26 22.58,-0.21 33.86,-0.64 8.13,-0.3 16.34,-0.42 24.47,-1.1 -0.01,-1 -0.03,-2 -0.03,-3 0,-3.78 0,-7.56 0,-11.34 0,-8.31 0,-16.62 0,-24.93 0,-2.25 0.9,-4.25 2.15,-5.97 -7.7,-10.42 -15.34,-20.88 -22.75,-31.5 -7.15,-10.23 -14.27,-20.48 -21.29,-30.8 -3.45,-5.05 -7.35,-9.87 -11.06,-14.73 -3.69,-4.84 -7.32,-9.71 -11.03,-14.55 0.14,0.17 0.28,0.35 0.41,0.53 -0.17,-0.23 -0.34,-0.45 -0.51,-0.68 -0.04,-0.05 -0.08,-0.1 -0.12,-0.16 -0.54,-0.54 -1.03,-1.15 -1.44,-1.82 -0.29,-0.33 -0.55,-0.68 -0.8,-1.03 -0.22,-0.29 -0.44,-0.58 -0.65,-0.87 -0.69,-0.9 -1.38,-1.79 -2.07,-2.68 0.4,0.52 0.81,1.04 1.22,1.56 -1.9,-2.44 -3.76,-4.91 -5.62,-7.37 -5.56,-7.04 -11.24,-13.98 -17.03,-20.83 -2.92,-3.46 -5.95,-6.81 -8.97,-10.15 -2.96,-3.28 -5.62,-6.85 -8.68,-10.02 -1.49,1.79 -2.96,3.59 -4.39,5.43 -3.41,4.34 -7,8.48 -10.66,12.6 -3.66,4.1 -7.18,8.32 -10.73,12.49 -3.42,3.99 -7.33,7.43 -11.02,11.14 -7.57,7.61 -14.36,15.93 -22.07,23.4 -3.86,3.75 -7.64,7.58 -11.38,11.44 -3.66,3.77 -7.43,7.42 -11.13,11.14 -3.17,3.18 -5.98,6.8 -8.84,10.24 -1.69,2.03 -4.84,3.06 -7.37,3.06 -2.76,0 -5.42,-1.1 -7.36,-3.06 -0.84,-0.83 -1.43,-1.84 -1.94,-2.89 -1.31,-0.87 -2.48,-1.94 -3.28,-3.31 -1.53,-2.61 -1.53,-5.15 -1.05,-8.04 1.8,-10.78 4.22,-21.45 6.32,-32.18 2.09,-10.6 4.91,-21 7.73,-31.42 1.41,-5.17 2.95,-10.34 4.13,-15.57 1.3,-5.75 2.46,-11.53 3.61,-17.31 2.2,-10.89 5.05,-21.71 7.94,-32.45 2.9,-10.68 5.46,-21.48 8,-32.25 2.53,-10.69 4.32,-21.54 7.15,-32.16 1.5,-5.62 3.23,-11.16 5.05,-16.66 -2,-0.13 -3.99,-0.27 -5.99,-0.36 -4.24,-0.19 -8.5,-0.12 -12.74,-0.17 -8.97,-0.11 -17.95,-0.34 -26.9,-0.77 -4.46,-0.21 -8.89,-0.59 -13.33,-0.88 -4.86,-0.3 -9.7,-0.41 -14.58,-0.48 -8.12,-0.13 -16.25,-0.45 -24.37,-0.04 -0.05,0.22 -0.1,0.45 -0.14,0.68 -0.38,3.65 -0.69,7.31 -1.03,10.96 -0.52,5.58 -0.94,11.19 -1.42,16.77 -0.9,10.6 -2.38,21.19 -3.87,31.74 -0.6,5.37 -1.13,10.71 -1.38,16.12 -0.24,5.47 -0.27,10.97 -0.4,16.46 -0.25,10.57 0.14,21.2 -0.69,31.74 -0.91,11.54 -1.83,23.04 -2.26,34.61 -0.42,11.36 -0.44,22.74 -0.59,34.11 -0.13,8.69 -0.33,17.48 -1.14,26.15 -0.88,9.43 -2.12,18.83 -3.24,28.24 -1.06,8.89 -1.7,17.83 -2.83,26.7 -1.38,10.83 -3.24,21.53 -5.03,32.28 -0.17,1.61 -0.27,3.2 -0.27,4.8 1.04,0.22 2.08,0.41 3.13,0.58 z M 5677.65,7399 c 0.44,0.58 0.89,1.16 1.34,1.73 0.17,0.22 0.34,0.45 0.51,0.66 -0.62,-0.79 -1.23,-1.59 -1.84,-2.39 0,0 -0.01,0 -0.01,0 z m 116.12,124.08 c 0.05,0.08 0.11,0.15 0.16,0.23 -0.04,-0.08 -0.09,-0.17 -0.14,-0.25 -5.2,-9.29 -10.27,-18.67 -15.18,-28.11 -10.72,-20.66 -21.17,-41.47 -31.69,-62.24 -9.92,-19.55 -20.66,-38.72 -31.58,-57.72 -5.52,-9.61 -11.15,-19.16 -16.64,-28.77 -5.67,-9.91 -11.18,-19.87 -16.64,-29.88 -5.57,-10.17 -11.07,-20.36 -16.34,-30.69 -5.04,-9.9 -10.03,-19.81 -15.41,-29.53 -2.55,-4.59 -4.66,-9.41 -7.16,-14.02 -2.6,-4.78 -5.22,-9.55 -7.98,-14.24 -2.67,-4.58 -5.42,-9.13 -8.43,-13.5 -2.98,-4.32 -5.73,-8.84 -8.76,-13.11 -0.44,-0.62 -0.88,-1.24 -1.32,-1.86 -2.57,-3.21 -5.3,-6.25 -8.19,-9.19 -1.55,-1.57 -2.89,-3.32 -4.21,-5.09 -0.21,0.89 -0.39,1.8 -0.63,2.69 -1.29,4.75 -2.41,9.54 -3.62,14.32 -1.28,5.01 -3.16,9.85 -4.86,14.72 -1.74,4.98 -3.57,9.91 -5.04,14.97 -1.53,5.24 -3.06,10.49 -4.3,15.8 -1.25,5.35 -2.36,10.72 -3.43,16.09 -2.24,11.15 -5.12,22.16 -7.82,33.21 -1.22,4.98 -2.67,9.92 -3.9,14.92 -1.44,5.8 -2.9,11.62 -4.3,17.43 -2.61,10.73 -4.43,21.61 -7.18,32.31 -2.71,10.58 -5.9,21.04 -8.36,31.69 -1.17,5.08 -2.24,10.19 -3.27,15.31 1.11,-1.14 2.25,-2.25 3.36,-3.39 3.85,-3.94 7.78,-7.79 11.71,-11.66 3.79,-3.72 7.3,-7.68 10.82,-11.65 3.63,-4.07 7.36,-7.98 11.32,-11.73 3.94,-3.71 7.56,-7.68 11.07,-11.8 3.54,-4.12 7.05,-8.25 10.67,-12.29 3.58,-3.97 6.82,-8.2 10.19,-12.34 1.73,-2.13 3.39,-4.44 5.38,-6.34 1.27,-1.21 2.7,-2.38 4.27,-3.19 2.24,-1.17 4.07,-1.47 6.58,-1.68 1.4,0.09 2.79,0.33 4.14,0.7 1.8,0.43 3.69,1.6 5.22,2.64 4.75,3.22 8.37,7.72 12.04,12.07 2.27,2.67 4.62,5.26 6.94,7.89 10.19,11.53 19.79,23.59 29.09,35.84 0.05,0.07 0.1,0.14 0.15,0.2 l -0.01,-0.01 c 0.12,0.15 0.23,0.3 0.35,0.45 v 0 c -0.11,-0.14 -0.23,-0.29 -0.34,-0.44 0.07,0.09 0.13,0.17 0.2,0.25 0.05,0.07 0.1,0.14 0.15,0.2 0.51,0.52 0.97,1.1 1.36,1.74 0.31,0.35 0.6,0.72 0.86,1.1 0.22,0.28 0.43,0.56 0.63,0.85 0.69,0.89 1.38,1.78 2.07,2.67 -0.07,-0.08 -0.13,-0.16 -0.19,-0.24 6.63,8.59 13.19,17.23 19.62,25.95 6.56,8.88 12.59,18.14 18.92,27.2 12.76,18.25 25.81,36.33 39.19,54.14 6.83,9.1 13.82,18.12 20.46,27.38 z m -43.42,-151.68 c -0.92,-10.75 -1.09,-21.52 -1.09,-32.31 0,-11.34 0.01,-22.68 -0.11,-34.03 -0.05,-6.01 -0.25,-12.03 -0.3,-18.04 -0.04,-5.88 -0.01,-11.76 -0.01,-17.65 0,-6.17 0,-12.33 -0.02,-18.49 -0.01,-4.45 0.05,-8.94 -0.17,-13.4 -1.46,-0.05 -2.93,-0.09 -4.39,-0.12 -4.5,-0.11 -8.97,-0.35 -13.46,-0.68 -4.34,-0.31 -8.69,-0.5 -13.02,-0.82 -4.62,-0.36 -9.19,-0.95 -13.78,-1.41 -4.85,-0.49 -9.7,-0.97 -14.54,-1.45 -4.44,-0.46 -8.91,-0.49 -13.38,-0.5 -4.93,-0.01 -9.83,-0.06 -14.73,-0.25 3.38,6.45 6.71,12.93 10.25,19.3 2.68,4.86 5.1,9.86 7.61,14.8 2.6,5.13 5.23,10.23 7.85,15.35 4.76,9.37 9.9,18.54 14.97,27.75 5.63,10.23 11.29,20.43 17.14,30.55 11.11,19.2 22.33,38.36 32.84,57.91 0.12,0.21 0.22,0.43 0.34,0.64 -0.08,-3.24 -0.2,-6.48 -0.49,-9.71 -0.51,-5.81 -1.02,-11.63 -1.51,-17.44 z m -318.95,139.98 c 0.95,-5.21 1.76,-10.45 2.57,-15.7 1.28,-10.45 2.18,-20.94 3.43,-31.39 1.3,-10.85 3.06,-21.72 3.58,-32.65 0.55,-11.68 0.84,-23.36 0.98,-35.05 0.13,-11.01 0.29,-22.04 0.96,-33.03 0.26,-4.04 0.47,-8.1 0.84,-12.15 0.36,-3.96 0.84,-7.96 1,-11.94 0.34,-8.1 0.42,-16.19 0.5,-24.3 0.08,-8.24 0.22,-16.48 0.58,-24.7 0.36,-8.05 1.55,-16.06 2.71,-24.02 0.57,-4.93 1.26,-9.85 1.77,-14.79 0.58,-5.64 1.07,-11.27 1.52,-16.9 0.39,-4.8 0.97,-9.58 1.37,-14.38 0.33,-3.97 0.61,-7.85 1.83,-11.64 1.64,-5.1 4.18,-10.11 9.87,-11.67 3.68,-1.03 7.63,-1.13 11.44,-1.28 2.81,-0.12 5.66,-0.14 8.47,-0.13 11.09,0.02 22.22,0.26 33.28,1.08 10.23,0.76 20.53,1.05 30.78,1.23 4.93,0.08 9.86,-0.02 14.78,0.16 5.18,0.18 10.36,0.7 15.54,0.72 0.75,-2.62 1.44,-5.24 2.09,-7.9 1.11,-4.51 2.4,-8.99 3.45,-13.52 0.57,-2.53 0.83,-5.12 1.43,-7.63 1.27,-5.53 7.51,-8.73 12.81,-7.28 2.93,0.81 5.08,2.77 6.33,5.23 0.09,-0.06 0.14,-0.16 0.23,-0.21 2.4,-1.4 5.33,-1.79 8.02,-1.04 0.83,0.34 1.66,0.69 2.49,1.04 1.57,0.93 2.81,2.17 3.74,3.73 0.65,0.86 1.29,1.73 1.93,2.59 2.15,2.56 4.71,4.75 6.85,7.31 3.66,4.37 7.03,8.92 10.13,13.69 3.01,4.66 6.19,9.19 9.24,13.82 0.39,0.59 0.71,1.23 1.09,1.83 5.38,0.61 10.73,0.99 16.15,1.1 5.43,0.1 10.87,0.01 16.3,0.1 5.6,0.11 11.17,0.78 16.74,1.33 5.32,0.52 10.61,1.14 15.91,1.7 5.44,0.57 10.92,0.72 16.39,1.1 5.13,0.34 10.23,0.61 15.37,0.72 2.25,0.06 4.51,0.16 6.76,0.3 0.98,0.07 1.96,0.15 2.93,0.27 1.34,0.15 2.69,0.26 3.99,0.65 2.84,0.85 5.16,2.77 6.79,5.22 2.9,4.36 2.87,9.95 3.12,15.02 0.12,2.73 0.11,5.49 0.15,8.22 0.14,10.88 0.04,21.77 0.04,32.65 0,10.7 0.33,21.37 0.38,32.07 0.05,11.3 0.04,22.59 0.04,33.89 0,10.86 0.67,21.67 1.6,32.49 0.45,5.22 0.96,10.44 1.26,15.67 0.28,4.92 0.35,9.85 0.39,14.78 0.03,5.2 0.04,10.38 0.04,15.58 0.01,4.75 0.02,9.38 -0.73,14.08 3.67,7.23 7.34,14.45 11.03,21.68 4.79,9.38 9.46,18.82 14.4,28.13 5.5,10.34 11.08,20.63 16.81,30.83 10.89,19.41 22.24,38.54 33.49,57.73 5.61,9.61 11.12,19.26 16.8,28.84 5.7,9.64 11.26,19.37 16.71,29.16 2.64,4.73 5.25,9.47 7.84,14.23 1.17,2.15 2.38,4.31 3.38,6.54 1.99,4.45 4.48,8.93 4.58,13.89 0.08,3.62 -2.03,7.21 -5.15,9 -0.17,0.09 -0.33,0.19 -0.5,0.28 -1.58,0.9 -3.61,1.45 -5.6,1.45 -1.77,0 -3.53,-0.44 -4.92,-1.45 -0.98,-0.71 -2.03,-1.34 -2.78,-2.29 -0.87,-1.13 -1.74,-2.26 -2.58,-3.42 -0.68,-0.94 -1.36,-1.91 -2.06,-2.85 -1.51,-2.06 -3.03,-4.11 -4.57,-6.15 -3.52,-4.66 -6.99,-9.34 -10.47,-14.04 -3.15,-4.24 -6.16,-8.6 -9.28,-12.87 -3.48,-4.79 -7.04,-9.53 -10.51,-14.35 -6.62,-9.18 -13.05,-18.49 -19.8,-27.59 -3.29,-4.45 -6.59,-8.86 -9.75,-13.41 -3.23,-4.64 -6.39,-9.3 -9.72,-13.87 -6.47,-8.89 -12.97,-17.76 -19.44,-26.67 -5.9,-8.12 -11.89,-16.14 -17.88,-24.18 0,4.27 0,8.56 0,12.83 0,4.65 0.27,9.4 -0.13,14.03 -0.28,3.29 -1.1,6.28 -3.45,8.73 -1.91,2.02 -4.06,2.92 -6.61,3.88 -1.55,0.58 -3.91,0.72 -5.46,0.89 -0.74,0.09 -1.48,0.16 -2.23,0.23 -1.57,0.13 -3.14,0.25 -4.71,0.36 -10.99,0.79 -22.04,1.11 -33.05,1.22 -11.01,0.13 -22.01,0.52 -33.01,0.7 -13.22,0.23 -26.45,0.31 -39.67,0.31 -9.14,0 -18.27,-0.04 -27.41,-0.1 -11.17,-0.08 -22.31,-0.47 -33.46,-1.27 -10.91,-0.77 -21.8,-1.88 -32.7,-2.92 -10.87,-1.04 -21.75,-2.37 -32.64,-3.14 -10.98,-0.8 -22,-0.98 -33,-1.2 -5.43,-0.11 -10.83,-0.27 -16.26,-0.58 -2.54,-0.16 -5.05,-0.46 -7.57,-0.78 -2,-0.26 -4.01,-0.54 -5.99,-0.94 -2.72,-0.52 -5.15,-1.49 -7.7,-2.59 -2.61,-1.12 -4.46,-3.51 -6.05,-5.75 -0.85,-1.19 -1.35,-3.21 -1.65,-4.69 -0.37,-1.81 -0.5,-3.7 -0.67,-5.55 -0.3,-3.67 0.28,-7.57 0.89,-11.17 0.39,-2.41 0.82,-4.8 1.25,-7.19"
         style="fill:#121213;fill-opacity:1;fill-rule:nonzero;stroke:none"
         id="path48" />
      <path
         style="fill:#8cff33;fill-opacity:1;stroke-width:0.176777"
         d="m 747.70258,32.625658 c -6.42289,-0.0909 -12.77373,1.049954 -19.18918,1.178389 -0.51849,0.183127 -1.4794,-0.179577 -1.8027,0.311438 0.50054,4.187645 1.18338,8.361274 1.41817,12.580806 0.60477,8.574159 0.32737,17.212022 1.49195,25.741616 0.1623,1.022702 0.0491,2.159735 0.33918,3.110306 4.23142,-0.208331 8.4923,-0.123082 12.7041,-0.571761 0.50243,-0.3062 -0.22213,-1.078009 -0.1612,-1.54552 -1.88125,-8.112496 -4.04947,-16.162462 -5.76723,-24.309851 -0.19849,-1.246244 -0.83523,-2.894907 0.38103,-3.840007 0.66147,-0.693743 1.72113,-0.381108 2.21212,0.324041 3.96475,3.938167 7.83224,7.994016 11.53434,12.180148 0.60345,0.686788 1.0396,-0.483573 1.45015,-0.803521 4.8291,-5.652815 9.13008,-11.739376 13.32624,-17.864374 0.21954,-0.770606 -0.20499,-1.613355 -0.0836,-2.419976 -0.0781,-1.257097 0.10922,-2.60068 -0.10358,-3.797937 -5.44599,-0.405244 -10.92103,-0.195407 -16.37877,-0.275745 -0.45702,-4.33e-4 -0.91404,0.0015 -1.37106,0.0019 z"
         id="path10"
         transform="matrix(7.5000002,0,0,-7.5000002,0,7782.6999)" />
      <path
         style="fill:#8cff33;fill-opacity:1;stroke-width:0.176777"
         d="m 766.77582,51.571148 c -4.04089,7.169275 -8.1579,14.299049 -11.85232,21.656871 1.10595,0.323033 2.54049,0.07749 3.77791,0.06387 2.50697,-0.310666 5.05576,-0.296617 7.54097,-0.745777 0.5374,-0.376842 0.0884,-1.334171 0.28692,-1.884466 0.20802,-6.367386 0.0827,-12.775593 0.39913,-19.11916 l -0.0905,-0.02037 z"
         id="path11"
         transform="matrix(7.5000002,0,0,-7.5000002,0,7782.6999)" />
      <path
         style="fill:#ffffff;fill-opacity:1;stroke-width:0.176777"
         d="m 770.9867,36.812021 c -3.34916,4.007198 -6.15672,8.460864 -9.28635,12.64552 -2.83946,3.799032 -5.6209,7.690417 -9.00486,11.030818 -0.73294,0.808684 -2.12073,1.230772 -2.91682,0.287952 -3.07804,-3.384051 -6.01002,-6.950091 -9.41128,-10.031041 -0.45902,-0.439063 -0.5472,0.30672 -0.36046,0.622516 1.73188,7.104284 3.38038,14.23034 5.15931,21.322231 0.59724,2.291521 1.49198,4.499683 2.00394,6.812885 0.65343,-0.185932 1.10142,-1.095145 1.59099,-1.639328 4.26507,-6.064317 7.13841,-12.950572 10.90251,-19.315774 3.45127,-5.89886 6.70458,-11.908003 9.72634,-18.038351 0.57747,-1.198902 1.23604,-2.368122 1.73996,-3.597992 -0.002,-0.08538 -0.0803,-0.123411 -0.14328,-0.09944 z"
         id="path13"
         transform="matrix(7.5000002,0,0,-7.5000002,0,7782.6999)" />
    </g>
  </g>
</svg>
