<?xml version="1.0" encoding="UTF-8" standalone="no"?>
<!-- Created with Inkscape (http://www.inkscape.org/) -->

<svg
   version="1.1"
   id="svg2"
   width="79.180237"
   height="76.253174"
   viewBox="0 0 79.180234 76.253177"
   xmlns="http://www.w3.org/2000/svg"
   xmlns:svg="http://www.w3.org/2000/svg">
  <defs
     id="defs6" />
  <g
     id="g8"
     transform="matrix(1.3333333,0,0,-1.3333333,-689.87069,268.788)">
    <g
       id="g10"
       transform="scale(0.1)">
      <path
         d="m 5330.36,1637.67 c 2.07,5.01 4.17,9.99 6.12,15.05 1.44,3.76 2.86,7.54 4.38,11.27 1.36,3.05 2.83,6.07 2.72,9.5 -0.14,4.81 -3.21,8.54 -6.73,11.49 -4.19,3.5 -8.19,7.18 -11.97,11.11 -3.6,3.75 -7.22,7.5 -11.03,11.03 -4.07,3.78 -8.26,7.39 -12.38,11.11 -8.28,7.5 -15.78,15.76 -23.74,23.59 -7.69,7.57 -15.62,14.9 -23.15,22.64 -5.25,5.41 -10.52,10.86 -16.09,15.97 -5.23,4.83 -10.68,9.42 -15.82,14.35 -5.52,5.29 -10.53,11.02 -15.73,16.61 -3.07,3.31 -6.24,6.53 -9.36,9.8 0.66,0.02 1.31,0.04 1.96,0.04 3.36,-0.02 6.64,-0.07 9.98,-0.32 5.61,-0.41 11.21,-0.97 16.81,-1.43 11.72,-0.95 23.35,-2.5 35.01,-3.96 9.07,-1.24 18.16,-2.38 27.25,-3.46 4.08,-0.56 8.17,-1.11 12.25,-1.64 9.58,-1.3 19.13,-2.71 28.71,-3.99 6.21,-0.93 12.41,-1.82 18.66,-2.54 5.37,-0.61 10.76,-0.93 16.16,-1.31 2.12,-0.15 4.24,-0.3 6.36,-0.44 1.1,-0.07 2.2,-0.14 3.3,-0.19 0.55,-0.03 1.1,-0.06 1.66,-0.07 0.17,-0.01 0.34,-0.01 0.5,-0.01 1.09,0 2.16,0.13 3.23,0.38 1.37,0.14 2.66,0.57 3.87,1.29 6.09,2.63 10.34,8.35 13.77,13.77 1.67,2.65 3.12,5.46 4.57,8.23 2.47,4.77 4.95,9.53 7.37,14.33 2.62,5.19 5.08,10.4 7.46,15.71 2.41,5.35 4.64,10.78 7.01,16.14 2.15,4.88 4.34,9.75 6.49,14.63 4.09,9.27 8.1,18.55 12.36,27.73 4.69,10.11 9.38,20.24 13.85,30.46 6.53,14.93 12.46,30.27 20.65,44.38 2.43,-4.18 4.53,-8.54 6.58,-12.94 2.72,-5.86 5.37,-11.74 8.01,-17.63 3.99,-9.75 7.72,-19.58 11.19,-29.53 3.81,-10.97 7.08,-22.08 10.09,-33.29 2.88,-10.78 5.38,-21.65 8.18,-32.44 2.85,-10.94 5.28,-21.95 7.81,-32.96 1.65,-7.18 3.32,-14.33 5.55,-21.37 0.79,-2.52 1.67,-5.09 3.03,-7.36 0.79,-1.32 1.82,-2.59 3.04,-3.57 0.81,-0.83 1.74,-1.5 2.79,-1.97 1.95,-0.99 3.58,-1.36 5.68,-1.7 4.33,-0.7 8.7,-0.84 13.07,-0.98 7.7,-0.24 15.35,-1.05 23,-1.89 7.48,-0.81 14.97,-1.41 22.43,-2.33 8.97,-1.27 17.96,-2.36 26.95,-3.51 9.48,-1.33 18.92,-2.73 28.37,-4.24 5.39,-0.86 10.79,-1.73 16.21,-2.51 4.77,-0.69 9.57,-1.27 14.34,-2.09 10.13,-1.74 20.3,-3.26 30.45,-4.83 3.43,-0.53 6.85,-1.09 10.26,-1.7 -4.72,-3.04 -9.55,-5.87 -14.42,-8.66 -4.84,-2.78 -9.67,-5.51 -14.4,-8.46 -4.37,-2.73 -8.59,-5.7 -12.84,-8.6 -9.69,-6.61 -19.37,-13.2 -29.07,-19.78 -4.22,-2.85 -8.48,-5.64 -12.62,-8.61 -4.84,-3.48 -9.68,-6.95 -14.5,-10.44 -4.65,-3.35 -9.31,-6.65 -14.02,-9.92 -4.23,-2.94 -8.75,-5.45 -13.03,-8.34 -5.16,-3.48 -10.12,-7.27 -14.84,-11.35 -1.71,-1.48 -3.31,-3.07 -4.93,-4.63 -0.81,-0.79 -1.59,-1.62 -2.33,-2.47 -2.13,-2.43 -3.5,-4.89 -4.32,-8.03 -0.93,-3.51 -0.9,-7.45 -1.08,-11.08 -0.14,-2.9 -0.04,-5.8 0.07,-8.7 0.23,-5.73 0.8,-11.43 1.36,-17.14 0.53,-5.5 1.22,-10.99 1.94,-16.48 0.78,-5.96 1.49,-11.96 2.48,-17.9 1.74,-10.57 3.5,-21.12 5.14,-31.7 1.5,-9.61 3.44,-19.14 5.13,-28.71 3.25,-18.44 6.22,-36.94 9.02,-55.46 -2.65,1.89 -5.27,3.81 -7.88,5.75 -2.9,2.27 -5.8,4.55 -8.68,6.86 -3.22,2.56 -6.32,5.24 -9.53,7.82 -7.04,5.68 -14.18,11.22 -21.39,16.69 -8.31,6.66 -16.32,13.62 -24.37,20.6 -8.27,7.17 -17.12,13.6 -25.15,21.06 -4.11,3.83 -8.26,7.62 -12.51,11.32 -4.22,3.68 -8.59,7.18 -12.97,10.69 -3.92,3.14 -7.88,6.22 -11.78,9.41 -1.6,1.3 -3.22,2.59 -4.97,3.68 -2.99,1.84 -6.79,2.2 -10.17,2.56 -3.63,0.4 -7.43,-0.34 -10.99,-0.94 -2.29,-0.39 -4.55,-1.01 -6.8,-1.59 -5.13,-1.32 -10.22,-2.76 -15.2,-4.6 -5.9,-2.19 -11.88,-4.34 -17.62,-6.97 -2.73,-1.25 -5.45,-2.5 -8.17,-3.75 -2.75,-1.25 -5.39,-2.84 -8.05,-4.26 -4.75,-2.53 -9.39,-5.27 -14.09,-7.9 -10.08,-5.65 -19.96,-11.63 -29.75,-17.77 -8.91,-5.59 -17.35,-11.88 -26.17,-17.59 -9.21,-5.97 -18.52,-11.79 -27.88,-17.5 -2.22,-1.35 -4.44,-2.71 -6.65,-4.09 1.12,3.74 2.2,7.5 3.39,11.23 1.63,5.2 3.41,10.38 4.91,15.62 1.68,5.84 3.32,11.69 4.93,17.56 2.84,10.28 5.94,20.44 9.71,30.41 4,10.62 8.28,21.11 12.06,31.81 3.29,9.28 5.79,18.82 9.54,27.94 z m 223.93,176.58 c 0.01,0 0.01,0 0.01,0 z m 0.74,-1.69 c -0.07,0.05 -0.14,0.1 -0.2,0.15 l -0.01,0.01 c 0.07,-0.05 0.14,-0.1 0.21,-0.16 z m -254.87,-198.91 c -3.79,-10.7 -8.09,-21.21 -12.11,-31.82 -3.7,-9.81 -6.63,-19.88 -9.41,-30 -1.56,-5.62 -3.14,-11.24 -4.74,-16.84 -1.52,-5.27 -3.31,-10.46 -4.97,-15.68 -1.62,-5.11 -3.06,-10.27 -4.64,-15.39 -2.15,-6.95 -4.26,-13.99 -4.57,-21.32 -0.08,-1.84 0.72,-4.57 1.65,-6.15 1.47,-2.51 3.58,-3.79 6.22,-4.79 3.15,-1.18 7.01,-0.43 9.9,1.12 2.37,1.27 4.58,2.98 6.82,4.47 4.45,2.96 8.92,5.91 13.46,8.74 9.23,5.74 18.58,11.32 27.72,17.23 7.54,4.88 14.93,9.98 22.36,15.03 7.53,5.11 15.26,9.92 23.07,14.58 7.14,4.25 14.35,8.37 21.6,12.45 4.3,2.42 8.61,4.82 12.98,7.14 3.54,1.87 7.15,3.52 10.8,5.19 11.65,4.72 23.54,9.28 35.97,11.5 1.52,0.14 3.03,0.19 4.56,0.11 0.25,-0.05 0.49,-0.11 0.73,-0.18 0.2,-0.13 0.4,-0.26 0.59,-0.4 3.46,-2.73 6.86,-5.54 10.32,-8.25 3.84,-3 7.71,-6.01 11.37,-9.21 4.04,-3.53 8.07,-7.05 12,-10.7 3.97,-3.69 7.9,-7.48 12.15,-10.85 4.43,-3.5 8.84,-7.02 13.22,-10.59 4.02,-3.28 7.87,-6.84 11.78,-10.25 7.95,-6.95 16.21,-13.47 24.64,-19.83 8.41,-6.61 16.62,-13.44 24.99,-20.11 9.1,-7.25 18.39,-14.16 28.26,-20.36 2.4,-1.51 4.92,-3.05 7.65,-3.91 3.9,-1.24 8.33,-0.47 11.29,2.48 1.31,1.32 2.53,3.38 3.02,5.17 0.46,1.65 0.5,3.67 0.46,5.4 -0.02,1.32 -0.2,2.64 -0.31,3.94 -0.52,5.91 -1.44,11.78 -2.31,17.65 -1.71,11.44 -3.55,22.86 -5.4,34.27 -2.53,15.62 -5.44,31.16 -8.23,46.72 -1.38,7.75 -2.48,15.56 -3.77,23.33 -1.15,6.95 -2.24,13.9 -3.23,20.88 -1.08,8.36 -2.08,16.73 -2.88,25.13 -0.83,8.57 -1.24,17.14 -0.54,25.72 1.36,1.47 2.85,2.83 4.32,4.18 2.09,1.93 4.24,3.74 6.44,5.51 8.49,6.21 17.63,11.45 26.17,17.58 9.33,6.71 18.58,13.58 28.1,20.01 9.46,6.39 18.85,12.88 28.33,19.24 8.9,5.98 17.57,12.4 26.92,17.67 9.92,5.59 19.86,11.17 29.14,17.8 2.21,1.57 4.4,3.16 6.59,4.77 3,2.21 6.15,4.53 7.89,7.9 2.22,4.29 1.84,10.35 -2.14,13.58 -1.91,1.55 -2.81,2.15 -5.17,2.94 -0.68,0.24 -1.36,0.42 -2.07,0.56 -1.1,0.23 -2.21,0.43 -3.31,0.64 -2.68,0.49 -5.36,0.91 -8.04,1.36 -5.56,0.93 -11.1,2 -16.67,2.86 -5.48,0.85 -10.96,1.76 -16.45,2.57 -4.96,0.73 -9.88,1.62 -14.83,2.39 -5.77,0.9 -11.55,1.68 -17.31,2.5 -10.34,1.48 -20.59,3.46 -30.94,4.86 -11.09,1.5 -22.19,3.01 -33.32,4.36 -5.58,0.8 -11.17,1.63 -16.8,2.17 -5.36,0.51 -10.73,0.98 -16.07,1.57 -5.41,0.58 -10.81,1.19 -16.23,1.5 -4.31,0.23 -8.63,0.28 -12.93,0.6 -1.22,3.67 -2.15,7.45 -3.13,11.17 -1.37,5.21 -2.44,10.51 -3.65,15.77 -1.2,5.2 -2.3,10.44 -3.58,15.63 -1.34,5.41 -2.78,10.8 -4.1,16.21 -5.34,21.9 -10.72,43.82 -18.44,65.02 -4.19,11.49 -8.48,22.89 -13.47,34.05 -2.25,5.06 -4.56,10.1 -6.9,15.12 -1.14,2.44 -2.33,4.84 -3.51,7.26 -1.27,2.55 -2.73,4.98 -4.16,7.43 -1.56,2.66 -3.54,5.33 -5.55,7.66 -2.67,3.11 -6.56,6.2 -10.89,6.2 -0.08,0 -0.15,0 -0.24,0 -2.29,-0.06 -4.4,-0.26 -6.44,-1.45 -1.46,-0.85 -2.58,-1.98 -3.59,-3.29 -1.3,-1.68 -2.5,-3.35 -3.67,-5.12 -3.07,-4.65 -5.77,-9.53 -8.42,-14.43 -2.59,-4.79 -4.72,-9.84 -6.9,-14.82 -2.12,-4.79 -4.14,-9.61 -6.24,-14.4 -4.53,-10.41 -9.13,-20.76 -13.91,-31.06 -2.66,-5.73 -5.3,-11.48 -7.95,-17.22 -2.07,-4.49 -3.93,-9.07 -5.93,-13.6 -4.82,-10.91 -9.71,-21.78 -14.4,-32.76 -4.25,-9.97 -9.24,-19.61 -14.25,-29.22 -2.42,-4.65 -4.8,-9.37 -7.83,-13.66 -0.67,-0.76 -1.36,-1.47 -2.09,-2.15 -4.51,0.1 -9.02,0.59 -13.52,0.88 -5.82,0.38 -11.59,0.93 -17.37,1.59 -7.22,1.02 -14.45,2.03 -21.68,3 -8.76,1.28 -17.52,2.51 -26.29,3.67 -8.76,1.16 -17.55,2.18 -26.32,3.32 -13.35,1.84 -26.72,3.64 -40.14,4.86 -6.23,0.56 -12.46,0.99 -18.68,1.58 -7.3,0.71 -14.47,0.31 -21.76,-0.25 -2.84,-0.2 -5.3,-0.98 -7.36,-3.04 -1.95,-1.94 -3.06,-4.62 -3.06,-7.37 0,-0.69 0.08,-1.38 0.23,-2.06 -0.72,-0.43 -1.38,-0.93 -1.97,-1.52 -1.94,-1.94 -3.06,-4.62 -3.06,-7.37 0,-2.88 1.17,-5.27 3.06,-7.36 3.48,-3.9 7.21,-7.56 10.8,-11.34 3.69,-3.89 7.3,-7.88 10.89,-11.87 3.7,-4.11 7.58,-7.98 11.66,-11.72 3.87,-3.52 7.81,-6.96 11.67,-10.51 4.35,-4 8.51,-8.16 12.7,-12.33 3.75,-3.74 7.35,-7.66 11.17,-11.34 8.06,-7.73 16.13,-15.46 23.96,-23.41 4.52,-4.58 8.91,-9.28 13.58,-13.72 4.62,-4.39 9.57,-8.43 14.24,-12.76 4.84,-4.49 9.43,-9.22 14.01,-13.98 2.12,-2.21 4.4,-4.29 6.7,-6.3 0.96,-0.84 1.94,-1.66 2.91,-2.5 -3.52,-8.62 -6.83,-17.32 -10.38,-25.92 -4.22,-10.23 -7.16,-20.89 -10.84,-31.31"
         style="fill:#121213;fill-opacity:1;fill-rule:nonzero;stroke:none"
         id="path150" />
      <path
         style="fill:#fff745;fill-opacity:1;stroke-width:0.25"
         d="m 730.20361,772.91992 c -3.85703,7.19028 -6.51363,15.00078 -10.44873,22.16358 -0.72582,1.52249 -2.24258,2.7647 -4.01855,2.33008 -7.4985,-0.68822 -14.9495,-2.13046 -22.46826,-2.51319 0.29477,0.92438 1.59376,1.60752 2.21093,2.44141 5.42732,5.43831 11.09917,10.64269 16.44092,16.16015 1.21242,1.56897 -0.42513,3.41959 -0.81982,4.9878 -2.18412,6.03141 -4.46856,12.06152 -6.08496,18.27099 0.36762,0.48119 1.17463,-0.57606 1.63427,-0.66113 6.18394,-3.91816 12.24585,-8.56176 19.50342,-10.24219 1.63044,-0.49938 3.17946,0.22851 4.35449,1.35161 5.56278,4.43983 10.75053,9.38864 16.55713,13.50337 0.67436,-0.42018 -0.10427,-1.6757 0.005,-2.33056 -1.00074,-6.90204 -2.61578,-13.75495 -2.88086,-20.73389 -0.0525,-2.85506 2.98714,-4.26033 4.91015,-5.78748 5.02914,-3.39177 9.92936,-6.98569 15.16944,-10.05187 -1.60838,-0.66114 -3.86449,-0.64422 -5.72194,-1.04461 -6.27466,-1.00748 -12.58567,-1.78671 -18.90795,-2.39192 -1.88302,-0.23697 -1.71831,-2.67269 -2.27545,-4.00415 -1.94963,-7.24449 -3.27488,-14.85454 -7.03705,-21.43774 -0.0352,-0.0286 -0.0836,-0.0311 -0.12207,-0.0103 z"
         id="path21"
         transform="matrix(7.5000002,0,0,-7.5000002,0,7782.6999)" />
    </g>
  </g>
</svg>
