<?xml version="1.0" encoding="UTF-8" standalone="no"?>
<!-- Created with Inkscape (http://www.inkscape.org/) -->

<svg
   version="1.1"
   id="svg2"
   width="133.00394"
   height="134.39052"
   viewBox="0 0 133.00393 134.39052"
   xmlns="http://www.w3.org/2000/svg"
   xmlns:svg="http://www.w3.org/2000/svg">
  <defs
     id="defs6" />
  <g
     id="g8"
     transform="matrix(1.3333333,0,0,-1.3333333,-14.549607,1007.2786)">
    <g
       id="g10"
       transform="scale(0.1)">
      <path
         d="m 148.449,7155.57 c 1.164,3.93 2.219,7.9 3.559,11.77 2.148,6.16 4.289,12.34 6.426,18.5 2.945,8.5 6.539,16.79 9.859,25.15 3.02,7.01 6.051,14.01 9.082,21 3.313,7.65 7.055,15.14 10.566,22.69 3.789,8.15 8.254,16.06 12.813,23.79 4.406,7.46 9.207,14.82 14.301,21.85 4.863,6.71 9.715,13.42 14.586,20.11 6.418,7.66 12.609,15.53 19.289,22.93 1.683,1.87 3.359,3.73 5.043,5.59 4.843,-3.07 9.742,-6.09 14.492,-9.3 4.625,-3.13 9.16,-6.36 13.648,-9.69 8.942,-6.61 18.391,-12.33 28.621,-16.7 19.52,-8.35 40.039,-13.96 60.621,-19.01 -4.75,-8.34 -9.472,-16.69 -14.027,-25.14 -5.055,-9.41 -9.996,-18.93 -14.449,-28.63 -2.813,-6.14 -5.543,-12.29 -8.137,-18.53 -2.234,-5.36 -4.234,-10.78 -6.23,-16.24 -3.723,-10.16 -6.258,-20.69 -8.813,-31.19 -1.351,-5.56 -2.199,-11.29 -3.047,-16.96 -1.011,-6.69 -1.836,-13.42 -2.675,-20.13 -1.301,-10.54 -1.977,-21.2 -2.653,-31.78 -0.707,-11.16 -1.125,-22.32 -1.23,-33.5 0,-0.14 0,-0.27 0,-0.41 -1.004,0.27 -2.02,0.48 -3.016,0.77 -5.183,1.49 -10.367,2.99 -15.566,4.45 -9.996,2.82 -20.078,5.42 -29.992,8.52 -9.606,2.99 -19.231,5.92 -28.879,8.77 -9.082,2.68 -17.953,5.98 -26.926,8.96 -9.223,3.07 -18.43,6.06 -27.469,9.63 -2.473,1.11 -4.945,2.25 -7.398,3.43 -3.024,1.44 -5.907,3.11 -8.996,4.45 -3.407,1.48 -6.789,3.04 -10.254,4.35 -2.75,1.04 -5.5,2.06 -8.235,3.14 -0.117,0.06 -0.23,0.11 -0.347,0.16 -0.524,0.23 -1.028,0.38 -1.536,0.57 1,4.38 2,8.77 3.004,13.15 1.047,4.54 2.641,9.02 3.965,13.48 z m 124.254,213.57 c 4.488,4.58 8.977,9.17 13.465,13.75 1.176,1.2 2.531,2.26 3.777,3.37 3.176,2.84 6.336,5.67 9.512,8.5 8.914,7.95 18.078,15.58 27.227,23.27 1.914,1.6 3.863,3.14 5.824,4.67 4.691,3.6 9.449,7.12 14.312,10.51 5.696,3.96 11.625,7.57 17.567,11.15 5.371,3.23 10.789,6.39 16.203,9.55 8.859,5.15 17.73,10.28 26.613,15.39 3.184,1.82 6.336,3.72 9.594,5.41 5.59,2.92 11.183,5.84 16.773,8.75 7.274,3.79 14.868,6.94 22.352,10.31 7.789,2.99 15.566,6.05 23.476,8.7 9.579,3.21 19.172,6.34 28.786,9.43 7.765,2.49 15.613,4.74 23.519,6.72 4.348,1.09 8.684,2.19 13.043,3.26 6.699,1.64 13.426,3.39 20.219,4.67 -0.969,-0.73 -1.988,-1.36 -2.942,-2.13 -5.546,-4.43 -10.835,-9.16 -16.253,-13.74 -8.801,-7.43 -17.891,-14.58 -26.04,-22.73 -7.859,-7.86 -15.218,-16.18 -23.019,-24.09 -7.742,-7.87 -15.496,-15.71 -22.566,-24.19 -7.707,-9.24 -15.344,-18.51 -23.215,-27.6 -7.407,-8.53 -14.637,-17.2 -21.414,-26.25 -7.094,-9.46 -13.836,-19.14 -20.508,-28.92 -6.024,-8.8 -11.453,-18.06 -16.942,-27.21 -3.312,-5.51 -6.531,-11.08 -9.793,-16.62 -9.687,2.32 -19.32,4.83 -28.945,7.47 -10.473,2.87 -20.672,6.4 -30.844,10.17 -1.902,0.82 -3.804,1.63 -5.703,2.44 -2.652,1.14 -5.187,2.68 -7.754,4.01 -2.5,1.29 -4.875,2.98 -7.281,4.44 -2.437,1.49 -4.836,3.19 -7.137,4.88 -4.824,3.57 -9.66,7.11 -14.625,10.48 -3.847,2.6 -7.796,5.06 -11.722,7.54 1.488,1.54 2.945,3.11 4.441,4.64 z m 417.227,158.65 c 21.39,-3.07 42.675,-7.05 63.578,-12.53 10.722,-2.81 21.465,-5.62 32.133,-8.63 10.789,-3.06 21.476,-6.54 32.054,-10.27 4.336,-1.52 8.614,-3.17 12.868,-4.91 7.179,-3.22 14.242,-6.59 21.113,-10.45 3.836,-2.15 7.699,-4.27 11.453,-6.55 3.883,-2.38 7.648,-4.91 11.437,-7.45 7.219,-4.83 14.106,-10.16 21.137,-15.27 6.75,-4.91 13.703,-9.54 20.492,-14.39 6.469,-5.08 12.856,-10.32 19.094,-15.68 3.695,-3.17 7.301,-6.41 10.895,-9.71 2.203,-2.04 4.277,-4.22 6.328,-6.43 -1.742,-1.47 -3.473,-2.95 -5.246,-4.39 0.089,0.07 0.183,0.14 0.277,0.21 -0.008,0 -0.02,-0.01 -0.027,-0.02 -0.09,-0.07 -0.18,-0.14 -0.27,-0.2 -0.008,-0.01 -0.016,-0.02 -0.023,-0.03 -5.414,-4.18 -10.696,-8.54 -16.051,-12.8 -7.258,-5.33 -14.871,-10.16 -22.645,-14.71 -8.511,-4.97 -17.273,-9.36 -26.191,-13.54 -8.918,-4.19 -17.938,-8.11 -26.773,-12.48 -4.418,-2.18 -8.801,-4.46 -13.243,-6.61 -3.007,-1.47 -6.113,-2.76 -9.199,-4.08 -1.496,2.43 -2.996,4.85 -4.476,7.29 -2.895,4.77 -5.848,9.48 -8.856,14.19 -2.976,4.67 -6.383,9.11 -9.652,13.58 -6.696,9.14 -13.09,18.47 -19.844,27.56 -6.836,9.19 -14.02,18.2 -21.602,26.78 -6.207,7.03 -12.543,13.94 -19.125,20.61 -6.878,6.99 -14.007,13.74 -21.015,20.6 -6.688,6.54 -13.488,12.95 -20.289,19.38 -6.922,6.54 -14.645,12.21 -22.211,17.99 -3.301,2.59 -6.613,5.14 -9.953,7.66 -5.731,4.46 -11.41,8.97 -17.071,13.52 -2.281,1.82 -4.636,3.56 -6.957,5.33 12.637,-1.02 25.278,-1.98 37.86,-3.57 z m 302.148,-167 c 5.973,-8.39 11.182,-17.24 16.692,-25.93 6.03,-9.52 11.94,-19.06 17.48,-28.87 5.52,-9.8 10.47,-19.96 15.43,-30.05 4.82,-9.85 10.15,-19.44 15.11,-29.22 1.49,-2.93 2.8,-5.97 4.15,-8.97 4.59,-11.66 8.75,-23.43 12.75,-35.29 2.11,-6.22 4.25,-12.45 5.77,-18.84 1.51,-6.33 2.51,-12.75 3.58,-19.17 0.62,-4.89 1.22,-9.76 1.69,-14.68 0.49,-5.38 0.74,-10.76 1,-16.18 0.27,-5.64 0.09,-11.35 0.09,-17.01 0,-1.79 0,-3.58 0,-5.37 -11.31,-4.5 -22.44,-9.53 -33.57,-14.47 -11.09,-4.94 -22.02,-10.22 -33.14,-15.11 -9.99,-4.09 -20.044,-7.89 -30.309,-11.25 -10.895,-3.56 -22,-6.39 -33.043,-9.42 -10.742,-2.94 -21.567,-5.55 -32.434,-8.01 -0.844,-0.18 -1.691,-0.32 -2.535,-0.5 -0.016,3.75 0.031,7.51 0.016,11.27 -0.059,10.64 -0.375,21.24 -1.024,31.85 -0.328,5.28 -0.929,10.55 -1.363,15.8 -0.465,5.67 -1.031,11.31 -1.695,16.97 -2.653,22.52 -7.625,44.84 -14.348,66.5 -3.312,10.69 -7.219,21.3 -11.531,31.64 -2.395,5.73 -4.965,11.33 -7.684,16.91 -2.305,4.72 -4.742,9.4 -6.859,14.2 -2.223,5.07 -4.352,10.18 -6.883,15.1 -2.477,4.8 -4.988,9.57 -7.582,14.31 -5.231,9.56 -10.078,19.32 -15.691,28.67 -0.692,1.15 -1.403,2.27 -2.098,3.41 0.465,0.2 0.937,0.38 1.398,0.58 10.211,4.45 20.024,9.72 30.102,14.45 10.008,4.69 20.09,9.21 30.027,14.07 4.848,2.37 9.512,5.11 14.172,7.82 4.578,2.69 9.078,5.42 13.453,8.45 2.172,1.5 4.383,2.95 6.555,4.46 2.676,1.86 5.195,3.92 7.766,5.91 3.796,2.95 7.445,6.09 11.218,9.06 l 0.008,0.01 v 0 h 0.004 c 0,0 0,0 -0.004,0 0.012,0.01 0.024,0.02 0.035,0.03 0.571,0.43 1.137,0.87 1.703,1.31 -0.484,-0.37 -0.961,-0.74 -1.441,-1.11 -0.074,-0.06 -0.148,-0.12 -0.223,-0.17 0.039,0.03 0.075,0.05 0.11,0.08 -0.188,-0.14 -0.375,-0.28 -0.563,-0.42 0.403,0.3 0.801,0.61 1.199,0.92 0,0 0.012,0.01 0.024,0.02 -0.004,-0.01 -0.004,-0.01 -0.004,-0.01 2.32,1.81 4.566,3.71 6.832,5.59 2.785,-3.15 5.609,-6.26 8.41,-9.4 5.852,-6.54 11.777,-13.07 17.25,-19.94 z m 90.992,-361.43 c -1.02,-11.81 -2.04,-23.62 -3.24,-35.41 -1.34,-9.72 -2.71,-19.43 -4.21,-29.13 -1.58,-10.33 -3.93,-20.54 -6.29,-30.72 -2.34,-10.16 -5.44,-20.08 -8.46,-30.04 -1.34,-4.37 -2.77,-8.72 -4.3,-13.03 -0.92,-0.64 -1.84,-1.3 -2.79,-1.9 -3.96,-2.51 -7.99,-4.93 -12.04,-7.31 -7.83,-4.62 -15.75,-8.89 -24.05,-12.6 -4.45,-1.83 -8.92,-3.62 -13.44,-5.26 -6.27,-2.28 -12.426,-4.75 -18.566,-7.36 -0.028,-0.01 -0.055,-0.02 -0.082,-0.03 -0.399,-0.17 -0.793,-0.34 -1.192,-0.5 -0.738,-0.22 -1.461,-0.52 -2.148,-0.91 -1.157,-0.48 -2.324,-0.93 -3.477,-1.41 -2.383,-0.97 -4.754,-1.98 -7.148,-2.91 -5.035,-1.96 -10.055,-3.93 -15.032,-5.99 -5,-2.07 -10.011,-4.13 -15.136,-5.89 -5.024,-1.7 -10.078,-3.28 -15.172,-4.76 -5.707,-1.68 -11.461,-3.15 -17.219,-4.61 -4.906,-1.23 -9.883,-2.17 -14.832,-3.23 -13.711,-2.91 -27.519,-5.32 -41.363,-7.52 1.777,3.52 3.539,7.04 5.281,10.58 2.649,5.38 4.965,10.96 7.277,16.5 2.141,5.1 4.313,10.21 6.219,15.39 4.035,10.99 7.813,22.03 11.567,33.11 3.445,10.2 6.406,20.54 9.718,30.78 3.434,10.55 7.059,21.06 10.024,31.75 1.582,5.71 3.117,11.43 4.625,17.15 1.523,5.75 2.664,11.61 3.898,17.41 2.383,11.24 4.778,22.49 6.196,33.91 1.347,10.9 2.894,21.89 3.07,32.89 0.015,1.04 -0.008,2.08 0.004,3.12 4.176,0.84 8.386,1.5 12.547,2.43 10.929,2.46 21.761,5.31 32.562,8.27 4.836,1.33 9.688,2.58 14.512,3.97 6.078,1.73 12.078,3.58 18.09,5.55 10.867,3.56 21.547,7.78 32.027,12.37 10.44,4.56 20.67,9.58 31.07,14.2 8.07,3.57 16.15,7.08 24.22,10.63 0,-18.69 -0.01,-37.38 -0.6,-56.06 -0.34,-11.18 -1.15,-22.3 -2.12,-33.43 z m -55.23,-201.47 c -4.13,-8.26 -8.66,-16.21 -13.56,-24.03 -4.77,-7.64 -10.06,-14.9 -15.479,-22.07 -2.422,-3.12 -4.824,-6.25 -7.223,-9.38 -3.226,-4.05 -6.426,-8.11 -9.738,-12.07 -3.512,-4.2 -7.129,-8.3 -10.723,-12.43 -3.484,-4.01 -7.078,-7.95 -10.648,-11.91 -3.606,-4.01 -7.024,-8.21 -10.531,-12.3 -3.594,-4.18 -7.278,-8.25 -11.055,-12.27 -3.758,-3.97 -7.778,-7.61 -11.86,-11.25 -3.918,-3.49 -8.136,-6.72 -12.265,-9.94 -4.266,-3.34 -8.453,-6.78 -12.66,-10.17 -5.371,-4.33 -10.727,-8.66 -16.149,-12.91 -4.66,-3.46 -9.344,-6.88 -14.09,-10.22 -4.929,-3.48 -10.148,-6.55 -15.343,-9.64 -9.606,-5.68 -19.442,-11.05 -29.629,-15.65 -9.364,-3.51 -18.903,-6.53 -28.434,-9.57 -10.195,-3.24 -20.367,-6.53 -30.609,-9.59 -9.465,-2.83 -19.231,-4.84 -28.903,-6.77 -10.308,-2.06 -20.57,-4.13 -30.957,-5.67 -7.418,-0.89 -14.875,-1.57 -22.343,-2.02 3.187,2.17 6.308,4.45 9.101,7.06 8.266,7.74 15.321,16.73 22.774,25.22 3.718,4.24 7.847,8.19 11.742,12.26 4,4.16 7.582,8.77 11.219,13.23 6.664,8.18 13.171,16.43 20.16,24.32 5.019,5.67 10.066,11.26 14.902,17.08 4.715,5.67 9.125,11.62 13.617,17.47 3.203,4.09 6.567,8.08 9.867,12.1 3.918,4.75 7.477,9.83 11.055,14.84 6.293,8.85 11.86,18.25 17.43,27.57 5.215,8.69 9.656,17.78 14.055,26.9 0.671,0.09 1.343,0.17 2.015,0.27 10.871,1.48 21.695,3.47 32.52,5.29 21.644,3.62 43.074,8.58 64.082,14.98 5.718,1.73 11.308,3.84 16.855,6.05 5.606,2.23 11.195,4.47 16.778,6.75 5.191,2.13 10.406,4.18 15.578,6.33 0.851,0.23 1.679,0.57 2.468,1.03 0.204,0.09 0.407,0.17 0.614,0.26 0.613,0.19 1.215,0.45 1.789,0.75 0.371,0.16 0.742,0.32 1.113,0.48 -0.363,-0.16 -0.727,-0.31 -1.094,-0.47 0.008,0.01 0.016,0.01 0.016,0.01 1.734,0.74 3.461,1.47 5.187,2.21 13.606,5.21 27.386,9.98 40.316,16.76 0.93,0.48 1.8,1.06 2.72,1.56 -0.71,-1.46 -1.33,-2.96 -2.05,-4.41 -4.32,-8.63 -8.33,-17.41 -12.63,-26.04 z M 576.301,6571.67 c -9.973,1 -19.914,2.11 -29.852,3.3 -4.898,0.73 -9.769,1.46 -14.617,2.46 -5.723,1.16 -11.406,2.47 -17.09,3.79 -11.105,2.57 -22.043,5.8 -32.984,8.96 -10.289,2.99 -20.391,6.58 -30.473,10.16 -10.555,3.76 -20.972,7.81 -31.355,12.02 -9.926,4.39 -19.754,8.92 -29.434,13.84 -5.484,2.79 -10.867,5.71 -16.254,8.69 -5.09,2.83 -10.043,5.87 -15.019,8.89 -9.496,5.74 -19.114,11.26 -28.75,16.77 -4.789,2.76 -9.426,5.83 -14.125,8.72 -2.266,1.4 -4.383,3.09 -6.559,4.63 -2.187,1.55 -4.391,3.09 -6.59,4.65 -4.109,3.38 -8.226,6.75 -12.336,10.13 -1.742,1.44 -3.347,3.06 -5.019,4.59 -2.746,2.52 -5.489,5.03 -8.242,7.54 -4.282,3.92 -8.235,8.26 -12.325,12.38 -3.953,3.98 -7.722,8.19 -11.554,12.29 -15.36,16.41 -29.379,34.09 -43.203,51.79 -1.274,1.63 -2.547,3.26 -3.817,4.89 -2.914,4.03 -5.824,8.07 -8.726,12.11 -2.2,3.03 -4.188,6.16 -6.188,9.34 -2.23,3.52 -4.566,6.98 -6.648,10.59 -2.93,5.05 -5.86,10.12 -8.778,15.18 -2.246,3.89 -4.23,7.96 -6.336,11.94 -1.976,3.77 -3.906,7.54 -5.8,11.35 -1.895,3.82 -3.918,7.6 -5.629,11.51 -1.899,4.38 -3.801,8.75 -5.703,13.12 -2.106,5.44 -4.215,10.86 -6.34,16.29 -0.02,0.05 -0.032,0.1 -0.051,0.15 0.094,-0.06 0.187,-0.13 0.277,-0.2 4.559,-3.38 9.102,-6.77 13.742,-10.04 8.942,-6.29 18.297,-11.77 27.879,-17.02 9.543,-5.25 19.379,-9.82 29.215,-14.5 9.66,-4.59 19.149,-9.57 28.875,-14.02 10.988,-5.01 22.094,-9.64 33.43,-13.8 10.914,-4 22.039,-7.43 33.051,-11.17 10.683,-3.63 21.504,-6.8 32.269,-10.17 10.789,-3.4 21.52,-6.91 32.238,-10.49 2.715,-0.91 5.461,-1.69 8.18,-2.58 1.184,-2.19 2.344,-4.4 3.559,-6.57 4.801,-8.57 9.613,-17.14 14.543,-25.65 2.582,-4.45 5.218,-8.84 7.918,-13.23 2.558,-4.15 5.324,-8.15 8.07,-12.18 5.16,-7.57 10.746,-14.82 16.359,-22.06 0.239,-0.3 0.473,-0.61 0.711,-0.92 0.164,-0.21 0.328,-0.42 0.493,-0.63 6.886,-8.92 13.824,-17.82 20.847,-26.64 6.531,-8.22 14.02,-15.74 21.438,-23.17 8.011,-8.03 16.054,-16.03 24.019,-24.11 2.313,-2.33 4.613,-4.67 6.93,-7.01 2.066,-2.11 4.348,-4.04 6.519,-6.06 4.2,-3.88 8.801,-7.45 13.454,-10.78 7.031,-5.05 14.226,-9.9 21.55,-14.5 7.442,-4.69 14.907,-9.35 22.602,-13.61 7.351,-4.09 14.558,-8.37 21.816,-12.59 -6.742,0.47 -13.476,0.96 -20.187,1.63 z m -157.668,41.22 c -0.035,0.01 -0.063,0.03 -0.094,0.04 0.125,-0.05 0.25,-0.1 0.375,-0.16 -0.094,0.04 -0.187,0.08 -0.281,0.12 z m -30.379,669.21 c 1.398,2.46 2.867,4.88 4.289,7.33 16.957,-3.73 33.98,-7.09 51.105,-9.95 11.165,-1.84 22.489,-2.91 33.762,-3.83 10.965,-0.9 21.93,-1.6 32.914,-2.11 23.078,-1.09 46.18,-1.06 69.278,-1.07 3.746,0 7.5,0 11.246,0 -0.035,-4.81 -0.125,-9.62 -0.145,-14.43 -0.023,-4.83 -0.047,-9.68 -0.023,-14.52 0.015,-3.34 0.035,-6.67 0.047,-10.01 0.011,-2.73 0.293,-5.47 0.445,-8.19 0.648,-11.73 1.777,-23.42 2.683,-35.12 0.848,-11.09 1.629,-22.19 2.442,-33.27 0.777,-10.53 1.012,-21.12 1.558,-31.65 1.208,-23.45 2.524,-46.89 3.825,-70.33 0.383,-6.9 0.746,-13.81 1.117,-20.72 -42.645,1.7 -85.184,5.92 -127.645,10.02 -9.488,0.92 -18.972,1.68 -28.461,2.58 -9.293,0.87 -18.57,2.13 -27.832,3.26 -10.496,1.5 -20.968,3.14 -31.421,4.93 -11.153,1.93 -22.325,3.59 -33.415,5.85 -5.23,1.07 -10.406,2.52 -15.578,3.83 -2.496,0.62 -4.992,1.21 -7.492,1.82 0.027,3 -0.023,6.01 0.035,9.01 0.43,23.08 1.867,46.13 4.719,69.04 0.145,1.16 0.289,2.31 0.434,3.47 0.461,3.1 0.933,6.2 1.402,9.32 0.5,3.33 1.266,6.64 1.918,9.96 1.266,6.38 3.023,12.68 4.742,18.96 3.219,11.77 7.723,23.11 12.395,34.36 4.648,10.15 9.433,20.18 14.601,30.08 5.512,10.55 11.184,21.01 17.055,31.38 z m 187.894,227.11 c 4.348,3.26 8.817,6.23 13.723,8.62 2.426,0.9 4.879,1.58 7.422,2.05 0.5,0.05 1.004,0.05 1.5,0.09 -0.301,-2.62 -0.523,-5.26 -0.66,-7.85 -0.289,-5.6 -0.477,-11.19 -0.582,-16.81 -0.219,-11.43 -0.602,-22.86 -1.043,-34.27 -0.852,-22.02 -1.793,-44.05 -2.211,-66.08 -0.223,-11.53 -0.535,-23.06 -0.848,-34.59 -0.293,-10.91 -0.918,-21.8 -1.281,-32.7 -0.367,-11.46 -0.867,-22.9 -1.109,-34.37 -9.539,0 -19.079,0.01 -28.618,0.02 -10.836,0.02 -21.703,-0.05 -32.539,0.3 -13.8,0.47 -27.586,1.04 -41.363,1.99 -6.035,0.42 -12.07,0.91 -18.09,1.49 -6.601,0.63 -13.152,1.41 -19.719,2.22 -10.773,1.8 -21.535,3.64 -32.261,5.77 -4.985,0.98 -9.93,2.15 -14.895,3.22 0.512,0.87 1.016,1.74 1.528,2.61 5.418,9.24 10.972,18.42 16.75,27.44 8.578,13.39 17.73,26.34 27.25,39.07 2.968,3.68 5.89,7.43 8.953,11.02 3.965,4.64 7.929,9.28 11.929,13.88 7.114,8.2 13.715,16.82 20.903,24.95 4.125,4.68 8.277,9.26 12.613,13.74 3.648,3.77 7.441,7.41 11.012,11.23 3.926,4.21 7.879,8.41 11.82,12.61 1.559,1.67 3.106,3.34 4.723,4.96 2.207,2.21 4.332,4.58 6.672,6.66 5.566,4.92 11.207,9.71 16.878,14.5 7.188,6.06 14.215,12.33 21.543,18.23 z M 441.109,6774.84 c 10.477,-2.15 20.973,-4.04 31.551,-5.63 11.676,-1.76 23.348,-3.66 35.098,-4.85 11.152,-1.13 22.289,-2.33 33.437,-3.39 11.371,-1.09 22.774,-1.55 34.168,-2.36 11.383,-0.8 22.727,-1.51 34.145,-1.8 3.75,-0.09 7.504,-0.18 11.254,-0.3 0.129,-2.37 0.258,-4.75 0.39,-7.13 0.618,-11.01 1.106,-21.99 1.418,-33.01 0.325,-11.46 1.395,-22.86 2.325,-34.26 0.441,-5.33 0.652,-10.68 0.898,-16 0.23,-5.23 0.695,-10.45 1.172,-15.67 1.023,-11.21 2.058,-22.44 2.777,-33.68 0.352,-5.44 0.899,-10.85 1.524,-16.27 0.57,-5.03 0.906,-10.09 1.488,-15.11 0.527,-4.52 0.941,-9.06 1.391,-13.59 0,0 -0.004,0.01 -0.008,0.02 -1.231,2.11 -3.707,4.41 -6.231,4.79 -0.179,0.03 -0.363,0.06 -0.551,0.09 -6.949,3.8 -13.906,7.61 -20.757,11.58 -7.5,4.35 -14.953,8.75 -22.532,12.97 -7.8,4.32 -15.347,9.12 -22.89,13.88 -7.313,4.6 -14.422,9.51 -21.438,14.53 -1.945,1.58 -3.879,3.16 -5.812,4.73 -1.988,1.61 -3.805,3.42 -5.688,5.15 -3.636,3.36 -7.043,6.93 -10.531,10.44 -8.129,8.22 -16.312,16.38 -24.473,24.56 -7.046,7.06 -14.125,14.26 -20.347,22.07 -6.731,8.46 -13.356,17 -19.985,25.53 -2.226,2.88 -4.457,5.76 -6.683,8.63 -2.809,3.66 -5.489,7.47 -8.078,11.29 -3.465,5.07 -6.848,10.14 -10.071,15.37 -4.769,7.75 -9.222,15.7 -13.687,23.64 8.84,-2.35 17.765,-4.38 26.726,-6.22 z m -45.101,40.32 c -4.641,10.11 -9.113,20.27 -13.512,30.48 -8.527,21.25 -16.535,42.69 -24.34,64.19 -1.711,4.71 -3.152,9.56 -4.605,14.35 -1.559,5.16 -3.172,10.31 -4.625,15.51 -3.289,11.73 -6.266,23.51 -9.106,35.36 -2.851,11.86 -4.91,23.86 -6.836,35.88 -1.125,10.43 -2.023,20.89 -2.117,31.39 -0.004,0.93 0.02,1.86 0.012,2.79 4.594,-1.12 9.176,-2.29 13.762,-3.43 5.418,-1.34 10.906,-2.3 16.39,-3.32 5.364,-0.97 10.754,-1.72 16.114,-2.62 5.293,-0.88 10.582,-1.83 15.871,-2.67 11.554,-1.82 23.101,-3.5 34.703,-4.89 5.57,-0.66 11.148,-1.45 16.73,-1.98 6.184,-0.58 12.367,-1.14 18.555,-1.68 21.902,-1.92 43.781,-4.22 65.684,-6.18 22.355,-1.98 44.792,-3.62 67.207,-4.76 2.687,-0.14 5.382,-0.1 8.07,-0.19 0.453,-8.03 0.894,-16.05 1.422,-24.08 0.781,-11.85 1.758,-23.7 2.605,-35.56 0.848,-11.68 1.707,-23.37 2.688,-35.04 1.847,-21.9 3.136,-43.87 4.429,-65.82 0.707,-11.94 1.579,-23.87 2.348,-35.81 0.731,-11.2 1.137,-22.43 1.836,-33.62 0.125,-2.05 0.219,-4.09 0.336,-6.14 -6.52,0.14 -13.035,0.29 -19.539,0.59 -11.149,0.53 -22.262,1.53 -33.399,2.12 -11.382,0.59 -22.695,1.42 -34.015,2.66 -12.067,1.33 -24.145,2.4 -36.199,3.86 -10.465,1.53 -20.969,2.94 -31.372,4.83 -11.136,2.01 -22.203,4.3 -33.261,6.71 -10.668,2.33 -21.156,5.36 -31.571,8.65 -1.441,2.8 -2.953,5.57 -4.265,8.42 z m 371.965,-124.11 c -0.379,-0.49 -0.758,-0.97 -1.133,-1.46 0.355,0.45 0.711,0.91 1.062,1.37 -0.476,-0.62 -0.953,-1.24 -1.429,-1.86 0.121,0.17 0.246,0.33 0.367,0.49 -2.996,-3.85 -6.027,-7.65 -9.145,-11.41 -3.371,-4.06 -6.988,-7.91 -10.476,-11.85 -7.313,-8.23 -14.219,-16.76 -21.114,-25.34 -3.683,-4.6 -7.484,-9.05 -11.378,-13.47 -3.711,-4.22 -7.813,-8.17 -11.707,-12.23 -3.872,-4.03 -7.348,-8.48 -11.024,-12.7 -3.43,-3.93 -6.836,-7.96 -10.648,-11.51 -1.211,-1.14 -2.442,-2.22 -3.7,-3.28 -3.386,-2.38 -6.816,-4.68 -10.32,-6.88 -3.695,-2.33 -7.605,-4.33 -11.242,-6.75 -0.445,-0.29 -0.75,-0.7 -1.148,-1.03 -0.079,0.84 -0.165,1.68 -0.247,2.52 -0.488,5.14 -1.183,10.27 -1.671,15.4 -0.477,5.12 -1.059,10.21 -1.582,15.33 -0.559,5.46 -0.864,10.93 -1.278,16.4 -0.863,11.04 -1.894,22.08 -2.84,33.12 -0.941,11.13 -1.265,22.29 -2.172,33.41 -0.918,11.12 -1.605,22.2 -1.918,33.35 -0.324,11.11 -1,22.2 -1.617,33.3 22.598,-0.36 45.219,-0.28 67.817,-0.28 11.066,0 22.125,-0.02 33.179,0.07 10.883,0.08 21.801,1.16 32.61,2.25 8.781,0.88 17.59,1.63 26.347,2.76 -0.527,-0.07 -1.054,-0.14 -1.582,-0.21 3.567,0.47 7.137,0.95 10.707,1.43 -0.929,-0.13 -1.847,-0.25 -2.765,-0.38 2.98,0.39 5.957,0.8 8.937,1.19 -0.023,-0.04 -0.043,-0.08 -0.062,-0.13 -4.547,-9.23 -10.207,-17.97 -15.66,-26.68 -5.336,-8.52 -11,-16.76 -17.071,-24.76 -5.433,-6.63 -10.769,-13.31 -16.019,-20.08 0.015,0.02 0.031,0.04 0.047,0.06 -0.039,-0.05 -0.082,-0.11 -0.125,-0.16 z m 62.66,99.86 c -0.985,-1.93 -1.899,-3.9 -2.863,-5.85 -1.133,-0.15 -2.262,-0.35 -3.395,-0.51 -6.461,-0.81 -12.922,-1.63 -19.383,-2.5 0.922,0.13 1.852,0.25 2.77,0.38 -2.699,-0.36 -5.399,-0.72 -8.094,-1.08 -21.875,-2.38 -43.801,-4.83 -65.836,-4.83 -22.437,0 -44.875,-0.07 -67.312,0.03 -8.672,0.05 -17.344,0.21 -26.016,0.37 -0.848,16.13 -1.699,32.26 -2.75,48.38 -1.418,21.83 -2.719,43.66 -4.231,65.5 -1.628,23.59 -3.57,47.14 -5.257,70.73 -0.743,10.4 -1.672,20.8 -2.266,31.21 -0.383,6.72 -0.762,13.43 -1.141,20.14 12.813,-0.11 25.625,-0.07 38.43,-0.07 21.836,0 43.668,-0.08 65.5,0.12 11.106,0.09 22.203,0.22 33.285,0.92 11.196,0.7 22.391,1.46 33.563,2.38 22.914,1.87 45.761,4.35 68.676,6.23 11.941,0.98 23.765,3.01 35.593,4.92 -0.019,-0.61 0.016,-1.23 -0.031,-1.84 -0.219,-3.2 -0.441,-6.4 -0.66,-9.6 -0.383,-5.48 -1.199,-10.96 -1.86,-16.4 -0.097,-0.77 -0.187,-1.53 -0.285,-2.3 -0.879,-5.5 -1.789,-10.99 -2.808,-16.48 -0.965,-5.22 -2.153,-10.4 -3.254,-15.59 -2.43,-11.44 -5.371,-22.71 -8.488,-33.98 -2.872,-10.35 -6.547,-20.44 -9.731,-30.69 -3.348,-10.77 -6.613,-21.57 -10.23,-32.24 -2.825,-8.36 -5.582,-16.73 -8.625,-25.01 -2.954,-8.01 -6.129,-15.91 -9.414,-23.77 -4.387,-9.65 -9.075,-19.12 -13.887,-28.57 z m -3.66,516.2 c 5.625,-9.35 10.566,-19.07 15.797,-28.64 4.871,-8.92 9.601,-17.85 13.683,-27.16 4.352,-9.9 9.36,-19.49 13.852,-29.32 6.019,-14.63 11.215,-29.56 15.597,-44.78 2.254,-7.79 3.942,-15.75 5.578,-23.69 1.54,-7.4 2.958,-14.78 4.067,-22.25 1.199,-10.48 2.125,-20.98 3.039,-31.49 0.953,-11.14 1.23,-22.3 1.359,-33.47 0.067,-5.94 0.02,-11.89 0.039,-17.84 -3.195,-0.55 -6.386,-1.11 -9.586,-1.63 -4.773,-0.78 -9.546,-1.52 -14.32,-2.26 -5.207,-0.6 -10.398,-1.17 -15.629,-1.6 -5.636,-0.46 -11.285,-0.98 -16.926,-1.49 -11.429,-1.03 -22.832,-2.27 -34.25,-3.31 -10.718,-0.98 -21.46,-1.73 -32.191,-2.5 -11.055,-0.79 -22.121,-1.49 -33.203,-1.71 -22.137,-0.44 -44.27,-0.33 -66.406,-0.33 -11.149,0 -22.309,0 -33.457,0 -6.774,0 -13.551,-0.01 -20.328,0.02 -1.165,20.83 -2.282,41.66 -3.465,62.49 -0.618,10.77 -1.188,21.55 -1.696,32.32 -0.558,11.64 -1.011,23.28 -1.863,34.91 -0.871,11.83 -1.73,23.67 -2.648,35.52 -0.446,5.73 -0.942,11.46 -1.43,17.2 -0.469,5.51 -0.688,11.05 -1,16.58 -0.281,5 -0.082,10.05 -0.07,15.05 0.011,6.01 0.023,12.01 0.047,18.01 0.007,2.24 0.07,4.48 0.089,6.72 0.325,0 0.645,0 0.965,0 10.582,0 21.113,0.68 31.649,1.67 12.332,1.16 24.621,2.63 36.851,4.62 11.36,1.85 22.59,4.36 33.879,6.59 10.59,2.11 21.18,4.21 31.774,6.27 5.46,1.07 10.972,1.98 16.414,3.15 5.57,1.2 11.125,2.45 16.707,3.63 10.996,2.3 21.879,5.41 32.609,8.69 4.043,1.24 7.98,2.72 11.93,4.17 0.84,-1.38 1.711,-2.75 2.543,-4.14 z m -55.297,82.71 c 0.293,-0.37 0.586,-0.75 0.875,-1.13 0.222,-0.29 0.441,-0.57 0.664,-0.86 -0.516,0.67 -1.031,1.33 -1.539,1.99 z m -91.703,93.64 c 1.843,-1.44 3.695,-2.89 5.55,-4.33 2.372,-1.87 4.59,-3.98 6.872,-5.95 4.031,-3.5 7.808,-7.36 11.683,-11.05 7.801,-7.44 15.461,-15.04 23.215,-22.54 8.113,-7.84 15.836,-16.02 23.414,-24.37 7.363,-8.11 14.18,-16.67 20.895,-25.31 6.761,-9.09 13.246,-18.38 19.886,-27.57 3.328,-4.61 6.641,-9.21 9.883,-13.87 3.106,-4.48 5.871,-9.21 8.699,-13.86 1.082,-1.79 2.184,-3.56 3.278,-5.34 -4.285,-1.43 -8.602,-2.79 -12.938,-4.05 -5.722,-1.64 -11.476,-3.16 -17.23,-4.68 -5.129,-1.38 -10.348,-2.38 -15.52,-3.53 -10.66,-2.36 -21.402,-4.37 -32.137,-6.39 -11.144,-2.09 -22.261,-4.42 -33.386,-6.64 -6.953,-1.38 -13.879,-2.85 -20.832,-4.2 -6.153,-1.2 -12.387,-1.98 -18.586,-2.85 -10.688,-1.28 -21.406,-2.42 -32.16,-3.05 -6.204,-0.37 -12.411,-0.5 -18.621,-0.56 0.039,2.14 0.046,4.28 0.089,6.41 0.453,22.74 1.836,45.47 2.453,68.21 0.59,21.63 1.024,43.28 1.836,64.92 0.852,22.48 1.629,44.96 2.172,67.46 0.157,6.02 0.383,12.05 0.996,18.04 0.329,2.04 0.879,4.02 1.422,6 2.258,-0.47 4.457,-1.16 6.606,-1.98 4.23,-2 8.097,-4.49 11.89,-7.23 9.758,-7.72 19.446,-15.52 29.364,-23.03 3.718,-2.91 7.461,-5.78 11.207,-8.66 z M 147.906,7104.24 c 3.188,-1.36 6.367,-2.74 9.422,-4.36 4.953,-2.67 10.113,-5 15.32,-7.11 9.864,-3.97 20.012,-6.97 30.02,-10.5 9.895,-3.5 19.844,-6.74 29.902,-9.72 10.438,-3.09 20.797,-6.42 31.239,-9.5 10.394,-3.06 20.879,-5.78 31.296,-8.78 4.965,-1.43 9.958,-2.74 14.958,-4.02 0.117,-15.86 0.75,-31.69 3.242,-47.41 3.59,-22.66 8.879,-44.95 15.062,-67.03 2.934,-10.47 6.281,-20.81 9.571,-31.17 1.605,-5.03 3.593,-9.99 5.441,-14.93 2.082,-5.55 4.164,-11.08 6.242,-16.62 4.211,-11.19 8.5,-22.34 12.965,-33.43 3.254,-8.06 6.801,-16 10.394,-23.92 -1.796,0.6 -3.593,1.21 -5.39,1.81 -16.043,5.3 -32.332,9.84 -48.317,15.27 -8.558,2.91 -17.136,5.72 -25.718,8.56 -7.918,2.6 -15.684,5.73 -23.465,8.76 -9.824,4.29 -19.555,8.73 -29.141,13.54 -9.453,4.73 -19.078,9.09 -28.562,13.76 -9.699,4.77 -19.219,9.99 -28.485,15.56 -9.39,5.64 -18.031,12.36 -26.902,18.76 -5.043,3.64 -10.113,7.26 -15.172,10.87 -1.234,0.88 -2.863,1.26 -4.492,1.35 -0.359,1.35 -0.715,2.7 -1.082,4.06 -0.758,2.78 -1.094,5.74 -1.641,8.55 -0.558,2.97 -1.133,5.93 -1.691,8.89 -0.641,5.51 -1.281,11.02 -1.922,16.54 -0.211,1.72 -0.211,3.47 -0.293,5.21 -0.184,4.01 -0.383,8.03 -0.566,12.04 -0.27,5.57 -0.153,11.16 -0.176,16.73 -0.024,5.51 0.035,11.02 0.07,16.53 0.078,10.81 0.207,21.63 0.653,32.43 0.207,5.38 0.359,10.75 0.777,16.12 0.453,5.72 0.687,11.5 1.383,17.19 0.769,6.3 1.543,12.61 2.324,18.91 0.699,3.75 1.371,7.52 2.058,11.27 3.555,-1.41 7.129,-2.77 10.676,-4.21 z m -38.168,-134.19 c 0.114,-2.48 0.242,-4.95 0.348,-7.43 0.141,-2.85 0.676,-5.74 1.012,-8.58 0.695,-6.08 1.359,-12.11 2.507,-18.12 1.047,-5.5 1.93,-11.04 3.375,-16.46 1.442,-5.41 2.696,-10.89 4.45,-16.2 1.781,-5.37 3.351,-10.87 5.394,-16.15 2.434,-6.22 4.699,-12.53 7.348,-18.65 2.375,-5.46 4.766,-10.92 7.141,-16.39 1.042,-2.43 2.371,-4.77 3.542,-7.13 1.489,-2.98 2.969,-5.97 4.442,-8.94 5.305,-10.68 11.289,-20.96 17.254,-31.28 2.758,-4.76 5.812,-9.37 8.754,-14.02 2.894,-4.57 6.082,-8.88 9.242,-13.27 6.629,-9.2 13.637,-18.14 20.742,-26.98 7.184,-8.94 14.332,-17.92 21.938,-26.5 7.519,-8.49 14.984,-17.09 22.984,-25.15 2.43,-2.45 4.871,-4.92 7.312,-7.37 1.684,-1.7 3.325,-3.49 5.09,-5.12 4.489,-4.1 8.977,-8.2 13.465,-12.31 1.918,-1.76 4.059,-3.33 6.067,-4.98 2.523,-2.07 5.058,-4.15 7.578,-6.24 2.246,-1.84 4.699,-3.45 7.07,-5.12 2.93,-2.07 5.859,-4.13 8.789,-6.2 1.766,-1.24 3.699,-2.3 5.535,-3.44 2.906,-1.79 5.801,-3.58 8.696,-5.36 4.523,-2.79 9.253,-5.23 13.824,-7.93 4.636,-2.74 9.289,-5.45 13.902,-8.23 4.848,-2.94 9.649,-5.97 14.613,-8.72 5.301,-2.94 10.59,-5.88 15.996,-8.64 5.524,-2.81 11.071,-5.53 16.672,-8.19 10.153,-4.85 20.567,-9.4 31.086,-13.36 5.399,-2.04 10.77,-4.11 16.184,-6.03 5.223,-1.85 10.394,-3.88 15.664,-5.59 21.309,-6.89 42.84,-13.38 64.812,-17.88 2.93,-0.59 5.86,-1.19 8.789,-1.8 3.102,-0.63 6.313,-0.93 9.45,-1.39 5.465,-0.82 10.953,-1.46 16.437,-2.06 11.371,-1.24 22.754,-2.35 34.156,-3.24 11.059,-0.86 22.137,-1.78 33.215,-2.21 11.395,-0.46 22.778,-0.63 34.168,-0.7 5.723,-0.04 11.442,-0.04 17.149,0.01 5.699,0.05 11.371,0.48 17.054,0.91 11.883,0.89 23.696,2.67 35.403,4.78 5.629,1.01 11.218,2.26 16.808,3.38 5.258,1.05 10.477,2.21 15.684,3.41 10.984,2.54 21.695,6.02 32.449,9.39 10.395,3.25 20.738,6.67 31.074,10.08 11.231,3.7 21.766,8.94 32.063,14.69 9.512,5.32 18.961,10.7 27.871,16.99 9.355,6.6 18.367,13.64 27.281,20.82 4.41,3.55 8.805,7.08 13.184,10.65 4.035,3.28 8.187,6.42 12.195,9.72 4.363,3.59 8.676,7.21 12.66,11.21 3.953,3.95 7.805,7.98 11.489,12.18 3.511,4.01 6.964,8.08 10.414,12.14 3.339,3.93 6.863,7.68 10.265,11.56 7.071,8.05 14.141,16.07 20.816,24.45 3.15,3.98 6.26,7.97 9.34,12 3.67,4.72 7.31,9.47 10.85,14.29 3.27,4.45 6.27,9.08 9.27,13.72 6.11,9.43 11.25,19.36 16.27,29.4 2.36,4.73 4.59,9.53 6.85,14.32 2.23,4.72 4.77,9.32 6.95,14.06 4.03,8.72 7.92,17.55 11.4,26.53 0.29,0.18 0.56,0.4 0.86,0.58 4.54,2.75 6.23,8.46 4.08,13.24 2.7,8.21 5.24,16.49 7.73,24.78 1.61,5.38 2.81,10.93 4.07,16.41 1.17,5.06 2.39,10.14 3.33,15.25 2.01,10.94 3.68,21.92 5.2,32.94 0.92,6.69 1.82,13.35 2.5,20.06 0.59,5.92 1.1,11.84 1.61,17.77 0.93,10.79 1.97,21.56 2.55,32.38 0.59,10.98 0.88,21.97 0.98,32.97 0.2,22.85 0.17,45.7 0.17,68.55 0,5.14 -0.03,10.27 -0.28,15.4 -0.29,5.92 -0.79,11.76 -1.35,17.67 -0.55,5.87 -1.43,11.77 -2.39,17.59 -0.97,5.74 -1.94,11.45 -3.3,17.11 -1.22,5.13 -2.92,10.16 -4.61,15.15 -1.93,5.7 -3.87,11.39 -5.81,17.07 -1.56,4.58 -3.18,9.13 -4.96,13.61 -1.13,2.86 -2.25,5.71 -3.39,8.55 -1.44,3.67 -3.19,7.21 -4.82,10.78 -2.2,4.83 -4.78,9.5 -7.21,14.21 -2.49,4.8 -5.1,9.52 -7.56,14.33 -2.65,5.18 -5.13,10.43 -7.75,15.61 -2.47,4.88 -5.03,9.7 -7.61,14.54 -5.22,9.8 -11.18,19.16 -17.05,28.59 -5.47,8.78 -10.84,17.63 -16.65,26.21 -3.36,4.98 -7.27,9.54 -11.2,14.05 -3.698,4.24 -7.397,8.48 -11.151,12.68 -4.02,4.5 -8.09,8.97 -12.121,13.47 -0.508,1.08 -1.133,2.12 -1.993,2.98 -0.504,0.5 -1.156,0.78 -1.746,1.16 -2.031,2.24 -4.004,4.54 -6.066,6.75 -7.313,7.82 -15.383,14.91 -23.684,21.68 -4.172,3.4 -8.277,6.87 -12.519,10.18 -4.7,3.69 -9.555,7.13 -14.461,10.55 -4.883,3.39 -9.77,6.77 -14.582,10.27 -4.52,3.28 -8.961,6.68 -13.543,9.89 -4.188,2.93 -8.418,5.9 -12.789,8.57 -4.977,3.04 -10.043,5.89 -15.137,8.75 -10.332,5.8 -21.238,10.52 -32.281,14.81 -4.828,1.88 -9.801,3.47 -14.719,5.08 -5.652,1.85 -11.277,3.76 -16.973,5.46 -10.789,3.23 -21.73,5.98 -32.601,8.9 -10.719,2.88 -21.531,5.39 -32.399,7.68 -5.5,1.15 -11.047,2.09 -16.582,3.06 -4.902,0.85 -9.808,1.74 -14.738,2.45 -11.605,1.64 -23.184,2.96 -34.855,3.91 -9.52,0.78 -19.02,1.6 -28.551,2.05 -9.895,0.46 -19.789,1.17 -29.684,1.47 -0.097,0 -0.199,0.01 -0.301,0.01 -3.23,0 -6.132,-1.7 -7.992,-4.19 -1.269,0.04 -2.539,0.07 -3.808,0.09 -9.055,0.1 -18.133,-1.22 -27.098,-2.38 -4.289,-0.56 -8.523,-1.18 -12.742,-2.13 -2.254,-0.52 -4.477,-1.09 -6.719,-1.64 -3.723,-0.91 -7.441,-1.83 -11.172,-2.73 -5.476,-1.35 -10.953,-2.75 -16.43,-4.12 -5.429,-1.37 -10.777,-3.14 -16.16,-4.72 -5.535,-1.61 -11.008,-3.52 -16.508,-5.28 -5.488,-1.75 -10.953,-3.66 -16.414,-5.5 -5.117,-1.7 -10.128,-3.69 -15.171,-5.61 -5.254,-2 -10.407,-4.08 -15.532,-6.38 -3.523,-1.6 -7.047,-3.18 -10.57,-4.77 -1.625,-0.73 -3.301,-1.41 -4.891,-2.23 -6.211,-3.22 -12.406,-6.46 -18.617,-9.71 -4.23,-2.21 -8.344,-4.64 -12.484,-7.02 -10.86,-6.25 -21.68,-12.54 -32.504,-18.84 -10.535,-6.12 -20.942,-12.47 -30.844,-19.57 -8.012,-5.75 -15.742,-11.85 -23.289,-18.18 -5.172,-4.34 -10.355,-8.68 -15.531,-13.02 -4.313,-3.63 -8.426,-7.53 -12.637,-11.28 -3.402,-3.05 -6.941,-5.98 -10.137,-9.24 -5.218,-5.32 -10.429,-10.64 -15.648,-15.97 -7.555,-7.71 -14.59,-15.94 -21.82,-23.95 -3.676,-4.07 -7.059,-8.44 -10.571,-12.63 -3.437,-4.12 -7.043,-8.14 -10.183,-12.49 -11.196,-15.46 -22.551,-30.73 -32.028,-47.34 -4.859,-8.52 -9.183,-17.29 -13.324,-26.17 -2.383,-5.11 -4.894,-10.17 -7.137,-15.33 -4.976,-11.48 -9.953,-22.93 -14.578,-34.56 -1.929,-4.86 -4.047,-9.68 -5.757,-14.62 -2.336,-6.73 -4.672,-13.46 -7.02,-20.2 -1.676,-4.84 -2.988,-9.81 -4.43,-14.72 -1.371,-4.61 -2.777,-9.18 -3.847,-13.86 -1.477,-6.44 -2.942,-12.88 -4.418,-19.32 -0.43,-1.86 -0.711,-3.77 -1.059,-5.64 -0.766,-4.13 -1.535,-8.25 -2.301,-12.37 -1,-5.42 -1.664,-10.86 -2.336,-16.35 -0.64,-5.22 -1.394,-10.42 -1.804,-15.67 -0.465,-5.88 -1.137,-11.79 -1.383,-17.69 -0.246,-6.26 -0.5,-12.51 -0.754,-18.77 -0.477,-11.85 -0.371,-23.75 -0.453,-35.61 -0.035,-5.53 0.023,-11.08 0.047,-16.61 0.023,-5.42 0.3,-10.8 0.558,-16.22"
         style="fill:#121213;fill-opacity:1;fill-rule:nonzero;stroke:none"
         id="path130" />
      <path
         d="m 436.418,6709.66 c -0.102,0.14 -0.203,0.27 -0.309,0.4 -0.101,0.14 -0.203,0.27 -0.304,0.4 0.203,-0.26 0.406,-0.53 0.613,-0.8"
         style="fill:#121213;fill-opacity:1;fill-rule:nonzero;stroke:none"
         id="path132" />
      <path
         d="m 437.102,6708.78 c -0.094,0.12 -0.188,0.24 -0.282,0.36 -0.136,0.18 -0.269,0.35 -0.402,0.52 0.227,-0.29 0.457,-0.59 0.684,-0.88"
         style="fill:#121213;fill-opacity:1;fill-rule:nonzero;stroke:none"
         id="path134" />
      <path
         d="m 437.43,6708.36 c -0.039,0.05 -0.078,0.1 -0.117,0.15 -0.071,0.09 -0.141,0.18 -0.211,0.27 0.109,-0.14 0.218,-0.28 0.328,-0.42"
         style="fill:#121213;fill-opacity:1;fill-rule:nonzero;stroke:none"
         id="path136" />
      <path
         d="m 947.246,7401.12 c 0.008,0 0.012,0.01 0.02,0.01 -0.61,-0.47 -1.223,-0.94 -1.825,-1.41 0.602,0.46 1.204,0.93 1.805,1.4"
         style="fill:#121213;fill-opacity:1;fill-rule:nonzero;stroke:none"
         id="path138" />
      <path
         d="m 959.566,7384.53 c -0.211,-0.17 -0.421,-0.33 -0.636,-0.5 0.039,0.03 0.078,0.06 0.113,0.09 0.18,0.14 0.363,0.28 0.543,0.42 -0.008,0 -0.012,0 -0.02,-0.01"
         style="fill:#121213;fill-opacity:1;fill-rule:nonzero;stroke:none"
         id="path140" />
      <path
         d="m 985.734,6826.62 c 0.028,0.01 0.047,0.02 0.071,0.03 -0.035,-0.01 -0.071,-0.03 -0.11,-0.04 0.016,0 0.028,0.01 0.039,0.01"
         style="fill:#121213;fill-opacity:1;fill-rule:nonzero;stroke:none"
         id="path142" />
    </g>
  </g>
</svg>
