<?xml version="1.0" encoding="UTF-8" standalone="no"?>
<!-- Created with Inkscape (http://www.inkscape.org/) -->

<svg
   version="1.1"
   id="svg2"
   width="159.68553"
   height="131.95856"
   viewBox="0 0 159.68553 131.95856"
   xmlns="http://www.w3.org/2000/svg"
   xmlns:svg="http://www.w3.org/2000/svg">
  <defs
     id="defs6" />
  <g
     id="g8"
     transform="matrix(1.3333333,0,0,-1.3333333,-122.10496,932.75728)">
    <g
       id="g10"
       transform="scale(0.1)">
      <path
         d="m 1737.5973,6952.6497 c 9.8247,-2.6462 19.4765,-6.1799 28.527,-10.8411 4.5953,-2.6739 8.8421,-5.6468 12.8583,-9.1411 4.0808,-4.0316 7.6756,-8.3829 10.8531,-13.1642 3.5835,-6.1351 6.3769,-12.5378 8.5463,-19.3108 1.3241,-4.5899 2.5163,-9.2404 3.4009,-13.9298 1.0159,-5.3263 1.7654,-10.6347 2.3071,-16.0361 0.3027,-2.8783 0.321,-5.8011 0.6846,-8.6698 0.304,-1.8554 1.032,-3.5117 2.2156,-4.9746 1.3028,-1.5757 3.49,-3.305 5.409,-4.0437 3.5418,-1.393 7.4652,-0.9138 11.1571,-0.7639 3.7515,0.1585 7.5688,0.7952 11.3079,1.2236 4.1876,0.4714 8.3881,0.8626 12.6053,1.0851 11.4328,0.049 22.7616,-1.6089 33.8872,-4.2209 11.4249,-3.0302 22.5356,-7.0816 32.9834,-12.5754 14.7134,-8.4519 27.5015,-19.5788 40.1061,-30.8255 4.1832,-4.1664 8.474,-8.2456 11.8362,-13.1098 2.4713,-4.478 4.2727,-9.2048 5.8232,-14.0723 1.152,-4.1407 2.1459,-8.3063 3.0047,-12.5139 0.7892,-3.8336 1.1259,-7.7491 1.2999,-11.6602 -0.037,-9.0976 -1.4807,-18.074 -3.5525,-26.9173 -2.6609,-10.2421 -6.1293,-20.1768 -11.0422,-29.561 -6.3767,-11.0033 -14.1837,-20.9061 -22.7836,-30.216 -0.9133,-0.9449 -1.8261,-1.8902 -2.7661,-2.7977 -0.6145,-0.594 -1.2193,-1.1853 -1.8341,-1.7791 -1.4329,-1.3711 -3.297,-2.7705 -4.268,-4.5031 -1.0684,-1.4875 -1.7103,-3.1362 -1.9275,-4.9624 -0.19,-1.9046 0.093,-3.7216 0.865,-5.4622 1.0507,-1.7776 1.9922,-3.8858 3.8646,-4.9664 2.2532,-1.3009 4.4177,-2.4491 6.8752,-3.2647 2.0414,-0.6787 4.0447,-1.4351 6.0623,-2.1584 3.8231,-1.3787 7.6155,-2.8235 11.4083,-4.2678 9.5538,-3.6202 19.0436,-7.473 28.0965,-12.2151 4.9161,-2.7853 9.7227,-5.77 14.306,-9.0736 3.2086,-2.297 6.386,-4.5881 9.5763,-6.8973 2.8342,-2.0419 5.4534,-4.4522 8.1614,-6.6551 1.7888,-1.4483 3.4438,-3.0795 5.1134,-4.6676 1.9814,-1.9644 3.9553,-3.9396 5.9366,-5.9039 1.8604,-1.8423 3.5114,-3.9 5.2516,-5.8609 4.0807,-4.6084 7.9157,-9.3869 11.7637,-14.1841 7.1213,-8.8449 13.9028,-18.0373 19.9789,-27.6348 6.4699,-10.7403 11.7439,-21.9837 15.9726,-33.7873 1.3327,-3.687 2.4,-7.4869 3.5229,-11.2478 3.3772,-14.2266 6.9778,-28.651 7.6387,-43.3078 -0.014,-7.6469 -0.9076,-15.1082 -2.5951,-22.5436 -2.4946,-9.0517 -6.1492,-17.5585 -10.5494,-25.8285 -5.0097,-8.7104 -10.9446,-16.7483 -17.7159,-24.1791 -7.181,-7.3335 -15.0472,-13.7328 -23.662,-19.2986 -9.9331,-5.8766 -20.4859,-10.0792 -31.4484,-13.5466 -4.1422,-1.1419 -8.2767,-2.2725 -12.4204,-3.4046 -4.2509,-1.1596 -8.6076,-1.9709 -12.8997,-2.9341 -7.5763,-1.7066 -15.2695,-2.9957 -22.9071,-4.3167 -1.9787,-0.3539 -3.9773,-0.711 -5.9692,-1.0467 -3.6045,-0.6417 -7.2588,-1.0284 -10.6205,-2.6241 -2.5051,-1.1863 -5.553,-3.8054 -6.3347,-6.5412 -0.3871,-1.2658 -0.7114,-2.5428 -0.9927,-3.8325 -0.012,-1.3892 0.017,-2.7918 0.067,-4.1911 0.6884,-6.3304 3.5304,-12.3806 6.0564,-18.1662 3.7182,-8.5132 6.6484,-17.3642 9.6567,-26.1315 2.318,-7.9857 4.6256,-15.9728 6.2322,-24.132 0.885,-4.5677 1.8819,-9.1381 2.6597,-13.7232 1.1688,-7.003 2.5403,-13.9944 2.9462,-21.0985 -0.051,-3.2582 -0.2871,-6.4342 -0.906,-9.6202 -0.8347,-2.6536 -1.8505,-5.1936 -3.0643,-7.694 -2.4,-4.0247 -5.2128,-7.6803 -8.3448,-11.1732 -3.2023,-3.2405 -6.5348,-6.2998 -10.0594,-9.1666 -3.6004,-2.9156 -7.4739,-5.487 -11.3951,-7.9604 -14.3962,-8.6385 -29.669,-15.9576 -45.6932,-20.9662 -4.9583,-1.4227 -9.9978,-2.7182 -15.0353,-3.7687 -7.2213,-1.5186 -14.4869,-3.3976 -21.8758,-3.8593 -8.5014,0.1724 -16.8411,1.8178 -25.1084,3.7687 -5.9323,1.5307 -11.7677,3.2791 -17.6211,5.0756 -7.3079,2.2244 -14.4303,4.8119 -21.205,8.3356 -16.1546,9.3683 -29.7299,22.3339 -43.2676,35.0629 -0.8865,0.9336 -1.8164,1.8305 -2.7851,2.6877 -1.3927,1.1862 -2.9416,1.9534 -4.6377,2.6267 -5.1065,2.0661 -11.6495,-0.5995 -13.491,-5.9135 -0.4892,-1.4446 -1.2299,-3.4242 -1.3249,-4.8673 -0.1653,-2.7902 -0.05,-5.5667 0.079,-8.3605 0.031,-2.3033 0.071,-4.6054 0.1005,-6.8994 0.1088,-7.2722 -0.5967,-14.4509 -2.1678,-21.5341 -2.2108,-7.9028 -5.4291,-15.3279 -9.257,-22.5455 -3.9816,-6.8967 -8.4864,-13.413 -13.8178,-19.3199 -5.5429,-5.5428 -11.5598,-10.4365 -18.1177,-14.7357 -3.6431,-2.1865 -7.3793,-4.1659 -11.2068,-6.017 -4.649,-2.2249 -9.5058,-3.9055 -14.4176,-5.4328 -7.1858,-1.9988 -14.4759,-3.4667 -21.7855,-4.9386 -8.7145,-1.7448 -17.4757,-3.1933 -26.3391,-3.6757 -4.7922,0.021 -9.4848,0.3707 -14.1826,1.3275 -3.6921,1.0658 -7.206,2.4131 -10.6396,4.1466 -12.4592,7.5136 -23.2482,17.5895 -33.9561,27.3447 -5.826,5.5269 -11.6473,11.0845 -17.2032,16.8869 -1.4056,1.4579 -2.7975,2.9589 -4.1862,4.4399 -1.3166,1.4114 -2.6931,2.7523 -4.2515,3.8924 -2.6146,1.9343 -6.5609,2.6868 -9.6847,1.8279 -1.8474,-0.2937 -3.5007,-1.0406 -4.9633,-2.2242 -1.0559,-0.6221 -1.9365,-1.4512 -2.6428,-2.4938 -0.9066,-1.0546 -1.7297,-2.1168 -2.5632,-3.2511 -2.3979,-3.2833 -4.7968,-6.4696 -7.4945,-9.5091 -5.4788,-5.5553 -11.4391,-10.3672 -17.9897,-14.5845 -4.3401,-2.5807 -8.7986,-5.0487 -13.4408,-6.9986 -3.0173,-1.2776 -6.0165,-2.5428 -9.0152,-3.8073 -3.6526,-1.5506 -7.5154,-2.6687 -11.2914,-3.8843 -5.5754,-1.4296 -11.1384,-2.8676 -16.7642,-4.0423 -7.3284,-1.5453 -14.7337,-3.2445 -22.1938,-3.9603 -4.2753,0.082 -8.4199,0.6812 -12.6262,1.6047 -7.9552,2.0911 -15.5574,4.8965 -22.8693,8.6791 -3.9045,2.2772 -7.6495,4.7619 -11.2838,7.4469 -4.1581,3.0467 -7.9702,6.5337 -11.736,10.0476 -10.2518,9.8776 -19.672,20.6471 -27.401,32.6252 -4.953,8.3884 -9.3269,17.3347 -12.5076,26.5502 -1.1599,3.3601 -2.3114,6.7311 -3.4714,10.0914 -1.271,4.4457 -2.5307,8.8831 -3.5615,13.4077 -0.617,2.6765 -1.2262,5.3743 -1.8336,8.0625 -0.2114,1.0401 -0.469,2.0619 -0.7015,3.0884 -0.47,2.0718 -0.8744,4.4985 -1.8924,6.3218 -0.77,1.6703 -1.8876,3.0318 -3.375,4.1123 -2.1391,1.5666 -5.1086,2.4006 -7.7384,1.8725 -2.8539,-0.5831 -5.2901,-1.8197 -7.036,-4.2228 -1.1515,-1.6014 -1.5428,-3.1707 -2.1408,-4.9555 -0.781,-2.3613 -1.7896,-4.6172 -2.8994,-6.8178 -1.4346,-2.3836 -3.0308,-4.5803 -4.822,-6.6962 -2.9903,-2.8533 -6.2178,-5.2983 -9.6496,-7.6034 -2.0698,-1.2493 -4.1514,-2.4902 -6.2213,-3.7393 -2.5725,-1.5311 -5.3737,-2.7648 -8.0319,-4.1372 -2.556,-1.3159 -5.33,-2.2724 -7.9679,-3.3881 -2.0688,-0.8744 -4.277,-1.5074 -6.4461,-2.1954 -10.5033,-2.7876 -21.1804,-5.3089 -32.0522,-5.8968 -3.834,0.041 -7.571,0.3707 -11.3137,1.1136 -2.8487,0.8542 -5.5426,1.947 -8.1918,3.2689 -4.5485,2.762 -8.6628,6.0491 -12.6016,9.6272 -4.2297,4.139 -8.189,8.5541 -11.9844,13.0864 -3.7826,4.5137 -7.5559,9.0289 -10.8716,13.9203 -0.2986,0.5182 -0.611,1.0584 -0.9324,1.6147 -1.18,2.0811 -2.3829,4.179 -3.875,6.0585 -1.895,2.3733 -4.6901,4.1676 -7.5194,5.1575 -4.586,1.5918 -9.1872,0.6608 -13.2831,-1.7295 -10.3638,-6.0967 -17.3871,-16.2195 -24.3799,-25.6999 -3.7682,-5.1029 -7.7472,-10.0255 -11.9923,-14.7377 -4.5628,-5.0671 -9.2597,-10.0016 -13.8621,-15.0133 -4.3216,-4.6738 -8.4529,-9.5299 -12.529,-14.4176 -3.8877,-4.6657 -7.6125,-9.4673 -11.5593,-14.0815 -4.4247,-5.1758 -8.9108,-10.2199 -13.515,-15.2215 -13.5331,-13.959 -27.63021,-27.3593 -40.91541,-41.542 -4.0704,-4.2796 -8.1773,-8.5241 -12.2953,-12.7608 3.5774,8.9299 7.2087,17.8371 10.5825,26.8358 4.886,13.0047 9.7405,26.0142 14.7114,38.9917 2.3571,6.1119 4.5448,12.2821 6.7975,18.4502 2.12131,5.7836 4.48101,11.4724 6.71991,17.2135 2.1941,5.6425 4.6531,11.2159 7.0633,16.7714 2.6337,6.0059 5.2695,11.9921 7.848,18.0194 5.6148,13.1301 11.3385,26.2168 17.0302,39.3081 5.0049,11.4848 11.012,22.4593 16.5037,33.6865 2.8503,5.8477 5.7546,11.6739 8.4297,17.6054 0.7511,1.648 1.4076,3.3217 1.9758,5.0412 0.7153,2.1283 0.9803,4.7418 0.6284,6.9638 -0.2729,0.8986 -0.5273,1.7896 -0.7984,2.6781 -0.7883,1.3331 -1.5944,2.6533 -2.4293,3.9587 -2.4386,2.9956 -6.1129,4.8433 -9.5163,6.4509 -1.9477,0.9161 -4.0598,1.5337 -6.067,2.2484 -12.1275,4.3363 -24.5161,7.9658 -36.0305,13.8548 -7.0468,3.9659 -13.86751,8.2923 -20.64031,12.6975 -5.3855,3.4976 -10.2404,7.7635 -15.0862,11.9571 -2.0306,2.0165 -4.0626,4.0444 -6.0937,6.0609 -5.735,5.7354 -10.5856,12.437 -14.9929,19.2314 -2.4558,4.066 -4.724,8.2226 -6.7894,12.5018 -2.0502,4.2518 -3.5972,8.7146 -4.9997,13.2206 -2.6889,9.4963 -4.7953,19.2167 -5.3154,29.0866 0.091,4.1551 0.5542,8.1974 1.4202,12.2528 1.2614,4.3715 2.916,8.5007 4.9793,12.5436 3.3614,5.6862 7.352,10.7926 11.7553,15.7221 8.1047,8.3411 17.1341,15.7042 26.5928,22.4673 3.292,2.3537 6.8536,4.4771 8.9472,8.0695 1.0719,1.4763 1.712,3.1261 1.9187,4.9511 0.037,0.4424 0.07,0.8923 0.1133,1.3343 0.2003,1.9059 -0.085,3.7329 -0.8685,5.4815 -0.92,2.6793 -2.6343,5.0602 -4.238,7.3882 -1.6293,2.3641 -3.3341,4.6863 -4.9906,7.0259 -1.3268,1.8549 -2.5373,3.8094 -3.7644,5.7416 -1.7692,2.9901 -3.442,6.0053 -4.9045,9.1657 -1.5949,3.4225 -2.8514,7.0102 -3.998,10.605 -2.3885,8.3693 -4.2499,16.9237 -4.7483,25.6327 -0.016,7.9654 0.8007,15.8507 2.4766,23.6596 2.0856,7.7833 5.0411,15.1551 8.7652,22.3259 5.4309,9.628 11.8952,18.6099 19.3631,26.7581 6.26761,6.3892 13.09801,12.0374 20.59491,16.9305 5.2166,3.1146 10.5726,5.8659 16.1101,8.3631 2.9866,1.3438 6.0883,2.4732 9.1376,3.6749 3.8974,1.5379 7.8531,2.7724 11.8316,3.9899 8.5134,2.1178 17.0333,4.004 25.6532,5.6424 0.8163,0.1491 1.6218,0.3074 2.448,0.4585 0.3741,0.07 0.7673,0.1431 1.1502,0.2217 1.5341,0.2834 3.9244,0.662 5.2034,1.4047 1.1924,0.6546 2.3679,1.3554 3.5143,2.1052 0.9961,0.8838 1.9254,1.8437 2.8178,2.8561 0.683,1.1817 1.3363,2.3679 1.9775,3.5625 0.6064,1.7361 1.1897,3.6297 1.479,5.4279 0.9327,5.5549 0.5902,11.2604 0.8943,16.8675 0.3428,6.2708 1.4047,12.4833 2.8263,18.591 2.3238,8.4679 5.5303,16.4783 9.6046,24.2512 2.8892,5.0242 6.0533,9.7876 9.3703,14.5444 4.0453,5.7845 8.3119,11.3197 13.0594,16.567 6.2906,6.4336 13.1442,12.0646 20.7079,16.9177 8.1048,4.8273 16.7304,9.18 25.7593,12.0075 3.1746,0.9884 6.3556,1.999 9.5397,2.9889 15.0628,3.662 30.2883,7.3187 45.8038,8.2469 5.5079,1e-4 10.9008,-0.5513 16.2706,-1.7258 5.6606,-1.6038 10.9908,-3.8075 16.2003,-6.5262 4.4191,-2.5906 8.5837,-5.4847 12.667,-8.5739 1.5164,-1.1369 2.9831,-2.3422 4.4684,-3.5346 1.5531,-1.2424 3.2586,-2.5515 5.1389,-3.2968 2.869,-1.1012 6.1827,-1.2578 9.009,0.01 1.8366,0.8068 3.3918,1.7921 4.8952,3.1037 1.9109,1.6788 3.3177,3.7249 4.585,5.8894 2.3991,4.0957 4.7191,8.2401 6.9067,12.4538 1.9446,3.7704 3.898,7.5429 5.8535,11.3055 3.0724,5.4676 6.0776,10.9759 9.3401,16.3318 9.2849,15.2099 19.9201,29.4386 32.0485,42.4868 14.9293,15.4958 31.3812,29.5021 49.5403,41.0348 12.209,7.3604 25.0082,13.2956 38.6161,17.5771 11.0058,3.1914 22.2537,5.7524 33.71,6.4226 6.408,-0.058 12.6996,-0.9144 18.9605,-2.2819 13.8865,-3.7439 27.2666,-9.5319 39.9074,-16.3383 4.8002,-2.6918 9.5358,-5.4862 14.1186,-8.5367 4.857,-3.2398 9.3328,-7.0162 13.6497,-10.9394 3.3258,-3.2298 6.473,-6.6091 9.4303,-10.1903 2.0831,-2.5457 3.9935,-5.2093 5.9338,-7.8685 2.3843,-3.265 4.6155,-6.6398 6.7945,-10.0412 0.7974,-1.3312 1.5949,-2.6524 2.3844,-3.996 1.2828,-2.1558 2.3774,-4.2099 4.4585,-5.7125 1.216,-0.8405 2.537,-1.4655 3.9559,-1.8334 2.8477,-0.9768 5.2922,-0.8123 8.0966,0.2089 4.4291,1.6327 8.031,5.0384 11.5978,8.0229 2.2694,1.9086 4.5503,3.8084 6.8082,5.726 3.5052,2.9243 7.1437,5.7176 10.7075,8.5907 1.8419,1.4763 3.8905,2.7329 5.8103,4.0991 2.1693,1.5185 4.3458,3.0575 6.503,4.5839 6.1977,3.7658 12.3409,7.5531 18.7659,10.9001 6.1881,3.2484 12.7345,6.0874 19.3984,8.1853 3.2008,1.0137 6.402,2.0266 9.6028,3.0403 7.2046,1.9408 14.4987,3.5114 21.9554,3.9324 4.9419,-0.138 9.8014,-0.7756 14.6364,-1.832 z m -660.3409,-236.7044 c -0.053,0.01 -0.019,-0.1075 -0.033,-0.1587 v 0 c 0.053,-0.01 0.018,0.106 0.033,0.1587 z m 612.8204,252.8494 c -4.2723,-1.3451 -8.5079,-2.6645 -12.7115,-4.2512 -7.4227,-2.8056 -14.8236,-6.2561 -21.6198,-10.3999 -6.1785,-3.753 -12.4877,-7.3243 -18.379,-11.487 -3.1782,-2.2446 -6.3675,-4.4808 -9.5456,-6.7255 -2.9408,-2.0763 -5.6609,-4.5316 -8.4521,-6.7864 -3.2877,-2.6366 -6.4412,-5.4852 -9.7083,-8.1897 -1.9285,3.0358 -3.9212,6.0199 -5.9489,8.9901 -6.9378,10.241 -15.3568,19.2245 -24.7137,27.2901 -6.4231,5.5231 -13.4941,10.0226 -20.7854,14.254 -8.2458,4.7724 -16.713,9.0566 -25.4568,12.8056 -8.4197,3.6171 -17.2186,6.7495 -26.1486,8.7973 -4.3073,0.9882 -8.6269,1.7325 -13.0259,2.2095 -5.2477,0.5968 -10.5827,0.3995 -15.8468,0.011 -2.7192,-0.2187 -5.4312,-0.5467 -8.1376,-0.975 -6.0049,-0.9509 -11.9471,-2.3681 -17.7956,-3.9222 -9.674,-2.5921 -19.1651,-5.7589 -28.3384,-9.7837 -17.1211,-7.5406 -32.9553,-18.1589 -47.4955,-29.8474 -26.3687,-21.1957 -49.1136,-47.1835 -65.8212,-76.6398 -2.7957,-4.9178 -5.7415,-9.7783 -8.3462,-14.8082 -2.7761,-5.3601 -5.5174,-10.7449 -8.3795,-16.069 -0.2835,-0.5104 -0.5675,-1.0206 -0.8533,-1.5214 -0.3139,0.2417 -0.6228,0.4899 -0.936,0.7323 -3.5655,2.6958 -7.2315,5.1922 -11.0336,7.5266 -7.0608,4.3088 -14.6207,7.6774 -22.6115,9.8647 -3.9874,1.0796 -8.004,1.8909 -12.1069,2.4156 -5.257,0.6554 -10.6347,0.4719 -15.9043,0.1842 -10.7999,-0.5971 -21.4529,-3.0741 -32.0289,-5.2147 -6.8073,-1.3816 -13.529,-3.3071 -20.1565,-5.3791 -4.3577,-1.3792 -8.6536,-2.7678 -12.9196,-4.4056 -8.6549,-3.3351 -16.6879,-7.8473 -24.5381,-12.7457 -6.8939,-4.291 -13.1486,-9.4838 -18.9076,-15.1846 -5.5511,-5.4767 -10.8823,-11.4536 -15.345,-17.8607 -2.2934,-3.2893 -4.5872,-6.5785 -6.881,-9.8678 -4.6803,-6.6949 -8.5412,-14.1506 -11.9303,-21.582 -3.5453,-7.7908 -5.7954,-16.0851 -7.6301,-24.4447 -0.9711,-4.4165 -1.5367,-8.9 -1.9679,-13.4028 -0.4496,-4.5768 -0.3779,-9.1821 -0.5614,-13.7776 -0.038,-0.9678 -0.09,-1.918 -0.184,-2.8642 -1.7206,-0.3232 -3.4506,-0.5871 -5.142,-0.9055 -2.545,-0.4852 -5.0762,-0.9973 -7.6209,-1.5514 -6.5398,-1.4105 -13.0411,-2.9361 -19.4509,-4.9132 -2.8956,-0.8946 -5.897,-1.633 -8.7075,-2.7463 -3.4801,-1.3605 -6.9582,-2.7322 -10.4467,-4.1043 -7.5023,-2.94 -14.6997,-6.9752 -21.4883,-11.2904 -7.01991,-4.4526 -13.47081,-9.5548 -19.46431,-15.3134 -12.6733,-12.1623 -22.7212,-26.7739 -30.3941,-42.5082 -3.71,-7.6444 -6.0856,-15.7862 -7.9265,-24.0461 -1.9732,-8.8269 -2.5525,-18.0816 -2.1271,-27.0959 0.3671,-8.133 1.9729,-16.0997 4.0683,-23.9586 2.2473,-8.5033 5.1237,-16.755 9.346,-24.4894 3.4072,-6.234 7.4923,-12.016 11.5602,-17.8212 -1.3315,-0.9302 -2.6829,-1.8532 -4.0015,-2.8009 -2.4005,-1.7169 -4.7126,-3.5509 -7.0111,-5.4034 -7.597,-6.1133 -14.7177,-12.6785 -21.2635,-19.9317 -5.9022,-6.5234 -10.6016,-13.7373 -14.5005,-21.594 -4.0206,-8.1093 -6.0281,-17.4274 -6.4885,-26.4104 -0.4784,-9.3806 1.3115,-18.7659 3.3394,-27.8602 2.2063,-9.8362 5.2691,-19.5874 9.6528,-28.6629 3.8274,-7.9292 8.6333,-15.4499 13.8087,-22.5578 3.8961,-5.3456 8.3334,-10.232 13.001,-14.8996 5.0988,-5.0845 10.384,-9.9478 16.1359,-14.302 5.0725,-3.8337 10.3346,-7.3336 15.7777,-10.6328 4.1555,-2.5211 8.2982,-5.0237 12.54721,-7.3677 5.4798,-3.0198 11.1985,-5.3745 16.9963,-7.7164 4.2391,-1.7074 8.5804,-3.2271 12.9226,-4.6256 4.2789,-1.3899 8.665,-2.7381 12.8601,-4.4226 -1.6596,-3.7762 -3.5766,-7.461 -5.375,-11.1274 -2.7989,-5.7286 -5.6971,-11.4016 -8.5395,-17.1068 -3.3354,-6.6231 -6.5437,-13.2772 -9.6833,-19.9807 -2.409,-5.1198 -4.5706,-10.3932 -6.827,-15.5798 -5.6366,-12.9309 -11.1749,-25.9069 -16.80991,-38.848 -5.3898,-12.3146 -10.4354,-24.7573 -15.3385,-37.2683 -2.085,-5.3723 -3.9626,-10.8434 -5.9415,-16.2492 -1.9644,-5.3636 -4.0794,-10.6798 -6.1315,-16.0065 -3.9033,-10.1959 -7.5228,-20.5192 -11.5242,-30.6702 -9.5353,-24.2401 -19.233,-48.4149 -28.3602,-72.8028 -1.9826,-5.3157 0.5819,-11.4098 5.9236,-13.4895 3.7334,-1.4536 7.9908,-0.5264 10.8527,2.0529 1.3648,0.7129 2.5996,1.7384 3.5672,3.0458 4.2676,5.657 9.0048,11.0344 13.808,16.25 5.6719,5.9304 11.4877,11.7214 17.2036,17.6283 6.7481,7.0016 13.46,14.0383 20.1002,21.1447 9.03951,9.0254 18.27611,17.8894 27.14961,27.0705 5.5322,5.7258 10.9944,11.5116 16.3831,17.3765 4.236,4.5791 8.1374,9.48 12.0696,14.3143 8.0468,9.9212 16.36,19.5704 25.086,28.9104 4.6569,4.9898 9.2744,9.9737 13.6601,15.204 4.1965,5.0184 7.987,10.4277 11.8718,15.6905 1.6753,2.2699 3.4784,4.4385 5.3723,6.5409 1.1959,1.1951 2.4247,2.3381 3.7009,3.4211 0.5291,-0.8974 1.079,-1.7628 1.7035,-2.5755 0.4937,-0.8124 1.0448,-1.6277 1.6148,-2.4572 1.6638,-2.4501 3.5222,-4.7879 5.3842,-7.085 3.8063,-4.7003 7.693,-9.3824 11.8694,-13.7627 4.1619,-4.3524 8.4106,-8.5496 13.0536,-12.4211 7.1954,-5.988 15.5935,-10.429 24.7356,-12.5351 12.127,-2.7969 25.0326,-1.3708 37.0706,1.3157 6.9736,1.5496 13.8557,3.227 20.6325,5.5056 3.0569,1.03 5.9672,2.1497 8.9365,3.41 3.2187,1.3498 6.2822,2.9089 9.3911,4.505 2.6993,1.3752 5.2503,2.9677 7.851,4.513 5.899,3.5366 11.4833,7.3366 16.2797,12.2778 1.391,-4.8823 2.9561,-9.717 4.6077,-14.5179 5.2983,-15.3603 12.6012,-29.765 22.2019,-42.8848 5.3206,-7.2572 11.3447,-13.9669 17.6175,-20.3951 6.6721,-6.8404 13.8001,-13.4265 21.5012,-19.0914 7.0732,-5.218 14.9291,-9.431 23.015,-12.8577 3.8515,-1.6274 7.8565,-2.8763 11.882,-4.0008 4.8126,-1.364 9.6782,-2.4867 14.626,-3.1712 9.9401,-1.3922 20.1493,1.0149 29.8491,3.0569 13.8056,2.9058 27.5018,6.3099 40.5242,11.7945 3.3304,1.4084 6.6202,2.8207 9.883,4.4 7.3499,3.5842 14.3791,7.9778 20.9241,12.8718 6.0373,4.5203 11.3322,9.9556 16.2753,15.6286 0.7555,0.8585 1.4628,1.7608 2.1575,2.6803 2.0024,-2.0924 4.0107,-4.1637 6.0742,-6.1957 5.0936,-4.9951 10.2227,-9.9534 15.5094,-14.7558 4.9318,-4.4836 9.9673,-8.8493 15.0415,-13.2096 6.8589,-5.9095 14.2066,-10.9423 22.1653,-15.23 3.6635,-1.9711 7.6979,-3.2155 11.701,-4.2621 5.0085,-1.322 9.9533,-1.9876 15.1156,-2.1722 13.5837,-0.5515 26.9837,2.2288 40.23,4.8939 5.6894,1.1541 11.3587,2.437 16.9581,4.0325 4.3799,1.2398 8.7232,2.6468 12.9957,4.2446 4.7988,1.7927 9.367,4.1464 13.8485,6.5978 15.2965,8.3862 28.2801,20.0608 38.3235,34.3173 5.0189,7.113 9.0767,15.0552 12.639,22.9905 3.8423,8.5361 6.1136,17.8459 7.3113,27.0972 0.3629,2.8216 0.5114,5.6595 0.5584,8.4919 4.8395,-4.4074 9.7798,-8.6263 14.7933,-12.8543 11.8583,-9.9878 25.9105,-17.654 40.7001,-22.1759 3.9258,-1.2011 7.8523,-2.4014 11.7767,-3.5917 7.6736,-2.359 15.5444,-4.1092 23.4036,-5.6588 8.4733,-1.6548 17.0304,-2.2435 25.6306,-1.246 4.8917,0.5623 9.8219,1.91 14.6434,2.9163 7.281,1.5282 14.549,3.327 21.6571,5.4959 8.145,2.4646 16.3827,5.2369 23.9846,9.0837 3.6756,1.8481 7.3506,3.7059 11.0185,5.5422 5.7843,2.9204 11.3415,6.2515 16.8229,9.6806 8.1623,5.0996 15.5429,11.0474 22.2258,17.9478 4.1762,4.3165 7.9259,8.8288 11.0736,13.9538 3.0735,5.0132 5.271,10.3827 6.6436,16.0978 2.3209,9.7632 1.2608,19.9733 -0.4026,29.7736 -1.5218,9.0334 -3.1295,18.0326 -5.1994,26.9483 -2.174,9.3752 -4.6583,18.6714 -7.7811,27.7751 -1.4872,4.3405 -2.9633,8.6729 -4.6352,12.9642 -0.9872,2.5269 -1.9649,5.0548 -2.9523,7.5818 -1.1466,2.9569 -2.4237,5.843 -3.5966,8.7753 0.8692,0.1376 1.7479,0.2772 2.6143,0.4342 3.4489,0.5969 6.8851,1.212 10.3308,1.8286 5.7874,1.0483 11.5654,2.1558 17.3153,3.4411 3.1175,0.7066 6.3181,1.2735 9.4058,2.1072 3.928,1.0887 7.8403,2.1525 11.7695,3.2313 5.9003,1.6129 11.7289,3.4876 17.4914,5.5854 9.0907,3.3328 17.5023,7.8845 25.6815,13.0078 15.6777,9.8133 28.9007,23.4293 39.403,38.5585 5.0521,7.2903 9.1621,15.2818 12.8606,23.319 3.9928,8.7321 6.5069,18.111 8.2153,27.524 3.8463,21.294 -1.2511,42.8013 -6.163,63.4577 -0.7125,3.0252 -1.6991,5.9977 -2.6251,8.9695 -1.3524,4.3822 -2.6863,8.7776 -4.281,13.0914 -5.2225,14.1166 -12.4524,27.4805 -20.9919,39.8468 -1.9481,2.8403 -3.9049,5.6687 -5.8615,8.4976 -2.1156,3.0666 -4.5403,5.9733 -6.7917,8.9374 -3.7352,4.9164 -7.6557,9.6614 -11.5067,14.4779 -2.1585,2.6957 -4.6107,5.203 -6.9012,7.7768 -2.1964,2.4869 -4.5531,4.7763 -6.9082,7.1165 -2.6081,2.5946 -5.3189,5.0708 -8.0245,7.5783 -2.5488,2.3504 -5.279,4.4996 -7.9655,6.6961 -5.7201,4.6632 -11.8271,8.9601 -18.0211,12.9707 -7.4709,4.851 -15.3636,8.9767 -23.4717,12.6738 -3.7857,1.7194 -7.6833,3.1878 -11.5457,4.753 -4.0444,1.6272 -8.1142,3.1595 -12.1954,4.6995 -0.7656,0.2937 -1.5276,0.5683 -2.2901,0.8417 1.4406,1.5747 2.8589,3.1748 4.2536,4.7837 6.9134,7.9392 13.1092,16.4434 18.3339,25.5831 9.063,15.8431 14.1825,33.7645 16.938,51.7166 1.3453,8.7682 1.3294,17.6246 0.3712,26.4231 -0.5061,4.7191 -1.7132,9.347 -2.855,13.9351 -1.2705,5.144 -2.8918,10.2033 -4.7522,15.1735 -1.4501,3.8504 -3.3877,7.4515 -5.6065,10.9176 -1.9506,3.0418 -4.1896,5.6742 -6.659,8.2898 -2.7658,2.9539 -5.6656,5.9164 -8.6852,8.6172 -4.9807,4.4658 -9.9409,8.8742 -15.0918,13.1406 -3.5618,2.9295 -7.1292,5.8271 -10.8037,8.6368 -7.5901,5.7941 -15.822,10.656 -24.3811,14.8992 -7.8973,3.9029 -16.3396,6.8283 -24.7794,9.2981 -9.6737,2.8421 -19.6358,4.8178 -29.6508,5.915 -9.428,1.0379 -19.0404,0.8719 -28.4569,-0.2144 -3.3318,-0.3764 -6.6842,-0.8158 -10.031,-1.1638 -0.097,1.3112 -0.2009,2.6108 -0.3351,3.9057 -0.2895,2.85 -0.6216,5.7128 -1.1592,8.534 -0.5778,3.0064 -1.0857,6.0241 -1.8278,8.9842 -1.3552,5.425 -2.7788,10.7683 -4.4537,16.1019 -5.6061,17.7513 -17.1172,33.5349 -32.1655,44.4253 -6.9533,5.0343 -14.9874,8.6526 -22.9067,11.8522 -8.5899,3.479 -17.666,6.1928 -26.8024,7.7528 -15.2738,2.5926 -30.4206,-0.9203 -44.95,-5.5195"
         style="fill:#121213;fill-opacity:1;fill-rule:nonzero;stroke:none"
         id="path128" />
    </g>
  </g>
</svg>
