<?xml version="1.0" encoding="UTF-8" standalone="no"?>
<!-- Created with Inkscape (http://www.inkscape.org/) -->

<svg
   version="1.1"
   id="svg2"
   width="676.50867"
   height="698.71021"
   viewBox="0 0 676.50866 698.7102"
   xmlns="http://www.w3.org/2000/svg"
   xmlns:svg="http://www.w3.org/2000/svg">
  <defs
     id="defs6" />
  <g
     id="g8"
     transform="matrix(1.3333333,0,0,-1.3333333,-1943.2086,1397.7774)">
    <g
       id="g10"
       transform="scale(0.1)">
      <path
         d="m 19338.844,5558.9 c -3.6,-3 -7.2,-6 -10.8,-9 -5.8,9.9 -10.3,20.8 -17.6,29.3 -242.2,279.3 -484.4,558.7 -727.9,836.9 -17,19.4 -42.8,32.3 -66.5,44.3 -61.9,31.2 -112.5,-5.7 -165.6,-29.8 -612.4,-277.1 -1243.1,-313.7 -1885.8,-130.6 -591.3,168.4 -1076.2,494.8 -1415.4,1014.4 -310.1,475.1 -416,992.8 -260.2,1545.8 146.2,519 474.2,903.1 941.3,1161.2 701.1,387.4 1438.3,425.4 2190,172.9 569.6,-191.3 1025.9,-537.8 1332.2,-1061.7 264.1,-451.6 343.8,-934.7 206.9,-1445 -84.8,-316.2 -252.1,-586.6 -475,-824.3 -29,-30.9 -56.2,-63.9 -80.3,-98.7 -7.6,-10.7 -8.3,-34.3 -1.3,-44.8 6.7,-10 27.3,-12.7 42.2,-14.4 9.8,-1.2 20.6,5 28.5,7.2 122.4,-386.7 243.9,-770.2 365.3,-1153.7 z m -288.4,1216.8 c 264.6,259.1 450.7,564.3 537.8,924.9 147,609 18.3,1165.8 -342.6,1669 -368.2,513.3 -873.7,834.8 -1477.1,1001.5 -674.2,186.4 -1335.7,146 -1969,-161.7 -512,-248.7 -899,-626.3 -1097.9,-1168.1 -233.5,-636.3 -140,-1240.9 227.4,-1801.8 334.7,-511 812.1,-843.1 1386.4,-1031.4 728.1,-238.6 1445.1,-206.9 2139.7,132.8 37,18.1 49,-1.6 67.2,-22.6 295,-339.8 589.9,-679.6 885.6,-1018.9 25.6,-29.3 49.2,-75.2 99.4,-48.2 53.7,29 24.4,74.9 12.1,113 -139.3,428.5 -279.5,856.8 -420.1,1284.8 -13.7,41.7 -31.5,82 -48.9,126.7"
         style="fill:#040606;fill-opacity:1;fill-rule:nonzero;stroke:none"
         id="path28" />
    </g>
  </g>
</svg>
