<?xml version="1.0" encoding="UTF-8" standalone="no"?>
<!-- Created with Inkscape (http://www.inkscape.org/) -->

<svg
   version="1.1"
   id="svg2"
   width="738.56641"
   height="387.66113"
   viewBox="0 0 738.56641 387.66113"
   xmlns="http://www.w3.org/2000/svg"
   xmlns:svg="http://www.w3.org/2000/svg">
   <defs id="defs6" />
   <g id="g8" transform="matrix(1.3333333,0,0,-1.3333333,-2060.0173,522.79901)">
      <g id="g10" transform="scale(0.1)">
         <path
            d="m 20879.625,3763.8458 c -6.3,66.51 -21.8,132.93 -100.9,135.57 -632.9,21.1 -1266.2,26.82 -1899.3,16.74 -630.2,-10.03 -1260.2,-35.58 -1889.1,-76.61 -357.4,-23.31 -714.4,-51.7 -1071,-84.93 -56.2,-5.23 -108.4,-51.76 -143.4,-91.33 -47.7,-53.94 -89.8,-129.05 -111.8,-198.94 -68.4,-91.9 -104.1,-206.51 -111.8,-320.25 -32.1,-473.89 -60.2,-948.06 -84.2,-1422.43 -6,-120.02 -12.4,-240.04 -17.4,-360.11 -5,-121.54 19.8,-261.69 141.8,-318.33 84.4,-39.17 186.3,-30.37 276.2,-24.49 121,7.91 242,15.82 363,23.73 956.3,62.5 1912.6,125 2868.9,187.5 535.7,35.02 1071.5,70.03 1607.2,105.05 81.7,5.34 148.8,90.45 188.9,152.35 54.8,84.69 94.3,189.62 92.6,291.7 -10.7,662.74 -47.4,1324.9 -109.7,1984.78 z m -1970,-1978.55 c -662.5,-43.3 -1325,-86.6 -1987.5,-129.9 -184.3,-12.05 -368.7,-24.1 -553,-36.15 l -276.5,-18.07 c -65.7,-4.3 -132.3,-12.01 -198,-5.29 -19.7,5.1 -38.2,12.15 -55.4,22.49 -2.4,2.88 -4.7,5.8 -6.8,8.82 -0.1,9.71 -0.2,19.42 0.1,29.15 1.2,38.87 3.6,77.74 5.4,116.59 3.8,80.03 7.7,160.05 11.7,240.07 8.1,160.03 16.6,320.03 25.6,480.02 13.1,232.75 27.2,465.45 42.2,698.08 571.1,50.58 1143.3,88.67 1716.1,113.69 629.7,27.51 1260.1,39.53 1890.4,36.02 328.6,-1.83 657.1,-8.14 985.5,-18.36 42.3,-474.73 71.3,-950.58 87,-1426.92 -562.2,-36.75 -1124.5,-73.49 -1686.8,-110.24"
            style="fill: #8cff33; fill-opacity: 1; fill-rule: nonzero; stroke: none"
            id="path36" />
      </g>
   </g>
</svg>
