<?xml version="1.0" encoding="UTF-8" standalone="no"?>
<!-- Created with Inkscape (http://www.inkscape.org/) -->

<svg
   version="1.1"
   id="svg2"
   width="1161.9336"
   height="323.96753"
   viewBox="0 0 1161.9336 323.96752"
   xmlns="http://www.w3.org/2000/svg"
   xmlns:svg="http://www.w3.org/2000/svg">
  <defs
     id="defs6" />
  <g
     id="g8"
     transform="matrix(1.3333333,0,0,-1.3333333,-1393.9844,1502.5558)">
    <g
       id="g10"
       transform="scale(0.1)">
      <path
         d="M 30000,0 H 0 V 20000 H 30000 V 0"
         style="fill:#ffffff;fill-opacity:1;fill-rule:nonzero;stroke:none"
         id="path12" />
      <path
         d="m 8467.0386,18289.813 c -197.26,-7.4 -394.54,-14.3 -591.86,-20.8 39.86,-112.8 80.41,-314.5 -125.4,-329.7 -1529.78,-112.3 -3066.31,-168.2 -4602.95,-166.4 -431.32,0.5 -862.62,5.6 -1293.77,15 -84.62,1.9 -174.39,66.9 -224.81,111.1 -79.24,69.5 -148.67,168 -181.19,257.1 -34.53,94.7 -90.84,341.6 122.83,336.9 13.87,-0.3 27.75,-0.5 41.63,-0.8 -21.38,36.2 -38.14,71.8 -49.69,103.5 -34.74,95.2 -90.78,340.8 122.82,336.9 335.15,-6.3 670.34,-11 1005.55,-14.3 -12.61,24.2 -23.06,48 -31.23,70.4 -36.99,101.5 -89.82,333.3 122.82,336.9 1163.06,19.7 2326.12,39.4 3489.18,59.1 l 991.09,16.8 c 81.91,1.4 177.67,-69.7 224.81,-111.1 79.23,-69.5 148.66,-167.9 181.19,-257.1 2.5,-6.9 5.08,-14.4 7.64,-22.3 169.39,-5.5 338.78,-10.8 508.17,-16.1 85.25,-2.6 173.58,-66.1 224.81,-111.1 79.23,-69.5 148.66,-167.9 181.19,-257.1 38.31,-105 89.04,-328.8 -122.83,-336.9"
         style="fill:#8cff33;fill-opacity:1;fill-rule:nonzero;stroke:none"
         id="path14" />
      <path
         d="m 8793.8602,14136.222 c -240.1389,11.387 -480.2982,22.475 -720.4715,33.164 111.6705,64.542 192.3604,180.897 228.8899,271.077 36.7838,90.872 91.1797,296.398 -100.0006,307.177 -841.1417,47.584 -1682.853,86.884 -2524.9073,117.79 -846.1119,31.048 -1692.5369,53.701 -2539.0152,67.952 -476.1436,7.922 -952.288,13.242 -1428.4132,15.96 -76.71,0.478 -158.5181,-54.201 -205.9,-92.971 -73.5212,-60.07 -139.1387,-146.533 -171.2233,-225.762 -33.6098,-83.077 -92.701,-306.151 99.9971,-307.277 112.1769,-0.615 224.3567,-1.43 336.5331,-2.346 -51.0762,-32.237 -97.9819,-77.428 -124.9139,-109.107 -52.9361,-62.29 -93.5959,-128.912 -118.487,-201.287 -28.7133,-83.549 -56.9167,-263.675 113.7765,-267.134 894.4823,-18.128 1788.9204,-40.957 2683.231,-68.585 654.152,-20.242 1308.2334,-43.083 1962.2209,-68.322 20.9315,-16.941 50.4613,-27.778 91.3734,-29.007 713.3924,-22.41 1426.7849,-44.821 2140.1773,-67.232 75.0513,-2.421 160.5763,55.83 205.9166,92.87 73.5147,60.171 139.1322,146.634 171.2168,225.863 36.2252,89.49 91.4988,298.088 -100.0006,307.177"
         style="fill:#8cff33;fill-opacity:1;fill-rule:nonzero;stroke:none"
         id="path16" />
      <path
         d="m 1388.6044,7788.9375 c 7.6,-0.1 15.2,-0.2 22.79,-0.2 -33.78,43.2 -61.38,90.7 -77.66,135.3 -30.51,83.7 -73.78,273.7 100.96,277 872.81,16.4 1746.01,19.6 2618.98,9.3 869.26,-10.3 1738.25,-33.9 2606.32,-70.7 491.29,-20.9 982.26,-46 1472.83,-75.3 71.67,-4.3 140.63,-52.6 184.8,-91.4 65.13,-57.1 122.21,-138 148.94,-211.3 26.43,-72.5 75.07,-287.5 -100.97,-277 -30.65,1.9 -61.33,3.6 -91.99,5.4 20.07,-27.5 37.51,-56.2 52.45,-86 27.65,-55.2 53.73,-120.1 48.45,-180.1 -1.68,-19.2 -5.02,-49.3 -15.95,-75.6 20.95,-14.4 38.89,-28.9 50.7,-39.3 65.12,-57.1995 122.2,-138.0995 148.93,-211.3995 33.68,-92.3 71.58,-263.1 -100.96,-276.9 -759.51,-60.6 -1521.18,-104.5 -2283.92,-131.2 -766.4,-26.8 -1533.8,-36.4 -2300.93,-28.8 -431.51,4.3 -862.9,14.1 -1294.01,29.2 -70.3,2.5 -142.41,54.1 -184.8,91.3 -65.13,57.2 -122.21,138.1 -148.94,211.4 -27.71,76 -74.86,283.0995 100.96,276.9 762.74,-26.7 1526.4,-36.7 2289.86,-29.4 760.47,7.2 1520.66,31.3995 2279.34,72.4995 -419.03,7.6 -838.07,15.3 -1257.11,22.9 -858.55,15.7 -1717.1,31.4 -2575.64,47.1 -486.89,8.9 -973.77,17.8 -1460.66,26.7 -69.34,1.2 -143.6,55.1 -184.8,91.3 -65.13,57.1 -122.2,138 -148.93,211.3 -29.13,79.9 -74.42,278.3 100.96,277"
         style="fill:#8cff33;fill-opacity:1;fill-rule:nonzero;stroke:none"
         id="path18" />
      <path
         d="m 22396.549,18730.255 c -3.9,46.5 -13.3,106.2 -73.3,128.5 -912.5,338 -1889.5,552.9 -2885.5,648.6 -978,94 -1974.1,67.1 -2941.3,-84.1 -287.4,-44.9 -572.3,-100.5 -853,-167.6 -285.8,-68.3 -555.6,-161.7 -797,-305.2 -70.5,-41.9 -129.3,-118.6 -165.3,-181 -35.8,-62.2 -70.9,-148.4 -65,-218.9 3.7,-43.6 12.6,-110.8 73.3,-128.5 62.4,-18.1 118.9,7.6 168.7,37.2 15.1,9 30.2,17.8 45.6,26.4 7.7,4.3 15.5,8.6 23.3,12.7 17.2,9.2 10.3,5.7 -20.8,-10.7 15.7,17.4 64.9,31.3 88.7,41.8 62.9,27.7 127.8,52.5 193.9,74.9 123.4,42 250.9,75.5 379.4,105.6 507.4,113.9 1027.1,191.6 1551.2,234.1 -191.7,-31.3 -382.5,-66.4 -572,-105.3 -540.6,-111.1 -1072.1,-250.3 -1588.8,-420.5 -71.1,-23.4 -136.4,-89.8 -175.9,-139.2 -50.7,-63.5 -96.7,-148.7 -108.2,-224.4 -15,-98.5 11.4,-242.7 175.6,-189.8 104.7,33.7 211.2,63 319.3,88.7 410.8,90.2 835.4,124.3 1260.1,131.6 -188.5,-45.8 -374.5,-98.3 -557,-157.7 -70.9,-23 -136.6,-90 -175.9,-139.2 -50.6,-63.4 -96.6,-148.6 -108.2,-224.4 -7.7,-51.1 -19,-126.8 27.5,-168.5 41.9,-37.7 90.3,-40.2 148.2,-21.3 199,64.8 401.9,121 608,169.1 703.7,156.4 1438.9,214.4 2166.7,172.1 198.9,-11.5 396.9,-30.8 593.6,-57.1 459.4,-65.4 909,-170.6 1339.5,-316.2 131.5,-44.5 259.8,108.8 309.2,181.7 38.8,57.2 73.5,122.5 83.5,187.9 7.5,49 20.5,129.9 -27.4,168.5 -263.9,212.5 -578.2,373.1 -924.3,482.1 -295.9,93.2 -607,150.6 -920.4,190.7 365,6.7 730.3,0 1094.4,-20.4 380.2,-21.3 758.8,-57.8 1134.6,-108.6 260.5,-36.6 519.3,-80 776.1,-130.6 154.8,-30.5 280.1,119.1 333.9,218.1 36.5,67.2 71.2,144.3 65,218.9"
         style="fill:#8cff33;fill-opacity:1;fill-rule:nonzero;stroke:none"
         id="path20" />
      <path
         d="m 19563.26,14781.049 c -3.2,-38.1 -12.7,-119.5 -73.3,-128.5 -230.7,-34.2 -461.8,-66.8 -693.2,-97.8 53.4,-55 98.8,-125.8 121.5,-190.6 21.2,-60.8 45.4,-136.9 18.7,-198.7 -21,-48.6 -49.7,-72.2 -115.4,-78.3 -200.9,-18.5 -401.9,-37 -602.8,-55.6 19.1,-45.8 33.4,-95.5 29.5,-142.3 -3.2,-38.1 -12.7,-119.5 -73.3,-128.5 -27,-4 -54,-7.9 -81,-11.8 34.7,-44.9 63.1,-95 79.5,-141.9 31.4,-90 69.2,-266.1 -96.8,-277 -716.1,-47 -1433.3,-82.7 -2151.1,-107 -714.3,-24.1 -1429.1,-37 -2144,-38.4 -407,-0.9 -814,2 -1220.9,8.4 -64.9,1 -139.7,55.2 -177.1,91.3 -65.5,63.4 -106.5,134.6 -142.7,211.4 -31.8,67.6 -47.7,149.2 -32.9,224.5 -3.5,11.7 -6.7,23.3 -9.4,34.6 -11.3,47.2 -23.2,94.2 -36.1,141 -2,7.3 -4.1,14.6 -6.2,21.8 -6.1,19.9 -12.1,39.8 -18.4,59.7 -30.5,95.5 -64.6,190.2 -102.3,284.1 -18.3,45.6 -37.5,91 -57.5,136.2 -7.8,17.8 -15.9,35.5 -24,53.1 1.3,-1.8 -0.5,2.8 -8.5,19.1 -3.6,7.2 -7.3,14.4 -10.9,21.7 -0.4,1.2 -0.9,2.4 -1.2,3.6 0.2,-0.8 0.5,-1.7 0.8,-2.8 -41.8,84 -86.4,167.1 -133.8,249.1 -35,60.8 -64.4,136.7 -65.1,205.8 -24.6,36.5 -44.7,75 -57.4,111.5 -24.2,69.3 -72,291.5 96.7,277 399.8,-34.6 800.2,-64.1 1201,-88.9 668.3,-8 1336.6,-15.9 2004.8,-23.8 822.5,-9.8 1644.9,-19.6 2467.3,-29.4 190.5,-2.2 381.1,-4.5 571.6,-6.8 128.4,3.3 256.8,6.9 385.2,10.7 270.4,8 540.8,17.3 811.1,27.5 62.2,2.4 142.9,-58.2 177,-91.3 53.6,-51.8 94,-109.7 124.1,-172.6 26.5,-55.2 51.5,-120 46.5,-180.1"
         style="fill:#8cff33;fill-opacity:1;fill-rule:nonzero;stroke:none"
         id="path22" />
      <path
         d="m 11501.6,13673.5 c 2.2,4.8 4.3,9.7 6.6,14.5 -2.5,-3.4 -15.9,-29.3 -19.8,-41.6 0.1,0.3 0.3,0.5 0.4,0.8 3,8.8 9,18.1 12.8,26.3"
         style="fill:#8cff33;fill-opacity:1;fill-rule:nonzero;stroke:none"
         id="path24" />
      <path
         d="m 10577.586,9816.0114 c 1072.4,-51.6 2144.9,-103.21 3217.4,-154.81 922.2,-44.38 1844.4,-88.75 2766.5,-133.12 -255.3,28.42 -510.9,55.51 -766.7,81.09 -272.8,27.26 -545.9,52.87 -819.2,76.94 -146.4,12.89 -255.5,155.07 -305,265.97 -432.5,43.29 -865.4,83.2596 -1298.8,119.8096 -334,28.15 -668.3,54.25 -1002.7,78.45 -69.2,5 -134.1,52 -177.1,91.3 -62.3,57.2 -117,138.1 -142.6,211.401 -24.9,71.1 -72,289.1 96.7,276.9 321.8,-23.2 643.4,-48.4 964.8,-75.4 -26.1,85.8 -54.9,265.9 102.3,260 694.9,-26.4 1389.4,-59.3 2083.4,-98.5 -47.4,52.6 -87,116.7 -107.7,175.9 -25.5,73.1 -71.9,286.7 96.8,276.9 884.2,-51.2 1764,-150 2631.9,-296.6 244.1,-41.2 487.1,-86.3 729.1,-134.9 164.9,-33.1 275.6,-176.4 319.7,-302.7 21.3,-60.8 45.4,-136.801 18.7,-198.601 -4.9,-11.4 -11.8,-24.2 -20.7,-36.2 66.9,-419.1196 133.7,-838.2296 200.6,-1257.3396 11.1,-69.55 10.6,-209.09 -118.4,-202.89 -1072.4,51.61 -2144.9,103.22 -3217.4,154.82 -1072.5,51.61 -2145,103.22 -3217.5,154.82 -603.7,29.05 -1207.4,58.1 -1811.1,87.15 -68,3.27 -135.7,53.43 -177.1,91.33 -62.4,57.15 -117.1,138.05 -142.7,211.35 -26,74.39 -71.8,285.05 96.8,276.93"
         style="fill:#8cff33;fill-opacity:1;fill-rule:nonzero;stroke:none"
         id="path26" />
      <path
         d="m 7100.57,2654.11 c 0.79,1.57 1.52,3.16 2.31,4.74 -0.98,-1.9 -2,-3.91 -3.07,-6.01 0.25,0.42 0.51,0.84 0.76,1.27"
         style="fill:#8cff33;fill-opacity:1;fill-rule:nonzero;stroke:none"
         id="path28" />
      <path
         d="m 6814.79,2378.85 c 2.78,1.67 5.62,3.24 8.39,4.92 2.1,1.28 4.18,2.63 6.27,3.97 1.56,1.08 3.13,2.15 4.7,3.22 -26.17,-14.6 -25.83,-15.43 -19.36,-12.11"
         style="fill:#8cff33;fill-opacity:1;fill-rule:nonzero;stroke:none"
         id="path30" />
      <path
         d="m 14507.934,2900.0559 c -84.23,168.41 -238.82,297.41 -401.63,386.7 -172.41,94.55 -364.17,152.64 -554.22,199.65 -222,54.92 -449.39,90.86 -677.12,111.05 -431.71,38.27 -870.67,22.19 -1300.45,-31.21 -386.27,-47.99 -784.11,-139.13 -1117.91,-347.18 -90.61,-56.48 -177.34,-116.76 -257.34,-187.59 -57.13,-50.57 -101.52,-111.76 -133.81,-181 -29,-62.17 -57.45,-148.41 -52.65,-218.83 1.69,-24.65 4.73,-56.81 15.92,-83.33 -57.9099,-86.9 -108.8699,-178.1 -150.7199,-271.78 -107.56,-240.76 -160.85,-515.91 -79.17,-772.96 62.7,-197.33 184,-357.88 342.4299,-488.09 325.13,-267.20001 779.81,-309.34001 1184.11,-328.86001 462.03,-22.31 926.28,1.57 1383.58,71.15 414.18,63.02 825.52,162.04 1180.23,393.22001 185.11,120.65 343.08,281.86 461.81,468.2 126.61,198.7 220.74,430.96 249.01,665.96 25.62,212.99 4.6,421.64 -92.07,614.9 z m -290.77,-855.52 c -0.05,-0.25 -0.1,-0.5 -0.15,-0.74 -4.85,-17.13 -9.78,-34.19 -15.21,-51.14 -6.38,-11.88 -10.28,-27.45 -15.64,-39.09 -4.22,-9.16 -8.75,-18.17 -13.22,-27.2 9.8,19.12 14.87,28.31 16.89,31.45 -0.08,-0.22 -0.16,-0.43 -0.23,-0.65 -0.9,-2.54 -1.62,-4.6 -2.19,-6.26 -2.06,-4.18 -4.76,-9.3 -7.44,-13.78 -3.1,-5.19 -6.21,-10.35 -9.34,-15.5 -1.26,-2.52 -2.41,-5.1 -3.69,-7.61 -2.86,-5.6 -5.89,-11.12 -8.7,-16.74 4.39,8.79 8.25,16.44 11.63,23.08 -12.47,-20.57 -25.22,-40.89 -38.9,-60.73 -5.54,-6.95 -11.09,-13.88 -16.81,-20.68 -17.89,-21.28 -42.14,-40.91 -59.01,-63.17 -11.84,-10.62 -23.85,-21.05 -36.07,-31.23 -26.59,-22.19 -54.06,-43.34 -82.23,-63.48 -10.77,-7.71 -21.73,-15.11 -32.64,-22.59 2.09,1.17 4.23,2.36 6.67,3.71 -3.86,-2.14 -7.62,-4.53 -11.37,-6.93 -0.82,-0.57 -1.65,-1.12 -2.47,-1.69 -3.75,-2.6 -8.79,-5.46 -12.19,-7.2 -26.88,-16.15 -54.17,-31.62 -81.91,-46.22 -129.57,-68.2 -267.25,-119.17 -407.61,-160.17 -282.75,-76.71 -575.68,-119.06 -866.75,-147.88 -328.39,-32.52 -659.1,-41.72 -988.8,-27.41 -163.27,7.09 -326.65,18.78 -488.11,44.69 -231.11,42.48 -459.31,120.02 -643.58,269.45 -90.09,81.43 -165.18,177.24 -219,286.24 -18.94,46.15 -33.97,93.66 -43.45,142.78 -0.27,1.33 -0.47,2.68 -0.72,4.01 0.63,10.87 -2.89,24.36 -3.35,34.55 -0.59,12.91 -0.79,25.85 -0.59,38.78 0.01,0.7 0.01,1.26 0.02,1.92 1.69,10.22 3.26,20.5 4.76,30.75 3.03,9.65 6.07,19.3 9.11,28.95 5.08,11.38 10.33,22.68 15.82,33.86 4.35,8.83 8.8,17.6 13.38,26.31 -7.71,-13.94 -15.42,-27.87 -23.14,-41.82 1.36,4.07 0.93,3.28 -1.32,-2.39 -0.49,-0.88 -0.98,-1.76 -1.47,-2.64 10.18,30.21 36.23,61.77 53.74,88.56 14.6,22.34 29.89,44.18 45.27,65.97 7.74,9.88 15.56,19.69 23.53,29.38 20.13,24.48 41.04,48.34 62.77,71.4 3.7,3.92 7.57,7.72 11.42,11.54 1.41,1.49 2.84,2.95 4.23,4.32 4.35,4.35 8.68,8.72 12.73,13.3 -2.68,-3.03 -5.09,-5.75 -7.35,-8.29 22.6,20.4 46.06,39.91 70.45,58.15 9.52,7.13 19.24,13.92 28.95,20.76 45.25,24.8 90.34,46.46 138.8,62.68 27.94,6.38 56.04,11.03 84.72,13.75 56.18,5.31 108.34,51.67 143.39,91.32 50.53,57.15 94.81,138.05 115.55,211.35 1.06,3.72 2.17,7.94 3.29,12.44 224.86,55.2 455.13,85.14 685.72,104.76 301.11,25.61 604.07,34.82 905.93,17.48 162.12,-9.32 323.63,-26.72 483.89,-52.85 186.57,-32.93 371.79,-77.32 550.9,-139.33 153.42,-53.11 302.68,-122.35 429.92,-224.27 71.62,-64.67 131.55,-139.6 175.05,-225.9 18.48,-45.54 32.63,-92.56 41.8,-140.99 0.56,-2.94 1.02,-5.91 1.51,-8.87 0.92,-9.72 2.46,-19.5 3.1,-29.13 1.89,-28.73 2.23,-57.54 1.23,-86.31 -1.41,-11.45 -2.59,-22.93 -4.27,-34.35 -2.1,-14.2 -4.53,-28.36 -7.25,-42.46"
         style="fill:#8cff33;fill-opacity:1;fill-rule:nonzero;stroke:none"
         id="path32" />
      <path
         d="m 3294.42,3168.79 c -0.6,-0.54 -1.21,-1.06 -1.81,-1.6 -1.13,-1.03 -2.34,-2.19 -3.57,-3.41 -1.43,-1.42 -2.8,-2.9 -4.23,-4.32 -13.08,-13.76 -24.85,-29.38 9.61,9.33"
         style="fill:#8cff33;fill-opacity:1;fill-rule:nonzero;stroke:none"
         id="path34" />
      <path
         d="m 21548.415,3795.6929 c -6.3,66.51 -21.8,132.93 -100.9,135.57 -632.9,21.1 -1266.2,26.82 -1899.3,16.74 -630.2,-10.03 -1260.2,-35.58 -1889.1,-76.61 -357.4,-23.31 -714.4,-51.7 -1071,-84.93 -56.2,-5.23 -108.4,-51.76 -143.4,-91.33 -47.7,-53.94 -89.8,-129.05 -111.8,-198.94 -68.4,-91.9 -104.1,-206.51 -111.8,-320.25 -32.1,-473.89 -60.2,-948.06 -84.2,-1422.43 -6,-120.02 -12.4,-240.04 -17.4,-360.11 -5,-121.54 19.8,-261.69 141.8,-318.33 84.4,-39.17 186.3,-30.37 276.2,-24.49 121,7.91 242,15.82 363,23.73 956.3,62.5 1912.6,125 2868.9,187.5 535.7,35.02 1071.5,70.03 1607.2,105.05 81.7,5.34 148.8,90.45 188.9,152.35 54.8,84.69 94.3,189.62 92.6,291.7 -10.7,662.74 -47.4,1324.9 -109.7,1984.78 z m -1970,-1978.55 c -662.5,-43.3 -1325,-86.6 -1987.5,-129.9 -184.3,-12.05 -368.7,-24.1 -553,-36.15 l -276.5,-18.07 c -65.7,-4.3 -132.3,-12.01 -198,-5.29 -19.7,5.1 -38.2,12.15 -55.4,22.49 -2.4,2.88 -4.7,5.8 -6.8,8.82 -0.1,9.71 -0.2,19.42 0.1,29.15 1.2,38.87 3.6,77.74 5.4,116.59 3.8,80.03 7.7,160.05 11.7,240.07 8.1,160.03 16.6,320.03 25.6,480.02 13.1,232.75 27.2,465.45 42.2,698.08 571.1,50.58 1143.3,88.67 1716.1,113.69 629.7,27.51 1260.1,39.53 1890.4,36.02 328.6,-1.83 657.1,-8.14 985.5,-18.36 42.3,-474.73 71.3,-950.58 87,-1426.92 -562.2,-36.75 -1124.5,-73.49 -1686.8,-110.24"
         style="fill:#8cff33;fill-opacity:1;fill-rule:nonzero;stroke:none"
         id="path36" />
      <path
         d="m 8792.848,4148.955 c -214.9035,42.6715 -430.1415,80.9374 -645.5212,115.3563 33.6391,16.6295 64.032,34.8617 84.7367,48.1211 69.8675,44.7669 132.683,95.6511 186.338,154.5611 37.7416,41.4392 86.7649,95.3719 95.694,151.321 1.6514,10.3339 3.0442,23.7382 2.2224,37.4008 8.6271,3.6544 17.1489,7.4483 25.5112,11.3283 87.7787,40.7013 174.8132,101.9042 238.2653,166.6166 32.4874,33.1326 229.855,258.6383 69.8228,285.2553 -958.4621,159.3924 -1919.6015,262.1327 -2874.5575,306.8734 -966.5603,45.2767 -1926.9824,34.5242 -2871.2075,-36.0304 -523.1923,-39.0955 -1041.2248,-96.6263 -1552.8433,-171.8372 -182.0865,-26.7683 -349.2027,-151.7459 -442.9291,-277.5888 -32.6841,-43.8708 -85.1829,-106.1385 -69.3615,-166.177 12.6319,-47.9646 65.9067,-62.3384 114.9147,-55.1324 775.5534,114.0147 1566.0125,186.7067 2366.1094,217.6913 -474.8082,-81.7246 -942.5887,-181.3449 -1402.2793,-296.8203 -87.4092,-21.9545 -177.117,-82.9401 -240.8063,-132.5436 -65.2312,-50.8033 -140.5543,-119.6715 -176.0188,-192.0463 -17.7501,-36.218 -52.5362,-98.2649 -8.1401,-139.0454 44.1777,-40.5737 123.6352,-14.3818 164.5278,-4.598 10.3538,2.4821 81.1831,19.9186 45.1631,10.69 -34.494,-8.8422 25.8711,5.3048 35.6699,7.3209 46.7286,9.6261 93.7575,18.5808 141.0442,26.8921 91.1824,16.0512 183.2926,29.7539 276.0648,41.5174 12.5027,1.5816 25.0424,3.0404 37.5597,4.5513 -29.6764,-26.8695 -56.7772,-55.3729 -78.7639,-84.8855 -49.3462,-66.2378 -139.6682,-232.0785 45.5623,-221.3132 304.7225,17.7084 610.3211,32.14 916.8063,42.4925 -26.4658,-12.9702 -51.5415,-27.2246 -74.7102,-41.4837 -79.9046,-49.1351 -162.5725,-115.4133 -215.971,-187.089 -48.6523,-65.3209 -139.9087,-233.4481 45.5624,-221.313 554.021,36.2495 1110.1679,64.3601 1668.0644,84.5484 22.5375,-0.7039 45.0728,-1.4394 67.6412,-2.3068 202.4417,-7.7935 405.526,-21.3903 608.9376,-40.21 74.9918,-6.9375 141.3289,16.8654 201.5374,44.773 15.6776,7.2769 31.2746,15.3953 46.7744,23.8874 505.8186,10.1889 1012.9589,13.8256 1521.2441,10.7658 192.9754,-1.1645 386.1165,-3.2806 579.3972,-6.359 199.533,-3.167 347.8545,-6.3403 558.3224,-11.8329 179.1195,-4.6801 336.6065,106.1548 439.7933,211.3934 35.0759,35.7754 229.4434,253.5624 69.8227,285.2551"
         style="fill:#8cff33;fill-opacity:1;fill-rule:nonzero;stroke:none"
         id="path38" />
      <path
         d="m 18980,7397.68 -113.4,34.89 c -41.4,12.74 -82.5,-24.28 -108.6,-50.18 -13.5,-13.48 -26.6,-28.6 -38.9,-44.71 -749.2,-172.9 -1531.5,-77.88 -2293.5,-51.79 -406.6,13.93 -828.2,19.24 -1227.7,-69.36 -190.2,-42.21 -381.7,-114.26 -538.6,-232.08 -89.9,-67.47 -167.5,-147.27 -244.6,-228.43 -31.1,-32.68 -63.3,-63.86 -95.4,-95.49 -1.3,-1.36 -2.5,-2.54 -3.6,-3.63 -0.3,-0.25 -0.6,-0.45 -0.9,-0.72 -7.9,-6.01 -15.5,-12.3 -23.4,-18.26 -23.4,-17.58 -47.8,-33.83 -72.8,-48.85 -18.4,-11.02 -37.3,-21.13 -56.3,-30.95 -4.7,-2.27 -13.8,-6.79 -17.2,-8.29 -15.7,-6.89 -31.5,-13.44 -47.4,-19.65 -50.4,-19.61 -102,-35.94 -154.2,-50.01 -106.4,-28.67 -215.1,-49.26 -324,-65.03 -220.5,-31.92 -443.9,-39.91 -666.3,-26.39 -421.1,31.42 -833.9,142.07 -1212.5,329.71 -36.7,18.18 -88.2,-29.92 -108.6,-50.19 -50.4,-50.04 -93.6,-122.35 -122.2,-186.4 -29.8,-66.61 -60,-139.88 -64.2,-213.44 -2.1,-35.9 -8.2,-95.85 31.3,-115.44 442.9,-219.49 931.2,-331.8 1424.9,-340.14 243.3,-4.1 487.3,18.83 725.2,69.95 115.2,24.77 229,57.12 336.4,106.25 129.8,59.39 239.9,137.2 341.8,237.38 42.9,42.12 83.2,86.69 125,129.81 20.9,21.55 42.1,42.81 64.1,63.19 5.1,4.75 13.2,10.46 18.7,15.98 6.1,4.8 12.2,9.56 18.4,14.2 44.8,33.62 92.6,63.2 142.3,89.05 2.3,1.21 21.4,10.4 24.8,12.16 6.9,3.1 13.8,6.23 20.7,9.2 28.1,11.97 56.6,22.94 85.5,32.99 222.9,77.7 461.8,103.36 696.2,118.06 515.1,32.33 1030.6,-12.1 1545.1,-33.77 570.8,-24.03 1151,-18.99 1701.2,152.75 107.9,33.66 177.1,183.45 215.6,277.16 22.3,54.45 45,115.75 48.4,175.03 1.8,31.16 9.1,103.01 -31.3,115.44"
         style="fill:#8cff33;fill-opacity:1;fill-rule:nonzero;stroke:none"
         id="path40" />
      <path
         d="m 19135.1,6650.51 c -927.8,-136.96 -1866,-201.99 -2803.9,-193.07 -225.8,2.15 -452.7,15.64 -678.2,-1.16 -223.4,-16.65 -427.4,-76.48 -628.1,-174.5 -178.5,-87.16 -343.3,-198.8 -513.6,-300.41 -39.5,-23.6 -79.4,-46.7 -119.8,-68.82 -21.2,-11.62 -42.5,-22.99 -64,-34.01 -12.9,-6.61 -25.9,-13.06 -38.9,-19.47 -2.8,-1.35 -5,-2.47 -6.9,-3.4 -2.2,-0.94 -5,-2.16 -8.6,-3.78 -99,-43.69 -200.7,-79.51 -305.1,-107.93 -230.7,-62.79 -470.2,-98.28 -708,-120.51 -231.4,-21.63 -464.2,-26.22 -696.1,-11.22 -394.5,30.17 -783.5,120.48 -1142,290.19 -37.2,17.62 -87.6,-29.3 -108.6,-50.18 -50.4,-50.04 -93.6,-122.35 -122.2,-186.4 -29.8,-66.61 -60,-139.88 -64.3,-213.44 -2,-35.36 -8.3,-96.65 31.4,-115.44 456.5,-216.06 961.1,-302.18 1463.6,-303.55 250.4,-0.68 500.6,20.57 747.9,59.22 264.6,41.34 522.3,103.35 764.9,219.08 214.8,102.46 409.6,239.75 615.9,357.28 46.1,26.24 92.9,50.73 140.1,74.79 3.3,1.68 5.9,2.99 7.9,4.04 1.9,0.86 4.3,1.89 7.2,3.19 13.2,5.85 26.2,11.81 39.5,17.47 30.9,13.2 62.1,25.52 93.8,36.69 120,42.35 245.3,66.12 371.8,77.94 269.6,25.19 542.5,5.03 812.8,3.88 279.3,-1.19 558.7,4.14 837.8,15.97 626.6,26.56 1251.6,86.17 1872.1,177.75 45.6,6.74 96,70.88 119.7,102.36 46.6,61.77 87.2,139.93 111.6,213.2 15.8,47.61 84.4,271.08 -29.7,254.24"
         style="fill:#8cff33;fill-opacity:1;fill-rule:nonzero;stroke:none"
         id="path42" />
      <path
         d="m 28661.8,17620 c -344.2,181.4 -763,280.8 -1176.6,366.1 -435.5,89.8 -880.8,158.2 -1331,205 -903.6,94 -1828.2,104.8 -2735.6,28.2 -510.7,-43.1 -1015.6,-114 -1509.2,-211.8 -73.5,-14.5 -135,-63.7 -178.3,-102.4 -69.4,-61.7 -129.9,-139.9 -166.2,-213.2 -22,-44.4 -90.6,-187 -26.9,-236.9 -75.2,-5.7 -149.2,-15 -220.2,-31.2 -382.3,-87.1 -594.1,-372.4 -647.3,-625.4 -10.1,-47.9 -3.9,-123 92.9,-117.6 356.2,20.2 713.5,28.5 1070.7,25.2 -32.9,-40.4 -61,-83 -81.4,-124.1 -27.2,-55.1 -126.4,-261.2 44.2,-254.3 496,20.3 993.3,19.1 1489.1,-3.1 1181.6,-57.6 2349.2,-234.3 3451.8,-525.6 314.3,-83.1 622.9,-175.6 925.3,-276.7 54.5,-18.3 131.4,30 161.7,50.2 75.1,50 139.3,122.3 182,186.4 44.4,66.6 89.3,139.8 95.7,213.4 3.3,39.2 10.2,90.9 -46.7,115.4 -547.5,236.6 -1126,440 -1726.6,608 299,-48.1 594.7,-105.8 885.7,-174.5 60,-14.2 125,25.7 161.8,50.2 75,50 139.3,122.3 182,186.4 44.3,66.6 89.3,139.8 95.6,213.4 3,34.3 12.8,98.2 -46.7,115.5 -716.5,207.5 -1446.1,408.7 -2192.5,570.6 306.8,-24.3 611.9,-58.3 913.9,-102.5 440.6,-64.3 882.6,-145.4 1300.8,-259.5 227.4,-62 445.7,-138.6 639.3,-240.6 45.6,-24 141.2,36.5 161.7,50.2 75.1,50 139.3,122.3 182,186.4 44.4,66.6 89.4,139.8 95.7,213.4 3.6,42 7.8,86.7 -46.7,115.4"
         style="fill:#8cff33;fill-opacity:1;fill-rule:nonzero;stroke:none"
         id="path44" />
      <path
         d="m 28665.1,13802.2 c -23.8,35.9 -64.3,26.9 -98.7,7 -63.9,-36.9 -129.6,-70.9 -197.5,-101.4 -7.2,-3.3 -14.5,-6.4 -21.7,-9.6 -0.9,-0.4 -1.9,-0.7 -3.2,-1.2 -14.9,-5.7 -29.5,-12 -44.3,-17.8 -37.1,-14.5 -74.6,-28.1 -112.4,-40.9 -142.2,-48.1 -289,-84.7 -437.3,-113.6 -300.8,-58.6 -607.7,-86.2 -913.6,-112.4 -665.5,-57.1 -1333.6,-93.9 -2002.2,-96.1 -371.4,-1.2 -742.9,8.6 -1113.5,31.4 -718.8,46.6 -1434.4,143.7 -2131.4,311.3 -100.9,24.3 -201.4,50 -301.4,77.2 -37,10 -76.8,19 -114.9,31.1 10.6,44.9 30.6,114.3 0.9,154.8 -42.9,58.7 -105.1,54.1 -167.2,22.2 -129.8,-66.5 -215.7,-222.3 -263,-341.8 -34.5,-87 -73.3,-205 -21,-293.8 29.3,-49.8 87.2,-81.6 143.5,-100.7 123.2,-41.7 253.5,-70.7 380.4,-101.9 138,-33.9 276.8,-65 416.2,-93.6 552,-113 1113.6,-184.7 1677.6,-224.3 1135.3,-79.8 2275.6,-35.6 3407.4,66.1 581,52.2 1175.6,129.6 1677.6,420.2 56.5,32.7 104.1,97.4 137.1,147.8 43.2,66 83.5,146.8 101,222.5 10.8,46.3 30.5,114 1.6,157.5"
         style="fill:#8cff33;fill-opacity:1;fill-rule:nonzero;stroke:none"
         id="path46" />
      <path
         d="m 28718.1,10238 c -70.2,-35.9 -141.2,-70.4 -213.3,-103 -20.7,-9.4 -41.4,-18.5 -62.1,-27.6 -5.6,-2.5 -8.9,-4 -11.1,-4.9 -1.7,-0.7 -4.9,-2 -10.6,-4.4 -36.7,-15.1 -73.4,-30.2 -110.4,-44.7 -150.6,-58.95 -304.7,-110.67 -461.3,-154.87 -263.7,-74.39 -544.7,-144.56 -823.5,-132.38 -147.9,12.1 -292.3,52.45 -402.1,146.15 -77.5,80.88 -117,185.2 -198.1,263.7 -51.9,50.1 -108.7,85 -185.1,94.3 -72.5,8.9 -143.3,2.4 -212.4,-19.2 -145.1,-45.4 -259.1,-128.3 -379.4,-211 -27.2,-18.7 -54.8,-36.9 -83.2,-54 -17.3,-10.35 -34.8,-20.31 -52.8,-29.59 -4.7,-2.44 -24.5,-11.65 -26.6,-13.02 -53.7,-21.01 -110.4,-32.36 -168.8,-31.96 -97.8,12.67 -177.4,59.49 -247.2,121.57 -175.7,172.3 -306.6,407.4 -589.6,439.6 -366.4,41.7 -674.3,-163.1 -983.7,-307.5 -7.6,-3.5 -39.2,-17.7 -40.5,-18.5 -19.8,-8.3 -39.9,-16.2 -60.1,-23.6 -43.3,-16 -87.5,-30.2 -132.5,-41.8 -89.4,-23.1 -181.4,-35.4 -274.4,-32.7 -141.4,13.9 -262,70.2 -363.2,160.4 -185.3,182.7 -286.5,428.6 -504.9,585.1 -304.4,218.2 -729.8,48.1 -991.2,-149.4 -218.4,-165 -383.2,-371.4 -506.8,-603 -33.8,-63.2 -64.3,-142.52 -70.9,-213.4 -2.7,-29.8 -6.6,-98 34.6,-115.43 42.1,-17.78 95.8,27.34 119.8,50.18 57,54.17 99.1,119.4 134.8,186.4 0.1,0.14 0.2,0.28 0.3,0.42 6.4,10.09 13,20.05 19.8,29.95 4.2,5.34 8.3,10.71 12.6,16 7.5,9.18 15,18.78 22.9,28.18 2,1.9 5.1,4.9 9.8,9.6 6.5,6.6 13.2,13.2 19.9,19.6 16.9,16.2 34.3,31.9 52.1,47.2 6.6,5.6 13.3,11.1 20,16.6 12.5,8.8 49.2,35.2 53.8,38.3 35.5,23.7 72.5,45.8 110.6,66 21.2,11.2 42.9,21.5 64.6,31.9 1.9,0.9 3.5,1.6 4.8,2.3 10.3,4.2 20.5,8.3 30.9,12.3 97.6,37.1 200.8,60.3 306.8,58.5 124.7,-13 229.8,-66.5 318.7,-145.5 194.3,-192.02 297.7,-456.1 539.5,-609.08 158.5,-100.28 364.6,-111.54 549,-74.81 214.7,42.79 406.5,146.42 596.9,241.78 48.4,24.23 97.1,47.72 146.5,70.27 3.1,1.41 5.5,2.54 7.6,3.51 13.7,5.76 27.4,11.37 41.3,16.76 27.6,10.8 55.7,20.88 84.1,30.01 102.5,33.02 209.2,52.5 318,49.46 131.2,-12.96 238.2,-64.65 331.2,-147.75 129.4,-128.38 231.3,-302.27 406.8,-382.8 255.7,-117.36 503.2,60.96 696.5,196.79 28.2,19.84 57.1,38.73 87.4,55.96 15.4,8.78 31,17.18 47,25.07 6.8,3.38 13.9,6.4 20.7,9.85 0,0.02 0,0.03 0.1,0.04 0.4,0.14 0.7,0.23 1.2,0.39 62.7,20.23 121.3,37.72 187.4,38.04 58,-7.56 108.2,-28.86 152,-64.5 50.1,-53.3 82.8,-117.03 123.6,-176.32 43.7,-63.47 101.9,-121.26 170.1,-163.74 131.6,-82 295.5,-102.8 451.8,-104.83 171,-2.22 339.1,27.96 504.5,64.67 195.7,43.44 388.3,98.52 576.1,164.66 223.1,78.58 440.3,172.28 648.7,278.92 55.5,28.39 106.5,101.01 137.1,147.76 43.3,66.04 83.5,146.88 101.1,222.49 16.7,72 33.5,231.4 -97.2,164.6"
         style="fill:#8cff33;fill-opacity:1;fill-rule:nonzero;stroke:none"
         id="path48" />
      <path
         d="m 29090.5,7437.25 c -8.3,40.61 -20,62.61 -69.5,64.05 -1054.2,30.63 -2108.8,52.11 -3163.5,64.27 -1054.7,12.17 -2109.5,15.08 -3164.3,8.73 -292.3,-1.76 -584.6,-4.23 -876.8,-7.41 -146.2,-1.59 -292.3,-3.36 -438.4,-5.3 -128.7,-1.72 -259.9,-10.04 -389,-6.05 0.8,25.8 -3,50.8 -15.7,70.28 -23.6,36 -67.4,43.2 -110.4,35.39 -99.1,-17.96 -165.4,-113.62 -214,-185.09 -59.3,-87.32 -107.2,-194.21 -116.7,-297.13 -4,-43.8 -2.4,-94.79 28.4,-131.35 75.7,-90.09 238.6,-60.92 347.1,-59.32 152.5,2.24 305,4.29 457.5,6.14 603.6,7.33 1207.2,11.63 1810.9,12.91 1200.9,2.52 2401.8,-6.94 3602.5,-28.42 673.4,-12.04 1346.8,-27.89 2020,-47.45 44.7,-1.29 112.6,78.97 132,102.36 51.4,61.77 96.2,139.93 123.1,213.21 21.2,57.83 49.3,128.77 36.8,190.18"
         style="fill:#8cff33;fill-opacity:1;fill-rule:nonzero;stroke:none"
         id="path50" />
      <path
         d="m 27586.5,6754.58 c -914.3,71.8 -1831.5,112.97 -2749.2,121.63 -909.4,8.59 -1819.1,-14.35 -2726.5,-68.74 -511.9,-30.68 -1022.9,-71.48 -1532.8,-122.05 -49.2,-4.88 -107.4,-72.69 -132.1,-102.36 -51.4,-61.77 -96.2,-139.93 -123.1,-213.2 -18.6,-50.85 -93.5,-266.75 32.7,-254.24 825.9,81.9 1654.8,137.94 2484.9,167.54 830.2,29.61 1661.4,32.91 2491.8,9.97 460.4,-12.73 920.4,-33.68 1379.9,-62.47 194.7,-12.45 389.2,-26.28 583.6,-41.54 52.2,-4.1 82,16.19 119.7,50.18 55.7,50.04 103.3,122.36 134.9,186.41 32.8,66.61 66.1,139.87 70.8,213.43 1.6,25.29 9.4,111.99 -34.6,115.44"
         style="fill:#8cff33;fill-opacity:1;fill-rule:nonzero;stroke:none"
         id="path52" />
      <path
         d="m 27612.5,4216.11 c -728.4,183.05 -1466.6,326.72 -2210.6,429.51 -751.3,103.79 -1508.6,166.44 -2266.8,188.07 -393,11.21 -813.2,49.1 -1172.3,-141.23 -49.8,-26.37 -97.6,-102.76 -124.3,-147.76 -39.2,-66.04 -75.7,-146.88 -91.6,-222.52 -9.8,-46.29 -27.6,-113.99 -1.5,-157.5 22.5,-37.43 57.1,-24.25 89.6,-7.06 3.8,2.08 7.7,4.01 11.6,6.03 -17.1,-30.85 -32.2,-62.75 -45.7,-95.57 -22.4,-54.45 -45.1,-115.75 -48.5,-175.03 -1.5,-25.29 -8.4,-111.99 31.4,-115.44 175.1,-15.17 350.3,-30.35 525.5,-45.84 -38.4,-6.11 -76.7,-12.59 -114.9,-19.54 -46.6,-8.46 -94.7,-69.24 -119.7,-102.35 -46.6,-61.77 -87.2,-139.93 -111.6,-213.22 -19.2,-57.82 -44.6,-128.77 -33.3,-190.17 7.6,-40.85 18.1,-62.23 63,-64.06 272.2,-11.07 544.3,-25.98 816.1,-44.45 -27.4,-43.25 -50.5,-88.95 -70,-136.52 -22.3,-54.46 -45,-115.75 -48.5,-175.03 -1.4,-25.48 -8.5,-111.71 31.4,-115.44 33.7,-3.16 67.4,-6.33 101.1,-9.49 -6.8,-8.38 -12.1,-15.48 -15.4,-20 -39.2,-54.25 -70.4,-112.96 -95.8,-174.81 -22.3,-54.45 -45,-115.75 -48.5,-175.03 -1.5,-26.72 -8.7,-109.8 31.4,-115.44 88.8,-12.49 177.7,-24.99 266.5,-37.47 -4.7,-10.6 -9.4,-21.26 -13.8,-32.05 -22.4,-54.45 -45.1,-115.75 -48.5,-175.03 -1.5,-25.16 -8.4,-112.2 31.3,-115.44 2.8,-0.23 5.6,-0.46 8.5,-0.69 -13.1,-27.57 -24.5,-55.56 -33.5,-82.88 -20,-60.05 -84.7,-254.79 29.6,-254.23 84.4,0.42 168.8,-2.11 253,-7.38 82.6,-6.26 164.9,-15.33 246.7,-27.22 -29.4,-65.77 -58.7,-137.87 -62.9,-210.28 -1.5,-25.98 -8.6,-110.94 31.4,-115.44 254.9,-28.7 494.4,70.41 668.4,258.13 77.6,83.79 132.1,190.57 164.5,299.31 4,13.36 7.6,26.69 10.7,40.08 56.6,24.05 101.8,78.72 137.1,138.17 172.4,4.81 344.8,9.63 517.2,14.44 41.7,1.17 100.9,76.37 119.7,102.36 39.2,54.24 70.4,112.95 95.8,174.8 2.8,6.79 5.6,13.69 8.3,20.67 160.9,9.63 321.7,21.29 482.3,34.91 43.2,3.67 99.1,73.82 119.7,102.35 39.2,54.25 70.4,112.96 95.8,174.81 21.2,51.68 42.5,109.51 47.6,165.95 159.3,-1.26 318.6,-2.53 477.9,-3.79 40.7,-0.32 102,77.92 119.7,102.36 39.2,54.24 70.4,112.95 95.8,174.8 9.3,22.6 18.5,46.41 26.5,70.74 157,-0.21 313.9,3.95 470.5,13.59 42.7,2.62 99.9,74.88 119.7,102.35 39.3,54.24 70.5,112.96 95.9,174.81 22.3,54.45 45,115.75 48.4,175.03 1.8,30.23 9.1,104.43 -31.3,115.44 -183.8,50.07 -368.4,96.5 -553.8,139.86 203.2,-19.18 406.4,-38.85 609.6,-58.64 47,-4.57 74.7,16.63 108.6,50.19 50.4,50.04 93.5,122.35 122.2,186.4 29.8,66.62 60,139.88 64.2,213.44 1.7,29.67 9.1,105.29 -31.4,115.44"
         style="fill:#8cff33;fill-opacity:1;fill-rule:nonzero;stroke:none"
         id="path54" />
      <path
         d="m 1073.0585,1499.4298 c 213.2834,50.1455 427.0549,95.8997 641.1022,137.8143 -34.199,15.4455 -65.2097,32.6058 -86.3644,45.1346 -71.3873,42.3013 -135.9404,90.9623 -191.6186,147.9637 -39.1649,40.0969 -90.0405,92.2859 -100.9169,147.8893 -2.0109,10.27 -3.8708,23.6175 -3.5263,37.3004 -8.7494,3.3511 -17.3984,6.8453 -25.891,10.431 -89.1456,37.6132 -178.2631,95.7412 -243.935,158.1999 -33.6239,31.9786 -238.74119,250.4588 -79.73548,282.6447 952.31558,192.7451 1909.28378,328.9662 2862.09668,407.007 964.3914,78.9817 1924.6036,101.754 2870.7158,64.1953 524.238,-20.8125 1043.9628,-60.2292 1557.8944,-117.539 182.9098,-20.3973 354.2859,-139.4665 452.347,-261.9617 34.1953,-42.7035 88.8352,-103.101 75.1188,-163.6551 -10.9503,-48.3763 -63.691,-64.6007 -112.9206,-59.1093 -779.06,86.8788 -1571.5746,131.9399 -2372.2653,134.9827 477.3711,-65.1044 948.3432,-148.3386 1411.7839,-247.7007 88.1221,-18.8907 179.9036,-76.7083 245.2853,-124.0588 66.9644,-48.4959 144.6452,-114.6933 182.6138,-185.7865 19.0033,-35.5764 55.9336,-96.3714 12.9878,-138.6765 -42.7347,-42.0907 -123.058,-18.6879 -164.2671,-10.3371 -10.4341,2.1191 -81.8288,17.0732 -45.5086,9.1073 34.7816,-7.633 -26.0404,4.3987 -35.9037,6.0716 -47.0361,7.9894 -94.3488,15.2974 -141.8967,21.9533 -91.6871,12.8592 -184.2195,23.3389 -277.3456,31.8576 -12.5503,1.1443 -25.1334,2.1646 -37.6957,3.2377 30.5961,-25.8174 58.675,-53.3576 81.6783,-82.0849 51.6278,-64.4753 147.6826,-227.0629 -37.8107,-222.7686 -305.155,7.063 -611.0711,10.8206 -917.7309,10.4706 26.9025,-12.0386 52.4603,-25.4093 76.1126,-38.8512 81.5706,-46.3165 166.5013,-109.6692 222.3687,-179.4377 50.9023,-63.5831 147.9706,-228.4231 -37.811,-222.7682 -554.9486,16.8923 -1111.7377,25.5766 -1669.9989,26.2823 -22.4993,-1.4901 -44.9951,-3.0116 -67.5195,-4.6663 -202.0463,-14.8538 -404.5324,-35.5299 -607.1634,-61.4371 -74.7039,-9.5504 -141.8313,11.9228 -202.9772,37.7122 -15.922,6.7253 -31.7927,14.2944 -47.5794,22.2404 -505.8662,-7.4701 -1012.8244,-21.5345 -1520.6933,-42.3314 -192.8172,-7.8985 -385.7668,-16.7539 -578.8223,-26.5758 -199.3008,-10.1286 -347.4212,-18.4764 -557.5692,-31.3108 -178.8471,-10.9285 -340.1062,94.3427 -446.903,195.916 -36.3031,34.5295 -238.15278,245.4005 -79.7354,282.6446"
         style="fill:#8cff33;fill-opacity:1;fill-rule:nonzero;stroke:none"
         id="path3" />
    </g>
  </g>
</svg>
